<?xml version="1.0" encoding="utf-8"?>
<!-- Generator: Adobe Illustrator 16.0.0, SVG Export Plug-In . SVG Version: 6.00 Build 0)  -->
<!DOCTYPE svg PUBLIC "-//W3C//DTD SVG 1.1//EN" "http://www.w3.org/Graphics/SVG/1.1/DTD/svg11.dtd">
<svg version="1.1" id="Layer_1" xmlns="http://www.w3.org/2000/svg" xmlns:xlink="http://www.w3.org/1999/xlink" x="0px" y="0px"
	 width="150px" height="150px" viewBox="0 0 150 150" enable-background="new 0 0 150 150" xml:space="preserve">
<path fill="#E3C600" d="M87.276,50.297h-0.614v-0.799l0.01-0.122l-0.01-0.123v-0.185v-1.227V46c0-0.679-0.55-1.228-1.228-1.228
	H84.82h-0.085h-0.908l-0.157-0.019c-0.354-0.084-0.62-0.449-0.62-0.902c0-0.454,0.266-0.818,0.62-0.903l0.157-0.018h1.029h0.002
	h0.002h0.001h1.033h0.001l0,0h0.002c0.32,0,0.598-0.226,0.715-0.558c0.039-0.111,0.06-0.233,0.06-0.362
	c0-0.13,0.006-0.253-0.033-0.364l0.023-0.005v-0.001L86.6,41.572l-0.093-0.155l-0.075-0.073l-0.1-0.102l-0.08-0.044l-0.126-0.068
	c-0.053-0.02-0.109-0.024-0.167-0.03l-0.062-0.01h-0.002l0,0h-0.001h-1.033H84.86h-0.002h-0.002h-1.029l-0.007-0.001l-0.152-0.025
	c-0.174-0.041-0.326-0.152-0.438-0.307l-0.013-0.018c-0.048-0.07-0.086-0.151-0.115-0.237l-0.019-0.07
	c-0.016-0.064-0.024-0.134-0.03-0.204l-0.004-0.059l0.008-0.107l0.021-0.13c0.015-0.074,0.039-0.142,0.069-0.207l0.043-0.088
	l0.078-0.11l0.113-0.114l0.1-0.066l0.126-0.058c0.07-0.023,0.143-0.04,0.22-0.04h0.904h0.125h0.005h0.907h0.126h0.003
	c0.428,0,0.774-0.402,0.774-0.921s-0.347-0.921-0.774-0.921h-0.003h-0.126h-0.907h-0.005h-0.125h-0.779
	c-0.429,0-0.775-0.402-0.775-0.921s0.347-0.921,0.775-0.921h0.783h0.123h0.002h0.91h0.125l0,0l0.056-0.006
	c0.402-0.033,0.721-0.418,0.721-0.914c0-0.497-0.318-0.882-0.721-0.915l-0.056-0.006l0,0h-0.125h-0.91h-0.002h-0.123h-0.908
	l-0.157-0.019c-0.086-0.021-0.166-0.059-0.239-0.109l-0.01-0.007c-0.223-0.159-0.371-0.447-0.371-0.786s0.148-0.627,0.371-0.786
	l0.01-0.006c0.073-0.052,0.153-0.091,0.239-0.111l0.157-0.018h1.029h0.002h0.002h0.001h1.033h0.001l0,0h0.002
	c0.32,0,0.598-0.226,0.715-0.558c0.039-0.11,0.06-0.233,0.06-0.363c0-0.129-0.021-0.252-0.06-0.363
	c-0.117-0.331-0.395-0.557-0.715-0.557h-0.002l0,0h-0.001h-1.033H84.86h-0.002h-0.002h-1.029h-0.003l-0.156-0.018
	c-0.354-0.084-0.624-0.448-0.624-0.902c0-0.453,0.27-0.817,0.624-0.901l0.156-0.021h0.384h1.227c0.678,0,1.228-0.55,1.228-1.228
	v-1.831v-1.225v-0.185l0.009-0.123l-0.009-0.122v-0.198v-1.212c0-1.016-0.825-1.856-1.846-1.856h-2.45v-2.455
	c0-0.34-0.274-0.614-0.614-0.614s-0.614,0.274-0.614,0.614v2.455H65.181c-0.654,0-1.224,0.353-1.55,0.866
	c-0.132,0.146-0.221,0.35-0.241,0.578c-0.031,0.131-0.052,0.271-0.052,0.412v1.84v1.214v0.011v1.831v1.841
	c0,0.678,0.549,1.229,1.227,1.229h1.66c0.065,0,0.128,0.012,0.188,0.029c0.079,0.023,0.152,0.061,0.22,0.108l0.015,0.01
	c0.063,0.046,0.116,0.106,0.163,0.171l0.036,0.051c0.04,0.063,0.074,0.134,0.1,0.209l0.021,0.082
	c0.016,0.066,0.026,0.135,0.029,0.206l0.004,0.054c0,0.52-0.348,0.921-0.776,0.921h-1.031H65.19h-0.001h-0.011h-1.02h-0.005h-0.001
	l-0.007,0.002c-0.079,0.001-0.155,0.02-0.227,0.046l-0.049,0.019c-0.065,0.03-0.124,0.07-0.179,0.119l-0.057,0.055
	c-0.048,0.052-0.09,0.107-0.126,0.172l-0.039,0.086c-0.023,0.053-0.041,0.109-0.056,0.169l-0.021,0.065
	c-0.011,0.061-0.016,0.124-0.016,0.188c0,0.065,0.005,0.129,0.016,0.188l0.021,0.066c0.015,0.059,0.032,0.115,0.056,0.168
	l0.039,0.087c0.036,0.063,0.078,0.12,0.126,0.171l0.057,0.055c0.055,0.049,0.113,0.09,0.179,0.119l0.049,0.019
	c0.071,0.026,0.147,0.045,0.227,0.047l0.007,0.001h0.001h0.005h1.03h0.001h0.003h0.904c0.429,0,0.777,0.402,0.777,0.921
	c0,0.518-0.349,0.92-0.777,0.92h-0.778h-0.003h-0.123H65.19h-0.905H64.28h-0.121h-0.005c-0.429,0-0.776,0.402-0.776,0.921
	c0,0.52,0.348,0.921,0.776,0.921h0.005h0.121h0.005h0.905h0.003h0.123h0.003h0.781c0.431,0,0.777,0.402,0.777,0.921
	c0,0.518-0.347,0.921-0.777,0.921h-0.907h-0.001H65.19h-1.031h-0.001h-0.004c-0.085,0-0.166,0.02-0.242,0.049l-0.031,0.012
	c-0.072,0.031-0.139,0.076-0.199,0.131l-0.03,0.029c-0.06,0.06-0.111,0.129-0.153,0.207l-0.007,0.016
	c-0.07,0.138-0.113,0.3-0.113,0.478c0,0.405,0.213,0.735,0.51,0.862l0.012,0.004c0.081,0.032,0.166,0.055,0.255,0.055h0.004h0.001
	h1.031h0.002h0.001h1.031c0.429,0,0.776,0.401,0.776,0.921c0,0.518-0.348,0.92-0.776,0.92h-0.603h-1.058
	c-0.678,0-1.227,0.55-1.227,1.228v2.455v1.229v1.227v1.229h-0.614c-1.695,0-3.069,1.374-3.069,3.068v3.684v0.613v3.684v0.613v3.683
	c0,1.696,1.374,3.07,3.069,3.07h0.614V79.76h3.682v2.455h-1.841v9.822h4.297v2.453h-1.842v23.939h4.911v11.664h-0.017l2.463,2.756
	l2.448-2.756h0.016V118.43h4.911V94.49h-1.842v-2.453h4.296v-9.822h-1.841V79.76h3.683V68.712h0.614c1.695,0,3.069-1.374,3.069-3.07
	v-3.683v-0.613v-3.684v-0.613v-3.684C90.346,51.671,88.972,50.297,87.276,50.297z"/>
</svg>
