<?xml version="1.0" encoding="utf-8"?>
<!-- Generator: Adobe Illustrator 16.0.0, SVG Export Plug-In . SVG Version: 6.00 Build 0)  -->
<!DOCTYPE svg PUBLIC "-//W3C//DTD SVG 1.1//EN" "http://www.w3.org/Graphics/SVG/1.1/DTD/svg11.dtd">
<svg version="1.1" id="Layer_1" xmlns="http://www.w3.org/2000/svg" xmlns:xlink="http://www.w3.org/1999/xlink" x="0px" y="0px"
	 width="150px" height="150px" viewBox="0 0 150 150" enable-background="new 0 0 150 150" xml:space="preserve">
<path fill-rule="evenodd" clip-rule="evenodd" fill="#E3C600" d="M117.691,103.326c-4.225,4.218-8.379,8.368-12.537,12.516
	c-0.086,0.086-0.201,0.144-0.334,0.235c-2.799-2.054-5.596-4.082-8.361-6.156c-0.543-0.408-0.926-0.429-1.508-0.071
	c-2.195,1.351-4.508,2.475-7.035,3.048c-0.652,0.148-0.785,0.5-0.871,1.027c-0.514,3.13-1.047,6.256-1.545,9.388
	c-0.076,0.479-0.189,0.728-0.746,0.726c-5.777-0.02-11.557-0.015-17.335-0.02c-0.09,0-0.18-0.042-0.351-0.085
	c-0.527-3.162-1.1-6.338-1.563-9.529c-0.14-0.959-0.501-1.474-1.417-1.832c-2.241-0.877-4.442-1.86-6.641-2.842
	c-0.524-0.233-0.901-0.225-1.39,0.106c-2.781,1.889-5.589,3.739-8.29,5.537c-4.285-4.289-8.537-8.545-12.86-12.871
	c1.744-2.613,3.573-5.392,5.448-8.139c0.389-0.57,0.445-0.979,0.064-1.599c-1.365-2.223-2.46-4.573-3.104-7.122
	c-0.073-0.288-0.479-0.645-0.779-0.698c-3.399-0.607-6.807-1.163-10.252-1.739c0-5.894,0-11.756,0-17.679
	c2.67-0.318,5.309-0.662,7.953-0.939c2.351-0.246,2.315-0.229,3.205-2.455c0.788-1.968,1.699-3.886,2.492-5.852
	c0.13-0.322,0.053-0.859-0.142-1.159c-1.829-2.818-3.704-5.607-5.51-8.32c4.285-4.269,8.526-8.495,12.869-12.82
	c0.091,0.064,0.369,0.254,0.642,0.453c2.586,1.894,5.161,3.801,7.769,5.665c0.254,0.181,0.791,0.246,1.045,0.101
	c2.405-1.372,4.852-2.621,7.577-3.25c0.228-0.053,0.49-0.443,0.537-0.712c0.602-3.403,1.165-6.813,1.748-10.276
	c5.872,0,11.732,0,17.682,0c0.316,2.827,0.746,5.649,0.91,8.486c0.098,1.71,0.553,2.636,2.379,3.13
	c1.99,0.539,3.844,1.612,5.709,2.549c0.611,0.307,0.977,0.277,1.502-0.117c2.486-1.867,5.004-3.693,7.512-5.532
	c0.277-0.204,0.564-0.395,0.783-0.546c4.277,4.282,8.51,8.519,12.809,12.82c-1.531,2.09-3.123,4.259-4.709,6.434
	c-0.617,0.845-1.621,1.663-1.707,2.565c-0.088,0.896,0.781,1.872,1.188,2.831c0.727,1.72,1.404,3.462,2.15,5.173
	c0.119,0.271,0.471,0.57,0.756,0.621c3.402,0.605,6.813,1.166,10.281,1.748c0,5.872,0,11.73,0,17.698
	c-1.848,0.373-3.732,0.754-5.617,1.135c-0.902,0.183-1.797,0.402-2.705,0.533c-0.549,0.079-0.764,0.33-0.971,0.843
	c-0.975,2.402-1.994,4.788-3.074,7.146c-0.246,0.536-0.275,0.856,0.082,1.335C113.518,97.608,115.568,100.431,117.691,103.326z
	 M56.721,74.698c0.016,10.341,7.951,18.264,18.292,18.263c10.333-0.001,18.276-7.939,18.284-18.274
	c0.006-10.465-7.939-18.31-18.533-18.296C64.605,56.404,56.706,64.419,56.721,74.698z"/>
</svg>
