<?xml version="1.0" encoding="utf-8"?>
<!-- Generator: Adobe Illustrator 16.0.0, SVG Export Plug-In . SVG Version: 6.00 Build 0)  -->
<!DOCTYPE svg PUBLIC "-//W3C//DTD SVG 1.1//EN" "http://www.w3.org/Graphics/SVG/1.1/DTD/svg11.dtd">
<svg version="1.1" id="Layer_1" xmlns="http://www.w3.org/2000/svg" xmlns:xlink="http://www.w3.org/1999/xlink" x="0px" y="0px"
	 width="150px" height="150px" viewBox="0 0 150 150" enable-background="new 0 0 150 150" xml:space="preserve">
<path fill="#E3C600" d="M123.958,47.656v-0.049h-6.313v0.05c-7.621,0.234-13.379,1.302-13.379,2.584v5.095
	c-0.021,0.003-0.035,0.007-0.052,0.009v3.644h-5.383V50.92h-4.863v8.068h-4.86V50.92h-4.86v8.068h-4.865V50.92h-4.864v8.068h-4.86
	V50.92h-4.862v8.068h-4.861V50.92h-4.862v8.068h-4.861V50.92H45.35v8.068h-2.126c-3.488,0-6.316,2.9-6.316,6.478v9.287H34.5v-4.135
	c-0.719-0.938-4.547-1.656-9.176-1.656c-5.141,0-9.308,0.884-9.31,1.974v3.817h-3.128V90.42h3.128v3.811
	c0,1.09,4.167,1.973,9.31,1.973c4.629,0,8.458-0.717,9.176-1.654V90.42h2.406h1.363h5.322v3.061H97.07V90.42h7.144v11.971h19.743
	v0.002c7.084,0,12.843-10.434,13.127-23.488h0.027V49.816C136.003,48.729,130.721,47.865,123.958,47.656z"/>
</svg>
