<?xml version="1.0" encoding="utf-8"?>
<!-- Generator: Adobe Illustrator 16.0.0, SVG Export Plug-In . SVG Version: 6.00 Build 0)  -->
<!DOCTYPE svg PUBLIC "-//W3C//DTD SVG 1.1//EN" "http://www.w3.org/Graphics/SVG/1.1/DTD/svg11.dtd">
<svg version="1.1" id="Layer_1" xmlns="http://www.w3.org/2000/svg" xmlns:xlink="http://www.w3.org/1999/xlink" x="0px" y="0px"
	 width="150px" height="150px" viewBox="0 0 150 150" enable-background="new 0 0 150 150" xml:space="preserve">
<g>
	<path fill="#E3C600" d="M99.66,26.5c0.579,0.358,1.295,0.603,1.706,1.1c0.731,0.883,0.485,2.09-0.423,3
		c-3.957,3.959-7.909,7.92-11.879,11.865c-0.34,0.336-0.435,0.606-0.282,1.075c1.377,4.271,2.72,8.552,4.102,12.821
		c0.083,0.258,0.388,0.545,0.649,0.63c4.221,1.36,8.453,2.679,12.674,4.038c0.52,0.167,0.82,0.092,1.208-0.299
		c3.938-3.973,7.896-7.927,11.86-11.871c0.678-0.674,1.494-1.013,2.469-0.658c0.961,0.351,1.416,1.075,1.492,2.062
		c0.287,3.76-0.2,7.435-1.494,10.96c-1.174,3.195-2.938,6.071-5.268,8.58c-3.75,4.039-8.334,6.623-13.716,7.738
		c-4.647,0.963-9.243,0.621-13.735-0.908c-0.524-0.179-0.806-0.025-1.133,0.328c-3.623,3.917-7.261,7.824-10.886,11.74
		c-3.538,3.82-7.061,7.656-10.603,11.474c-3.806,4.103-7.629,8.188-11.44,12.287c-2.035,2.188-4.079,4.37-6.084,6.587
		c-2.083,2.303-4.614,3.768-7.684,4.286c-0.144,0.024-0.278,0.108-0.417,0.165c-1.033,0-2.066,0-3.099,0
		c-0.24-0.072-0.476-0.163-0.72-0.216c-4.783-1.038-8.116-3.835-9.595-8.483c-1.534-4.818-0.468-9.212,3.108-12.839
		c2.351-2.385,4.858-4.614,7.292-6.917c3.989-3.773,7.969-7.557,11.965-11.324c3.809-3.59,7.639-7.158,11.45-10.747
		c3.849-3.625,7.673-7.275,11.54-10.88c0.534-0.498,0.648-0.907,0.419-1.596c-2.112-6.346-1.8-12.604,0.869-18.723
		c2.047-4.692,5.313-8.383,9.592-11.157c2.729-1.769,5.698-2.996,8.916-3.568c1.09-0.193,2.182-0.368,3.271-0.55
		C97.078,26.5,98.369,26.5,99.66,26.5z M38.595,106.602c-2.552,0.019-4.616,2.086-4.624,4.631c-0.007,2.56,2.136,4.686,4.684,4.648
		c2.521-0.037,4.64-2.188,4.604-4.67C43.221,108.68,41.1,106.581,38.595,106.602z"/>
</g>
</svg>
