<?xml version="1.0" standalone="no"?>
<!DOCTYPE svg PUBLIC "-//W3C//DTD SVG 1.1//EN" "http://www.w3.org/Graphics/SVG/1.1/DTD/svg11.dtd" >
<svg>
<metadata>
Created by FontForge 20090622 at Sat Jul 23 22:56:13 2016
 By deploy user
Copyright (c) 2014 by deFharo. All rights reserved.
</metadata>
<defs>
<font id="LaPejina-ffp" horiz-adv-x="600" >
  <font-face 
    font-family="La Pejina ffp"
    font-weight="400"
    font-stretch="normal"
    units-per-em="1000"
    panose-1="2 0 0 0 0 0 0 0 0 0"
    ascent="800"
    descent="-200"
    x-height="539"
    cap-height="713"
    bbox="-192 -232 1217 994"
    underline-thickness="50"
    underline-position="-50"
    unicode-range="U+000D-U+F8FF"
  />
<missing-glyph horiz-adv-x="822" 
d="M233 69v411q0 23 15 38q8 8 22 15q196 65 263 -1q6 -6 9 -13q18 -28 17.5 -63t-13 -72t-28 -67.5t-28.5 -50.5l-12 -20q7 5 20 13.5t50 26.5t69.5 29t71 11.5t63.5 -17.5q7 -3 13 -9q27 -27 30.5 -81t-5.5 -96t-24 -86q-2 -11 -13 -22q-13 -15 -41 -15h-403
q-34 0 -46 -13q-19 -19 -11 -54q27 -118 4 -141q-8 -8 -23 -3q-11 3 -22 14q-17 17 -29 49t-16 56l-3 23q-89 8 -127 47q-10 10 -14 22q-5 15 3 23q22 22 140 -5q34 -9 56 11q12 12 12 40zM427 452l-7 -14q17 -19 -1 -37q-17 -17 -37 -3q-9 -8 -36 -20l4 -3
q16 -16 38.5 -15.5t38.5 16.5t15.5 38t-15.5 38z" />
    <glyph glyph-name=".notdef" horiz-adv-x="822" 
d="M233 69v411q0 23 15 38q8 8 22 15q196 65 263 -1q6 -6 9 -13q18 -28 17.5 -63t-13 -72t-28 -67.5t-28.5 -50.5l-12 -20q7 5 20 13.5t50 26.5t69.5 29t71 11.5t63.5 -17.5q7 -3 13 -9q27 -27 30.5 -81t-5.5 -96t-24 -86q-2 -11 -13 -22q-13 -15 -41 -15h-403
q-34 0 -46 -13q-19 -19 -11 -54q27 -118 4 -141q-8 -8 -23 -3q-11 3 -22 14q-17 17 -29 49t-16 56l-3 23q-89 8 -127 47q-10 10 -14 22q-5 15 3 23q22 22 140 -5q34 -9 56 11q12 12 12 40zM427 452l-7 -14q17 -19 -1 -37q-17 -17 -37 -3q-9 -8 -36 -20l4 -3
q16 -16 38.5 -15.5t38.5 16.5t15.5 38t-15.5 38z" />
    <glyph glyph-name=".null" horiz-adv-x="0" 
 />
    <glyph glyph-name=".null" horiz-adv-x="0" 
 />
    <glyph glyph-name="nonmarkingreturn" horiz-adv-x="333" 
 />
    <glyph glyph-name="CR" unicode="&#xd;" horiz-adv-x="200" 
 />
    <glyph glyph-name="space" unicode=" " horiz-adv-x="200" 
 />
    <glyph glyph-name="exclam" unicode="!" horiz-adv-x="322" 
d="M215 460v253h34v-257l-28 -215h-34zM136 241h-35l-28 215v257h34v-253zM58 90q0 43 30 73.5t73 30.5t73 -30.5t30 -73.5t-30 -73t-73 -30t-73 30t-30 73zM161 160q-29 0 -49 -20.5t-20 -49.5q0 -28 20 -48.5t49 -20.5t49 20.5t20 48.5q0 29 -20 49.5t-49 20.5z" />
    <glyph glyph-name="quotedbl" unicode="&#x22;" horiz-adv-x="518" 
d="M203 378h-115l-24 183v152h34v-150l20 -151h55l20 151v150h34v-152zM430 378h-115l-24 183v152h34v-150l20 -151h55l20 151v150h34v-152z" />
    <glyph glyph-name="numbersign" unicode="#" horiz-adv-x="637" 
d="M437 487l-36 -245h-181l33 245h184zM283 453l-24 -177h113l26 177h-115zM213 197h182l-24 -198h-35l21 164h-114l-24 -164h-33zM403 -1l25 198h155l-4 -34h-121l-21 -164h-34zM436 242l33 245h148l-4 -34h-114l-24 -177h118l-4 -34h-153zM623 530h-149l26 185h34
l-21 -151h114zM443 530h-183l24 185h33l-18 -151h114l20 151h35zM252 715l-28 -185h-151l5 34h117l22 151h35zM222 487l-36 -245h-148l5 34h114l26 177h-122l5 34h156zM155 -1h-36l24 164h-118l5 34h152z" />
    <glyph glyph-name="dollar" unicode="$" horiz-adv-x="595" 
d="M469 505l-21 -32q-25 21 -65.5 33.5t-70.5 12.5q-66 0 -66 -34q0 -4 1 -7.5t2.5 -6.5t5 -5t5.5 -3.5t7 -3.5t7 -2.5t7.5 -2t7.5 -2.5l122 -34q77 -22 117 -67t40 -109q0 -88 -53 -140t-134 -70v-73h-34v99l36 9q151 40 151 175q0 106 -132 143l-138 39q-17 6 -21 8
q-31 17 -31 53q0 40 38 57q22 11 62 11q84 0 157 -48zM380 635l-33 2v99h34v-67q102 -12 162 -55l-18 -26q-84 44 -145 47zM98 205l22 32q89 -64 166 -64q70 0 70 33q0 24 -35 36l-126 35q-68 20 -108 65.5t-40 112.5q0 78 53 137t143 76v68h34v-95q-74 0 -134 -51.5
t-61 -136.5q0 -108 122 -143l127 -36q4 -1 17 -6q17 -10 18 -11q24 -21 24 -51q0 -42 -45 -59q-22 -8 -59 -8q-46 0 -97.5 19.5t-90.5 46.5zM277 -41h-34v66q-129 10 -218 71l19 29q86 -53 193 -65l40 -5v-96z" />
    <glyph glyph-name="percent" unicode="%" horiz-adv-x="884" 
d="M132 490v213h127v-86h86v-127h-213zM180 644h32v32h-32v-32zM46 490h86v-86zM48 716v33h9h7l4 -4q1 -1 1 -6q0 -4 -1 -6q-2 -3 -4 -3q-1 -1 -7 -1h-3v-13h-6zM54 744v-10h3q3 0 4 1q1 0 2 1v3v3q-1 1 -2 1q-1 1 -4 1h-3zM74 716v33h20v-5h-15v-8h14v-5h-14v-9h15v-6h-20z
M99 716v33h12h6q1 -1 3 -4q1 -1 1 -5q0 -5 -1 -6q-3 -3 -6 -3l3 -3l3 -5l4 -7h-7l-4 8l-3 4v1l-1 1h-4v-14h-6zM105 735h4q4 0 5 1q1 0 1 1q1 1 1 3q0 1 -1 2l-1 2h-5h-4v-9zM126 727l5 1q0 -7 6 -7q2 0 4 2q0 1 1 3q0 1 -1 2q0 1 -1 1l-2 1q-1 0 -3 1q-3 0 -5 2l-3 3
q0 1 -0.5 2.5t-0.5 2.5v3l1 1l4 4q1 1 5 1t8 -2q3 -4 3 -8h-6q0 3 -1 3q-1 1 -4 1h-3q-1 -1 -1 -3q0 -1 1 -2l5 -2q3 -1 5 -3q3 0 3 -3q1 -1 1 -5q0 -5 -2 -7q-3 -3 -9 -3q-10 0 -10 11zM151 733q0 4 2 10q1 2 4 5q6 2 7 2q6 0 10 -5q3 -3 3 -12t-4 -13q-3 -4 -9 -4t-9 4
q-4 4 -4 13zM157 733q0 -7 2 -9q1 0 2.5 -1.5t2.5 -1.5q2 0 5 3t3 9q0 7 -3 8q-1 3 -5 3t-5 -3q-2 -1 -2 -8zM182 716v33h5l11 -21v21h6v-33h-6l-11 22v-22h-5zM234 716h-6l-3 8h-10l-2 -8h-6l10 33h6zM224 729l-4 12l-3 -12h7zM237 716v33h6v-27h13v-6h-19zM272 749h5v-18
v-5l3 -3q0 -2 3 -2q1 0 3 2l2 2v6v18h5v-17v-9q-1 -3 -3 -5t-7 -2t-7 2l-3 3q-1 3 -1 11v17zM298 727l5 1q2 -7 7 -7q1 0 3 2q2 1 2 3q0 1 -1 2l-1 1q-1 0 -2 1q-1 0 -3 1q-3 0 -5 2l-3 3q0 1 -0.5 2.5t-0.5 2.5q0 2 2 4q0 3 3 4q1 1 5 1t8 -2q0 -1 1.5 -3.5t1.5 -4.5h-6
q0 3 -2 3q0 1 -3 1h-3q-1 -1 -1 -3q0 -1 1 -2l5 -2q4 -2 5 -3q2 0 3 -3q1 -1 1 -5q0 -5 -3 -7q-1 -3 -7 -3q-10 0 -12 11zM325 716v33h20v-5h-14v-8h13v-5h-13v-9h15v-6h-21zM48 762v33h19v-5h-13v-8h11v-6h-11v-14h-6zM71 762v33h12h6q2 -2 3 -4q2 -2 2 -5q0 -4 -3 -6
q-3 -3 -5 -3q3 -1 3 -3l4 -5l3 -7h-7l-4 8l-3 4v1l-1 1h-4v-14h-6zM77 781h4q4 0 4 1q2 0 2 1q1 0 1 3q0 1 -1 2l-2 2h-4h-4v-9zM99 762v33h20v-5h-15v-8h13v-5h-13v-9h15v-6h-20zM124 762v33h19v-5h-14v-8h14v-5h-14v-9h15v-6h-20zM158 779q0 5 2 9q2 5 4 6q4 2 7 2
q6 0 10 -5q3 -5 3 -12q0 -9 -3 -13q-4 -4 -10 -4t-9 4q-4 6 -4 13zM164 779q0 -7 2 -9q3 -3 5 -3l6 3q2 4 2 9q0 6 -2 8q-3 3 -6 3t-5 -3q-2 -1 -2 -8zM189 762v33h5l11 -21v21h5v-33h-6l-10 22v-22h-5zM216 762v33h6v-27h13v-6h-19zM243 762v14l-10 19h6l6 -13l7 13h6
l-10 -19v-14h-5zM271 762v33h18v-5h-13v-8h11v-6h-11v-14h-5zM292 779q0 6 3 9q2 5 4 6q4 2 7 2q6 0 9 -5q4 -6 4 -12q0 -7 -4 -13q-3 -4 -9 -4q-7 0 -10 4q-4 6 -4 13zM298 779q0 -5 2 -9l6 -3q2 0 5 3q2 4 2 9q0 6 -2 8q-1 3 -5 3q-3 0 -6 -3q-2 -2 -2 -8zM323 762v33h11
h7q2 -2 3 -4q1 -1 1 -5t-2 -6q-3 -3 -5 -3l3 -3l3 -5l3 -7h-6l-4 8l-3 4l-2 2h-4v-14h-5zM328 781h4q5 0 5 1q1 0 2 1v3v2l-2 2h-4h-5v-9zM130 335h-4v3l-1 -1q-1 -1 -1 -2h-3q-3 0 -5 2q-2 4 -2 8q0 5 2 7q2 3 5 3l1 -1h2l2 -2v10h4v-27zM119 345v-4q0 -1 0.5 -1t0.5 -1
l1 -1h1q1 0 3 2l1 2v2v4l-1 1q-1 2 -3 2t-2 -2q-1 -1 -1 -4zM143 341l4 -1l-2 -4q-2 -1 -5 -1q-4 0 -5 2q-3 3 -3 7q0 6 3 8q1 3 5 3q2 0 5 -3q2 -1 2 -9h-10q0 -2 1 -3q0 -2 2 -2zM143 346q0 3 -1 4t-2 1q-2 0 -3 -1v-4h6zM148 354l3 2v4l2 2h3h4l-1 -4h-2h-1q-1 0 -1 -4h3
v-3h-3v-16h-4v16h-3v3zM164 362v-10q2 2 3 2q1 1 2 1l3 -1q2 -2 2 -3v-2q1 -2 1 -3v-11h-4v10q0 4 -1 5t-2 1q-2 0 -2 -2q-2 0 -2 -5v-9h-4v27h4zM182 348l-4 1q0 3 3 5q2 1 4 1q1 0 3 -1h1q2 0 2 -2q1 -1 1 -5v-6v-3q0 -2 1 -3h-5v2l-2 -2h-3q-3 0 -4 1q-2 2 -2 4l1 1v2
l2 2l3 2q4 0 4 1v3h-3h-1zM187 340v4q-1 0 -2 -1q-2 0 -3 -1v-1v-2q1 -1 2 -1q2 0 3 2zM199 335h-4v19h4v-2l2 2q1 0 1 0.5t1 0.5l2 -1l-1 -5q0 2 -2 2l-2 -2v-2q-1 -1 -1 -6v-6zM206 345v3l1 2q1 2 3 4h2l2 1q4 0 6 -3q3 -3 3 -7q0 -1 -1 -3v-2l-4 -4q-1 -1 -4 -1
q-2 0 -6 2q-2 4 -2 8zM210 344q0 -3 2 -4q0 -1 2 -1q3 0 3 1q1 1 1 4q0 4 -1 5q0 2 -3 2q-2 0 -2 -2q-2 -1 -2 -5zM225 335v5h5v-5h-5zM248 349l-4 -1q-2 3 -4 3q-1 0 -2 -2t-1 -4q0 -1 1 -3v-2q1 -1 2 -1q2 0 3 1t1 2h4q-1 -7 -8 -7q-3 0 -5 2q-2 3 -2 7q0 6 2 8q1 3 5 3
q3 0 5 -2t3 -4zM249 345q0 1 1 3v2l4 4h2q1 1 2 1q3 0 6 -3q2 -4 2 -7q0 -4 -1 -5q-1 -2 -3 -4q-2 -1 -4 -1q-4 0 -6 2q-3 3 -3 8zM254 344q0 -3 1 -4t3 -1t2 1q1 1 1 4q0 4 -1 5q0 2 -2 2q-1 0 -3 -2q-1 -1 -1 -5zM269 354h3v-2q2 2 3 2t1 0.5t1 0.5l3 -1l2 -2l2 2h1
q1 1 2 1t3 -1q1 0 1 -2q1 -1 1 -5v-12h-4v11q0 3 -1 4l-1 1q-2 0 -2 -2q-2 0 -2 -5v-9h-4v11v4q-1 1 -2 1h-2l-1 -3v-4v-9h-4v19zM115 383v4h9v-10q-2 -3 -4 -3q-4 -2 -5 -2q-4 0 -6 2q-2 1 -4 5q-1 2 -1 8q0 5 1 7q2 4 4 5q1 1 5 1q5 0 7 -2q3 -3 3 -6h-5q0 2 -2 2
q0 1 -3 1t-4 -2q-2 -2 -2 -6t2 -8q2 -2 4 -2t3 1l3 1v4h-5zM137 379l4 -1q0 -2 -3 -4q-2 -2 -4 -2q-4 0 -5 3q-3 3 -3 8q0 4 3 7q1 3 5 3t5 -3q2 -2 2 -9h-10q0 -3 1 -3q0 -2 2 -2q3 0 3 3zM137 384q0 3 -1 4q0 1 -2 1l-2 -1q-1 -1 -1 -4h6zM152 393v-5h-3v-8v-2l1 -1h2v-4
l-1 -1h-2h-1l-2 1q0 1 -0.5 1t-0.5 1v5l-2 8l2 5v4l4 2v-6h3zM161 393l2 1v4l2 2h3h4l-1 -4h-3q-1 -1 -1 -3h4v-5h-4v-15h-4v15h-2v5zM183 373v3q-1 0 -1 -1t-1 -2q-1 0 -3 -1h-1q-1 1 -2 1l-2 2q0 1 -0.5 2.5t-0.5 2.5v13h5v-10q-1 -1 -1 -3q0 -3 2 -3h1h2q1 1 1 2q1 1 1 5
v9h4v-20h-4zM191 373v27h4v-27h-4zM199 373v27h4v-27h-4zM214 393l2 1q0 3 1 4l1 2h3h3v-4h-1l-1 1q-1 -1 -2 -1v-2v-1h3v-5h-3v-15h-4v15h-2v5zM224 383v3l1 2l4 4q1 1 4 1t6 -3q2 -4 2 -7q0 -2 -0.5 -3.5t-0.5 -2.5q-2 -3 -4 -3q-2 -2 -3 -2q-5 0 -6 3q-3 3 -3 8zM229 383
q0 -4 1 -5q0 -1 3 -1q2 0 2 1q1 1 1 5q0 3 -1 4q0 2 -2 2q-3 0 -3 -2q-1 -1 -1 -4zM259 373h-5v10v4q0 1 -1 1q0 1 -2 1q-1 0 -1 -1l-2 -1v-5v-9h-4v20h4v-4l1 2q0 1 1 1q1 1 3 1t3 -1l2 -3v-1q1 -2 1 -3v-12zM270 393v-5h-3v-8v-2q0 -1 1 -1h2v-4l-2 -1h-2h-1l-1 1l-2 2v5
v8h-2v5h2v4l5 2v-6h3zM284 387h-4q0 1 2 5q1 1 5 1q3 0 4 -1l2 -2v-5v-6v-4q1 -1 1 -2h-4v2q-2 -2 -3 -2l-2 -1q-2 0 -4 2t-2 4l1 1v2l1 2l4 1l4 1v3q0 1 -3 1q-1 0 -1 -1zM289 378v4h-2q-2 -1 -3 -2v-1v-2q1 -1 2 -1t1 1zM305 393v-5h-3v-8v-2q0 -1 1 -1h2v-4l-1 -1h-3
t-1 0.5t-1 0.5l-2 2v5v8h-2v5h2v4l5 2v-6h3zM619 162v213h127v-86h86v-127h-213zM667 316h32v32h-32v-32zM533 162h86v-86zM535 388v33h9h7l4 -4q1 -1 1 -6q0 -4 -1 -6q-1 -3 -4 -3q-1 -1 -7 -1h-3v-13h-6zM541 416v-10h3q3 0 4 1q1 0 2 1v3v3q-1 1 -2 1q-1 1 -4 1h-3z
M561 388v33h20v-5h-15v-8h14v-5h-14v-9h15v-6h-20zM586 388v33h12h6q1 -1 3 -4q1 -1 1 -5q0 -5 -1 -6q-3 -3 -6 -3l3 -3l3 -5l4 -7h-7l-4 8l-3 4l-1 1v1h-4v-14h-6zM592 407h4q4 0 5 1q1 0 1 1q1 1 1 3q0 1 -1 2l-1 2h-5h-4v-9zM613 399l5 1q0 -7 6 -7q2 0 4 2v1l1 2
q0 1 -1 2q0 1 -1 1t-2 1q-1 0 -3 1q-3 0 -5 2l-3 3q0 1 -0.5 2.5t-0.5 2.5t1 3v1l4 4q1 1 5 1t8 -2q3 -4 3 -8h-6q0 3 -1 3q-1 1 -4 1h-3q-1 -1 -1 -3q0 -1 1 -2l5 -2q3 -1 5 -3q3 0 3 -3q1 -1 1 -5q0 -5 -2 -7q-3 -3 -9 -3q-10 0 -10 11zM638 405q0 4 2 10q1 2 4 5q6 2 7 2
q6 0 10 -5q3 -3 3 -12t-4 -13q-3 -4 -9 -4t-9 4q-4 4 -4 13zM644 405q0 -7 2 -9q1 0 2.5 -1.5t2.5 -1.5q2 0 5 3t3 9q0 7 -3 8q-2 3 -5 3t-5 -3q-2 -1 -2 -8zM669 388v33h5l11 -21v21h6v-33h-6l-11 22v-22h-5zM721 388h-6l-3 8h-10l-2 -8h-6l10 33h6zM711 401l-4 12l-3 -12
h7zM724 388v33h6v-27h13v-6h-19zM759 421h5v-18v-5l3 -3q0 -2 3 -2q1 0 3 2l2 2v6v18h5v-17v-9q-1 -3 -3 -5t-7 -2t-7 2l-3 3q-1 3 -1 11v17zM785 399l5 1q2 -7 7 -7q1 0 3 2q2 1 2 3q0 1 -1 2l-1 1l-2 1q-1 0 -3 1q-3 0 -5 2l-3 3q0 1 -0.5 2.5t-0.5 2.5q0 2 2 4q0 3 3 4
q1 1 5 1t8 -2q0 -1 1.5 -3.5t1.5 -4.5h-6q0 3 -2 3q0 1 -3 1h-3q-1 -1 -1 -3q0 -1 1 -2l5 -2q4 -2 5 -3q1 0 3 -3q1 -1 1 -5q0 -5 -3 -7q-2 -3 -7 -3q-10 0 -12 11zM812 388v33h20v-5h-14v-8h13v-5h-13v-9h15v-6h-21zM535 434v33h19v-5h-13v-8h11v-6h-11v-14h-6zM558 434v33
h12h6q2 -2 3 -4q2 -2 2 -5q0 -4 -3 -6q-3 -3 -5 -3q3 -1 3 -3l4 -5l3 -7h-7l-4 8l-3 4l-1 1v1h-4v-14h-6zM564 453h4q4 0 4 1q2 0 2 1q1 0 1 3q0 1 -1 2l-2 2h-4h-4v-9zM586 434v33h20v-5h-15v-8h13v-5h-13v-9h15v-6h-20zM611 434v33h19v-5h-14v-8h14v-5h-14v-9h15v-6h-20z
M645 451q0 5 2 9q2 5 4 6q4 2 7 2q6 0 10 -5q3 -5 3 -12q0 -9 -3 -13q-4 -4 -10 -4t-9 4q-4 6 -4 13zM651 451q0 -7 2 -9q3 -3 5 -3l6 3q2 4 2 9q0 6 -2 8q-3 3 -6 3q-4 0 -5 -3q-2 -1 -2 -8zM676 434v33h5l11 -21v21h5v-33h-6l-10 22v-22h-5zM703 434v33h6v-27h13v-6h-19z
M730 434v14l-10 19h6l6 -13l7 13h6l-10 -19v-14h-5zM758 434v33h18v-5h-13v-8h11v-6h-11v-14h-5zM779 451q0 6 3 9q2 5 4 6q4 2 7 2q7 0 9 -5q4 -6 4 -12q0 -7 -4 -13q-3 -4 -9 -4q-7 0 -10 4q-4 6 -4 13zM785 451q0 -5 2 -9l6 -3q2 0 5 3q2 4 2 9q0 6 -2 8q-2 3 -5 3t-6 -3
q-2 -2 -2 -8zM810 434v33h11h7q2 -2 3 -4q1 -1 1 -5t-2 -6q-3 -3 -5 -3l3 -3l3 -5l3 -7h-6l-4 8l-3 4l-2 2h-4v-14h-5zM815 453h4q5 0 5 1q1 0 2 1v3v2l-2 2h-4h-5v-9zM617 7h-4v3q-1 0 -1 -1t-1 -2h-3q-3 0 -5 2q-2 4 -2 8q0 5 2 7q1 3 5 3l1 -1h2l2 -2v10h4v-27zM606 17
v-4q0 -1 0.5 -1t0.5 -1q1 0 1 -0.5t1 -0.5t3 2v2l1 2q0 2 -1 4v1q-1 2 -3 2t-2 -2q-1 -1 -1 -4zM630 13l4 -1l-2 -4q-2 -1 -5 -1q-4 0 -5 2q-3 3 -3 7q0 6 3 8q2 3 5 3q2 0 5 -3q2 -1 2 -9h-10q0 -2 1 -3q0 -2 2 -2zM630 18q0 3 -1 4t-2 1q-2 0 -3 -1v-4h6zM635 26l3 2v4
l2 2h3h4l-1 -4h-2h-1q-1 0 -1 -4h3v-3h-3v-16h-4v16h-3v3zM651 34v-10q2 2 3 2q1 1 2 1l3 -1q2 -2 2 -3l1 -2v-3v-11h-4v10q0 4 -1 5t-2 1q-2 0 -2 -2q-2 0 -2 -5v-9h-4v27h4zM669 20l-4 1q0 3 3 5q2 1 4 1q1 0 2 -1h2q2 0 2 -2q1 -1 1 -5v-6v-3q0 -2 1 -3h-5v2l-2 -2h-3
q-3 0 -4 1q-2 2 -2 4v1q1 1 1 2l2 2l3 2q4 0 4 1v3h-3h-1zM674 12v4q-1 0 -2 -1q-2 0 -3 -1v-1v-2q1 -1 2 -1q2 0 3 2zM686 7h-4v19h4v-2l2 2h1l1 1l2 -1l-1 -5q0 2 -2 2l-2 -2v-2q-1 -1 -1 -6v-6zM693 17q0 1 1 3v2q1 2 3 4h3l1 1q5 0 6 -3q3 -3 3 -7v-3l-1 -2l-4 -4
q-1 -1 -4 -1q-2 0 -6 2q-2 4 -2 8zM697 16q0 -3 2 -4q0 -1 2 -1q3 0 3 1q1 1 1 4q0 4 -1 5q0 2 -3 2q-2 0 -2 -2q-2 -1 -2 -5zM712 7v5h5v-5h-5zM735 21l-4 -1q-1 3 -4 3q-1 0 -2 -2t-1 -4v-3l1 -2q1 -1 2 -1q2 0 3 1t1 2h4q-1 -7 -8 -7q-3 0 -5 2q-2 3 -2 7q0 6 2 8
q2 3 5 3t5 -2t3 -4zM736 17v3l1 2l4 4h1q2 1 3 1q3 0 6 -3q2 -4 2 -7q0 -4 -1 -5q-1 -2 -3 -4q-2 -1 -4 -1q-4 0 -6 2q-3 3 -3 8zM741 16q0 -3 1 -4t3 -1t2 1q1 1 1 4q0 4 -1 5q0 2 -2 2q-1 0 -3 -2q-1 -1 -1 -5zM756 26h3v-2q2 2 3 2h1l1 1l3 -1l2 -2l2 2h1l2 1l1 -1h2
t1 -2q1 -1 1 -5v-12h-4v11q0 3 -1 4l-1 1q-2 0 -2 -2q-2 0 -2 -5v-9h-4v11v4q-1 1 -2 1h-2l-1 -3v-4v-9h-4v19zM602 55v4h9v-10q-1 -3 -4 -3q-4 -2 -5 -2q-4 0 -6 2q-2 1 -4 5q-1 2 -1 8q0 5 1 7q2 4 4 5q1 1 5 1q5 0 7 -2q3 -3 3 -6h-5q0 2 -2 2q0 1 -3 1t-4 -2
q-2 -2 -2 -6t2 -8q2 -2 4 -2t3 1l3 1v4h-5zM624 51l4 -1q0 -2 -3 -4q-2 -2 -4 -2q-3 0 -5 3q-3 3 -3 8q0 4 3 7q2 3 5 3t5 -3q2 -2 2 -9h-10q0 -3 1 -3q0 -2 2 -2q3 0 3 3zM624 56q0 3 -1 4q0 1 -2 1l-2 -1q-1 -1 -1 -4h6zM639 65v-5h-3v-8v-2l1 -1h2v-4q-1 0 -3 -1h-1
q-1 1 -2 1q0 1 -0.5 1t-0.5 1v5l-2 8l2 5v4l4 2v-6h3zM648 65l2 1v4l2 2h3h4l-1 -4h-3q-1 -1 -1 -3h4v-5h-4v-15h-4v15h-2v5zM670 45v3l-1 -1q-1 -1 -1 -2l-1 -1h-2h-1l-2 1l-2 2q0 1 -0.5 2.5t-0.5 2.5v13h5v-10q-1 -1 -1 -3q0 -3 2 -3h1h2q1 1 1 2q1 1 1 5v9h4v-20h-4z
M678 45v27h4v-27h-4zM686 45v27h4v-27h-4zM701 65l2 1q0 3 1 4l1 2h3h3v-4q-1 0 -1 0.5t-1 0.5q-1 -1 -2 -1v-2v-1h3v-5h-3v-15h-4v15h-2v5zM711 55q0 1 1 3v2l4 4q1 1 4 1t6 -3q2 -4 2 -7q0 -2 -0.5 -3.5t-0.5 -2.5q-1 -3 -4 -3q-2 -2 -3 -2q-4 0 -6 3q-3 3 -3 8zM716 55
q0 -4 1 -5q0 -1 3 -1q2 0 2 1q1 1 1 5q0 3 -1 4q0 2 -2 2q-3 0 -3 -2q-1 -1 -1 -4zM746 45h-5v10v4q0 1 -1 1q0 1 -2 1q-1 0 -1 -1l-2 -1v-5v-9h-4v20h4v-4l1 2q0 1 1 1q1 1 3 1t3 -1l2 -3l1 -1v-3v-12zM757 65v-5h-3v-8v-2q0 -1 1 -1h2v-4l-1 -1h-3t-1 0.5t-1 0.5l-2 2v5v8
h-2v5h2v4l5 2v-6h3zM771 59h-4q0 1 2 5q1 1 5 1q3 0 4 -1l2 -2v-5v-6v-4q1 -1 1 -2h-4v2q-2 -2 -3 -2l-2 -1q-2 0 -4 2t-2 4v1q1 1 1 2l1 2l4 1l4 1v3q0 1 -3 1q-1 0 -1 -1zM776 50v4h-2q-2 -1 -3 -2v-1v-2q1 -1 2 -1t1 1zM792 65v-5h-3v-8v-2q0 -1 1 -1h2v-4l-2 -1h-2h-1
l-1 1l-2 2v5v8h-2v5h2v4l5 2v-6h3zM301 99l275 494h27l-275 -494h-27zM279 99h-27l276 494h26z" />
    <glyph glyph-name="ampersand" unicode="&#x26;" horiz-adv-x="843" 
d="M297 348l175 -195l-34 -26q-42 -31 -99 -31q-58 0 -91 34.5t-33 82.5q0 80 58 118zM339 130q49 0 83 28l-130 145q-43 -29 -43 -90q0 -34 23 -58.5t67 -24.5zM512 547q0 -34 -17 -65.5t-44 -48.5l-31 -20l-38 44q-21 26 -29 38q-17 29 -17 49q0 36 23.5 59.5t65.5 23.5
q32 0 59.5 -22.5t27.5 -57.5zM408 479l18 -21q22 12 37 36.5t15 52.5q0 18 -16 32t-37 14q-55 0 -55 -49q0 -21 38 -65zM800 -1l-152 169l21 25q59 68 69 157l30 -3q-15 -105 -76 -180l152 -168h-44zM291 -18q-108 0 -184 57t-76 158q0 73 52 123.5t123 73.5q-26 26 -47 63
t-21 68q0 95 69 147.5t202 52.5q104 0 168 -47.5t64 -127.5q0 -123 -139 -176l78 -89l15 78l35 -3l-32 -147l-151 175l47 19q113 46 113 143q0 62 -52 101.5t-146 39.5q-123 0 -180 -44.5t-57 -121.5q0 -44 52 -100l42 -46l-56 -19q-62 -22 -103.5 -64t-41.5 -99
q0 -83 64 -132t162 -49q117 0 203 57l32 21l82 -95h-42l-46 50q-95 -67 -229 -67z" />
    <glyph glyph-name="quotesingle" unicode="'" horiz-adv-x="291" 
d="M203 378h-115l-24 183v152h34v-150l20 -151h55l20 151v150h34v-152z" />
    <glyph glyph-name="parenleft" unicode="(" horiz-adv-x="346" 
d="M278 720h36q-50 -125 -69.5 -220.5t-19.5 -221.5q0 -241 89 -456h-38q-85 191 -85 456q0 128 20 227.5t67 214.5zM269 -179l-41 -1q-69 83 -112 205.5t-43 252.5q0 122 42 240.5t113 202.5h39q-78 -117 -119 -218t-41 -225q0 -253 162 -457z" />
    <glyph glyph-name="parenright" unicode=")" horiz-adv-x="346" 
d="M32 720h36q47 -115 67 -214.5t20 -227.5q0 -265 -85 -456h-38q89 215 89 456q0 126 -19.5 221.5t-69.5 220.5zM118 -180l-41 1q162 204 162 457q0 124 -41 225t-119 218h39q71 -84 113 -202.5t42 -240.5q0 -130 -43 -252.5t-112 -205.5z" />
    <glyph glyph-name="asterisk" unicode="*" horiz-adv-x="519" 
d="M412 335l-110 153l167 91l18 -29l-135 -73l89 -124zM448 610l-167 -91v194h34v-137l115 63zM238 713v-194l-169 91l18 29l117 -63v137h34zM49 578l166 -89l-109 -154l-28 18l87 124l-133 73zM259 420l-90 -125l-29 18l119 165l119 -165l-29 -18z" />
    <glyph glyph-name="plus" unicode="+" horiz-adv-x="620" 
d="M335 31v261h261v-34h-227v-227h-34zM596 340h-261v261h34v-227h227v-34zM286 601v-261h-262v34h228v227h34zM286 31h-34v227h-228v34h262v-261z" />
    <glyph glyph-name="comma" unicode="," horiz-adv-x="306" 
d="M119 -141h-34l36 141h-71v193h206v-181l-77 -153h-38l81 161v139h-138v-125h81z" />
    <glyph glyph-name="hyphen" unicode="-" horiz-adv-x="362" 
d="M335 350h-308v34h308v-34zM335 219h-308v34h308v-34z" />
    <glyph glyph-name="period" unicode="." horiz-adv-x="306" 
d="M50 89q0 43 30 73.5t73 30.5t73 -30.5t30 -73.5t-30 -73t-73 -30t-73 30t-30 73zM153 159q-29 0 -49 -20.5t-20 -49.5t20 -49t49 -20t49 20t20 49t-20 49.5t-49 20.5z" />
    <glyph glyph-name="slash" unicode="/" horiz-adv-x="370" 
d="M67 -178l262 896h34l-260 -896h-36zM-33 -178l263 896h36l-264 -896h-35z" />
    <glyph glyph-name="zero" unicode="0" horiz-adv-x="642" 
d="M202 300v385h230v-155h155v-230h-385zM289 578h57v57h-57v-57zM47 300h155v-155zM51 709v59h16q10 0 12 -1q4 -1 7 -6q3 -4 3 -11q0 -6 -3 -11q-2 -5 -6 -6q-4 -2 -13 -2h-6v-22h-10zM61 758v-17h6q6 0 7 1l3 3q1 1 1 5q0 3 -1 5q-2 2 -3 2q-1 1 -8 1h-5zM97 709v59h36
v-10h-26v-13h25v-10h-25v-16h27v-10h-37zM143 709v59h21q9 0 11 -1q3 -1 6 -6q2 -6 2 -9q0 -8 -3 -12q-3 -3 -10 -5l6 -5l5 -10l6 -11h-12l-7 13l-5 8l-3 3l-2 1h-5v-25h-10zM153 743h7q8 0 9 1q1 0 3 2q1 1 1 5q0 3 -1 4l-3 3h-8h-8v-15zM191 728l9 1q2 -11 11 -11q3 0 7 2
q2 4 2 6t-1 3q0 1 -2 3q-1 0 -9 3q-7 2 -9 4q-4 2 -5 6q-2 4 -2 8t2 8q3 5 7 6q2 2 9 2q9 0 14 -4q5 -7 5 -14h-10q-2 5 -3 6q-1 2 -6 2t-6 -1q-2 -1 -2 -4t2 -5q2 -1 9 -3q8 -3 10 -5q3 -1 5 -6q2 -2 2 -9q0 -8 -5 -13t-15 -5q-17 0 -19 20zM237 738q0 10 3 18q4 7 8 10
q6 3 13 3q10 0 17 -8q6 -7 6 -23q0 -15 -7 -23q-6 -7 -16 -7q-11 0 -17 7q-7 8 -7 23zM247 739q0 -11 4 -16q5 -5 10 -5q6 0 9 5q4 5 4 16t-4 15q-3 5 -9 5q-7 0 -10 -5q-4 -4 -4 -15zM293 709v59h9l20 -39v39h10v-59h-10l-20 39v-39h-9zM386 709h-10l-5 13h-19l-4 -13h-11
l19 59h11zM368 732l-6 22l-7 -22h13zM392 709v59h10v-49h25v-10h-35zM455 768h10v-32v-10q2 -4 4 -6t6 -2q2 0 6 2l3 4v11v33h10v-31q0 -14 -1 -17q-1 -6 -6 -9t-12 -3t-12 3q-4 2 -6 7q-2 8 -2 19v31zM503 728l9 1q2 -11 11 -11q3 0 7 2q2 2 2 6q0 2 -1 3q0 1 -2 3
q-1 0 -9 3q-7 2 -9 4q-4 2 -5 6q-2 4 -2 8q0 5 3 8q1 5 6 6q2 2 9 2q10 0 14 -4q5 -7 5 -14h-10q0 5 -3 6q-1 2 -6 2t-6 -1q-2 -1 -2 -4t2 -5q2 -1 9 -3q8 -3 10 -5q3 -1 5 -6q2 -2 2 -9q0 -8 -5 -13t-14 -5q-18 0 -20 20zM551 709v59h36v-10h-26v-13h24v-10h-24v-16h27v-10
h-37zM51 792v59h34v-10h-24v-14h21v-10h-21v-25h-10zM93 792v59h20q10 0 12 -1q4 -2 5 -6q3 -4 3 -9q0 -6 -4 -12q-4 -4 -9 -5l5 -5l6 -10l6 -11h-12l-7 13l-6 8q0 1 -2 3q-1 0 -3 0.5t-4 0.5v-25h-10zM103 826h7q7 0 8 1q3 0 3 2q1 1 1 5q0 3 -1 4q0 2 -3 3h-8h-7v-15z
M142 792v59h36v-10h-26v-13h24v-10h-24v-16h27v-10h-37zM187 792v59h36v-10h-26v-13h25v-10h-25v-16h27v-10h-37zM250 821q0 11 3 18q4 8 8 10q5 3 12 3q12 0 17 -8q7 -7 7 -23q0 -13 -7 -23q-6 -7 -17 -7q-10 0 -17 7q-6 9 -6 23zM260 822q0 -11 4 -16q3 -5 9 -5q5 0 10 5
q4 8 4 16q0 9 -4 15q-5 5 -10 5t-10 -5q-3 -5 -3 -15zM305 792v59h9l20 -39v39h9v-59h-10l-19 39v-39h-9zM354 792v59h10v-49h24v-10h-34zM402 792v25l-17 34h11l11 -23l12 23h11l-18 -34v-25h-10zM453 792v59h33v-10h-23v-14h20v-10h-20v-25h-10zM492 821q0 11 4 18
q4 8 8 10q4 3 12 3q12 0 17 -8q7 -9 7 -23q0 -13 -7 -23q-6 -7 -17 -7t-17 7q-7 10 -7 23zM503 822q0 -10 3 -16q5 -5 10 -5t10 5q4 8 4 16q0 9 -4 15q-5 5 -10 5t-10 -5q-3 -5 -3 -15zM547 792v59h21q9 0 11 -1q5 -2 6 -6q2 -3 2 -9q0 -7 -3 -12q-3 -3 -10 -5l6 -5l5 -10
l6 -11h-12l-7 13l-5 8l-3 3h-2q-3 1 -5 1v-25h-10zM557 826h7q8 0 9 1q1 0 3 2q1 1 1 5q0 3 -1 4l-3 3h-8h-8v-15zM198 20h-7v5q-2 -4 -4 -5t-5 -1q-5 0 -8 5q-4 4 -4 14q0 9 4 13q3 5 8 5q1 0 2.5 -0.5t2.5 -0.5l4 -4v17h7v-48zM178 38q0 -5 1 -7q0 -2 2 -4q1 0 3 -1
q4 0 5 3q2 4 2 8q0 5 -2 9q-1 3 -5 3q-2 0 -4 -3q-2 -2 -2 -8zM222 31l7 -2q-2 -6 -4 -7q-3 -3 -8 -3q-7 0 -10 4q-4 5 -4 14q0 10 4 14q3 5 9 5q5 0 10 -5q4 -4 4 -16h-19q0 -5 2 -7t4 -2q3 0 5 5zM222 40q0 5 -1 7l-4 2q-1 0 -5 -2q-1 -2 -1 -7h11zM232 55l4 3q0 2 0.5 4
t0.5 3l3 3q2 1 5 1q4 0 7 -1l-1 -6h-4q-2 0 -2 -1q-1 0 -1 -6h6v-7h-6v-28h-8v28h-4v7zM261 68v-17l4 4l2 1h3q3 0 5 -2q2 -1 4 -5q0 -1 0.5 -4t0.5 -5v-20h-8v18q0 7 -1 9q-2 2 -4 2q-3 0 -4 -3q-2 -1 -2 -9v-17h-8v48h8zM292 44l-7 2q1 4 5 8q2 2 8 2h4l3 -1l4 -4
q1 -2 1 -9v-11v-6q0 -1 0.5 -2.5t1.5 -2.5h-8l-1 4l-4 -4q-2 -1 -5 -1q-4 0 -7 3t-3 7q0 2 2 6q0 1 3 3l6 3q5 0 7 2q0 4 -1 5t-4 1q-1 0 -3 -1zM302 29v8l-4 -2q-3 0 -5 -2q-1 -1 -1 -3v-1q1 -1 1 -2q1 -1 3 -1q4 0 6 3zM324 20h-8v35h8v-5l3 5q1 0 3 1q3 0 5 -2l-2 -8
q-2 2 -4 2q-1 0 -3 -2q-1 -2 -1 -4q-1 -2 -1 -11v-11zM336 38q0 5 2 9q1 3 5 7q6 2 8 2q7 0 11 -6t4 -12q0 -4 -2 -10q-4 -5 -6 -7q-4 -2 -7 -2q-6 0 -11 5q-4 4 -4 14zM344 37q0 -6 2 -8q1 -2 5 -2t5 2q2 4 2 8q0 6 -2 8q-2 3 -5 3t-5 -3q-2 -1 -2 -8zM371 20v9h8v-9h-8z
M411 45l-7 -2q-2 6 -6 6q-2 0 -4 -3q-2 -2 -2 -8q0 -5 2 -9q1 -2 4 -2t4 1q2 2 2 5l7 -1q-1 -13 -13 -13q-7 0 -10 5q-4 5 -4 13t4 14q5 5 10 5q4 0 9 -3q3 -3 4 -8zM414 38q0 5 2 9l6 7q4 2 7 2q8 0 11 -6q4 -4 4 -12q0 -7 -2 -10q-1 -3 -5 -7q-6 -2 -8 -2q-7 0 -10 5
q-5 5 -5 14zM422 37q0 -4 2 -8q2 -2 5 -2q4 0 5 2q2 2 2 8q0 7 -2 8q-2 3 -5 3q-2 0 -5 -3q-2 -2 -2 -8zM449 55h7v-5q2 4 4 4q4 2 5 2q3 0 5 -2q1 0 3 -4l4 4q4 2 5 2q3 0 5 -2q3 0 3 -4q2 -2 2 -8v-22h-8v20q0 6 -1 7q-2 2 -3 2q-2 0 -4 -3q-2 -2 -2 -9v-17h-8v19v8
q-2 2 -4 2l-1 -1h-2l-2 -4v-7v-17h-8v35zM171 106v8h17v-19q-4 -4 -7 -5q-6 -3 -10 -3q-7 0 -11 3q-4 2 -7 9q-2 4 -2 14q0 7 2 13q3 6 7 9t10 3q8 0 12 -4q5 -3 5 -11l-8 -1q0 4 -3 5q-1 2 -6 2t-8 -4q-3 -3 -3 -12q0 -8 3 -13q3 -4 8 -4q4 0 5 1l5 3v6h-9zM211 99l8 -1
q-1 -4 -5 -8q-3 -3 -8 -3q-6 0 -9 5q-5 5 -5 14q0 7 5 14q3 4 9 4t9 -4q4 -5 4 -17h-19q0 -4 2 -6q2 -3 4 -3q5 0 5 5zM212 109q0 4 -2 6q-1 2 -4 2q-2 0 -4 -2t-2 -6h12zM238 124v-8h-5v-14v-5q0 -2 2 -2t3 1l1 -7q-4 -2 -6 -2q-3 0 -5 2t-2 4q-1 1 -1 8l-3 15l3 8v7l8 5
v-12h5zM254 124l5 2v7l3 4q1 0 2.5 0.5t2.5 0.5q2 0 4 -0.5t3 -0.5l-1 -7h-6q-1 -1 -1 -6h6v-8h-6v-28h-7v28h-5v8zM294 88v6q-2 -4 -4 -5q-2 -2 -5 -2t-5 2q-3 1 -4 4q0 1 -0.5 3.5t-0.5 4.5v23h8v-17q-1 -2 -1 -5q0 -6 3 -6q1 -1 3 -1t3 1q2 2 2 3q1 2 1 10v15h8v-36h-8z
M309 88v49h7v-49h-7zM324 88v49h7v-49h-7zM350 124l4 2q0 6 1 7l3 4l2 1h3t3 -0.5t3 -0.5l-1 -7h-1q-1 1 -2 1t-3 -1v-4v-2h5v-8h-5v-28h-8v28h-4v8zM369 106q0 4 2 10q3 5 6 6q2 2 7 2q7 0 11 -5t4 -13q0 -4 -2 -10q-3 -5 -6 -6q-3 -3 -7 -3q-6 0 -11 5q-4 8 -4 14z
M377 106q0 -4 2 -8q1 -3 5 -3t5 3q2 4 2 8t-2 8q-1 3 -5 3t-5 -3q-2 -4 -2 -8zM431 88h-8v18q0 6 -1 7q0 3 -1 3q-1 1 -3 1t-3 -1l-3 -3v-9v-16h-8v36h7v-6l5 5q1 1 5 1t5 -1l4 -5q0 -1 0.5 -3.5t0.5 -4.5v-22zM451 124v-8h-5v-14v-5q0 -2 2 -2q1 0 3 1v-7q-2 -2 -6 -2
q-2 0 -4 2l-3 4v8v15h-4v8h4v7l8 5v-12h5zM476 113l-7 1q1 5 4 8q2 2 9 2q5 0 7 -1q3 -1 4 -4l1 -3v-5v-11v-7v-2q1 -2 1 -3h-7l-1 4q-1 0 -2 -1.5t-2 -1.5q-4 -2 -5 -2q-4 0 -7 3t-3 8v3l1 2l3 4l7 2q6 2 7 2v4q0 2 -5 2q-2 0 -3 -1q-2 0 -2 -3zM486 98v7l-2 -1h-2
q-4 -2 -5 -2q-1 -1 -1 -3q0 -3 1 -4t3 -1t3 1zM514 124v-8h-5v-14v-5q0 -2 2 -2q1 0 3 1v-7q-2 -2 -6 -2q-2 0 -4 2q-1 1 -3 4v8v15h-4v8h4v7l8 5v-12h5z" />
    <glyph glyph-name="one" unicode="1" horiz-adv-x="647" 
d="M202 300v385h230v-155h155v-230h-385zM289 578h57v57h-57v-57zM47 300h155v-155zM51 709v59h16q10 0 12 -1q4 -1 7 -6q3 -4 3 -11q0 -6 -3 -11q-2 -5 -6 -6q-4 -2 -13 -2h-6v-22h-10zM61 758v-17h6q6 0 7 1l3 3q1 1 1 5q0 3 -1 5q-2 2 -3 2q-1 1 -8 1h-5zM97 709v59h36
v-10h-26v-13h25v-10h-25v-16h27v-10h-37zM143 709v59h21q9 0 11 -1q3 -1 6 -6q2 -6 2 -9q0 -8 -3 -12q-3 -3 -10 -5l6 -5l5 -10l6 -11h-12l-7 13l-5 8l-3 3l-2 1h-5v-25h-10zM153 743h7q8 0 9 1q1 0 3 2q1 1 1 5q0 3 -1 4l-3 3h-8h-8v-15zM191 728l9 1q2 -11 11 -11q3 0 7 2
q2 4 2 6t-1 3q0 1 -2 3q-1 0 -9 3q-7 2 -9 4q-4 2 -5 6q-2 4 -2 8t2 8q3 5 7 6q2 2 9 2q9 0 14 -4q5 -7 5 -14h-10q-2 5 -3 6q-1 2 -6 2t-6 -1q-2 -1 -2 -4t2 -5q2 -1 9 -3q8 -3 10 -5q3 -1 5 -6q2 -2 2 -9q0 -8 -5 -13t-15 -5q-17 0 -19 20zM237 738q0 10 3 18q4 7 8 10
q6 3 13 3q10 0 17 -8q6 -7 6 -23q0 -15 -7 -23q-6 -7 -16 -7q-11 0 -17 7q-7 8 -7 23zM247 739q0 -11 4 -16q5 -5 10 -5q6 0 9 5q4 5 4 16t-4 15q-3 5 -9 5q-7 0 -10 -5q-4 -4 -4 -15zM293 709v59h9l20 -39v39h10v-59h-10l-20 39v-39h-9zM386 709h-10l-5 13h-19l-4 -13h-11
l19 59h11zM368 732l-6 22l-7 -22h13zM392 709v59h10v-49h25v-10h-35zM455 768h10v-32v-10q2 -4 4 -6t6 -2q2 0 6 2l3 4v11v33h10v-31q0 -14 -1 -17q-1 -6 -6 -9t-12 -3t-12 3q-4 2 -6 7q-2 8 -2 19v31zM503 728l9 1q2 -11 11 -11q3 0 7 2q2 2 2 6q0 2 -1 3q0 1 -2 3
q-1 0 -9 3q-7 2 -9 4q-4 2 -5 6q-2 4 -2 8q0 5 3 8q1 5 6 6q2 2 9 2q10 0 14 -4q5 -7 5 -14h-10q0 5 -3 6q-1 2 -6 2t-6 -1q-2 -1 -2 -4t2 -5q2 -1 9 -3q8 -3 10 -5q3 -1 5 -6q2 -2 2 -9q0 -8 -5 -13t-14 -5q-18 0 -20 20zM551 709v59h36v-10h-26v-13h24v-10h-24v-16h27v-10
h-37zM51 792v59h34v-10h-24v-14h21v-10h-21v-25h-10zM93 792v59h20q10 0 12 -1q4 -2 5 -6q3 -4 3 -9q0 -6 -4 -12q-4 -4 -9 -5l5 -5l6 -10l6 -11h-12l-7 13l-6 8q0 1 -2 3q-1 0 -3 0.5t-4 0.5v-25h-10zM103 826h7q7 0 8 1q3 0 3 2q1 1 1 5q0 3 -1 4q0 2 -3 3h-8h-7v-15z
M142 792v59h36v-10h-26v-13h24v-10h-24v-16h27v-10h-37zM187 792v59h36v-10h-26v-13h25v-10h-25v-16h27v-10h-37zM250 821q0 11 3 18q4 8 8 10q5 3 12 3q12 0 17 -8q7 -7 7 -23q0 -13 -7 -23q-6 -7 -17 -7q-10 0 -17 7q-6 9 -6 23zM260 822q0 -11 4 -16q3 -5 9 -5q5 0 10 5
q4 8 4 16q0 9 -4 15q-5 5 -10 5t-10 -5q-3 -5 -3 -15zM305 792v59h9l20 -39v39h9v-59h-10l-19 39v-39h-9zM354 792v59h10v-49h24v-10h-34zM402 792v25l-17 34h11l11 -23l12 23h11l-18 -34v-25h-10zM453 792v59h33v-10h-23v-14h20v-10h-20v-25h-10zM492 821q0 11 4 18
q4 8 8 10q4 3 12 3q12 0 17 -8q7 -9 7 -23q0 -13 -7 -23q-6 -7 -17 -7t-17 7q-7 10 -7 23zM503 822q0 -10 3 -16q5 -5 10 -5t10 5q4 8 4 16q0 9 -4 15q-5 5 -10 5t-10 -5q-3 -5 -3 -15zM547 792v59h21q9 0 11 -1q5 -2 6 -6q2 -3 2 -9q0 -7 -3 -12q-3 -3 -10 -5l6 -5l5 -10
l6 -11h-12l-7 13l-5 8l-3 3h-2q-3 1 -5 1v-25h-10zM557 826h7q8 0 9 1q1 0 3 2q1 1 1 5q0 3 -1 4l-3 3h-8h-8v-15zM198 20h-7v5q-2 -4 -4 -5t-5 -1q-5 0 -8 5q-4 4 -4 14q0 9 4 13q3 5 8 5q1 0 2.5 -0.5t2.5 -0.5l4 -4v17h7v-48zM178 38q0 -5 1 -7q0 -2 2 -4q1 0 3 -1
q4 0 5 3q2 4 2 8q0 5 -2 9q-1 3 -5 3q-2 0 -4 -3q-2 -2 -2 -8zM222 31l7 -2q-2 -6 -4 -7q-3 -3 -8 -3q-7 0 -10 4q-4 5 -4 14q0 10 4 14q3 5 9 5q5 0 10 -5q4 -4 4 -16h-19q0 -5 2 -7t4 -2q3 0 5 5zM222 40q0 5 -1 7l-4 2q-1 0 -5 -2q-1 -2 -1 -7h11zM232 55l4 3q0 2 0.5 4
t0.5 3l3 3q2 1 5 1q4 0 7 -1l-1 -6h-4q-2 0 -2 -1q-1 0 -1 -6h6v-7h-6v-28h-8v28h-4v7zM261 68v-17l4 4l2 1h3q3 0 5 -2q2 -1 4 -5q0 -1 0.5 -4t0.5 -5v-20h-8v18q0 7 -1 9q-2 2 -4 2q-3 0 -4 -3q-2 -1 -2 -9v-17h-8v48h8zM292 44l-7 2q1 4 5 8q2 2 8 2h4l3 -1l4 -4
q1 -2 1 -9v-11v-6q0 -1 0.5 -2.5t1.5 -2.5h-8l-1 4l-4 -4q-2 -1 -5 -1q-4 0 -7 3t-3 7q0 2 2 6q0 1 3 3l6 3q5 0 7 2q0 4 -1 5t-4 1q-1 0 -3 -1zM302 29v8l-4 -2q-3 0 -5 -2q-1 -1 -1 -3v-1q1 -1 1 -2q1 -1 3 -1q4 0 6 3zM324 20h-8v35h8v-5l3 5q1 0 3 1q3 0 5 -2l-2 -8
q-2 2 -4 2q-1 0 -3 -2q-1 -2 -1 -4q-1 -2 -1 -11v-11zM336 38q0 5 2 9q1 3 5 7q6 2 8 2q7 0 11 -6t4 -12q0 -4 -2 -10q-4 -5 -6 -7q-4 -2 -7 -2q-6 0 -11 5q-4 4 -4 14zM344 37q0 -6 2 -8q1 -2 5 -2t5 2q2 4 2 8q0 6 -2 8q-2 3 -5 3t-5 -3q-2 -1 -2 -8zM371 20v9h8v-9h-8z
M411 45l-7 -2q-2 6 -6 6q-2 0 -4 -3q-2 -2 -2 -8q0 -5 2 -9q1 -2 4 -2t4 1q2 2 2 5l7 -1q-1 -13 -13 -13q-7 0 -10 5q-4 5 -4 13t4 14q5 5 10 5q4 0 9 -3q3 -3 4 -8zM414 38q0 5 2 9l6 7q4 2 7 2q8 0 11 -6q4 -4 4 -12q0 -7 -2 -10q-1 -3 -5 -7q-6 -2 -8 -2q-7 0 -10 5
q-5 5 -5 14zM422 37q0 -4 2 -8q2 -2 5 -2q4 0 5 2q2 2 2 8q0 7 -2 8q-2 3 -5 3q-2 0 -5 -3q-2 -2 -2 -8zM449 55h7v-5q2 4 4 4q4 2 5 2q3 0 5 -2q1 0 3 -4l4 4q4 2 5 2q3 0 5 -2q3 0 3 -4q2 -2 2 -8v-22h-8v20q0 6 -1 7q-2 2 -3 2q-2 0 -4 -3q-2 -2 -2 -9v-17h-8v19v8
q-2 2 -4 2l-1 -1h-2l-2 -4v-7v-17h-8v35zM171 106v8h17v-19q-4 -4 -7 -5q-6 -3 -10 -3q-7 0 -11 3q-4 2 -7 9q-2 4 -2 14q0 7 2 13q3 6 7 9t10 3q8 0 12 -4q5 -3 5 -11l-8 -1q0 4 -3 5q-1 2 -6 2t-8 -4q-3 -3 -3 -12q0 -8 3 -13q3 -4 8 -4q4 0 5 1l5 3v6h-9zM211 99l8 -1
q-1 -4 -5 -8q-3 -3 -8 -3q-6 0 -9 5q-5 5 -5 14q0 7 5 14q3 4 9 4t9 -4q4 -5 4 -17h-19q0 -4 2 -6q2 -3 4 -3q5 0 5 5zM212 109q0 4 -2 6q-1 2 -4 2q-2 0 -4 -2t-2 -6h12zM238 124v-8h-5v-14v-5q0 -2 2 -2t3 1l1 -7q-4 -2 -6 -2q-3 0 -5 2t-2 4q-1 1 -1 8l-3 15l3 8v7l8 5
v-12h5zM254 124l5 2v7l3 4q1 0 2.5 0.5t2.5 0.5q2 0 4 -0.5t3 -0.5l-1 -7h-6q-1 -1 -1 -6h6v-8h-6v-28h-7v28h-5v8zM294 88v6q-2 -4 -4 -5q-2 -2 -5 -2t-5 2q-3 1 -4 4q0 1 -0.5 3.5t-0.5 4.5v23h8v-17q-1 -2 -1 -5q0 -6 3 -6q1 -1 3 -1t3 1q2 2 2 3q1 2 1 10v15h8v-36h-8z
M309 88v49h7v-49h-7zM324 88v49h7v-49h-7zM350 124l4 2q0 6 1 7l3 4l2 1h3t3 -0.5t3 -0.5l-1 -7h-1q-1 1 -2 1t-3 -1v-4v-2h5v-8h-5v-28h-8v28h-4v8zM369 106q0 4 2 10q3 5 6 6q2 2 7 2q7 0 11 -5t4 -13q0 -4 -2 -10q-3 -5 -6 -6q-3 -3 -7 -3q-6 0 -11 5q-4 8 -4 14z
M377 106q0 -4 2 -8q1 -3 5 -3t5 3q2 4 2 8t-2 8q-1 3 -5 3t-5 -3q-2 -4 -2 -8zM431 88h-8v18q0 6 -1 7q0 3 -1 3q-1 1 -3 1t-3 -1l-3 -3v-9v-16h-8v36h7v-6l5 5q1 1 5 1t5 -1l4 -5q0 -1 0.5 -3.5t0.5 -4.5v-22zM451 124v-8h-5v-14v-5q0 -2 2 -2q1 0 3 1v-7q-2 -2 -6 -2
q-2 0 -4 2l-3 4v8v15h-4v8h4v7l8 5v-12h5zM476 113l-7 1q1 5 4 8q2 2 9 2q5 0 7 -1q3 -1 4 -4l1 -3v-5v-11v-7v-2q1 -2 1 -3h-7l-1 4q-1 0 -2 -1.5t-2 -1.5q-4 -2 -5 -2q-4 0 -7 3t-3 8v3l1 2l3 4l7 2q6 2 7 2v4q0 2 -5 2q-2 0 -3 -1q-2 0 -2 -3zM486 98v7l-2 -1h-2
q-4 -2 -5 -2q-1 -1 -1 -3q0 -3 1 -4t3 -1t3 1zM514 124v-8h-5v-14v-5q0 -2 2 -2q1 0 3 1v-7q-2 -2 -6 -2q-2 0 -4 2q-1 1 -3 4v8v15h-4v8h4v7l8 5v-12h5z" />
    <glyph glyph-name="two" unicode="2" horiz-adv-x="630" 
d="M202 300v385h230v-155h155v-230h-385zM289 578h57v57h-57v-57zM47 300h155v-155zM51 709v59h16q10 0 12 -1q4 -1 7 -6q3 -4 3 -11q0 -6 -3 -11q-2 -5 -6 -6q-4 -2 -13 -2h-6v-22h-10zM61 758v-17h6q6 0 7 1l3 3q1 1 1 5q0 3 -1 5q-2 2 -3 2q-1 1 -8 1h-5zM97 709v59h36
v-10h-26v-13h25v-10h-25v-16h27v-10h-37zM143 709v59h21q9 0 11 -1q3 -1 6 -6q2 -6 2 -9q0 -8 -3 -12q-3 -3 -10 -5l6 -5l5 -10l6 -11h-12l-7 13l-5 8l-3 3l-2 1h-5v-25h-10zM153 743h7q8 0 9 1q1 0 3 2q1 1 1 5q0 3 -1 4l-3 3h-8h-8v-15zM191 728l9 1q2 -11 11 -11q3 0 7 2
q2 4 2 6t-1 3q0 1 -2 3q-1 0 -9 3q-7 2 -9 4q-4 2 -5 6q-2 4 -2 8t2 8q3 5 7 6q2 2 9 2q9 0 14 -4q5 -7 5 -14h-10q-2 5 -3 6q-1 2 -6 2t-6 -1q-2 -1 -2 -4t2 -5q2 -1 9 -3q8 -3 10 -5q3 -1 5 -6q2 -2 2 -9q0 -8 -5 -13t-15 -5q-17 0 -19 20zM237 738q0 10 3 18q4 7 8 10
q6 3 13 3q10 0 17 -8q6 -7 6 -23q0 -15 -7 -23q-6 -7 -16 -7q-11 0 -17 7q-7 8 -7 23zM247 739q0 -11 4 -16q5 -5 10 -5q6 0 9 5q4 5 4 16t-4 15q-3 5 -9 5q-7 0 -10 -5q-4 -4 -4 -15zM293 709v59h9l20 -39v39h10v-59h-10l-20 39v-39h-9zM386 709h-10l-5 13h-19l-4 -13h-11
l19 59h11zM368 732l-6 22l-7 -22h13zM392 709v59h10v-49h25v-10h-35zM455 768h10v-32v-10q2 -4 4 -6t6 -2q2 0 6 2l3 4v11v33h10v-31q0 -14 -1 -17q-1 -6 -6 -9t-12 -3t-12 3q-4 2 -6 7q-2 8 -2 19v31zM503 728l9 1q2 -11 11 -11q3 0 7 2q2 2 2 6q0 2 -1 3q0 1 -2 3
q-1 0 -9 3q-7 2 -9 4q-4 2 -5 6q-2 4 -2 8q0 5 3 8q1 5 6 6q2 2 9 2q10 0 14 -4q5 -7 5 -14h-10q0 5 -3 6q-1 2 -6 2t-6 -1q-2 -1 -2 -4t2 -5q2 -1 9 -3q8 -3 10 -5q3 -1 5 -6q2 -2 2 -9q0 -8 -5 -13t-14 -5q-18 0 -20 20zM551 709v59h36v-10h-26v-13h24v-10h-24v-16h27v-10
h-37zM51 792v59h34v-10h-24v-14h21v-10h-21v-25h-10zM93 792v59h20q10 0 12 -1q4 -2 5 -6q3 -4 3 -9q0 -6 -4 -12q-4 -4 -9 -5l5 -5l6 -10l6 -11h-12l-7 13l-6 8q0 1 -2 3q-1 0 -3 0.5t-4 0.5v-25h-10zM103 826h7q7 0 8 1q3 0 3 2q1 1 1 5q0 3 -1 4q0 2 -3 3h-8h-7v-15z
M142 792v59h36v-10h-26v-13h24v-10h-24v-16h27v-10h-37zM187 792v59h36v-10h-26v-13h25v-10h-25v-16h27v-10h-37zM250 821q0 11 3 18q4 8 8 10q5 3 12 3q12 0 17 -8q7 -7 7 -23q0 -13 -7 -23q-6 -7 -17 -7q-10 0 -17 7q-6 9 -6 23zM260 822q0 -11 4 -16q3 -5 9 -5q5 0 10 5
q4 8 4 16q0 9 -4 15q-5 5 -10 5t-10 -5q-3 -5 -3 -15zM305 792v59h9l20 -39v39h9v-59h-10l-19 39v-39h-9zM354 792v59h10v-49h24v-10h-34zM402 792v25l-17 34h11l11 -23l12 23h11l-18 -34v-25h-10zM453 792v59h33v-10h-23v-14h20v-10h-20v-25h-10zM492 821q0 11 4 18
q4 8 8 10q4 3 12 3q12 0 17 -8q7 -9 7 -23q0 -13 -7 -23q-6 -7 -17 -7t-17 7q-7 10 -7 23zM503 822q0 -10 3 -16q5 -5 10 -5t10 5q4 8 4 16q0 9 -4 15q-5 5 -10 5t-10 -5q-3 -5 -3 -15zM547 792v59h21q9 0 11 -1q5 -2 6 -6q2 -3 2 -9q0 -7 -3 -12q-3 -3 -10 -5l6 -5l5 -10
l6 -11h-12l-7 13l-5 8l-3 3h-2q-3 1 -5 1v-25h-10zM557 826h7q8 0 9 1q1 0 3 2q1 1 1 5q0 3 -1 4l-3 3h-8h-8v-15zM198 20h-7v5q-2 -4 -4 -5t-5 -1q-5 0 -8 5q-4 4 -4 14q0 9 4 13q3 5 8 5q1 0 2.5 -0.5t2.5 -0.5l4 -4v17h7v-48zM178 38q0 -5 1 -7q0 -2 2 -4q1 0 3 -1
q4 0 5 3q2 4 2 8q0 5 -2 9q-1 3 -5 3q-2 0 -4 -3q-2 -2 -2 -8zM222 31l7 -2q-2 -6 -4 -7q-3 -3 -8 -3q-7 0 -10 4q-4 5 -4 14q0 10 4 14q3 5 9 5q5 0 10 -5q4 -4 4 -16h-19q0 -5 2 -7t4 -2q3 0 5 5zM222 40q0 5 -1 7l-4 2q-1 0 -5 -2q-1 -2 -1 -7h11zM232 55l4 3q0 2 0.5 4
t0.5 3l3 3q2 1 5 1q4 0 7 -1l-1 -6h-4q-2 0 -2 -1q-1 0 -1 -6h6v-7h-6v-28h-8v28h-4v7zM261 68v-17l4 4l2 1h3q3 0 5 -2q2 -1 4 -5q0 -1 0.5 -4t0.5 -5v-20h-8v18q0 7 -1 9q-2 2 -4 2q-3 0 -4 -3q-2 -1 -2 -9v-17h-8v48h8zM292 44l-7 2q1 4 5 8q2 2 8 2h4l3 -1l4 -4
q1 -2 1 -9v-11v-6q0 -1 0.5 -2.5t1.5 -2.5h-8l-1 4l-4 -4q-2 -1 -5 -1q-4 0 -7 3t-3 7q0 2 2 6q0 1 3 3l6 3q5 0 7 2q0 4 -1 5t-4 1q-1 0 -3 -1zM302 29v8l-4 -2q-3 0 -5 -2q-1 -1 -1 -3v-1q1 -1 1 -2q1 -1 3 -1q4 0 6 3zM324 20h-8v35h8v-5l3 5q1 0 3 1q3 0 5 -2l-2 -8
q-2 2 -4 2q-1 0 -3 -2q-1 -2 -1 -4q-1 -2 -1 -11v-11zM336 38q0 5 2 9q1 3 5 7q6 2 8 2q7 0 11 -6t4 -12q0 -4 -2 -10q-4 -5 -6 -7q-4 -2 -7 -2q-6 0 -11 5q-4 4 -4 14zM344 37q0 -6 2 -8q1 -2 5 -2t5 2q2 4 2 8q0 6 -2 8q-2 3 -5 3t-5 -3q-2 -1 -2 -8zM371 20v9h8v-9h-8z
M411 45l-7 -2q-2 6 -6 6q-2 0 -4 -3q-2 -2 -2 -8q0 -5 2 -9q1 -2 4 -2t4 1q2 2 2 5l7 -1q-1 -13 -13 -13q-7 0 -10 5q-4 5 -4 13t4 14q5 5 10 5q4 0 9 -3q3 -3 4 -8zM414 38q0 5 2 9l6 7q4 2 7 2q8 0 11 -6q4 -4 4 -12q0 -7 -2 -10q-1 -3 -5 -7q-6 -2 -8 -2q-7 0 -10 5
q-5 5 -5 14zM422 37q0 -4 2 -8q2 -2 5 -2q4 0 5 2q2 2 2 8q0 7 -2 8q-2 3 -5 3q-2 0 -5 -3q-2 -2 -2 -8zM449 55h7v-5q2 4 4 4q4 2 5 2q3 0 5 -2q1 0 3 -4l4 4q4 2 5 2q3 0 5 -2q3 0 3 -4q2 -2 2 -8v-22h-8v20q0 6 -1 7q-2 2 -3 2q-2 0 -4 -3q-2 -2 -2 -9v-17h-8v19v8
q-2 2 -4 2l-1 -1h-2l-2 -4v-7v-17h-8v35zM171 106v8h17v-19q-4 -4 -7 -5q-6 -3 -10 -3q-7 0 -11 3q-4 2 -7 9q-2 4 -2 14q0 7 2 13q3 6 7 9t10 3q8 0 12 -4q5 -3 5 -11l-8 -1q0 4 -3 5q-1 2 -6 2t-8 -4q-3 -3 -3 -12q0 -8 3 -13q3 -4 8 -4q4 0 5 1l5 3v6h-9zM211 99l8 -1
q-1 -4 -5 -8q-3 -3 -8 -3q-6 0 -9 5q-5 5 -5 14q0 7 5 14q3 4 9 4t9 -4q4 -5 4 -17h-19q0 -4 2 -6q2 -3 4 -3q5 0 5 5zM212 109q0 4 -2 6q-1 2 -4 2q-2 0 -4 -2t-2 -6h12zM238 124v-8h-5v-14v-5q0 -2 2 -2t3 1l1 -7q-4 -2 -6 -2q-3 0 -5 2t-2 4q-1 1 -1 8l-3 15l3 8v7l8 5
v-12h5zM254 124l5 2v7l3 4q1 0 2.5 0.5t2.5 0.5q2 0 4 -0.5t3 -0.5l-1 -7h-6q-1 -1 -1 -6h6v-8h-6v-28h-7v28h-5v8zM294 88v6q-2 -4 -4 -5q-2 -2 -5 -2t-5 2q-3 1 -4 4q0 1 -0.5 3.5t-0.5 4.5v23h8v-17q-1 -2 -1 -5q0 -6 3 -6q1 -1 3 -1t3 1q2 2 2 3q1 2 1 10v15h8v-36h-8z
M309 88v49h7v-49h-7zM324 88v49h7v-49h-7zM350 124l4 2q0 6 1 7l3 4l2 1h3t3 -0.5t3 -0.5l-1 -7h-1q-1 1 -2 1t-3 -1v-4v-2h5v-8h-5v-28h-8v28h-4v8zM369 106q0 4 2 10q3 5 6 6q2 2 7 2q7 0 11 -5t4 -13q0 -4 -2 -10q-3 -5 -6 -6q-3 -3 -7 -3q-6 0 -11 5q-4 8 -4 14z
M377 106q0 -4 2 -8q1 -3 5 -3t5 3q2 4 2 8t-2 8q-1 3 -5 3t-5 -3q-2 -4 -2 -8zM431 88h-8v18q0 6 -1 7q0 3 -1 3q-1 1 -3 1t-3 -1l-3 -3v-9v-16h-8v36h7v-6l5 5q1 1 5 1t5 -1l4 -5q0 -1 0.5 -3.5t0.5 -4.5v-22zM451 124v-8h-5v-14v-5q0 -2 2 -2q1 0 3 1v-7q-2 -2 -6 -2
q-2 0 -4 2l-3 4v8v15h-4v8h4v7l8 5v-12h5zM476 113l-7 1q1 5 4 8q2 2 9 2q5 0 7 -1q3 -1 4 -4l1 -3v-5v-11v-7v-2q1 -2 1 -3h-7l-1 4q-1 0 -2 -1.5t-2 -1.5q-4 -2 -5 -2q-4 0 -7 3t-3 8v3l1 2l3 4l7 2q6 2 7 2v4q0 2 -5 2q-2 0 -3 -1q-2 0 -2 -3zM486 98v7l-2 -1h-2
q-4 -2 -5 -2q-1 -1 -1 -3q0 -3 1 -4t3 -1t3 1zM514 124v-8h-5v-14v-5q0 -2 2 -2q1 0 3 1v-7q-2 -2 -6 -2q-2 0 -4 2q-1 1 -3 4v8v15h-4v8h4v7l8 5v-12h5z" />
    <glyph glyph-name="three" unicode="3" horiz-adv-x="618" 
d="M202 300v385h230v-155h155v-230h-385zM289 578h57v57h-57v-57zM47 300h155v-155zM51 709v59h16q10 0 12 -1q4 -1 7 -6q3 -4 3 -11q0 -6 -3 -11q-2 -5 -6 -6q-4 -2 -13 -2h-6v-22h-10zM61 758v-17h6q6 0 7 1l3 3q1 1 1 5q0 3 -1 5q-2 2 -3 2q-1 1 -8 1h-5zM97 709v59h36
v-10h-26v-13h25v-10h-25v-16h27v-10h-37zM143 709v59h21q9 0 11 -1q3 -1 6 -6q2 -6 2 -9q0 -8 -3 -12q-3 -3 -10 -5l6 -5l5 -10l6 -11h-12l-7 13l-5 8l-3 3l-2 1h-5v-25h-10zM153 743h7q8 0 9 1q1 0 3 2q1 1 1 5q0 3 -1 4l-3 3h-8h-8v-15zM191 728l9 1q2 -11 11 -11q3 0 7 2
q2 4 2 6t-1 3q0 1 -2 3q-1 0 -9 3q-7 2 -9 4q-4 2 -5 6q-2 4 -2 8t2 8q3 5 7 6q2 2 9 2q9 0 14 -4q5 -7 5 -14h-10q-2 5 -3 6q-1 2 -6 2t-6 -1q-2 -1 -2 -4t2 -5q2 -1 9 -3q8 -3 10 -5q3 -1 5 -6q2 -2 2 -9q0 -8 -5 -13t-15 -5q-17 0 -19 20zM237 738q0 10 3 18q4 7 8 10
q6 3 13 3q10 0 17 -8q6 -7 6 -23q0 -15 -7 -23q-6 -7 -16 -7q-11 0 -17 7q-7 8 -7 23zM247 739q0 -11 4 -16q5 -5 10 -5q6 0 9 5q4 5 4 16t-4 15q-3 5 -9 5q-7 0 -10 -5q-4 -4 -4 -15zM293 709v59h9l20 -39v39h10v-59h-10l-20 39v-39h-9zM386 709h-10l-5 13h-19l-4 -13h-11
l19 59h11zM368 732l-6 22l-7 -22h13zM392 709v59h10v-49h25v-10h-35zM455 768h10v-32v-10q2 -4 4 -6t6 -2q2 0 6 2l3 4v11v33h10v-31q0 -14 -1 -17q-1 -6 -6 -9t-12 -3t-12 3q-4 2 -6 7q-2 8 -2 19v31zM503 728l9 1q2 -11 11 -11q3 0 7 2q2 2 2 6q0 2 -1 3q0 1 -2 3
q-1 0 -9 3q-7 2 -9 4q-4 2 -5 6q-2 4 -2 8q0 5 3 8q1 5 6 6q2 2 9 2q10 0 14 -4q5 -7 5 -14h-10q0 5 -3 6q-1 2 -6 2t-6 -1q-2 -1 -2 -4t2 -5q2 -1 9 -3q8 -3 10 -5q3 -1 5 -6q2 -2 2 -9q0 -8 -5 -13t-14 -5q-18 0 -20 20zM551 709v59h36v-10h-26v-13h24v-10h-24v-16h27v-10
h-37zM51 792v59h34v-10h-24v-14h21v-10h-21v-25h-10zM93 792v59h20q10 0 12 -1q4 -2 5 -6q3 -4 3 -9q0 -6 -4 -12q-4 -4 -9 -5l5 -5l6 -10l6 -11h-12l-7 13l-6 8q0 1 -2 3q-1 0 -3 0.5t-4 0.5v-25h-10zM103 826h7q7 0 8 1q3 0 3 2q1 1 1 5q0 3 -1 4q0 2 -3 3h-8h-7v-15z
M142 792v59h36v-10h-26v-13h24v-10h-24v-16h27v-10h-37zM187 792v59h36v-10h-26v-13h25v-10h-25v-16h27v-10h-37zM250 821q0 11 3 18q4 8 8 10q5 3 12 3q12 0 17 -8q7 -7 7 -23q0 -13 -7 -23q-6 -7 -17 -7q-10 0 -17 7q-6 9 -6 23zM260 822q0 -11 4 -16q3 -5 9 -5q5 0 10 5
q4 8 4 16q0 9 -4 15q-5 5 -10 5t-10 -5q-3 -5 -3 -15zM305 792v59h9l20 -39v39h9v-59h-10l-19 39v-39h-9zM354 792v59h10v-49h24v-10h-34zM402 792v25l-17 34h11l11 -23l12 23h11l-18 -34v-25h-10zM453 792v59h33v-10h-23v-14h20v-10h-20v-25h-10zM492 821q0 11 4 18
q4 8 8 10q4 3 12 3q12 0 17 -8q7 -9 7 -23q0 -13 -7 -23q-6 -7 -17 -7t-17 7q-7 10 -7 23zM503 822q0 -10 3 -16q5 -5 10 -5t10 5q4 8 4 16q0 9 -4 15q-5 5 -10 5t-10 -5q-3 -5 -3 -15zM547 792v59h21q9 0 11 -1q5 -2 6 -6q2 -3 2 -9q0 -7 -3 -12q-3 -3 -10 -5l6 -5l5 -10
l6 -11h-12l-7 13l-5 8l-3 3h-2q-3 1 -5 1v-25h-10zM557 826h7q8 0 9 1q1 0 3 2q1 1 1 5q0 3 -1 4l-3 3h-8h-8v-15zM198 20h-7v5q-2 -4 -4 -5t-5 -1q-5 0 -8 5q-4 4 -4 14q0 9 4 13q3 5 8 5q1 0 2.5 -0.5t2.5 -0.5l4 -4v17h7v-48zM178 38q0 -5 1 -7q0 -2 2 -4q1 0 3 -1
q4 0 5 3q2 4 2 8q0 5 -2 9q-1 3 -5 3q-2 0 -4 -3q-2 -2 -2 -8zM222 31l7 -2q-2 -6 -4 -7q-3 -3 -8 -3q-7 0 -10 4q-4 5 -4 14q0 10 4 14q3 5 9 5q5 0 10 -5q4 -4 4 -16h-19q0 -5 2 -7t4 -2q3 0 5 5zM222 40q0 5 -1 7l-4 2q-1 0 -5 -2q-1 -2 -1 -7h11zM232 55l4 3q0 2 0.5 4
t0.5 3l3 3q2 1 5 1q4 0 7 -1l-1 -6h-4q-2 0 -2 -1q-1 0 -1 -6h6v-7h-6v-28h-8v28h-4v7zM261 68v-17l4 4l2 1h3q3 0 5 -2q2 -1 4 -5q0 -1 0.5 -4t0.5 -5v-20h-8v18q0 7 -1 9q-2 2 -4 2q-3 0 -4 -3q-2 -1 -2 -9v-17h-8v48h8zM292 44l-7 2q1 4 5 8q2 2 8 2h4l3 -1l4 -4
q1 -2 1 -9v-11v-6q0 -1 0.5 -2.5t1.5 -2.5h-8l-1 4l-4 -4q-2 -1 -5 -1q-4 0 -7 3t-3 7q0 2 2 6q0 1 3 3l6 3q5 0 7 2q0 4 -1 5t-4 1q-1 0 -3 -1zM302 29v8l-4 -2q-3 0 -5 -2q-1 -1 -1 -3v-1q1 -1 1 -2q1 -1 3 -1q4 0 6 3zM324 20h-8v35h8v-5l3 5q1 0 3 1q3 0 5 -2l-2 -8
q-2 2 -4 2q-1 0 -3 -2q-1 -2 -1 -4q-1 -2 -1 -11v-11zM336 38q0 5 2 9q1 3 5 7q6 2 8 2q7 0 11 -6t4 -12q0 -4 -2 -10q-4 -5 -6 -7q-4 -2 -7 -2q-6 0 -11 5q-4 4 -4 14zM344 37q0 -6 2 -8q1 -2 5 -2t5 2q2 4 2 8q0 6 -2 8q-2 3 -5 3t-5 -3q-2 -1 -2 -8zM371 20v9h8v-9h-8z
M411 45l-7 -2q-2 6 -6 6q-2 0 -4 -3q-2 -2 -2 -8q0 -5 2 -9q1 -2 4 -2t4 1q2 2 2 5l7 -1q-1 -13 -13 -13q-7 0 -10 5q-4 5 -4 13t4 14q5 5 10 5q4 0 9 -3q3 -3 4 -8zM414 38q0 5 2 9l6 7q4 2 7 2q8 0 11 -6q4 -4 4 -12q0 -7 -2 -10q-1 -3 -5 -7q-6 -2 -8 -2q-7 0 -10 5
q-5 5 -5 14zM422 37q0 -4 2 -8q2 -2 5 -2q4 0 5 2q2 2 2 8q0 7 -2 8q-2 3 -5 3q-2 0 -5 -3q-2 -2 -2 -8zM449 55h7v-5q2 4 4 4q4 2 5 2q3 0 5 -2q1 0 3 -4l4 4q4 2 5 2q3 0 5 -2q3 0 3 -4q2 -2 2 -8v-22h-8v20q0 6 -1 7q-2 2 -3 2q-2 0 -4 -3q-2 -2 -2 -9v-17h-8v19v8
q-2 2 -4 2l-1 -1h-2l-2 -4v-7v-17h-8v35zM171 106v8h17v-19q-4 -4 -7 -5q-6 -3 -10 -3q-7 0 -11 3q-4 2 -7 9q-2 4 -2 14q0 7 2 13q3 6 7 9t10 3q8 0 12 -4q5 -3 5 -11l-8 -1q0 4 -3 5q-1 2 -6 2t-8 -4q-3 -3 -3 -12q0 -8 3 -13q3 -4 8 -4q4 0 5 1l5 3v6h-9zM211 99l8 -1
q-1 -4 -5 -8q-3 -3 -8 -3q-6 0 -9 5q-5 5 -5 14q0 7 5 14q3 4 9 4t9 -4q4 -5 4 -17h-19q0 -4 2 -6q2 -3 4 -3q5 0 5 5zM212 109q0 4 -2 6q-1 2 -4 2q-2 0 -4 -2t-2 -6h12zM238 124v-8h-5v-14v-5q0 -2 2 -2t3 1l1 -7q-4 -2 -6 -2q-3 0 -5 2t-2 4q-1 1 -1 8l-3 15l3 8v7l8 5
v-12h5zM254 124l5 2v7l3 4q1 0 2.5 0.5t2.5 0.5q2 0 4 -0.5t3 -0.5l-1 -7h-6q-1 -1 -1 -6h6v-8h-6v-28h-7v28h-5v8zM294 88v6q-2 -4 -4 -5q-2 -2 -5 -2t-5 2q-3 1 -4 4q0 1 -0.5 3.5t-0.5 4.5v23h8v-17q-1 -2 -1 -5q0 -6 3 -6q1 -1 3 -1t3 1q2 2 2 3q1 2 1 10v15h8v-36h-8z
M309 88v49h7v-49h-7zM324 88v49h7v-49h-7zM350 124l4 2q0 6 1 7l3 4l2 1h3t3 -0.5t3 -0.5l-1 -7h-1q-1 1 -2 1t-3 -1v-4v-2h5v-8h-5v-28h-8v28h-4v8zM369 106q0 4 2 10q3 5 6 6q2 2 7 2q7 0 11 -5t4 -13q0 -4 -2 -10q-3 -5 -6 -6q-3 -3 -7 -3q-6 0 -11 5q-4 8 -4 14z
M377 106q0 -4 2 -8q1 -3 5 -3t5 3q2 4 2 8t-2 8q-1 3 -5 3t-5 -3q-2 -4 -2 -8zM431 88h-8v18q0 6 -1 7q0 3 -1 3q-1 1 -3 1t-3 -1l-3 -3v-9v-16h-8v36h7v-6l5 5q1 1 5 1t5 -1l4 -5q0 -1 0.5 -3.5t0.5 -4.5v-22zM451 124v-8h-5v-14v-5q0 -2 2 -2q1 0 3 1v-7q-2 -2 -6 -2
q-2 0 -4 2l-3 4v8v15h-4v8h4v7l8 5v-12h5zM476 113l-7 1q1 5 4 8q2 2 9 2q5 0 7 -1q3 -1 4 -4l1 -3v-5v-11v-7v-2q1 -2 1 -3h-7l-1 4q-1 0 -2 -1.5t-2 -1.5q-4 -2 -5 -2q-4 0 -7 3t-3 8v3l1 2l3 4l7 2q6 2 7 2v4q0 2 -5 2q-2 0 -3 -1q-2 0 -2 -3zM486 98v7l-2 -1h-2
q-4 -2 -5 -2q-1 -1 -1 -3q0 -3 1 -4t3 -1t3 1zM514 124v-8h-5v-14v-5q0 -2 2 -2q1 0 3 1v-7q-2 -2 -6 -2q-2 0 -4 2q-1 1 -3 4v8v15h-4v8h4v7l8 5v-12h5z" />
    <glyph glyph-name="four" unicode="4" horiz-adv-x="633" 
d="M202 300v385h230v-155h155v-230h-385zM289 578h57v57h-57v-57zM47 300h155v-155zM51 709v59h16q10 0 12 -1q4 -1 7 -6q3 -4 3 -11q0 -6 -3 -11q-2 -5 -6 -6q-4 -2 -13 -2h-6v-22h-10zM61 758v-17h6q6 0 7 1l3 3q1 1 1 5q0 3 -1 5q-2 2 -3 2q-1 1 -8 1h-5zM97 709v59h36
v-10h-26v-13h25v-10h-25v-16h27v-10h-37zM143 709v59h21q9 0 11 -1q3 -1 6 -6q2 -6 2 -9q0 -8 -3 -12q-3 -3 -10 -5l6 -5l5 -10l6 -11h-12l-7 13l-5 8l-3 3l-2 1h-5v-25h-10zM153 743h7q8 0 9 1q1 0 3 2q1 1 1 5q0 3 -1 4l-3 3h-8h-8v-15zM191 728l9 1q2 -11 11 -11q3 0 7 2
q2 4 2 6t-1 3q0 1 -2 3q-1 0 -9 3q-7 2 -9 4q-4 2 -5 6q-2 4 -2 8t2 8q3 5 7 6q2 2 9 2q9 0 14 -4q5 -7 5 -14h-10q-2 5 -3 6q-1 2 -6 2t-6 -1q-2 -1 -2 -4t2 -5q2 -1 9 -3q8 -3 10 -5q3 -1 5 -6q2 -2 2 -9q0 -8 -5 -13t-15 -5q-17 0 -19 20zM237 738q0 10 3 18q4 7 8 10
q6 3 13 3q10 0 17 -8q6 -7 6 -23q0 -15 -7 -23q-6 -7 -16 -7q-11 0 -17 7q-7 8 -7 23zM247 739q0 -11 4 -16q5 -5 10 -5q6 0 9 5q4 5 4 16t-4 15q-3 5 -9 5q-7 0 -10 -5q-4 -4 -4 -15zM293 709v59h9l20 -39v39h10v-59h-10l-20 39v-39h-9zM386 709h-10l-5 13h-19l-4 -13h-11
l19 59h11zM368 732l-6 22l-7 -22h13zM392 709v59h10v-49h25v-10h-35zM455 768h10v-32v-10q2 -4 4 -6t6 -2q2 0 6 2l3 4v11v33h10v-31q0 -14 -1 -17q-1 -6 -6 -9t-12 -3t-12 3q-4 2 -6 7q-2 8 -2 19v31zM503 728l9 1q2 -11 11 -11q3 0 7 2q2 2 2 6q0 2 -1 3q0 1 -2 3
q-1 0 -9 3q-7 2 -9 4q-4 2 -5 6q-2 4 -2 8q0 5 3 8q1 5 6 6q2 2 9 2q10 0 14 -4q5 -7 5 -14h-10q0 5 -3 6q-1 2 -6 2t-6 -1q-2 -1 -2 -4t2 -5q2 -1 9 -3q8 -3 10 -5q3 -1 5 -6q2 -2 2 -9q0 -8 -5 -13t-14 -5q-18 0 -20 20zM551 709v59h36v-10h-26v-13h24v-10h-24v-16h27v-10
h-37zM51 792v59h34v-10h-24v-14h21v-10h-21v-25h-10zM93 792v59h20q10 0 12 -1q4 -2 5 -6q3 -4 3 -9q0 -6 -4 -12q-4 -4 -9 -5l5 -5l6 -10l6 -11h-12l-7 13l-6 8q0 1 -2 3q-1 0 -3 0.5t-4 0.5v-25h-10zM103 826h7q7 0 8 1q3 0 3 2q1 1 1 5q0 3 -1 4q0 2 -3 3h-8h-7v-15z
M142 792v59h36v-10h-26v-13h24v-10h-24v-16h27v-10h-37zM187 792v59h36v-10h-26v-13h25v-10h-25v-16h27v-10h-37zM250 821q0 11 3 18q4 8 8 10q5 3 12 3q12 0 17 -8q7 -7 7 -23q0 -13 -7 -23q-6 -7 -17 -7q-10 0 -17 7q-6 9 -6 23zM260 822q0 -11 4 -16q3 -5 9 -5q5 0 10 5
q4 8 4 16q0 9 -4 15q-5 5 -10 5t-10 -5q-3 -5 -3 -15zM305 792v59h9l20 -39v39h9v-59h-10l-19 39v-39h-9zM354 792v59h10v-49h24v-10h-34zM402 792v25l-17 34h11l11 -23l12 23h11l-18 -34v-25h-10zM453 792v59h33v-10h-23v-14h20v-10h-20v-25h-10zM492 821q0 11 4 18
q4 8 8 10q4 3 12 3q12 0 17 -8q7 -9 7 -23q0 -13 -7 -23q-6 -7 -17 -7t-17 7q-7 10 -7 23zM503 822q0 -10 3 -16q5 -5 10 -5t10 5q4 8 4 16q0 9 -4 15q-5 5 -10 5t-10 -5q-3 -5 -3 -15zM547 792v59h21q9 0 11 -1q5 -2 6 -6q2 -3 2 -9q0 -7 -3 -12q-3 -3 -10 -5l6 -5l5 -10
l6 -11h-12l-7 13l-5 8l-3 3h-2q-3 1 -5 1v-25h-10zM557 826h7q8 0 9 1q1 0 3 2q1 1 1 5q0 3 -1 4l-3 3h-8h-8v-15zM198 20h-7v5q-2 -4 -4 -5t-5 -1q-5 0 -8 5q-4 4 -4 14q0 9 4 13q3 5 8 5q1 0 2.5 -0.5t2.5 -0.5l4 -4v17h7v-48zM178 38q0 -5 1 -7q0 -2 2 -4q1 0 3 -1
q4 0 5 3q2 4 2 8q0 5 -2 9q-1 3 -5 3q-2 0 -4 -3q-2 -2 -2 -8zM222 31l7 -2q-2 -6 -4 -7q-3 -3 -8 -3q-7 0 -10 4q-4 5 -4 14q0 10 4 14q3 5 9 5q5 0 10 -5q4 -4 4 -16h-19q0 -5 2 -7t4 -2q3 0 5 5zM222 40q0 5 -1 7l-4 2q-1 0 -5 -2q-1 -2 -1 -7h11zM232 55l4 3q0 2 0.5 4
t0.5 3l3 3q2 1 5 1q4 0 7 -1l-1 -6h-4q-2 0 -2 -1q-1 0 -1 -6h6v-7h-6v-28h-8v28h-4v7zM261 68v-17l4 4l2 1h3q3 0 5 -2q2 -1 4 -5q0 -1 0.5 -4t0.5 -5v-20h-8v18q0 7 -1 9q-2 2 -4 2q-3 0 -4 -3q-2 -1 -2 -9v-17h-8v48h8zM292 44l-7 2q1 4 5 8q2 2 8 2h4l3 -1l4 -4
q1 -2 1 -9v-11v-6q0 -1 0.5 -2.5t1.5 -2.5h-8l-1 4l-4 -4q-2 -1 -5 -1q-4 0 -7 3t-3 7q0 2 2 6q0 1 3 3l6 3q5 0 7 2q0 4 -1 5t-4 1q-1 0 -3 -1zM302 29v8l-4 -2q-3 0 -5 -2q-1 -1 -1 -3v-1q1 -1 1 -2q1 -1 3 -1q4 0 6 3zM324 20h-8v35h8v-5l3 5q1 0 3 1q3 0 5 -2l-2 -8
q-2 2 -4 2q-1 0 -3 -2q-1 -2 -1 -4q-1 -2 -1 -11v-11zM336 38q0 5 2 9q1 3 5 7q6 2 8 2q7 0 11 -6t4 -12q0 -4 -2 -10q-4 -5 -6 -7q-4 -2 -7 -2q-6 0 -11 5q-4 4 -4 14zM344 37q0 -6 2 -8q1 -2 5 -2t5 2q2 4 2 8q0 6 -2 8q-2 3 -5 3t-5 -3q-2 -1 -2 -8zM371 20v9h8v-9h-8z
M411 45l-7 -2q-2 6 -6 6q-2 0 -4 -3q-2 -2 -2 -8q0 -5 2 -9q1 -2 4 -2t4 1q2 2 2 5l7 -1q-1 -13 -13 -13q-7 0 -10 5q-4 5 -4 13t4 14q5 5 10 5q4 0 9 -3q3 -3 4 -8zM414 38q0 5 2 9l6 7q4 2 7 2q8 0 11 -6q4 -4 4 -12q0 -7 -2 -10q-1 -3 -5 -7q-6 -2 -8 -2q-7 0 -10 5
q-5 5 -5 14zM422 37q0 -4 2 -8q2 -2 5 -2q4 0 5 2q2 2 2 8q0 7 -2 8q-2 3 -5 3q-2 0 -5 -3q-2 -2 -2 -8zM449 55h7v-5q2 4 4 4q4 2 5 2q3 0 5 -2q1 0 3 -4l4 4q4 2 5 2q3 0 5 -2q3 0 3 -4q2 -2 2 -8v-22h-8v20q0 6 -1 7q-2 2 -3 2q-2 0 -4 -3q-2 -2 -2 -9v-17h-8v19v8
q-2 2 -4 2l-1 -1h-2l-2 -4v-7v-17h-8v35zM171 106v8h17v-19q-4 -4 -7 -5q-6 -3 -10 -3q-7 0 -11 3q-4 2 -7 9q-2 4 -2 14q0 7 2 13q3 6 7 9t10 3q8 0 12 -4q5 -3 5 -11l-8 -1q0 4 -3 5q-1 2 -6 2t-8 -4q-3 -3 -3 -12q0 -8 3 -13q3 -4 8 -4q4 0 5 1l5 3v6h-9zM211 99l8 -1
q-1 -4 -5 -8q-3 -3 -8 -3q-6 0 -9 5q-5 5 -5 14q0 7 5 14q3 4 9 4t9 -4q4 -5 4 -17h-19q0 -4 2 -6q2 -3 4 -3q5 0 5 5zM212 109q0 4 -2 6q-1 2 -4 2q-2 0 -4 -2t-2 -6h12zM238 124v-8h-5v-14v-5q0 -2 2 -2t3 1l1 -7q-4 -2 -6 -2q-3 0 -5 2t-2 4q-1 1 -1 8l-3 15l3 8v7l8 5
v-12h5zM254 124l5 2v7l3 4q1 0 2.5 0.5t2.5 0.5q2 0 4 -0.5t3 -0.5l-1 -7h-6q-1 -1 -1 -6h6v-8h-6v-28h-7v28h-5v8zM294 88v6q-2 -4 -4 -5q-2 -2 -5 -2t-5 2q-3 1 -4 4q0 1 -0.5 3.5t-0.5 4.5v23h8v-17q-1 -2 -1 -5q0 -6 3 -6q1 -1 3 -1t3 1q2 2 2 3q1 2 1 10v15h8v-36h-8z
M309 88v49h7v-49h-7zM324 88v49h7v-49h-7zM350 124l4 2q0 6 1 7l3 4l2 1h3t3 -0.5t3 -0.5l-1 -7h-1q-1 1 -2 1t-3 -1v-4v-2h5v-8h-5v-28h-8v28h-4v8zM369 106q0 4 2 10q3 5 6 6q2 2 7 2q7 0 11 -5t4 -13q0 -4 -2 -10q-3 -5 -6 -6q-3 -3 -7 -3q-6 0 -11 5q-4 8 -4 14z
M377 106q0 -4 2 -8q1 -3 5 -3t5 3q2 4 2 8t-2 8q-1 3 -5 3t-5 -3q-2 -4 -2 -8zM431 88h-8v18q0 6 -1 7q0 3 -1 3q-1 1 -3 1t-3 -1l-3 -3v-9v-16h-8v36h7v-6l5 5q1 1 5 1t5 -1l4 -5q0 -1 0.5 -3.5t0.5 -4.5v-22zM451 124v-8h-5v-14v-5q0 -2 2 -2q1 0 3 1v-7q-2 -2 -6 -2
q-2 0 -4 2l-3 4v8v15h-4v8h4v7l8 5v-12h5zM476 113l-7 1q1 5 4 8q2 2 9 2q5 0 7 -1q3 -1 4 -4l1 -3v-5v-11v-7v-2q1 -2 1 -3h-7l-1 4q-1 0 -2 -1.5t-2 -1.5q-4 -2 -5 -2q-4 0 -7 3t-3 8v3l1 2l3 4l7 2q6 2 7 2v4q0 2 -5 2q-2 0 -3 -1q-2 0 -2 -3zM486 98v7l-2 -1h-2
q-4 -2 -5 -2q-1 -1 -1 -3q0 -3 1 -4t3 -1t3 1zM514 124v-8h-5v-14v-5q0 -2 2 -2q1 0 3 1v-7q-2 -2 -6 -2q-2 0 -4 2q-1 1 -3 4v8v15h-4v8h4v7l8 5v-12h5z" />
    <glyph glyph-name="five" unicode="5" horiz-adv-x="613" 
d="M202 300v385h230v-155h155v-230h-385zM289 578h57v57h-57v-57zM47 300h155v-155zM51 709v59h16q10 0 12 -1q4 -1 7 -6q3 -4 3 -11q0 -6 -3 -11q-2 -5 -6 -6q-4 -2 -13 -2h-6v-22h-10zM61 758v-17h6q6 0 7 1l3 3q1 1 1 5q0 3 -1 5q-2 2 -3 2q-1 1 -8 1h-5zM97 709v59h36
v-10h-26v-13h25v-10h-25v-16h27v-10h-37zM143 709v59h21q9 0 11 -1q3 -1 6 -6q2 -6 2 -9q0 -8 -3 -12q-3 -3 -10 -5l6 -5l5 -10l6 -11h-12l-7 13l-5 8l-3 3l-2 1h-5v-25h-10zM153 743h7q8 0 9 1q1 0 3 2q1 1 1 5q0 3 -1 4l-3 3h-8h-8v-15zM191 728l9 1q2 -11 11 -11q3 0 7 2
q2 4 2 6t-1 3q0 1 -2 3q-1 0 -9 3q-7 2 -9 4q-4 2 -5 6q-2 4 -2 8t2 8q3 5 7 6q2 2 9 2q9 0 14 -4q5 -7 5 -14h-10q-2 5 -3 6q-1 2 -6 2t-6 -1q-2 -1 -2 -4t2 -5q2 -1 9 -3q8 -3 10 -5q3 -1 5 -6q2 -2 2 -9q0 -8 -5 -13t-15 -5q-17 0 -19 20zM237 738q0 10 3 18q4 7 8 10
q6 3 13 3q10 0 17 -8q6 -7 6 -23q0 -15 -7 -23q-6 -7 -16 -7q-11 0 -17 7q-7 8 -7 23zM247 739q0 -11 4 -16q5 -5 10 -5q6 0 9 5q4 5 4 16t-4 15q-3 5 -9 5q-7 0 -10 -5q-4 -4 -4 -15zM293 709v59h9l20 -39v39h10v-59h-10l-20 39v-39h-9zM386 709h-10l-5 13h-19l-4 -13h-11
l19 59h11zM368 732l-6 22l-7 -22h13zM392 709v59h10v-49h25v-10h-35zM455 768h10v-32v-10q2 -4 4 -6t6 -2q2 0 6 2l3 4v11v33h10v-31q0 -14 -1 -17q-1 -6 -6 -9t-12 -3t-12 3q-4 2 -6 7q-2 8 -2 19v31zM503 728l9 1q2 -11 11 -11q3 0 7 2q2 2 2 6q0 2 -1 3q0 1 -2 3
q-1 0 -9 3q-7 2 -9 4q-4 2 -5 6q-2 4 -2 8q0 5 3 8q1 5 6 6q2 2 9 2q10 0 14 -4q5 -7 5 -14h-10q0 5 -3 6q-1 2 -6 2t-6 -1q-2 -1 -2 -4t2 -5q2 -1 9 -3q8 -3 10 -5q3 -1 5 -6q2 -2 2 -9q0 -8 -5 -13t-14 -5q-18 0 -20 20zM551 709v59h36v-10h-26v-13h24v-10h-24v-16h27v-10
h-37zM51 792v59h34v-10h-24v-14h21v-10h-21v-25h-10zM93 792v59h20q10 0 12 -1q4 -2 5 -6q3 -4 3 -9q0 -6 -4 -12q-4 -4 -9 -5l5 -5l6 -10l6 -11h-12l-7 13l-6 8q0 1 -2 3q-1 0 -3 0.5t-4 0.5v-25h-10zM103 826h7q7 0 8 1q3 0 3 2q1 1 1 5q0 3 -1 4q0 2 -3 3h-8h-7v-15z
M142 792v59h36v-10h-26v-13h24v-10h-24v-16h27v-10h-37zM187 792v59h36v-10h-26v-13h25v-10h-25v-16h27v-10h-37zM250 821q0 11 3 18q4 8 8 10q5 3 12 3q12 0 17 -8q7 -7 7 -23q0 -13 -7 -23q-6 -7 -17 -7q-10 0 -17 7q-6 9 -6 23zM260 822q0 -11 4 -16q3 -5 9 -5q5 0 10 5
q4 8 4 16q0 9 -4 15q-5 5 -10 5t-10 -5q-3 -5 -3 -15zM305 792v59h9l20 -39v39h9v-59h-10l-19 39v-39h-9zM354 792v59h10v-49h24v-10h-34zM402 792v25l-17 34h11l11 -23l12 23h11l-18 -34v-25h-10zM453 792v59h33v-10h-23v-14h20v-10h-20v-25h-10zM492 821q0 11 4 18
q4 8 8 10q4 3 12 3q12 0 17 -8q7 -9 7 -23q0 -13 -7 -23q-6 -7 -17 -7t-17 7q-7 10 -7 23zM503 822q0 -10 3 -16q5 -5 10 -5t10 5q4 8 4 16q0 9 -4 15q-5 5 -10 5t-10 -5q-3 -5 -3 -15zM547 792v59h21q9 0 11 -1q5 -2 6 -6q2 -3 2 -9q0 -7 -3 -12q-3 -3 -10 -5l6 -5l5 -10
l6 -11h-12l-7 13l-5 8l-3 3h-2q-3 1 -5 1v-25h-10zM557 826h7q8 0 9 1q1 0 3 2q1 1 1 5q0 3 -1 4l-3 3h-8h-8v-15zM198 20h-7v5q-2 -4 -4 -5t-5 -1q-5 0 -8 5q-4 4 -4 14q0 9 4 13q3 5 8 5q1 0 2.5 -0.5t2.5 -0.5l4 -4v17h7v-48zM178 38q0 -5 1 -7q0 -2 2 -4q1 0 3 -1
q4 0 5 3q2 4 2 8q0 5 -2 9q-1 3 -5 3q-2 0 -4 -3q-2 -2 -2 -8zM222 31l7 -2q-2 -6 -4 -7q-3 -3 -8 -3q-7 0 -10 4q-4 5 -4 14q0 10 4 14q3 5 9 5q5 0 10 -5q4 -4 4 -16h-19q0 -5 2 -7t4 -2q3 0 5 5zM222 40q0 5 -1 7l-4 2q-1 0 -5 -2q-1 -2 -1 -7h11zM232 55l4 3q0 2 0.5 4
t0.5 3l3 3q2 1 5 1q4 0 7 -1l-1 -6h-4q-2 0 -2 -1q-1 0 -1 -6h6v-7h-6v-28h-8v28h-4v7zM261 68v-17l4 4l2 1h3q3 0 5 -2q2 -1 4 -5q0 -1 0.5 -4t0.5 -5v-20h-8v18q0 7 -1 9q-2 2 -4 2q-3 0 -4 -3q-2 -1 -2 -9v-17h-8v48h8zM292 44l-7 2q1 4 5 8q2 2 8 2h4l3 -1l4 -4
q1 -2 1 -9v-11v-6q0 -1 0.5 -2.5t1.5 -2.5h-8l-1 4l-4 -4q-2 -1 -5 -1q-4 0 -7 3t-3 7q0 2 2 6q0 1 3 3l6 3q5 0 7 2q0 4 -1 5t-4 1q-1 0 -3 -1zM302 29v8l-4 -2q-3 0 -5 -2q-1 -1 -1 -3v-1q1 -1 1 -2q1 -1 3 -1q4 0 6 3zM324 20h-8v35h8v-5l3 5q1 0 3 1q3 0 5 -2l-2 -8
q-2 2 -4 2q-1 0 -3 -2q-1 -2 -1 -4q-1 -2 -1 -11v-11zM336 38q0 5 2 9q1 3 5 7q6 2 8 2q7 0 11 -6t4 -12q0 -4 -2 -10q-4 -5 -6 -7q-4 -2 -7 -2q-6 0 -11 5q-4 4 -4 14zM344 37q0 -6 2 -8q1 -2 5 -2t5 2q2 4 2 8q0 6 -2 8q-2 3 -5 3t-5 -3q-2 -1 -2 -8zM371 20v9h8v-9h-8z
M411 45l-7 -2q-2 6 -6 6q-2 0 -4 -3q-2 -2 -2 -8q0 -5 2 -9q1 -2 4 -2t4 1q2 2 2 5l7 -1q-1 -13 -13 -13q-7 0 -10 5q-4 5 -4 13t4 14q5 5 10 5q4 0 9 -3q3 -3 4 -8zM414 38q0 5 2 9l6 7q4 2 7 2q8 0 11 -6q4 -4 4 -12q0 -7 -2 -10q-1 -3 -5 -7q-6 -2 -8 -2q-7 0 -10 5
q-5 5 -5 14zM422 37q0 -4 2 -8q2 -2 5 -2q4 0 5 2q2 2 2 8q0 7 -2 8q-2 3 -5 3q-2 0 -5 -3q-2 -2 -2 -8zM449 55h7v-5q2 4 4 4q4 2 5 2q3 0 5 -2q1 0 3 -4l4 4q4 2 5 2q3 0 5 -2q3 0 3 -4q2 -2 2 -8v-22h-8v20q0 6 -1 7q-2 2 -3 2q-2 0 -4 -3q-2 -2 -2 -9v-17h-8v19v8
q-2 2 -4 2l-1 -1h-2l-2 -4v-7v-17h-8v35zM171 106v8h17v-19q-4 -4 -7 -5q-6 -3 -10 -3q-7 0 -11 3q-4 2 -7 9q-2 4 -2 14q0 7 2 13q3 6 7 9t10 3q8 0 12 -4q5 -3 5 -11l-8 -1q0 4 -3 5q-1 2 -6 2t-8 -4q-3 -3 -3 -12q0 -8 3 -13q3 -4 8 -4q4 0 5 1l5 3v6h-9zM211 99l8 -1
q-1 -4 -5 -8q-3 -3 -8 -3q-6 0 -9 5q-5 5 -5 14q0 7 5 14q3 4 9 4t9 -4q4 -5 4 -17h-19q0 -4 2 -6q2 -3 4 -3q5 0 5 5zM212 109q0 4 -2 6q-1 2 -4 2q-2 0 -4 -2t-2 -6h12zM238 124v-8h-5v-14v-5q0 -2 2 -2t3 1l1 -7q-4 -2 -6 -2q-3 0 -5 2t-2 4q-1 1 -1 8l-3 15l3 8v7l8 5
v-12h5zM254 124l5 2v7l3 4q1 0 2.5 0.5t2.5 0.5q2 0 4 -0.5t3 -0.5l-1 -7h-6q-1 -1 -1 -6h6v-8h-6v-28h-7v28h-5v8zM294 88v6q-2 -4 -4 -5q-2 -2 -5 -2t-5 2q-3 1 -4 4q0 1 -0.5 3.5t-0.5 4.5v23h8v-17q-1 -2 -1 -5q0 -6 3 -6q1 -1 3 -1t3 1q2 2 2 3q1 2 1 10v15h8v-36h-8z
M309 88v49h7v-49h-7zM324 88v49h7v-49h-7zM350 124l4 2q0 6 1 7l3 4l2 1h3t3 -0.5t3 -0.5l-1 -7h-1q-1 1 -2 1t-3 -1v-4v-2h5v-8h-5v-28h-8v28h-4v8zM369 106q0 4 2 10q3 5 6 6q2 2 7 2q7 0 11 -5t4 -13q0 -4 -2 -10q-3 -5 -6 -6q-3 -3 -7 -3q-6 0 -11 5q-4 8 -4 14z
M377 106q0 -4 2 -8q1 -3 5 -3t5 3q2 4 2 8t-2 8q-1 3 -5 3t-5 -3q-2 -4 -2 -8zM431 88h-8v18q0 6 -1 7q0 3 -1 3q-1 1 -3 1t-3 -1l-3 -3v-9v-16h-8v36h7v-6l5 5q1 1 5 1t5 -1l4 -5q0 -1 0.5 -3.5t0.5 -4.5v-22zM451 124v-8h-5v-14v-5q0 -2 2 -2q1 0 3 1v-7q-2 -2 -6 -2
q-2 0 -4 2l-3 4v8v15h-4v8h4v7l8 5v-12h5zM476 113l-7 1q1 5 4 8q2 2 9 2q5 0 7 -1q3 -1 4 -4l1 -3v-5v-11v-7v-2q1 -2 1 -3h-7l-1 4q-1 0 -2 -1.5t-2 -1.5q-4 -2 -5 -2q-4 0 -7 3t-3 8v3l1 2l3 4l7 2q6 2 7 2v4q0 2 -5 2q-2 0 -3 -1q-2 0 -2 -3zM486 98v7l-2 -1h-2
q-4 -2 -5 -2q-1 -1 -1 -3q0 -3 1 -4t3 -1t3 1zM514 124v-8h-5v-14v-5q0 -2 2 -2q1 0 3 1v-7q-2 -2 -6 -2q-2 0 -4 2q-1 1 -3 4v8v15h-4v8h4v7l8 5v-12h5z" />
    <glyph glyph-name="six" unicode="6" horiz-adv-x="628" 
d="M202 300v385h230v-155h155v-230h-385zM289 578h57v57h-57v-57zM47 300h155v-155zM51 709v59h16q10 0 12 -1q4 -1 7 -6q3 -4 3 -11q0 -6 -3 -11q-2 -5 -6 -6q-4 -2 -13 -2h-6v-22h-10zM61 758v-17h6q6 0 7 1l3 3q1 1 1 5q0 3 -1 5q-2 2 -3 2q-1 1 -8 1h-5zM97 709v59h36
v-10h-26v-13h25v-10h-25v-16h27v-10h-37zM143 709v59h21q9 0 11 -1q3 -1 6 -6q2 -6 2 -9q0 -8 -3 -12q-3 -3 -10 -5l6 -5l5 -10l6 -11h-12l-7 13l-5 8l-3 3l-2 1h-5v-25h-10zM153 743h7q8 0 9 1q1 0 3 2q1 1 1 5q0 3 -1 4l-3 3h-8h-8v-15zM191 728l9 1q2 -11 11 -11q3 0 7 2
q2 4 2 6t-1 3q0 1 -2 3q-1 0 -9 3q-7 2 -9 4q-4 2 -5 6q-2 4 -2 8t2 8q3 5 7 6q2 2 9 2q9 0 14 -4q5 -7 5 -14h-10q-2 5 -3 6q-1 2 -6 2t-6 -1q-2 -1 -2 -4t2 -5q2 -1 9 -3q8 -3 10 -5q3 -1 5 -6q2 -2 2 -9q0 -8 -5 -13t-15 -5q-17 0 -19 20zM237 738q0 10 3 18q4 7 8 10
q6 3 13 3q10 0 17 -8q6 -7 6 -23q0 -15 -7 -23q-6 -7 -16 -7q-11 0 -17 7q-7 8 -7 23zM247 739q0 -11 4 -16q5 -5 10 -5q6 0 9 5q4 5 4 16t-4 15q-3 5 -9 5q-7 0 -10 -5q-4 -4 -4 -15zM293 709v59h9l20 -39v39h10v-59h-10l-20 39v-39h-9zM386 709h-10l-5 13h-19l-4 -13h-11
l19 59h11zM368 732l-6 22l-7 -22h13zM392 709v59h10v-49h25v-10h-35zM455 768h10v-32v-10q2 -4 4 -6t6 -2q2 0 6 2l3 4v11v33h10v-31q0 -14 -1 -17q-1 -6 -6 -9t-12 -3t-12 3q-4 2 -6 7q-2 8 -2 19v31zM503 728l9 1q2 -11 11 -11q3 0 7 2q2 2 2 6q0 2 -1 3q0 1 -2 3
q-1 0 -9 3q-7 2 -9 4q-4 2 -5 6q-2 4 -2 8q0 5 3 8q1 5 6 6q2 2 9 2q10 0 14 -4q5 -7 5 -14h-10q0 5 -3 6q-1 2 -6 2t-6 -1q-2 -1 -2 -4t2 -5q2 -1 9 -3q8 -3 10 -5q3 -1 5 -6q2 -2 2 -9q0 -8 -5 -13t-14 -5q-18 0 -20 20zM551 709v59h36v-10h-26v-13h24v-10h-24v-16h27v-10
h-37zM51 792v59h34v-10h-24v-14h21v-10h-21v-25h-10zM93 792v59h20q10 0 12 -1q4 -2 5 -6q3 -4 3 -9q0 -6 -4 -12q-4 -4 -9 -5l5 -5l6 -10l6 -11h-12l-7 13l-6 8q0 1 -2 3q-1 0 -3 0.5t-4 0.5v-25h-10zM103 826h7q7 0 8 1q3 0 3 2q1 1 1 5q0 3 -1 4q0 2 -3 3h-8h-7v-15z
M142 792v59h36v-10h-26v-13h24v-10h-24v-16h27v-10h-37zM187 792v59h36v-10h-26v-13h25v-10h-25v-16h27v-10h-37zM250 821q0 11 3 18q4 8 8 10q5 3 12 3q12 0 17 -8q7 -7 7 -23q0 -13 -7 -23q-6 -7 -17 -7q-10 0 -17 7q-6 9 -6 23zM260 822q0 -11 4 -16q3 -5 9 -5q5 0 10 5
q4 8 4 16q0 9 -4 15q-5 5 -10 5t-10 -5q-3 -5 -3 -15zM305 792v59h9l20 -39v39h9v-59h-10l-19 39v-39h-9zM354 792v59h10v-49h24v-10h-34zM402 792v25l-17 34h11l11 -23l12 23h11l-18 -34v-25h-10zM453 792v59h33v-10h-23v-14h20v-10h-20v-25h-10zM492 821q0 11 4 18
q4 8 8 10q4 3 12 3q12 0 17 -8q7 -9 7 -23q0 -13 -7 -23q-6 -7 -17 -7t-17 7q-7 10 -7 23zM503 822q0 -10 3 -16q5 -5 10 -5t10 5q4 8 4 16q0 9 -4 15q-5 5 -10 5t-10 -5q-3 -5 -3 -15zM547 792v59h21q9 0 11 -1q5 -2 6 -6q2 -3 2 -9q0 -7 -3 -12q-3 -3 -10 -5l6 -5l5 -10
l6 -11h-12l-7 13l-5 8l-3 3h-2q-3 1 -5 1v-25h-10zM557 826h7q8 0 9 1q1 0 3 2q1 1 1 5q0 3 -1 4l-3 3h-8h-8v-15zM198 20h-7v5q-2 -4 -4 -5t-5 -1q-5 0 -8 5q-4 4 -4 14q0 9 4 13q3 5 8 5q1 0 2.5 -0.5t2.5 -0.5l4 -4v17h7v-48zM178 38q0 -5 1 -7q0 -2 2 -4q1 0 3 -1
q4 0 5 3q2 4 2 8q0 5 -2 9q-1 3 -5 3q-2 0 -4 -3q-2 -2 -2 -8zM222 31l7 -2q-2 -6 -4 -7q-3 -3 -8 -3q-7 0 -10 4q-4 5 -4 14q0 10 4 14q3 5 9 5q5 0 10 -5q4 -4 4 -16h-19q0 -5 2 -7t4 -2q3 0 5 5zM222 40q0 5 -1 7l-4 2q-1 0 -5 -2q-1 -2 -1 -7h11zM232 55l4 3q0 2 0.5 4
t0.5 3l3 3q2 1 5 1q4 0 7 -1l-1 -6h-4q-2 0 -2 -1q-1 0 -1 -6h6v-7h-6v-28h-8v28h-4v7zM261 68v-17l4 4l2 1h3q3 0 5 -2q2 -1 4 -5q0 -1 0.5 -4t0.5 -5v-20h-8v18q0 7 -1 9q-2 2 -4 2q-3 0 -4 -3q-2 -1 -2 -9v-17h-8v48h8zM292 44l-7 2q1 4 5 8q2 2 8 2h4l3 -1l4 -4
q1 -2 1 -9v-11v-6q0 -1 0.5 -2.5t1.5 -2.5h-8l-1 4l-4 -4q-2 -1 -5 -1q-4 0 -7 3t-3 7q0 2 2 6q0 1 3 3l6 3q5 0 7 2q0 4 -1 5t-4 1q-1 0 -3 -1zM302 29v8l-4 -2q-3 0 -5 -2q-1 -1 -1 -3v-1q1 -1 1 -2q1 -1 3 -1q4 0 6 3zM324 20h-8v35h8v-5l3 5q1 0 3 1q3 0 5 -2l-2 -8
q-2 2 -4 2q-1 0 -3 -2q-1 -2 -1 -4q-1 -2 -1 -11v-11zM336 38q0 5 2 9q1 3 5 7q6 2 8 2q7 0 11 -6t4 -12q0 -4 -2 -10q-4 -5 -6 -7q-4 -2 -7 -2q-6 0 -11 5q-4 4 -4 14zM344 37q0 -6 2 -8q1 -2 5 -2t5 2q2 4 2 8q0 6 -2 8q-2 3 -5 3t-5 -3q-2 -1 -2 -8zM371 20v9h8v-9h-8z
M411 45l-7 -2q-2 6 -6 6q-2 0 -4 -3q-2 -2 -2 -8q0 -5 2 -9q1 -2 4 -2t4 1q2 2 2 5l7 -1q-1 -13 -13 -13q-7 0 -10 5q-4 5 -4 13t4 14q5 5 10 5q4 0 9 -3q3 -3 4 -8zM414 38q0 5 2 9l6 7q4 2 7 2q8 0 11 -6q4 -4 4 -12q0 -7 -2 -10q-1 -3 -5 -7q-6 -2 -8 -2q-7 0 -10 5
q-5 5 -5 14zM422 37q0 -4 2 -8q2 -2 5 -2q4 0 5 2q2 2 2 8q0 7 -2 8q-2 3 -5 3q-2 0 -5 -3q-2 -2 -2 -8zM449 55h7v-5q2 4 4 4q4 2 5 2q3 0 5 -2q1 0 3 -4l4 4q4 2 5 2q3 0 5 -2q3 0 3 -4q2 -2 2 -8v-22h-8v20q0 6 -1 7q-2 2 -3 2q-2 0 -4 -3q-2 -2 -2 -9v-17h-8v19v8
q-2 2 -4 2l-1 -1h-2l-2 -4v-7v-17h-8v35zM171 106v8h17v-19q-4 -4 -7 -5q-6 -3 -10 -3q-7 0 -11 3q-4 2 -7 9q-2 4 -2 14q0 7 2 13q3 6 7 9t10 3q8 0 12 -4q5 -3 5 -11l-8 -1q0 4 -3 5q-1 2 -6 2t-8 -4q-3 -3 -3 -12q0 -8 3 -13q3 -4 8 -4q4 0 5 1l5 3v6h-9zM211 99l8 -1
q-1 -4 -5 -8q-3 -3 -8 -3q-6 0 -9 5q-5 5 -5 14q0 7 5 14q3 4 9 4t9 -4q4 -5 4 -17h-19q0 -4 2 -6q2 -3 4 -3q5 0 5 5zM212 109q0 4 -2 6q-1 2 -4 2q-2 0 -4 -2t-2 -6h12zM238 124v-8h-5v-14v-5q0 -2 2 -2t3 1l1 -7q-4 -2 -6 -2q-3 0 -5 2t-2 4q-1 1 -1 8l-3 15l3 8v7l8 5
v-12h5zM254 124l5 2v7l3 4q1 0 2.5 0.5t2.5 0.5q2 0 4 -0.5t3 -0.5l-1 -7h-6q-1 -1 -1 -6h6v-8h-6v-28h-7v28h-5v8zM294 88v6q-2 -4 -4 -5q-2 -2 -5 -2t-5 2q-3 1 -4 4q0 1 -0.5 3.5t-0.5 4.5v23h8v-17q-1 -2 -1 -5q0 -6 3 -6q1 -1 3 -1t3 1q2 2 2 3q1 2 1 10v15h8v-36h-8z
M309 88v49h7v-49h-7zM324 88v49h7v-49h-7zM350 124l4 2q0 6 1 7l3 4l2 1h3t3 -0.5t3 -0.5l-1 -7h-1q-1 1 -2 1t-3 -1v-4v-2h5v-8h-5v-28h-8v28h-4v8zM369 106q0 4 2 10q3 5 6 6q2 2 7 2q7 0 11 -5t4 -13q0 -4 -2 -10q-3 -5 -6 -6q-3 -3 -7 -3q-6 0 -11 5q-4 8 -4 14z
M377 106q0 -4 2 -8q1 -3 5 -3t5 3q2 4 2 8t-2 8q-1 3 -5 3t-5 -3q-2 -4 -2 -8zM431 88h-8v18q0 6 -1 7q0 3 -1 3q-1 1 -3 1t-3 -1l-3 -3v-9v-16h-8v36h7v-6l5 5q1 1 5 1t5 -1l4 -5q0 -1 0.5 -3.5t0.5 -4.5v-22zM451 124v-8h-5v-14v-5q0 -2 2 -2q1 0 3 1v-7q-2 -2 -6 -2
q-2 0 -4 2l-3 4v8v15h-4v8h4v7l8 5v-12h5zM476 113l-7 1q1 5 4 8q2 2 9 2q5 0 7 -1q3 -1 4 -4l1 -3v-5v-11v-7v-2q1 -2 1 -3h-7l-1 4q-1 0 -2 -1.5t-2 -1.5q-4 -2 -5 -2q-4 0 -7 3t-3 8v3l1 2l3 4l7 2q6 2 7 2v4q0 2 -5 2q-2 0 -3 -1q-2 0 -2 -3zM486 98v7l-2 -1h-2
q-4 -2 -5 -2q-1 -1 -1 -3q0 -3 1 -4t3 -1t3 1zM514 124v-8h-5v-14v-5q0 -2 2 -2q1 0 3 1v-7q-2 -2 -6 -2q-2 0 -4 2q-1 1 -3 4v8v15h-4v8h4v7l8 5v-12h5z" />
    <glyph glyph-name="seven" unicode="7" horiz-adv-x="616" 
d="M202 300v385h230v-155h155v-230h-385zM289 578h57v57h-57v-57zM47 300h155v-155zM51 709v59h16q10 0 12 -1q4 -1 7 -6q3 -4 3 -11q0 -6 -3 -11q-2 -5 -6 -6q-4 -2 -13 -2h-6v-22h-10zM61 758v-17h6q6 0 7 1l3 3q1 1 1 5q0 3 -1 5q-2 2 -3 2q-1 1 -8 1h-5zM97 709v59h36
v-10h-26v-13h25v-10h-25v-16h27v-10h-37zM143 709v59h21q9 0 11 -1q3 -1 6 -6q2 -6 2 -9q0 -8 -3 -12q-3 -3 -10 -5l6 -5l5 -10l6 -11h-12l-7 13l-5 8l-3 3l-2 1h-5v-25h-10zM153 743h7q8 0 9 1q1 0 3 2q1 1 1 5q0 3 -1 4l-3 3h-8h-8v-15zM191 728l9 1q2 -11 11 -11q3 0 7 2
q2 4 2 6t-1 3q0 1 -2 3q-1 0 -9 3q-7 2 -9 4q-4 2 -5 6q-2 4 -2 8t2 8q3 5 7 6q2 2 9 2q9 0 14 -4q5 -7 5 -14h-10q-2 5 -3 6q-1 2 -6 2t-6 -1q-2 -1 -2 -4t2 -5q2 -1 9 -3q8 -3 10 -5q3 -1 5 -6q2 -2 2 -9q0 -8 -5 -13t-15 -5q-17 0 -19 20zM237 738q0 10 3 18q4 7 8 10
q6 3 13 3q10 0 17 -8q6 -7 6 -23q0 -15 -7 -23q-6 -7 -16 -7q-11 0 -17 7q-7 8 -7 23zM247 739q0 -11 4 -16q5 -5 10 -5q6 0 9 5q4 5 4 16t-4 15q-3 5 -9 5q-7 0 -10 -5q-4 -4 -4 -15zM293 709v59h9l20 -39v39h10v-59h-10l-20 39v-39h-9zM386 709h-10l-5 13h-19l-4 -13h-11
l19 59h11zM368 732l-6 22l-7 -22h13zM392 709v59h10v-49h25v-10h-35zM455 768h10v-32v-10q2 -4 4 -6t6 -2q2 0 6 2l3 4v11v33h10v-31q0 -14 -1 -17q-1 -6 -6 -9t-12 -3t-12 3q-4 2 -6 7q-2 8 -2 19v31zM503 728l9 1q2 -11 11 -11q3 0 7 2q2 2 2 6q0 2 -1 3q0 1 -2 3
q-1 0 -9 3q-7 2 -9 4q-4 2 -5 6q-2 4 -2 8q0 5 3 8q1 5 6 6q2 2 9 2q10 0 14 -4q5 -7 5 -14h-10q0 5 -3 6q-1 2 -6 2t-6 -1q-2 -1 -2 -4t2 -5q2 -1 9 -3q8 -3 10 -5q3 -1 5 -6q2 -2 2 -9q0 -8 -5 -13t-14 -5q-18 0 -20 20zM551 709v59h36v-10h-26v-13h24v-10h-24v-16h27v-10
h-37zM51 792v59h34v-10h-24v-14h21v-10h-21v-25h-10zM93 792v59h20q10 0 12 -1q4 -2 5 -6q3 -4 3 -9q0 -6 -4 -12q-4 -4 -9 -5l5 -5l6 -10l6 -11h-12l-7 13l-6 8q0 1 -2 3q-1 0 -3 0.5t-4 0.5v-25h-10zM103 826h7q7 0 8 1q3 0 3 2q1 1 1 5q0 3 -1 4q0 2 -3 3h-8h-7v-15z
M142 792v59h36v-10h-26v-13h24v-10h-24v-16h27v-10h-37zM187 792v59h36v-10h-26v-13h25v-10h-25v-16h27v-10h-37zM250 821q0 11 3 18q4 8 8 10q5 3 12 3q12 0 17 -8q7 -7 7 -23q0 -13 -7 -23q-6 -7 -17 -7q-10 0 -17 7q-6 9 -6 23zM260 822q0 -11 4 -16q3 -5 9 -5q5 0 10 5
q4 8 4 16q0 9 -4 15q-5 5 -10 5t-10 -5q-3 -5 -3 -15zM305 792v59h9l20 -39v39h9v-59h-10l-19 39v-39h-9zM354 792v59h10v-49h24v-10h-34zM402 792v25l-17 34h11l11 -23l12 23h11l-18 -34v-25h-10zM453 792v59h33v-10h-23v-14h20v-10h-20v-25h-10zM492 821q0 11 4 18
q4 8 8 10q4 3 12 3q12 0 17 -8q7 -9 7 -23q0 -13 -7 -23q-6 -7 -17 -7t-17 7q-7 10 -7 23zM503 822q0 -10 3 -16q5 -5 10 -5t10 5q4 8 4 16q0 9 -4 15q-5 5 -10 5t-10 -5q-3 -5 -3 -15zM547 792v59h21q9 0 11 -1q5 -2 6 -6q2 -3 2 -9q0 -7 -3 -12q-3 -3 -10 -5l6 -5l5 -10
l6 -11h-12l-7 13l-5 8l-3 3h-2q-3 1 -5 1v-25h-10zM557 826h7q8 0 9 1q1 0 3 2q1 1 1 5q0 3 -1 4l-3 3h-8h-8v-15zM198 20h-7v5q-2 -4 -4 -5t-5 -1q-5 0 -8 5q-4 4 -4 14q0 9 4 13q3 5 8 5q1 0 2.5 -0.5t2.5 -0.5l4 -4v17h7v-48zM178 38q0 -5 1 -7q0 -2 2 -4q1 0 3 -1
q4 0 5 3q2 4 2 8q0 5 -2 9q-1 3 -5 3q-2 0 -4 -3q-2 -2 -2 -8zM222 31l7 -2q-2 -6 -4 -7q-3 -3 -8 -3q-7 0 -10 4q-4 5 -4 14q0 10 4 14q3 5 9 5q5 0 10 -5q4 -4 4 -16h-19q0 -5 2 -7t4 -2q3 0 5 5zM222 40q0 5 -1 7l-4 2q-1 0 -5 -2q-1 -2 -1 -7h11zM232 55l4 3q0 2 0.5 4
t0.5 3l3 3q2 1 5 1q4 0 7 -1l-1 -6h-4q-2 0 -2 -1q-1 0 -1 -6h6v-7h-6v-28h-8v28h-4v7zM261 68v-17l4 4l2 1h3q3 0 5 -2q2 -1 4 -5q0 -1 0.5 -4t0.5 -5v-20h-8v18q0 7 -1 9q-2 2 -4 2q-3 0 -4 -3q-2 -1 -2 -9v-17h-8v48h8zM292 44l-7 2q1 4 5 8q2 2 8 2h4l3 -1l4 -4
q1 -2 1 -9v-11v-6q0 -1 0.5 -2.5t1.5 -2.5h-8l-1 4l-4 -4q-2 -1 -5 -1q-4 0 -7 3t-3 7q0 2 2 6q0 1 3 3l6 3q5 0 7 2q0 4 -1 5t-4 1q-1 0 -3 -1zM302 29v8l-4 -2q-3 0 -5 -2q-1 -1 -1 -3v-1q1 -1 1 -2q1 -1 3 -1q4 0 6 3zM324 20h-8v35h8v-5l3 5q1 0 3 1q3 0 5 -2l-2 -8
q-2 2 -4 2q-1 0 -3 -2q-1 -2 -1 -4q-1 -2 -1 -11v-11zM336 38q0 5 2 9q1 3 5 7q6 2 8 2q7 0 11 -6t4 -12q0 -4 -2 -10q-4 -5 -6 -7q-4 -2 -7 -2q-6 0 -11 5q-4 4 -4 14zM344 37q0 -6 2 -8q1 -2 5 -2t5 2q2 4 2 8q0 6 -2 8q-2 3 -5 3t-5 -3q-2 -1 -2 -8zM371 20v9h8v-9h-8z
M411 45l-7 -2q-2 6 -6 6q-2 0 -4 -3q-2 -2 -2 -8q0 -5 2 -9q1 -2 4 -2t4 1q2 2 2 5l7 -1q-1 -13 -13 -13q-7 0 -10 5q-4 5 -4 13t4 14q5 5 10 5q4 0 9 -3q3 -3 4 -8zM414 38q0 5 2 9l6 7q4 2 7 2q8 0 11 -6q4 -4 4 -12q0 -7 -2 -10q-1 -3 -5 -7q-6 -2 -8 -2q-7 0 -10 5
q-5 5 -5 14zM422 37q0 -4 2 -8q2 -2 5 -2q4 0 5 2q2 2 2 8q0 7 -2 8q-2 3 -5 3q-2 0 -5 -3q-2 -2 -2 -8zM449 55h7v-5q2 4 4 4q4 2 5 2q3 0 5 -2q1 0 3 -4l4 4q4 2 5 2q3 0 5 -2q3 0 3 -4q2 -2 2 -8v-22h-8v20q0 6 -1 7q-2 2 -3 2q-2 0 -4 -3q-2 -2 -2 -9v-17h-8v19v8
q-2 2 -4 2l-1 -1h-2l-2 -4v-7v-17h-8v35zM171 106v8h17v-19q-4 -4 -7 -5q-6 -3 -10 -3q-7 0 -11 3q-4 2 -7 9q-2 4 -2 14q0 7 2 13q3 6 7 9t10 3q8 0 12 -4q5 -3 5 -11l-8 -1q0 4 -3 5q-1 2 -6 2t-8 -4q-3 -3 -3 -12q0 -8 3 -13q3 -4 8 -4q4 0 5 1l5 3v6h-9zM211 99l8 -1
q-1 -4 -5 -8q-3 -3 -8 -3q-6 0 -9 5q-5 5 -5 14q0 7 5 14q3 4 9 4t9 -4q4 -5 4 -17h-19q0 -4 2 -6q2 -3 4 -3q5 0 5 5zM212 109q0 4 -2 6q-1 2 -4 2q-2 0 -4 -2t-2 -6h12zM238 124v-8h-5v-14v-5q0 -2 2 -2t3 1l1 -7q-4 -2 -6 -2q-3 0 -5 2t-2 4q-1 1 -1 8l-3 15l3 8v7l8 5
v-12h5zM254 124l5 2v7l3 4q1 0 2.5 0.5t2.5 0.5q2 0 4 -0.5t3 -0.5l-1 -7h-6q-1 -1 -1 -6h6v-8h-6v-28h-7v28h-5v8zM294 88v6q-2 -4 -4 -5q-2 -2 -5 -2t-5 2q-3 1 -4 4q0 1 -0.5 3.5t-0.5 4.5v23h8v-17q-1 -2 -1 -5q0 -6 3 -6q1 -1 3 -1t3 1q2 2 2 3q1 2 1 10v15h8v-36h-8z
M309 88v49h7v-49h-7zM324 88v49h7v-49h-7zM350 124l4 2q0 6 1 7l3 4l2 1h3t3 -0.5t3 -0.5l-1 -7h-1q-1 1 -2 1t-3 -1v-4v-2h5v-8h-5v-28h-8v28h-4v8zM369 106q0 4 2 10q3 5 6 6q2 2 7 2q7 0 11 -5t4 -13q0 -4 -2 -10q-3 -5 -6 -6q-3 -3 -7 -3q-6 0 -11 5q-4 8 -4 14z
M377 106q0 -4 2 -8q1 -3 5 -3t5 3q2 4 2 8t-2 8q-1 3 -5 3t-5 -3q-2 -4 -2 -8zM431 88h-8v18q0 6 -1 7q0 3 -1 3q-1 1 -3 1t-3 -1l-3 -3v-9v-16h-8v36h7v-6l5 5q1 1 5 1t5 -1l4 -5q0 -1 0.5 -3.5t0.5 -4.5v-22zM451 124v-8h-5v-14v-5q0 -2 2 -2q1 0 3 1v-7q-2 -2 -6 -2
q-2 0 -4 2l-3 4v8v15h-4v8h4v7l8 5v-12h5zM476 113l-7 1q1 5 4 8q2 2 9 2q5 0 7 -1q3 -1 4 -4l1 -3v-5v-11v-7v-2q1 -2 1 -3h-7l-1 4q-1 0 -2 -1.5t-2 -1.5q-4 -2 -5 -2q-4 0 -7 3t-3 8v3l1 2l3 4l7 2q6 2 7 2v4q0 2 -5 2q-2 0 -3 -1q-2 0 -2 -3zM486 98v7l-2 -1h-2
q-4 -2 -5 -2q-1 -1 -1 -3q0 -3 1 -4t3 -1t3 1zM514 124v-8h-5v-14v-5q0 -2 2 -2q1 0 3 1v-7q-2 -2 -6 -2q-2 0 -4 2q-1 1 -3 4v8v15h-4v8h4v7l8 5v-12h5z" />
    <glyph glyph-name="eight" unicode="8" horiz-adv-x="627" 
d="M202 300v385h230v-155h155v-230h-385zM289 578h57v57h-57v-57zM47 300h155v-155zM51 709v59h16q10 0 12 -1q4 -1 7 -6q3 -4 3 -11q0 -6 -3 -11q-2 -5 -6 -6q-4 -2 -13 -2h-6v-22h-10zM61 758v-17h6q6 0 7 1l3 3q1 1 1 5q0 3 -1 5q-2 2 -3 2q-1 1 -8 1h-5zM97 709v59h36
v-10h-26v-13h25v-10h-25v-16h27v-10h-37zM143 709v59h21q9 0 11 -1q3 -1 6 -6q2 -6 2 -9q0 -8 -3 -12q-3 -3 -10 -5l6 -5l5 -10l6 -11h-12l-7 13l-5 8l-3 3l-2 1h-5v-25h-10zM153 743h7q8 0 9 1q1 0 3 2q1 1 1 5q0 3 -1 4l-3 3h-8h-8v-15zM191 728l9 1q2 -11 11 -11q3 0 7 2
q2 4 2 6t-1 3q0 1 -2 3q-1 0 -9 3q-7 2 -9 4q-4 2 -5 6q-2 4 -2 8t2 8q3 5 7 6q2 2 9 2q9 0 14 -4q5 -7 5 -14h-10q-2 5 -3 6q-1 2 -6 2t-6 -1q-2 -1 -2 -4t2 -5q2 -1 9 -3q8 -3 10 -5q3 -1 5 -6q2 -2 2 -9q0 -8 -5 -13t-15 -5q-17 0 -19 20zM237 738q0 10 3 18q4 7 8 10
q6 3 13 3q10 0 17 -8q6 -7 6 -23q0 -15 -7 -23q-6 -7 -16 -7q-11 0 -17 7q-7 8 -7 23zM247 739q0 -11 4 -16q5 -5 10 -5q6 0 9 5q4 5 4 16t-4 15q-3 5 -9 5q-7 0 -10 -5q-4 -4 -4 -15zM293 709v59h9l20 -39v39h10v-59h-10l-20 39v-39h-9zM386 709h-10l-5 13h-19l-4 -13h-11
l19 59h11zM368 732l-6 22l-7 -22h13zM392 709v59h10v-49h25v-10h-35zM455 768h10v-32v-10q2 -4 4 -6t6 -2q2 0 6 2l3 4v11v33h10v-31q0 -14 -1 -17q-1 -6 -6 -9t-12 -3t-12 3q-4 2 -6 7q-2 8 -2 19v31zM503 728l9 1q2 -11 11 -11q3 0 7 2q2 2 2 6q0 2 -1 3q0 1 -2 3
q-1 0 -9 3q-7 2 -9 4q-4 2 -5 6q-2 4 -2 8q0 5 3 8q1 5 6 6q2 2 9 2q10 0 14 -4q5 -7 5 -14h-10q0 5 -3 6q-1 2 -6 2t-6 -1q-2 -1 -2 -4t2 -5q2 -1 9 -3q8 -3 10 -5q3 -1 5 -6q2 -2 2 -9q0 -8 -5 -13t-14 -5q-18 0 -20 20zM551 709v59h36v-10h-26v-13h24v-10h-24v-16h27v-10
h-37zM51 792v59h34v-10h-24v-14h21v-10h-21v-25h-10zM93 792v59h20q10 0 12 -1q4 -2 5 -6q3 -4 3 -9q0 -6 -4 -12q-4 -4 -9 -5l5 -5l6 -10l6 -11h-12l-7 13l-6 8q0 1 -2 3q-1 0 -3 0.5t-4 0.5v-25h-10zM103 826h7q7 0 8 1q3 0 3 2q1 1 1 5q0 3 -1 4q0 2 -3 3h-8h-7v-15z
M142 792v59h36v-10h-26v-13h24v-10h-24v-16h27v-10h-37zM187 792v59h36v-10h-26v-13h25v-10h-25v-16h27v-10h-37zM250 821q0 11 3 18q4 8 8 10q5 3 12 3q12 0 17 -8q7 -7 7 -23q0 -13 -7 -23q-6 -7 -17 -7q-10 0 -17 7q-6 9 -6 23zM260 822q0 -11 4 -16q3 -5 9 -5q5 0 10 5
q4 8 4 16q0 9 -4 15q-5 5 -10 5t-10 -5q-3 -5 -3 -15zM305 792v59h9l20 -39v39h9v-59h-10l-19 39v-39h-9zM354 792v59h10v-49h24v-10h-34zM402 792v25l-17 34h11l11 -23l12 23h11l-18 -34v-25h-10zM453 792v59h33v-10h-23v-14h20v-10h-20v-25h-10zM492 821q0 11 4 18
q4 8 8 10q4 3 12 3q12 0 17 -8q7 -9 7 -23q0 -13 -7 -23q-6 -7 -17 -7t-17 7q-7 10 -7 23zM503 822q0 -10 3 -16q5 -5 10 -5t10 5q4 8 4 16q0 9 -4 15q-5 5 -10 5t-10 -5q-3 -5 -3 -15zM547 792v59h21q9 0 11 -1q5 -2 6 -6q2 -3 2 -9q0 -7 -3 -12q-3 -3 -10 -5l6 -5l5 -10
l6 -11h-12l-7 13l-5 8l-3 3h-2q-3 1 -5 1v-25h-10zM557 826h7q8 0 9 1q1 0 3 2q1 1 1 5q0 3 -1 4l-3 3h-8h-8v-15zM198 20h-7v5q-2 -4 -4 -5t-5 -1q-5 0 -8 5q-4 4 -4 14q0 9 4 13q3 5 8 5q1 0 2.5 -0.5t2.5 -0.5l4 -4v17h7v-48zM178 38q0 -5 1 -7q0 -2 2 -4q1 0 3 -1
q4 0 5 3q2 4 2 8q0 5 -2 9q-1 3 -5 3q-2 0 -4 -3q-2 -2 -2 -8zM222 31l7 -2q-2 -6 -4 -7q-3 -3 -8 -3q-7 0 -10 4q-4 5 -4 14q0 10 4 14q3 5 9 5q5 0 10 -5q4 -4 4 -16h-19q0 -5 2 -7t4 -2q3 0 5 5zM222 40q0 5 -1 7l-4 2q-1 0 -5 -2q-1 -2 -1 -7h11zM232 55l4 3q0 2 0.5 4
t0.5 3l3 3q2 1 5 1q4 0 7 -1l-1 -6h-4q-2 0 -2 -1q-1 0 -1 -6h6v-7h-6v-28h-8v28h-4v7zM261 68v-17l4 4l2 1h3q3 0 5 -2q2 -1 4 -5q0 -1 0.5 -4t0.5 -5v-20h-8v18q0 7 -1 9q-2 2 -4 2q-3 0 -4 -3q-2 -1 -2 -9v-17h-8v48h8zM292 44l-7 2q1 4 5 8q2 2 8 2h4l3 -1l4 -4
q1 -2 1 -9v-11v-6q0 -1 0.5 -2.5t1.5 -2.5h-8l-1 4l-4 -4q-2 -1 -5 -1q-4 0 -7 3t-3 7q0 2 2 6q0 1 3 3l6 3q5 0 7 2q0 4 -1 5t-4 1q-1 0 -3 -1zM302 29v8l-4 -2q-3 0 -5 -2q-1 -1 -1 -3v-1q1 -1 1 -2q1 -1 3 -1q4 0 6 3zM324 20h-8v35h8v-5l3 5q1 0 3 1q3 0 5 -2l-2 -8
q-2 2 -4 2q-1 0 -3 -2q-1 -2 -1 -4q-1 -2 -1 -11v-11zM336 38q0 5 2 9q1 3 5 7q6 2 8 2q7 0 11 -6t4 -12q0 -4 -2 -10q-4 -5 -6 -7q-4 -2 -7 -2q-6 0 -11 5q-4 4 -4 14zM344 37q0 -6 2 -8q1 -2 5 -2t5 2q2 4 2 8q0 6 -2 8q-2 3 -5 3t-5 -3q-2 -1 -2 -8zM371 20v9h8v-9h-8z
M411 45l-7 -2q-2 6 -6 6q-2 0 -4 -3q-2 -2 -2 -8q0 -5 2 -9q1 -2 4 -2t4 1q2 2 2 5l7 -1q-1 -13 -13 -13q-7 0 -10 5q-4 5 -4 13t4 14q5 5 10 5q4 0 9 -3q3 -3 4 -8zM414 38q0 5 2 9l6 7q4 2 7 2q8 0 11 -6q4 -4 4 -12q0 -7 -2 -10q-1 -3 -5 -7q-6 -2 -8 -2q-7 0 -10 5
q-5 5 -5 14zM422 37q0 -4 2 -8q2 -2 5 -2q4 0 5 2q2 2 2 8q0 7 -2 8q-2 3 -5 3q-2 0 -5 -3q-2 -2 -2 -8zM449 55h7v-5q2 4 4 4q4 2 5 2q3 0 5 -2q1 0 3 -4l4 4q4 2 5 2q3 0 5 -2q3 0 3 -4q2 -2 2 -8v-22h-8v20q0 6 -1 7q-2 2 -3 2q-2 0 -4 -3q-2 -2 -2 -9v-17h-8v19v8
q-2 2 -4 2l-1 -1h-2l-2 -4v-7v-17h-8v35zM171 106v8h17v-19q-4 -4 -7 -5q-6 -3 -10 -3q-7 0 -11 3q-4 2 -7 9q-2 4 -2 14q0 7 2 13q3 6 7 9t10 3q8 0 12 -4q5 -3 5 -11l-8 -1q0 4 -3 5q-1 2 -6 2t-8 -4q-3 -3 -3 -12q0 -8 3 -13q3 -4 8 -4q4 0 5 1l5 3v6h-9zM211 99l8 -1
q-1 -4 -5 -8q-3 -3 -8 -3q-6 0 -9 5q-5 5 -5 14q0 7 5 14q3 4 9 4t9 -4q4 -5 4 -17h-19q0 -4 2 -6q2 -3 4 -3q5 0 5 5zM212 109q0 4 -2 6q-1 2 -4 2q-2 0 -4 -2t-2 -6h12zM238 124v-8h-5v-14v-5q0 -2 2 -2t3 1l1 -7q-4 -2 -6 -2q-3 0 -5 2t-2 4q-1 1 -1 8l-3 15l3 8v7l8 5
v-12h5zM254 124l5 2v7l3 4q1 0 2.5 0.5t2.5 0.5q2 0 4 -0.5t3 -0.5l-1 -7h-6q-1 -1 -1 -6h6v-8h-6v-28h-7v28h-5v8zM294 88v6q-2 -4 -4 -5q-2 -2 -5 -2t-5 2q-3 1 -4 4q0 1 -0.5 3.5t-0.5 4.5v23h8v-17q-1 -2 -1 -5q0 -6 3 -6q1 -1 3 -1t3 1q2 2 2 3q1 2 1 10v15h8v-36h-8z
M309 88v49h7v-49h-7zM324 88v49h7v-49h-7zM350 124l4 2q0 6 1 7l3 4l2 1h3t3 -0.5t3 -0.5l-1 -7h-1q-1 1 -2 1t-3 -1v-4v-2h5v-8h-5v-28h-8v28h-4v8zM369 106q0 4 2 10q3 5 6 6q2 2 7 2q7 0 11 -5t4 -13q0 -4 -2 -10q-3 -5 -6 -6q-3 -3 -7 -3q-6 0 -11 5q-4 8 -4 14z
M377 106q0 -4 2 -8q1 -3 5 -3t5 3q2 4 2 8t-2 8q-1 3 -5 3t-5 -3q-2 -4 -2 -8zM431 88h-8v18q0 6 -1 7q0 3 -1 3q-1 1 -3 1t-3 -1l-3 -3v-9v-16h-8v36h7v-6l5 5q1 1 5 1t5 -1l4 -5q0 -1 0.5 -3.5t0.5 -4.5v-22zM451 124v-8h-5v-14v-5q0 -2 2 -2q1 0 3 1v-7q-2 -2 -6 -2
q-2 0 -4 2l-3 4v8v15h-4v8h4v7l8 5v-12h5zM476 113l-7 1q1 5 4 8q2 2 9 2q5 0 7 -1q3 -1 4 -4l1 -3v-5v-11v-7v-2q1 -2 1 -3h-7l-1 4q-1 0 -2 -1.5t-2 -1.5q-4 -2 -5 -2q-4 0 -7 3t-3 8v3l1 2l3 4l7 2q6 2 7 2v4q0 2 -5 2q-2 0 -3 -1q-2 0 -2 -3zM486 98v7l-2 -1h-2
q-4 -2 -5 -2q-1 -1 -1 -3q0 -3 1 -4t3 -1t3 1zM514 124v-8h-5v-14v-5q0 -2 2 -2q1 0 3 1v-7q-2 -2 -6 -2q-2 0 -4 2q-1 1 -3 4v8v15h-4v8h4v7l8 5v-12h5z" />
    <glyph glyph-name="nine" unicode="9" horiz-adv-x="628" 
d="M202 300v385h230v-155h155v-230h-385zM289 578h57v57h-57v-57zM47 300h155v-155zM51 709v59h16q10 0 12 -1q4 -1 7 -6q3 -4 3 -11q0 -6 -3 -11q-2 -5 -6 -6q-4 -2 -13 -2h-6v-22h-10zM61 758v-17h6q6 0 7 1l3 3q1 1 1 5q0 3 -1 5q-2 2 -3 2q-1 1 -8 1h-5zM97 709v59h36
v-10h-26v-13h25v-10h-25v-16h27v-10h-37zM143 709v59h21q9 0 11 -1q3 -1 6 -6q2 -6 2 -9q0 -8 -3 -12q-3 -3 -10 -5l6 -5l5 -10l6 -11h-12l-7 13l-5 8l-3 3l-2 1h-5v-25h-10zM153 743h7q8 0 9 1q1 0 3 2q1 1 1 5q0 3 -1 4l-3 3h-8h-8v-15zM191 728l9 1q2 -11 11 -11q3 0 7 2
q2 4 2 6t-1 3q0 1 -2 3q-1 0 -9 3q-7 2 -9 4q-4 2 -5 6q-2 4 -2 8t2 8q3 5 7 6q2 2 9 2q9 0 14 -4q5 -7 5 -14h-10q-2 5 -3 6q-1 2 -6 2t-6 -1q-2 -1 -2 -4t2 -5q2 -1 9 -3q8 -3 10 -5q3 -1 5 -6q2 -2 2 -9q0 -8 -5 -13t-15 -5q-17 0 -19 20zM237 738q0 10 3 18q4 7 8 10
q6 3 13 3q10 0 17 -8q6 -7 6 -23q0 -15 -7 -23q-6 -7 -16 -7q-11 0 -17 7q-7 8 -7 23zM247 739q0 -11 4 -16q5 -5 10 -5q6 0 9 5q4 5 4 16t-4 15q-3 5 -9 5q-7 0 -10 -5q-4 -4 -4 -15zM293 709v59h9l20 -39v39h10v-59h-10l-20 39v-39h-9zM386 709h-10l-5 13h-19l-4 -13h-11
l19 59h11zM368 732l-6 22l-7 -22h13zM392 709v59h10v-49h25v-10h-35zM455 768h10v-32v-10q2 -4 4 -6t6 -2q2 0 6 2l3 4v11v33h10v-31q0 -14 -1 -17q-1 -6 -6 -9t-12 -3t-12 3q-4 2 -6 7q-2 8 -2 19v31zM503 728l9 1q2 -11 11 -11q3 0 7 2q2 2 2 6q0 2 -1 3q0 1 -2 3
q-1 0 -9 3q-7 2 -9 4q-4 2 -5 6q-2 4 -2 8q0 5 3 8q1 5 6 6q2 2 9 2q10 0 14 -4q5 -7 5 -14h-10q0 5 -3 6q-1 2 -6 2t-6 -1q-2 -1 -2 -4t2 -5q2 -1 9 -3q8 -3 10 -5q3 -1 5 -6q2 -2 2 -9q0 -8 -5 -13t-14 -5q-18 0 -20 20zM551 709v59h36v-10h-26v-13h24v-10h-24v-16h27v-10
h-37zM51 792v59h34v-10h-24v-14h21v-10h-21v-25h-10zM93 792v59h20q10 0 12 -1q4 -2 5 -6q3 -4 3 -9q0 -6 -4 -12q-4 -4 -9 -5l5 -5l6 -10l6 -11h-12l-7 13l-6 8q0 1 -2 3q-1 0 -3 0.5t-4 0.5v-25h-10zM103 826h7q7 0 8 1q3 0 3 2q1 1 1 5q0 3 -1 4q0 2 -3 3h-8h-7v-15z
M142 792v59h36v-10h-26v-13h24v-10h-24v-16h27v-10h-37zM187 792v59h36v-10h-26v-13h25v-10h-25v-16h27v-10h-37zM250 821q0 11 3 18q4 8 8 10q5 3 12 3q12 0 17 -8q7 -7 7 -23q0 -13 -7 -23q-6 -7 -17 -7q-10 0 -17 7q-6 9 -6 23zM260 822q0 -11 4 -16q3 -5 9 -5q5 0 10 5
q4 8 4 16q0 9 -4 15q-5 5 -10 5t-10 -5q-3 -5 -3 -15zM305 792v59h9l20 -39v39h9v-59h-10l-19 39v-39h-9zM354 792v59h10v-49h24v-10h-34zM402 792v25l-17 34h11l11 -23l12 23h11l-18 -34v-25h-10zM453 792v59h33v-10h-23v-14h20v-10h-20v-25h-10zM492 821q0 11 4 18
q4 8 8 10q4 3 12 3q12 0 17 -8q7 -9 7 -23q0 -13 -7 -23q-6 -7 -17 -7t-17 7q-7 10 -7 23zM503 822q0 -10 3 -16q5 -5 10 -5t10 5q4 8 4 16q0 9 -4 15q-5 5 -10 5t-10 -5q-3 -5 -3 -15zM547 792v59h21q9 0 11 -1q5 -2 6 -6q2 -3 2 -9q0 -7 -3 -12q-3 -3 -10 -5l6 -5l5 -10
l6 -11h-12l-7 13l-5 8l-3 3h-2q-3 1 -5 1v-25h-10zM557 826h7q8 0 9 1q1 0 3 2q1 1 1 5q0 3 -1 4l-3 3h-8h-8v-15zM198 20h-7v5q-2 -4 -4 -5t-5 -1q-5 0 -8 5q-4 4 -4 14q0 9 4 13q3 5 8 5q1 0 2.5 -0.5t2.5 -0.5l4 -4v17h7v-48zM178 38q0 -5 1 -7q0 -2 2 -4q1 0 3 -1
q4 0 5 3q2 4 2 8q0 5 -2 9q-1 3 -5 3q-2 0 -4 -3q-2 -2 -2 -8zM222 31l7 -2q-2 -6 -4 -7q-3 -3 -8 -3q-7 0 -10 4q-4 5 -4 14q0 10 4 14q3 5 9 5q5 0 10 -5q4 -4 4 -16h-19q0 -5 2 -7t4 -2q3 0 5 5zM222 40q0 5 -1 7l-4 2q-1 0 -5 -2q-1 -2 -1 -7h11zM232 55l4 3q0 2 0.5 4
t0.5 3l3 3q2 1 5 1q4 0 7 -1l-1 -6h-4q-2 0 -2 -1q-1 0 -1 -6h6v-7h-6v-28h-8v28h-4v7zM261 68v-17l4 4l2 1h3q3 0 5 -2q2 -1 4 -5q0 -1 0.5 -4t0.5 -5v-20h-8v18q0 7 -1 9q-2 2 -4 2q-3 0 -4 -3q-2 -1 -2 -9v-17h-8v48h8zM292 44l-7 2q1 4 5 8q2 2 8 2h4l3 -1l4 -4
q1 -2 1 -9v-11v-6q0 -1 0.5 -2.5t1.5 -2.5h-8l-1 4l-4 -4q-2 -1 -5 -1q-4 0 -7 3t-3 7q0 2 2 6q0 1 3 3l6 3q5 0 7 2q0 4 -1 5t-4 1q-1 0 -3 -1zM302 29v8l-4 -2q-3 0 -5 -2q-1 -1 -1 -3v-1q1 -1 1 -2q1 -1 3 -1q4 0 6 3zM324 20h-8v35h8v-5l3 5q1 0 3 1q3 0 5 -2l-2 -8
q-2 2 -4 2q-1 0 -3 -2q-1 -2 -1 -4q-1 -2 -1 -11v-11zM336 38q0 5 2 9q1 3 5 7q6 2 8 2q7 0 11 -6t4 -12q0 -4 -2 -10q-4 -5 -6 -7q-4 -2 -7 -2q-6 0 -11 5q-4 4 -4 14zM344 37q0 -6 2 -8q1 -2 5 -2t5 2q2 4 2 8q0 6 -2 8q-2 3 -5 3t-5 -3q-2 -1 -2 -8zM371 20v9h8v-9h-8z
M411 45l-7 -2q-2 6 -6 6q-2 0 -4 -3q-2 -2 -2 -8q0 -5 2 -9q1 -2 4 -2t4 1q2 2 2 5l7 -1q-1 -13 -13 -13q-7 0 -10 5q-4 5 -4 13t4 14q5 5 10 5q4 0 9 -3q3 -3 4 -8zM414 38q0 5 2 9l6 7q4 2 7 2q8 0 11 -6q4 -4 4 -12q0 -7 -2 -10q-1 -3 -5 -7q-6 -2 -8 -2q-7 0 -10 5
q-5 5 -5 14zM422 37q0 -4 2 -8q2 -2 5 -2q4 0 5 2q2 2 2 8q0 7 -2 8q-2 3 -5 3q-2 0 -5 -3q-2 -2 -2 -8zM449 55h7v-5q2 4 4 4q4 2 5 2q3 0 5 -2q1 0 3 -4l4 4q4 2 5 2q3 0 5 -2q3 0 3 -4q2 -2 2 -8v-22h-8v20q0 6 -1 7q-2 2 -3 2q-2 0 -4 -3q-2 -2 -2 -9v-17h-8v19v8
q-2 2 -4 2l-1 -1h-2l-2 -4v-7v-17h-8v35zM171 106v8h17v-19q-4 -4 -7 -5q-6 -3 -10 -3q-7 0 -11 3q-4 2 -7 9q-2 4 -2 14q0 7 2 13q3 6 7 9t10 3q8 0 12 -4q5 -3 5 -11l-8 -1q0 4 -3 5q-1 2 -6 2t-8 -4q-3 -3 -3 -12q0 -8 3 -13q3 -4 8 -4q4 0 5 1l5 3v6h-9zM211 99l8 -1
q-1 -4 -5 -8q-3 -3 -8 -3q-6 0 -9 5q-5 5 -5 14q0 7 5 14q3 4 9 4t9 -4q4 -5 4 -17h-19q0 -4 2 -6q2 -3 4 -3q5 0 5 5zM212 109q0 4 -2 6q-1 2 -4 2q-2 0 -4 -2t-2 -6h12zM238 124v-8h-5v-14v-5q0 -2 2 -2t3 1l1 -7q-4 -2 -6 -2q-3 0 -5 2t-2 4q-1 1 -1 8l-3 15l3 8v7l8 5
v-12h5zM254 124l5 2v7l3 4q1 0 2.5 0.5t2.5 0.5q2 0 4 -0.5t3 -0.5l-1 -7h-6q-1 -1 -1 -6h6v-8h-6v-28h-7v28h-5v8zM294 88v6q-2 -4 -4 -5q-2 -2 -5 -2t-5 2q-3 1 -4 4q0 1 -0.5 3.5t-0.5 4.5v23h8v-17q-1 -2 -1 -5q0 -6 3 -6q1 -1 3 -1t3 1q2 2 2 3q1 2 1 10v15h8v-36h-8z
M309 88v49h7v-49h-7zM324 88v49h7v-49h-7zM350 124l4 2q0 6 1 7l3 4l2 1h3t3 -0.5t3 -0.5l-1 -7h-1q-1 1 -2 1t-3 -1v-4v-2h5v-8h-5v-28h-8v28h-4v8zM369 106q0 4 2 10q3 5 6 6q2 2 7 2q7 0 11 -5t4 -13q0 -4 -2 -10q-3 -5 -6 -6q-3 -3 -7 -3q-6 0 -11 5q-4 8 -4 14z
M377 106q0 -4 2 -8q1 -3 5 -3t5 3q2 4 2 8t-2 8q-1 3 -5 3t-5 -3q-2 -4 -2 -8zM431 88h-8v18q0 6 -1 7q0 3 -1 3q-1 1 -3 1t-3 -1l-3 -3v-9v-16h-8v36h7v-6l5 5q1 1 5 1t5 -1l4 -5q0 -1 0.5 -3.5t0.5 -4.5v-22zM451 124v-8h-5v-14v-5q0 -2 2 -2q1 0 3 1v-7q-2 -2 -6 -2
q-2 0 -4 2l-3 4v8v15h-4v8h4v7l8 5v-12h5zM476 113l-7 1q1 5 4 8q2 2 9 2q5 0 7 -1q3 -1 4 -4l1 -3v-5v-11v-7v-2q1 -2 1 -3h-7l-1 4q-1 0 -2 -1.5t-2 -1.5q-4 -2 -5 -2q-4 0 -7 3t-3 8v3l1 2l3 4l7 2q6 2 7 2v4q0 2 -5 2q-2 0 -3 -1q-2 0 -2 -3zM486 98v7l-2 -1h-2
q-4 -2 -5 -2q-1 -1 -1 -3q0 -3 1 -4t3 -1t3 1zM514 124v-8h-5v-14v-5q0 -2 2 -2q1 0 3 1v-7q-2 -2 -6 -2q-2 0 -4 2q-1 1 -3 4v8v15h-4v8h4v7l8 5v-12h5z" />
    <glyph glyph-name="colon" unicode=":" horiz-adv-x="306" 
d="M50 89q0 43 30 73.5t73 30.5t73 -30.5t30 -73.5t-30 -73t-73 -30t-73 30t-30 73zM153 159q-29 0 -49 -20.5t-20 -49.5t20 -49t49 -20t49 20t20 49t-20 49.5t-49 20.5zM50 437q0 43 30 73.5t73 30.5t73 -30.5t30 -73.5t-30 -73t-73 -30t-73 30t-30 73zM153 507
q-29 0 -49 -20.5t-20 -49.5t20 -49t49 -20t49 20t20 49t-20 49.5t-49 20.5z" />
    <glyph glyph-name="semicolon" unicode=";" horiz-adv-x="306" 
d="M50 437q0 43 30 73.5t73 30.5t73 -30.5t30 -73.5t-30 -73t-73 -30t-73 30t-30 73zM153 507q-29 0 -49 -20.5t-20 -49.5t20 -49t49 -20t49 20t20 49t-20 49.5t-49 20.5zM119 -141h-34l36 141h-71v193h206v-181l-77 -153h-38l81 161v139h-138v-125h81z" />
    <glyph glyph-name="less" unicode="&#x3c;" horiz-adv-x="620" 
d="M553 125l-406 192l404 191l15 -31l-339 -160l342 -161zM531 80l-15 -30l-465 222v89l463 223l15 -31l-444 -213v-47z" />
    <glyph glyph-name="equal" unicode="=" horiz-adv-x="620" 
d="M595 222h-572v34h572v-34zM595 140h-572v34h572v-34zM595 444h-572v34h572v-34zM595 361h-572v34h572v-34z" />
    <glyph glyph-name="greater" unicode="&#x3e;" horiz-adv-x="620" 
d="M473 317l-406 -192l-16 31l342 161l-339 160l15 31zM104 50l-15 30l446 213v47l-444 213l15 31l463 -223v-89z" />
    <glyph glyph-name="question" unicode="?" horiz-adv-x="573" 
d="M213 241h-34v24q0 42 15 70.5t48 57.5q6 5 42 31.5t51 44.5t15 39q0 23 -16.5 37.5t-42.5 14.5q-30 0 -52 -14t-22 -39v-20h-33v35q6 36 39 54t68 18q38 0 65.5 -23.5t27.5 -62.5q0 -45 -51 -87q-11 -10 -35.5 -28t-33.5 -26q-26 -22 -38 -42.5t-13 -48.5v-35zM68 521
v-34h-34v32q0 67 39.5 114.5t97.5 68.5t127 21q121 0 186.5 -54t65.5 -149q0 -101 -94 -166q-7 -5 -27 -16.5t-32 -19.5t-22.5 -22t-10.5 -30v-25h-34q0 35 1 35q3 38 47 70q11 8 32.5 20.5l26.5 15.5q79 55 79 138q0 79 -54 124t-164 45q-98 0 -163.5 -44.5t-66.5 -123.5z
M168 89q0 43 30 73.5t73 30.5t73 -30.5t30 -73.5t-30 -73t-73 -30t-73 30t-30 73zM271 159q-29 0 -49 -20.5t-20 -49.5t20 -49t49 -20t49 20t20 49t-20 49.5t-49 20.5z" />
    <glyph glyph-name="at" unicode="@" horiz-adv-x="957" 
d="M566 340l-19 -104q-7 -34 -30.5 -57.5t-60.5 -23.5q-31 0 -47.5 20t-16.5 47q0 9 2 19l17 98q6 33 28 58.5t58 25.5q29 0 49.5 -17.5t20.5 -47.5v-9q0 -1 -0.5 -4t-0.5 -5zM456 176q29 0 47 18t23 46l19 104q1 4 1 14q0 20 -13.5 32t-35.5 12q-26 0 -43 -20t-22 -47
l-17 -98q-2 -8 -2 -15q0 -20 11 -33t32 -13zM652 116l71 389h20l-64 -357q61 25 101.5 85.5t40.5 139.5q0 68 -26 121t-70.5 84t-99 47t-116.5 16q-89 0 -160.5 -31.5t-115.5 -85.5t-67.5 -121.5t-23.5 -142.5q0 -95 48 -170.5t129 -116.5q74 -36 168 -36q85 0 146 10.5
t153 38.5l6 -19l-21 -7q-82 -25 -142 -34.5t-142 -9.5q-101 0 -177 38q-87 44 -138 124.5t-51 181.5q0 79 24.5 150t71.5 128t122.5 90.5t169.5 33.5q64 0 122 -17t106 -50.5t76.5 -90.5t28.5 -131q0 -43 -10.5 -81t-27 -63.5t-37 -46t-41 -32.5t-37 -20t-27.5 -11z
M491 -147q-97 0 -161 19q-128 39 -207 142.5t-79 248.5q0 197 138.5 325.5t341.5 128.5q101 0 188.5 -38.5t144 -116.5t56.5 -181q0 -110 -73.5 -202t-175.5 -114h-167l11 53h-4q-61 -64 -138 -64q-61 0 -96 29t-35 87q0 19 3 37l29 159q13 66 66 107t121 41q66 0 115 -40
l5 31h26l-12 -71q-7 7 -19.5 16.5t-47.5 26t-67 16.5q-61 0 -108 -36.5t-58 -94.5l-29 -159q-3 -17 -3 -33q0 -95 110 -95q66 0 120 54l58 60l-21 -103h139q94 21 162 107t68 188q0 95 -52.5 168.5t-135.5 110t-180 36.5q-195 0 -327 -122.5t-132 -310.5q0 -138 75 -236
t196 -135q62 -18 155 -18q160 0 290 51l4 1q4 2 9 3.5t8 2.5l6 -19q-141 -60 -317 -60z" />
    <glyph glyph-name="A" unicode="A" horiz-adv-x="750" 
d="M482 245h-231l115 383zM368 510l-71 -231h139zM223 148h287l44 -148h-35l-34 114h-237l-34 -114h-36zM709 0l-236 714h35l236 -714h-35zM42 0h-36l241 714h38z" />
    <glyph glyph-name="B" unicode="B" horiz-adv-x="716" 
d="M671 272q15 -33 15 -70q0 -83 -55 -142.5t-156 -59.5h-423v713h420q101 0 153.5 -51t52.5 -127q0 -57 -29.5 -105t-84.5 -65v-3q75 -20 107 -90zM86 679v-645h389q86 0 131.5 49t45.5 119q0 38 -18 70q-8 13 -19 23.5t-21 17t-18.5 10.5t-13.5 6l-6 2q-20 5 -28 18t-1 27
t27 20q43 13 66.5 52t23.5 87q0 62 -42 103t-130 41h-386zM275 550v-112h115q32 0 48.5 18t16.5 44q0 21 -16 35.5t-47 14.5h-117zM390 404h-149v180h151q43 0 70 -24t27 -60q0 -38 -25.5 -67t-73.5 -29zM479 272q11 -19 11 -43q0 -38 -26 -66.5t-72 -28.5h-151v183h147
q64 0 91 -45zM275 283v-115h117q31 0 47.5 18t16.5 43q0 28 -24 43q-17 11 -44 11h-113z" />
    <glyph glyph-name="C" unicode="C" horiz-adv-x="685" 
d="M476 482v-37h-33v23q0 40 -27 61.5t-64 21.5q-44 0 -69 -23.5t-25 -67.5v-203q0 -45 24 -70t70 -25q37 0 64 21.5t27 61.5v23h33v-38q-6 -49 -42.5 -75.5t-81.5 -26.5q-61 0 -94.5 35t-33.5 94v203q0 59 35.5 92t92.5 33q45 0 82 -27t42 -76zM349 -12q-62 0 -117 14.5
t-101 45t-72.5 84t-26.5 124.5v207q0 65 26.5 116.5t71 82.5t100 47t116.5 16q56 0 108 -13t98 -40t73.5 -74t27.5 -109v-44h-34v44q0 99 -79.5 150.5t-193.5 51.5q-120 0 -200 -59t-80 -169v-207q0 -119 79.5 -176.5t203.5 -57.5q113 0 191.5 51t78.5 148v47h34v-47
q0 -49 -18 -89t-48 -66.5t-70 -44t-82 -25.5t-86 -8z" />
    <glyph glyph-name="D" unicode="D" horiz-adv-x="700" 
d="M240 140v432h107q56 0 92.5 -33.5t36.5 -88.5v-186q0 -49 -32.5 -86.5t-91.5 -37.5h-112zM84 679v-645h285q120 0 192.5 55.5t72.5 169.5v211q0 104 -72.5 156.5t-194.5 52.5h-283zM274 174h78q44 0 67 27t23 63v186q0 40 -26 64t-69 24h-73v-364zM50 0v713h317
q132 0 216.5 -60t84.5 -183v-211q0 -131 -84.5 -195t-214.5 -64h-319z" />
    <glyph glyph-name="E" unicode="E" horiz-adv-x="651" 
d="M240 140v164h296v-34h-262v-96h331v-34h-365zM240 408v166h365v-34h-331v-98h262v-34h-296zM605 0h-555v713h555v-34h-521v-645h521v-34z" />
    <glyph glyph-name="F" unicode="F" horiz-adv-x="629" 
d="M240 0v292h296v-34h-262v-258h-34zM240 398v176h365v-34h-331v-108h262v-34h-296zM84 0h-34v713h555v-34h-521v-679z" />
    <glyph glyph-name="G" unicode="G" horiz-adv-x="681" 
d="M481 495v-36h-33v17q0 40 -27 61.5t-64 21.5q-44 0 -71.5 -23.5t-27.5 -67.5v-211q0 -46 24.5 -73.5t69.5 -27.5q91 0 91 80v19h-104v34h138v-53q0 -57 -34.5 -85.5t-90.5 -28.5q-61 0 -94.5 38t-33.5 97v211q0 59 38.5 92t94.5 33q44 0 80.5 -25.5t43.5 -72.5zM349 -12
q-63 0 -117.5 14.5t-100.5 45t-72.5 84t-26.5 124.5v207q0 65 26.5 116.5t71 82.5t100 47t116.5 16q56 0 109 -13t99.5 -40t75 -74t28.5 -109v-30h-34v35q-3 96 -84 146.5t-194 50.5q-120 0 -200 -59t-80 -169v-207q0 -119 79 -176.5t204 -57.5q73 0 133.5 20.5t101.5 67
t41 111.5v145h-286v34h320v-179q0 -61 -28 -107.5t-74.5 -73t-99 -39.5t-108.5 -13z" />
    <glyph glyph-name="H" unicode="H" horiz-adv-x="728" 
d="M240 297h248v-297h-34v263h-180v-263h-34v297zM644 0v713h34v-713h-34zM488 422h-248v291h34v-257h180v257h34v-291zM84 0h-34v713h34v-713z" />
    <glyph glyph-name="I" unicode="I" horiz-adv-x="324" 
d="M240 0v713h34v-713h-34zM84 0h-34v713h34v-713z" />
    <glyph glyph-name="J" unicode="J" horiz-adv-x="666" 
d="M204 265h34v-27q0 -78 78 -78t78 80v473h34v-473q0 -45 -25.5 -79.5t-86.5 -34.5q-57 0 -83 30t-29 74v35zM329 -12q-150 0 -227 56t-77 191v30h34v-35q1 -114 66 -161t204 -47q122 0 188.5 61t66.5 172v458h34v-458q0 -126 -77 -196.5t-212 -70.5z" />
    <glyph glyph-name="K" unicode="K" horiz-adv-x="707" 
d="M240 203l105 136l150 -339h-37l-121 273l-63 -82v-191h-34v203zM664 0l-201 424l195 289h41l-197 -292l199 -421h-37zM523 713l-283 -429v429h34v-316l208 316h41zM50 0v713h34v-713h-34z" />
    <glyph glyph-name="L" unicode="L" horiz-adv-x="625" 
d="M605 140h-365v573h34v-539h331v-34zM605 0h-555v713h34v-679h521v-34z" />
    <glyph glyph-name="M" unicode="M" horiz-adv-x="870" 
d="M483 144l169 493v-637h-34v454l-111 -344h-142l-114 345v-455h-34v631l172 -487h94zM84 0h-34v713h282l105 -290h3l104 290h276v-713h-34v679h-218l-129 -355l-131 355h-224v-679z" />
    <glyph glyph-name="N" unicode="N" horiz-adv-x="754" 
d="M670 34v679h34v-713h-202l-248 350h-2v-350h-34v456l301 -422h151zM84 0h-34v713h217l233 -320h2v320h34v-424l-286 390h-166v-679z" />
    <glyph glyph-name="O" unicode="O" horiz-adv-x="702" 
d="M32 264v183q0 70 26 124.5t70.5 87.5t100 49.5t119.5 16.5t119.5 -14.5t102 -45.5t73.5 -87t27 -131v-182q0 -134 -91 -205.5t-228 -71.5q-142 0 -230.5 69.5t-88.5 206.5zM66 447v-183q0 -121 77 -181.5t208 -60.5q126 0 205.5 62.5t79.5 180.5v182q0 127 -80 185.5
t-208 58.5q-123 0 -202.5 -62t-79.5 -182zM224 264v190q0 62 33 96t93 34q53 0 90.5 -34.5t37.5 -95.5v-194q0 -58 -34 -94.5t-92 -36.5q-62 0 -95 37t-33 98zM258 454v-190q0 -101 94 -101q43 0 67.5 26t24.5 71v194q0 46 -27 71t-67 25q-92 0 -92 -96z" />
    <glyph glyph-name="P" unicode="P" horiz-adv-x="693" 
d="M363 355h-123v224h124q53 0 83 -33.5t30 -78.5t-31 -78.5t-83 -33.5zM274 545v-156h89q37 0 58.5 23t21.5 55t-20.5 55t-58.5 23h-90zM84 0h-34v713h355q125 0 190.5 -68.5t65.5 -166.5q0 -104 -63.5 -178t-192.5 -74h-131v-226h-34v260h165q113 0 167.5 63t54.5 155
q0 84 -55.5 142.5t-166.5 58.5h-321v-679z" />
    <glyph glyph-name="Q" unicode="Q" horiz-adv-x="702" 
d="M478 454v-194q0 -58 -34.5 -94.5t-91.5 -36.5q-61 0 -94.5 36.5t-33.5 98.5v190q0 62 33 96t93 34q53 0 90.5 -34.5t37.5 -95.5zM352 163q43 0 67.5 26t24.5 71v194q0 46 -27 71t-67 25q-92 0 -92 -96v-190q0 -101 94 -101zM590 -105l-19 -28l-204 121h-16q-51 0 -96 8.5
t-87 28.5t-71.5 51t-47 79t-17.5 109v183q0 70 26 124.5t70.5 87.5t100 49.5t119.5 16.5t119.5 -14.5t102 -45.5t73.5 -87t27 -131v-182q0 -121 -74 -193l95 -30l-20 -30l-136 44l45 48q56 63 56 161v182q0 127 -80 185.5t-208 58.5q-123 0 -202.5 -62t-79.5 -182v-183
q0 -64 21 -111.5t59 -75t85.5 -41t106.5 -14.5h40z" />
    <glyph glyph-name="R" unicode="R" horiz-adv-x="703" 
d="M362 355h-122v224h123q53 0 83 -33.5t30 -78.5q0 -46 -31 -79t-83 -33zM240 270h102l132 -270h-38l-115 236h-47v-236h-34v270zM84 0h-34v713h342q134 0 201 -65t67 -162q0 -69 -32 -126t-96 -87l150 -273h-39l-156 284l47 29q92 56 92 173q0 83 -57 138t-177 55h-308
v-679zM274 545v-156h88q37 0 58.5 22.5t21.5 55.5q0 32 -20.5 55t-58.5 23h-89z" />
    <glyph glyph-name="S" unicode="S" horiz-adv-x="643" 
d="M122 176l-30 19l20 29q96 -73 190 -73q83 0 83 41q0 16 -9.5 26.5t-20 14.5t-32.5 10l-126 35q-76 21 -121.5 72.5t-45.5 127.5q0 103 80 174.5t210 71.5q95 0 154 -16t123 -54l-21 -26l-32 17q-89 45 -224 45q-118 0 -187 -62.5t-69 -149.5q0 -63 37.5 -106t104.5 -61
l126 -35q45 -16 53 -21q34 -21 34 -63q0 -30 -21.5 -48t-45 -22.5t-50.5 -4.5q-87 0 -180 59zM321 -12q-100 0 -173.5 16.5t-141.5 63.5l19 27q30 -18 31 -18q55 -32 117 -43.5t148 -11.5q70 0 128.5 21t98.5 70.5t40 120.5q0 123 -154 166l-103 29q-6 2 -23.5 6t-27 7
t-23.5 9t-21 13.5t-13 20t-6 28.5q0 77 114 77q71 0 139 -37l31 -19l-22 -27q-27 22 -70.5 35.5t-77.5 13.5q-80 0 -80 -43q0 -7 2 -12.5t7 -9.5t9.5 -7t14 -6.5t16 -5t20 -5t20.5 -5.5l103 -29q88 -25 133.5 -76t45.5 -123q0 -64 -27 -113.5t-72 -77t-96 -41.5t-106 -14z
" />
    <glyph glyph-name="T" unicode="T" horiz-adv-x="668" 
d="M413 0v574h233v-34h-199v-540h-34zM646 679h-624v34h624v-34zM255 0h-34v540h-199v34h233v-574z" />
    <glyph glyph-name="U" unicode="U" horiz-adv-x="725" 
d="M238 267v446h34v-446q0 -52 27 -79t70 -27q41 0 66 28.5t25 77.5v446h34v-446q0 -62 -34.5 -101t-90.5 -39q-58 0 -94.5 37t-36.5 103zM357 -13q-150 0 -229.5 67.5t-79.5 204.5v454h34v-454q0 -238 275 -238q125 0 205.5 63.5t80.5 179.5v449h34v-449q0 -133 -92 -205
t-228 -72z" />
    <glyph glyph-name="V" unicode="V" horiz-adv-x="692" 
d="M514 713l-164 -626l-156 626h35l120 -481h4l126 481h35zM460 -1h-236l-219 714h35l209 -680h186l216 680h36z" />
    <glyph glyph-name="W" unicode="W" horiz-adv-x="985" 
d="M431 679l-115 -484l-123 518h35l85 -371h3l88 371h201l81 -371h1l83 371h36l-121 -527l-107 493h-147zM384 -1h-201l-175 714h36l166 -680h148l131 509l128 -509h159l166 680h35l-174 -714h-212l-100 398h-4z" />
    <glyph glyph-name="X" unicode="X" horiz-adv-x="698" 
d="M183 0l155 295l162 -295h-40l-121 223l-114 -223h-42zM657 0l-208 364l194 349h40l-195 -349l209 -364h-40zM506 713l-144 -278l-147 278h40l107 -205l104 205h40zM40 0h-39l209 369l-194 344h40l193 -344z" />
    <glyph glyph-name="Y" unicode="Y" horiz-adv-x="682" 
d="M419 0v285l225 428h40l-231 -436v-277h-34zM510 713l-159 -343l-163 343h39l124 -263l119 263h40zM262 0h-34v278l-230 435h40l224 -427v-286z" />
    <glyph glyph-name="Z" unicode="Z" horiz-adv-x="657" 
d="M585 679h-539v34h573v-149l-291 -390h287v-34h-355l325 435v104zM615 0h-579v129l312 411h-302v34h370l-346 -456v-84h545v-34z" />
    <glyph glyph-name="bracketleft" unicode="[" horiz-adv-x="354" 
d="M139 -130v787h130v-34h-96v-719h95v-34h-129zM328 -184h-252v897h253v-34h-219v-829h218v-34z" />
    <glyph glyph-name="backslash" unicode="\" horiz-adv-x="370" 
d="M358 -178l-262 896h35l263 -896h-36zM293 -178h-35l-260 896h36z" />
    <glyph glyph-name="bracketright" unicode="]" horiz-adv-x="354" 
d="M214 657v-787h-129v34h95v719h-96v34h130zM277 -184h-252v34h218v829h-219v34h253v-897z" />
    <glyph glyph-name="asciicircum" unicode="^" horiz-adv-x="572" 
d="M319 483l98 -363h-37l-94 354l-96 -354h-36l99 363q8 31 33 31q24 0 33 -31zM103 120h-37l152 497h144l143 -497h-35l-134 463h-93z" />
    <glyph glyph-name="underscore" unicode="_" horiz-adv-x="500" 
d="M500 -62h-500v34h500v-34zM500 -165h-500v34h500v-34z" />
    <glyph glyph-name="grave" unicode="`" horiz-adv-x="335" 
d="M305 593h-131l-146 184h44l118 -150h60l-73 150h38z" />
    <glyph glyph-name="a" unicode="a" horiz-adv-x="604" 
d="M316 261h71v-68q0 -47 -32 -73t-65 -26q-47 0 -67.5 24t-20.5 58q0 49 41 71q26 14 73 14zM290 128q21 0 42 17.5t21 47.5v34h-37q-80 0 -80 -51q0 -48 54 -48zM75 385v-40h-35v24q0 84 76 133t189 49q106 0 181 -50t75 -149v-230q0 -41 9 -122h-35l-4 40q-4 46 -4 82
v230q0 80 -62.5 122.5t-159.5 42.5t-159.5 -36.5t-70.5 -95.5zM195 -12q-75 0 -122.5 39.5t-47.5 112.5q0 53 27.5 91t72.5 57t89.5 27t92.5 8h46v35q0 24 -17 39.5t-49 15.5q-35 0 -49 -17t-14 -39v-12h-31q0 37 1 39q16 63 93 63q45 0 72.5 -24.5t27.5 -64.5v-69h-80
q-102 0 -169 -32q-79 -38 -79 -117q0 -57 36.5 -87.5t99.5 -30.5q38 0 78.5 15t62.5 51q2 4 13 10t16 6h6q12 0 22 -9.5t12 -21.5l6 -73h-34l-6 70h-6q-28 -46 -77 -64t-93 -18z" />
    <glyph glyph-name="b" unicode="b" horiz-adv-x="622" 
d="M418 330v-130q0 -48 -26.5 -77.5t-69.5 -29.5q-35 0 -68.5 24.5t-33.5 78.5v123q0 63 30 89.5t73 26.5q40 0 67.5 -28.5t27.5 -76.5zM322 127q27 0 44.5 19t17.5 54v130q0 34 -18 52.5t-43 18.5q-69 0 -69 -82v-123q0 -37 21.5 -53t46.5 -16zM80 713v-713h-34v713h34z
M383 -13q-80 0 -130 60h-2v-47h-36v121q3 -4 9 -11t24.5 -24t37.5 -30t45.5 -24t51.5 -11q76 0 125.5 43t49.5 105v194q0 74 -39 114.5t-115 40.5q-62 0 -139 -66l-45 -38v299h34v-236h2q58 75 148 75q91 0 139.5 -51t48.5 -138v-194q0 -78 -60.5 -130t-148.5 -52z" />
    <glyph glyph-name="c" unicode="c" horiz-adv-x="584" 
d="M392 365v-38h-33v21q0 58 -56 58q-63 0 -63 -66v-139q0 -68 63 -68q56 0 56 58v21h33v-37q0 -35 -26 -55.5t-63 -20.5q-46 0 -71.5 28t-25.5 74v139q0 46 26 73t71 27q35 0 62 -21t27 -54zM300 -13q-50 0 -95.5 11.5t-86 36t-64.5 69.5t-24 104v110q0 60 24 106.5
t64 73.5t86.5 40.5t95.5 13.5q108 0 184 -51t76 -140v-34h-34v38q0 68 -64.5 110.5t-161.5 42.5t-166.5 -51.5t-69.5 -148.5v-110q0 -95 67.5 -141t168.5 -46t163.5 40t62.5 109v42h34v-42q0 -88 -75.5 -135.5t-184.5 -47.5z" />
    <glyph glyph-name="d" unicode="d" horiz-adv-x="621" 
d="M402 343v-126q0 -54 -30 -83t-72 -29q-40 0 -68 30.5t-28 77.5v119q0 51 27.5 82.5t69.5 31.5q36 0 68.5 -24.5t32.5 -78.5zM300 139q28 0 48 19.5t20 58.5v126q0 37 -21 53t-46 16q-26 0 -44.5 -20.5t-18.5 -59.5v-119q0 -34 18.5 -54t43.5 -20zM541 0v713h34v-713h-34z
M218 -12q-91 0 -139.5 50.5t-48.5 137.5v194q0 78 57.5 130t144.5 52q37 0 75 -13.5t61 -40.5v215h34v-288q-84 93 -170 93q-75 0 -121.5 -42.5t-46.5 -105.5v-194q0 -74 38.5 -114t115.5 -40q50 0 85.5 23t102.5 98v-143h-34v66q-29 -37 -70.5 -57.5t-83.5 -20.5z" />
    <glyph glyph-name="e" unicode="e" horiz-adv-x="582" 
d="M395 350v-55h-190v55q0 42 26 69t68 27t69 -26t27 -70zM239 350v-21h122v21q0 29 -17 45.5t-45 16.5q-27 0 -43.5 -17t-16.5 -45zM307 -13q-54 0 -101.5 12t-88 37t-64 70t-23.5 104v95q0 63 24 112t64.5 77.5t88.5 43t100 14.5q103 0 174 -59.5t71 -166.5v-104h-313v-15
q0 -37 32 -53.5t72 -16.5q59 0 162 30l8 -32q-5 -1 -13.5 -3.5l-15.5 -4.5l-6 -2q-84 -22 -135 -22q-53 0 -95.5 25.5t-42.5 78.5v49h313v70q0 90 -60 141t-151 51q-102 0 -172.5 -54t-70.5 -159v-95q0 -96 67.5 -142.5t175.5 -46.5q97 0 188 33l7 2q6 3 15 5.5t13 4.5
l8 -31q-110 -48 -231 -48z" />
    <glyph glyph-name="f" unicode="f" horiz-adv-x="410" 
d="M258 0v417h133v-34h-99v-383h-34zM387 628v-33q-30 4 -57 4q-17 0 -27.5 -9.5t-10.5 -25.5v-37h99v-34h-133v71q0 32 21.5 50.5t50.5 18.5q12 0 19 -1q10 0 38 -4zM119 572v-79h-98v34h64v45q0 83 55 121t130 38q77 0 117 -13v-31q-35 5 -38 5q-32 5 -79 5
q-66 0 -108.5 -30.5t-42.5 -94.5zM119 0h-34v383h-64v34h98v-417z" />
    <glyph glyph-name="g" unicode="g" horiz-adv-x="627" 
d="M407 336v-76q0 -53 -29.5 -81t-70.5 -28q-42 0 -69.5 28t-27.5 76v71q0 51 25.5 82t67.5 31q35 0 69.5 -24t34.5 -79zM307 185q28 0 47 18t19 57v76q0 37 -22.5 53t-47.5 16q-26 0 -42.5 -20t-16.5 -59v-71q0 -34 17.5 -52t45.5 -18zM134 -56l-43 15l12 30
q87 -30 168 -30q52 0 77 25t25 68v45q-56 -62 -146 -62q-92 0 -141.5 50t-49.5 136v145q0 78 60.5 132t148.5 54q36 0 74.5 -14.5t61.5 -39.5v42h34v-127q-66 105 -170 105q-75 0 -125 -44.5t-50 -107.5v-145q0 -72 40 -112t117 -40q36 0 67.5 10.5t51.5 26t34.5 31
t20.5 25.5l6 11v-121q0 -57 -35 -92t-101 -35q-64 0 -137 19zM286 -197q-149 8 -242 43l13 32q96 -34 230 -41q121 2 190.5 57.5t69.5 166.5v479h34v-479q0 -128 -81 -192t-214 -66z" />
    <glyph glyph-name="h" unicode="h" horiz-adv-x="632" 
d="M418 317v-317h-34v317q0 79 -66 79q-26 0 -45 -23.5t-19 -66.5v-306h-34v306q0 54 27.5 89t70.5 35q32 0 54 -12.5t31 -33.5t12 -36t3 -31zM254 430l-34 -34v317h34v-249q64 88 172 88q65 0 115.5 -38t50.5 -115v-399h-34v399q0 60 -39 89.5t-93 29.5q-47 0 -85 -19
t-87 -69zM80 0h-34v713h34v-713z" />
    <glyph glyph-name="i" unicode="i" horiz-adv-x="300" 
d="M220 0v539h34v-539h-34zM80 0h-34v539h34v-539zM47 686q0 43 30 73.5t73 30.5t73 -30.5t30 -73.5t-30 -73t-73 -30t-73 30t-30 73zM150 756q-29 0 -49 -20.5t-20 -49.5q0 -28 20.5 -48.5t48.5 -20.5t48.5 20.5t20.5 48.5q0 29 -20 49.5t-49 20.5z" />
    <glyph glyph-name="j" unicode="j" horiz-adv-x="316" 
d="M67 686q0 43 30 73.5t73 30.5t73 -30.5t30 -73.5t-30 -73t-73 -30t-73 30t-30 73zM170 756q-29 0 -49 -20.5t-20 -49.5q0 -28 20.5 -48.5t48.5 -20.5t48.5 20.5t20.5 48.5q0 29 -20 49.5t-49 20.5zM3 -70v31q8 -2 28 -2q35 0 35 38v544h34v-544q0 -26 -14 -47t-44 -24
q-1 0 -8 0.5t-17.5 2t-13.5 1.5zM89 -191q-36 0 -86 8v33q38 -4 39 -5q26 -2 47 -2q65 0 108 34.5t43 102.5v561h34v-561q0 -84 -54.5 -127.5t-130.5 -43.5z" />
    <glyph glyph-name="k" unicode="k" horiz-adv-x="601" 
d="M220 170l90 116l96 -286h-37l-71 215l-44 -57v-158h-34v170zM426 353l128 186h41l-131 -189l127 -350h-37zM434 539l-214 -310v484h34v-375l138 201h42zM80 0h-34v713h34v-713z" />
    <glyph glyph-name="l" unicode="l" horiz-adv-x="347" 
d="M214 713h34v-516q0 -19 7.5 -28t31.5 -9q9 0 39 4v-33q-32 -5 -39 -5q-73 0 -73 71v516zM212 -12q-78 0 -125.5 37t-47.5 107v581h34v-581q0 -53 36 -81.5t103 -28.5q37 0 77 10q5 0 37 8v-33q-59 -19 -114 -19z" />
    <glyph glyph-name="m" unicode="m" horiz-adv-x="970" 
d="M418 317v-317h-34v317q0 79 -66 79q-26 0 -45 -23.5t-19 -66.5v-306h-34v306q0 54 27.5 89t70.5 35q32 0 54 -12.5t31 -33.5t12 -36t3 -31zM756 317v-317h-34v317q0 79 -66 79q-26 0 -45 -23.5t-19 -66.5v-306h-34v306q0 54 27.5 89t70.5 35q32 0 54 -12.5t31 -33.5
t12 -36t3 -31zM254 434l-38 -38v143h34v-75q64 88 176 88q51 0 94.5 -20.5t61.5 -67.5q65 88 182 88q65 0 115.5 -38t50.5 -115v-399h-34v399q0 60 -39 89.5t-93 29.5q-86 0 -166 -72l-32 -30q-42 102 -140 102q-47 0 -86 -18.5t-86 -65.5zM80 0h-34v539h34v-539z" />
    <glyph glyph-name="n" unicode="n" horiz-adv-x="632" 
d="M418 317v-317h-34v317q0 79 -66 79q-26 0 -45 -23.5t-19 -66.5v-306h-34v306q0 54 27.5 89t70.5 35q32 0 54 -12.5t31 -33.5t12 -36t3 -31zM255 441l-39 -36v134h34v-69q68 82 176 82q65 0 115.5 -38t50.5 -115v-399h-34v399q0 60 -39 89.5t-93 29.5q-47 0 -85 -17
t-86 -60zM80 0h-34v539h34v-539z" />
    <glyph glyph-name="o" unicode="o" 
d="M30 209v110q0 115 78.5 174t188.5 59q52 0 98 -12t86.5 -37t64.5 -71.5t24 -108.5v-113q0 -108 -80 -165t-190 -57q-115 0 -192.5 54.5t-77.5 166.5zM64 319v-110q0 -95 65 -141t171 -46q101 0 168.5 48t67.5 140v113q0 69 -35 114t-86.5 63t-117.5 18
q-100 0 -166.5 -50.5t-66.5 -148.5zM206 199v133q0 42 23 74t71 32q43 0 68.5 -30.5t25.5 -72.5v-134q0 -43 -24 -71.5t-69 -28.5q-46 0 -70.5 27.5t-24.5 70.5zM240 332v-133q0 -64 61 -64q29 0 44 18t15 48v134q0 30 -16.5 49.5t-43.5 19.5q-30 0 -45 -20t-15 -52z" />
    <glyph glyph-name="p" unicode="p" horiz-adv-x="622" 
d="M418 329v-133q0 -49 -29 -76t-69 -27q-35 0 -67.5 24.5t-32.5 78.5v123q0 63 30 89.5t73 26.5q40 0 67.5 -29.5t27.5 -76.5zM320 127q26 0 45 17.5t19 51.5v133q0 34 -18 53t-43 19q-69 0 -69 -82v-123q0 -37 21 -53t45 -16zM216 401v139h34v-68q30 38 71 59t83 21
q91 0 139.5 -51t48.5 -138v-194q0 -78 -60.5 -130t-148.5 -52q-34 0 -70 15.5t-57 40.5v-227h-36v310q2 -4 7 -11t21 -25.5t33.5 -32t45 -25t56.5 -11.5q76 0 125.5 43t49.5 105v194q0 74 -39 114.5t-115 40.5q-28 0 -58 -12t-52 -29t-40.5 -34.5t-27.5 -29.5zM80 -184h-34
v724h34v-724z" />
    <glyph glyph-name="q" unicode="q" horiz-adv-x="622" 
d="M204 196v133q0 47 27.5 76.5t67.5 29.5q43 0 73 -26.5t30 -89.5v-123q0 -54 -32.5 -78.5t-67.5 -24.5q-40 0 -69 27t-29 76zM302 127q24 0 45 16t21 53v123q0 82 -69 82q-25 0 -43 -19t-18 -53v-133q0 -34 19 -51.5t45 -17.5zM406 540v-139l-10 13t-26.5 28t-41.5 35.5
t-51.5 28t-58.5 12.5q-76 0 -115 -40.5t-39 -114.5v-194q0 -62 49.5 -105t125.5 -43q29 0 56 11t45.5 26.5t33 30.5t21.5 26l7 11v-310h-36v227q-21 -25 -57 -40.5t-70 -15.5q-88 0 -148.5 52t-60.5 130v194q0 87 48.5 138t139.5 51q42 0 83 -21t71 -59v68h34zM576 -184h-34
v724h34v-724z" />
    <glyph glyph-name="r" unicode="r" horiz-adv-x="472" 
d="M466 403v-34q-54 8 -94 8q-22 0 -38.5 -2.5t-36.5 -10.5t-31.5 -28t-11.5 -50v-286h-34v286q0 78 61 108q34 17 91 17q18 0 54 -3q2 0 40 -5zM263 431l-47 -49v157h34v-88q22 39 64 67.5t90 28.5q40 0 62 -6v-33q-34 2 -46 2q-47 0 -78.5 -15.5t-78.5 -63.5zM80 0h-34
v539h34v-539z" />
    <glyph glyph-name="s" unicode="s" horiz-adv-x="561" 
d="M84 152l19 30q82 -58 160 -58q62 0 62 25q0 13 -5.5 20.5t-20 12.5t-30 7.5t-44.5 8.5t-56 14q-132 38 -132 148q0 80 65 136t175 56q78 0 126.5 -12t108.5 -44l-23 -28q-6 3 -15 8t-15 8l-6 3q-70 31 -176 31q-97 0 -151.5 -47t-54.5 -111q0 -44 25.5 -71.5t81.5 -43.5
q12 -3 48.5 -11t63.5 -16t42 -18q27 -19 27 -51q0 -24 -14.5 -37t-31.5 -17q-17 -5 -50 -5q-66 0 -145 43l-6 3l-14 8zM278 -12q-84 0 -141.5 12t-119.5 50l19 29q56 -34 109.5 -45.5t132.5 -11.5q92 0 158 41.5t66 116.5q0 43 -31.5 76.5t-94.5 47.5l-105 23q-78 16 -78 63
q0 36 32 50q21 10 58 10q56 0 116 -29l36 -18l-23 -28q-27 18 -64.5 29.5t-64.5 11.5q-56 0 -56 -26q0 -13 32 -22.5t77.5 -19.5t90.5 -26t77 -52.5t32 -89.5q0 -49 -23.5 -87.5t-62.5 -60.5t-82.5 -33t-89.5 -11z" />
    <glyph glyph-name="t" unicode="t" horiz-adv-x="432" 
d="M260 201v216h145v-34h-111v-182q0 -40 43 -40q37 0 64 4v-32l-64 -6q-42 0 -59.5 22.5t-17.5 51.5zM405 493h-145v176h34v-142h111v-34zM120 669v-176h-99v34h65v142h34zM260 -11q-73 0 -123.5 35.5t-50.5 122.5v236h-65v34h99v-270q0 -124 140 -124q22 0 44.5 3t51 8.5
t45.5 7.5v-31q-75 -22 -141 -22z" />
    <glyph glyph-name="u" unicode="u" horiz-adv-x="644" 
d="M562 0v539h34v-539h-34zM224 222v317h34v-317q0 -79 66 -79q26 0 45 24t19 66v306h34v-306q0 -53 -27.5 -88.5t-70.5 -35.5q-32 0 -54 12.5t-31 33.5t-12 36t-3 31zM216 -12q-65 0 -115.5 37.5t-50.5 114.5v399h34v-399q0 -59 38.5 -88.5t93.5 -29.5q94 0 148 78
q14 20 32 20q13 0 21.5 -10.5t8.5 -28.5v-81h-34v81q-67 -93 -176 -93z" />
    <glyph glyph-name="v" unicode="v" horiz-adv-x="597" 
d="M444 539l-128 -439l-130 439h40l87 -310h5l89 310h37zM410 -1h-215l-191 540h37l178 -506h167l169 506h38z" />
    <glyph glyph-name="w" unicode="w" horiz-adv-x="897" 
d="M388 505l-98 -378l-109 412h36l67 -278h6l72 278h198l72 -278h5l69 278h36l-111 -411l-97 377h-146zM363 -1h-189l-168 540h37l156 -506h138l117 407l109 -407h136l158 506h36l-169 -540h-187l-84 314z" />
    <glyph glyph-name="x" unicode="x" horiz-adv-x="585" 
d="M148 1l124 220l129 -220h-41l-87 152l-85 -152h-40zM541 1l-168 276l159 262h39l-158 -262l169 -276h-41zM430 539l-120 -209l-121 209h42l79 -141l78 141h42zM45 1h-42l167 275l-160 263h40l160 -263z" />
    <glyph glyph-name="y" unicode="y" 
d="M451 539l-129 -438l-129 438h38l89 -311h4l91 311h36zM74 -63v35q31 -8 71 -8q45 0 56 29l4 11l-196 535h38l190 -523q0 -1 0.5 -5t0.5 -7v-8l-1 -4q-24 -62 -92 -62q-15 0 -71 7zM172 -190q-43 0 -98 11v33q68 -10 98 -10q151 0 201 142l190 553h38l-196 -564
q-58 -165 -233 -165z" />
    <glyph glyph-name="z" unicode="z" horiz-adv-x="564" 
d="M489 505h-443v34h478v-128l-230 -259h230v-34h-305l270 306v81zM524 0h-484v125l235 264h-229v34h305l-277 -311v-78h450v-34z" />
    <glyph glyph-name="braceleft" unicode="{" horiz-adv-x="352" 
d="M256 657h72v-34h-72q-22 0 -22 -23v-178q0 -49 -14 -76.5t-48 -40.5v-6q38 -15 50 -38t12 -77v-256q0 -23 22 -23h72v-34h-72q-21 0 -38.5 13.5t-17.5 43.5v256q0 46 -7 59.5t-34 23.5q-7 3 -14 14t-7 18v6q0 7 7.5 18t14.5 14q22 8 31 26t9 59v178q0 29 17.5 43t38.5 14
zM328 -184h-141q-50 0 -80 32.5t-30 95.5v235q0 38 -9 52t-36 17v95q31 6 38 15.5t7 37.5v189q0 63 30 95.5t80 32.5h141v-34h-141q-76 0 -76 -94v-189q0 -33 -9 -51t-36 -28v-42q45 -19 45 -96v-235q0 -94 76 -94h141v-34z" />
    <glyph glyph-name="bar" unicode="|" horiz-adv-x="315" 
d="M193 -53v778h34v-778h-34zM122 -53h-34v778h34v-778z" />
    <glyph glyph-name="braceright" unicode="}" horiz-adv-x="352" 
d="M24 657h72q21 0 38.5 -14t17.5 -43v-178q0 -41 9 -59t31 -26q7 -3 14.5 -14t7.5 -18v-6q0 -7 -7 -18t-14 -14q-27 -10 -34 -23.5t-7 -59.5v-256q0 -30 -17.5 -43.5t-38.5 -13.5h-72v34h72q22 0 22 23v256q0 54 12 77t50 38v6q-34 13 -48 40.5t-14 76.5v178q0 23 -22 23
h-72v34zM165 -184h-141v34h141q76 0 76 94v235q0 77 45 96v42q-27 10 -36 28t-9 51v189q0 94 -76 94h-141v34h141q50 0 80 -32.5t30 -95.5v-189q0 -28 7 -37.5t38 -15.5v-95q-27 -3 -36 -17t-9 -52v-235q0 -63 -30 -95.5t-80 -32.5z" />
    <glyph glyph-name="asciitilde" unicode="~" horiz-adv-x="602" 
d="M59 230l-32 7q25 161 140 161q32 0 136 -18t137 -18q21 0 33 12.5t23 39.5l33 -8l-15 -33q-26 -45 -74 -45q-28 0 -66 6q-21 3 -77 13q-100 17 -130 17q-74 0 -99 -97l-2 -7q-1 -6 -3.5 -16zM109 220l-31 6l11 36q21 43 75 43q28 0 66 -6q14 -2 41.5 -6.5t36.5 -5.5
q100 -17 132 -17q73 0 94 96q0 2 8 37l32 -8q-22 -159 -134 -159q-33 0 -138 17.5t-138 17.5q-24 0 -35 -11t-20 -40z" />
    <glyph glyph-name="uni00A0" unicode="&#xa0;" horiz-adv-x="200" 
 />
    <glyph glyph-name="exclamdown" unicode="&#xa1;" horiz-adv-x="322" 
d="M215 -161v253l-28 219h34l28 -215v-257h-34zM101 311h35l-29 -219v-253h-34v257zM58 462q0 43 30 73t73 30t73 -30t30 -73t-30 -73.5t-73 -30.5t-73 30.5t-30 73.5zM161 392q29 0 49 20.5t20 49.5q0 28 -20 48.5t-49 20.5t-49 -20.5t-20 -48.5q0 -29 20 -49.5t49 -20.5z
" />
    <glyph glyph-name="cent" unicode="&#xa2;" horiz-adv-x="596" 
d="M536 203v37h34v-37q0 -67 -46 -110.5t-121 -60.5v-85h-34v85q0 10 8.5 20.5t18.5 12.5q65 14 102 50.5t38 87.5zM410 356h-33v15q0 33 -17.5 49.5t-46.5 16.5q-34 0 -52 -19.5t-18 -54.5v-128q0 -36 18 -56t52 -20q29 0 46.5 16.5t17.5 49.5v15h33q-1 -11 -1 -37
q-6 -37 -32.5 -57.5t-63.5 -20.5q-49 0 -76.5 31t-27.5 79v128q0 49 27.5 78.5t76.5 29.5q37 0 63 -20.5t33 -57.5q0 -25 1 -37zM369 563v78h34v-78q74 -18 120.5 -65t46.5 -114v-28h-34v37q-4 50 -41 86t-100 51q-9 2 -17.5 12.5t-8.5 20.5zM257 -53h-34v84q-81 18 -132 70
t-51 141v98q0 90 51.5 146t131.5 77v78h34v-78q0 -9 -8.5 -20t-16.5 -13q-71 -19 -114.5 -66.5t-43.5 -123.5v-98q0 -143 156 -178q10 -2 18.5 -12.5t8.5 -20.5v-84z" />
    <glyph glyph-name="sterling" unicode="&#xa3;" horiz-adv-x="651" 
d="M292 131v188h194v-34h-160v-120h299l-7 -34h-326zM472 477h-34v29q0 56 -56 56q-28 0 -42 -17t-14 -39v-106h160v-34h-194v140q0 33 23 61.5t67 28.5q38 0 61.5 -21.5t27.5 -55.5l1 -7v-18v-17zM155 507v-141h-89v34h55v107q0 60 24 104t64 68t83 35t89 11
q95 0 164.5 -49.5t69.5 -145.5v-53h-34v53q0 78 -57 119.5t-143 41.5q-59 0 -107.5 -16.5t-83.5 -59.5t-35 -108zM155 319v-188h-113v34h79v120h-55v34h89zM591 0h-549v34h556z" />
    <glyph glyph-name="currency" unicode="&#xa4;" horiz-adv-x="715" 
d="M179 769l1 8l14 -8l-6 -4v-5zM522 769l15 8l3 -8l-12 -9v5zM298 816l7 2l5 -16h-1l-10 -3zM409 802l5 16l6 -2l-2 -17l-8 3h-1zM476 786l16 13l5 -6l-11 -11l-3 1zM220 793l6 6l15 -14l-6 -2l-5 -2zM529 25v-34l-86 22v33zM584 -2v-27l-38 14v33zM297 16v33h123v-33h-123
zM188 -9v34l87 21v-33zM135 -29v27l37 20v-33zM604 6v-8l-61 33v8zM537 43v-11l-101 27v10zM430 70v-11h-145v11h145zM113 6l60 33v-8l-60 -33v8zM179 43l102 26v-10l-102 -27v11zM75 -77l60 33v-85l-60 -18v70zM142 -41l120 36v-94l-120 -29v87zM637 -77v-70l-59 18v85z
M571 -41v-87l-121 29v94zM442 -4v-94h-172v94h172zM324 768v25h68v-25h-68zM392 711h-68v25h68v-25zM392 654h-68v26h68v-26zM392 597h-68v26h68v-26zM392 541h-68v26h68v-26zM392 484h-68v26h68v-26zM392 428h-68v26h68v-26zM392 371h-68v25h68v-25zM392 315h-68v25h68v-25
zM392 257h-68v26h68v-26zM392 200h-68v27h68v-27zM392 144h-68v26h68v-26zM324 87v27h68v-27h-68zM427 767v25l42 -10v-26zM469 700l-42 9v26l42 -9v-26zM469 643l-42 9v26l42 -9v-26zM469 587l-42 8v26l42 -9v-25zM469 530l-42 9v25l42 -9v-25zM469 473l-42 9v25l42 -8v-26
zM469 416l-42 8v27l42 -9v-26zM469 360l-42 8v26l42 -8v-26zM469 302l-42 9v27l42 -11v-25zM469 245l-42 10v26l42 -10v-26zM469 188l-42 10v27l42 -11v-26zM469 131l-42 11v25l42 -9v-27zM427 85v25l42 -9v-26zM497 749v26l25 -12v-27zM522 680l-25 12v27l25 -13v-26z
M522 623l-25 13v25l25 -12v-26zM522 566l-25 13v25l25 -13v-25zM522 509l-25 13v26l25 -14v-25zM522 452l-25 13v26l25 -13v-26zM522 395l-25 13v26l25 -13v-26zM522 339l-25 12v26l25 -12v-26zM522 282l-25 13v25l25 -12v-26zM522 226l-25 12v25l25 -12v-25zM522 169
l-25 12v26l25 -13v-25zM522 112l-25 12v26l25 -12v-26zM497 68v26l25 -13v-26zM250 756v26l42 10v-25zM292 709l-42 -9v26l42 9v-26zM292 652l-42 -9v26l42 9v-26zM292 595l-42 -8v25l42 9v-26zM292 539l-42 -9v25l42 9v-25zM292 482l-42 -9v26l42 8v-25zM292 424l-42 -8v26
l42 9v-27zM292 368l-42 -8v26l42 8v-26zM292 311l-42 -9v25l42 11v-27zM292 255l-42 -10v26l42 10v-26zM292 198l-42 -10v26l42 11v-27zM292 142l-42 -11v27l42 9v-25zM250 75v26l42 9v-25zM193 736v27l26 12v-26zM219 692l-26 -12v26l26 13v-27zM219 636l-26 -13v26l26 12
v-25zM219 579l-26 -13v25l26 13v-25zM219 522l-26 -13v25l26 14v-26zM219 465l-26 -13v26l26 13v-26zM219 408l-26 -13v26l26 13v-26zM219 351l-26 -12v26l26 12v-26zM219 295l-26 -13v26l26 12v-25zM219 238l-26 -12v25l26 12v-25zM219 181l-26 -12v25l26 13v-26zM219 124
l-26 -12v26l26 12v-26zM193 55v26l26 13v-26z" />
    <glyph glyph-name="yen" unicode="&#xa5;" horiz-adv-x="682" 
d="M419 0v277h214v-34h-180v-243h-34zM633 319h-196l206 394h41l-191 -360h140v-34zM509 713l-158 -335l-162 335h38l124 -256l119 256h39zM38 713l206 -394h-195v34h139l-190 360h40zM262 0h-34v243h-179v34h213v-277z" />
    <glyph glyph-name="brokenbar" unicode="&#xa6;" horiz-adv-x="376" 
d="M216 -47v356h34v-356h-34zM160 -47h-34v356h34v-356zM216 383v330h34v-330h-34zM160 383h-34v330h34v-330z" />
    <glyph glyph-name="section" unicode="&#xa7;" horiz-adv-x="552" 
d="M398 317q0 -23 -15.5 -44.5t-44.5 -32.5q-1 -1 -11 -1t-11 1l-65 18q-2 1 -10.5 3t-16.5 5t-15 6q-18 9 -26 17q-18 16 -18 39q0 57 63 82q1 0 10.5 0.5t10.5 0.5q68 -19 78 -24q71 -22 71 -70zM326 272q38 14 38 45q0 24 -47 38q-52 16 -77 23q-41 -16 -41 -50
q0 -21 55 -35q4 -2 6 -2q29 -7 66 -19zM152 77v37h33v-19q0 -27 21.5 -46t68.5 -19q46 0 68 18.5t22 38.5q0 7 -2 12.5t-6.5 10t-8 7.5t-11.5 6.5l-11.5 5t-12.5 4.5t-11 4l-95 28q-146 42 -146 157q0 72 51 118q-51 39 -51 113q0 78 58.5 125t159.5 47q95 0 154 -42.5
t59 -123.5v-32h-34v37q-2 61 -49 94t-130 33q-90 0 -137 -38.5t-47 -99.5q0 -57 38 -86q14 -11 14 -27q0 -14 -12 -25q-40 -36 -40 -93q0 -90 121 -124l97 -29l21 -7q14 -5 26 -12q39 -24 39 -63q0 -36 -33 -63.5t-91 -27.5q-53 0 -84.5 22.5t-38.5 58.5zM268 -87
q-29 0 -57.5 4.5t-58 16.5t-51.5 30t-36 48t-14 67v35h34v-38q1 -66 54.5 -97.5t128.5 -31.5q94 0 147 44t53 109q0 53 -40 88q-13 11 -13 26t12 25q39 35 39 96q0 48 -29.5 72.5t-88.5 45.5q-74 27 -86 31q-4 2 -20.5 7t-25.5 9q-17 8 -30 18q-22 17 -22 42q0 37 30 60
t80 23q52 0 83.5 -22.5t36.5 -56.5v-37h-33v26q0 21 -21 38.5t-66 17.5q-39 0 -57.5 -14.5t-18.5 -34.5q0 -8 10 -16t21 -12.5t26.5 -9.5l18.5 -6l86 -31q30 -11 49 -20t43 -26.5t36 -43.5t12 -60q0 -77 -50 -121q52 -45 52 -114q0 -82 -64 -134.5t-170 -52.5z" />
    <glyph glyph-name="dieresis" unicode="&#xa8;" horiz-adv-x="477" 
d="M34 674q0 37 26 63.5t63 26.5t63 -26.5t26 -63.5t-26 -63t-63 -26t-63 26t-26 63zM123 734q-25 0 -42 -17.5t-17 -42.5t17 -42.5t42 -17.5t42.5 17.5t17.5 42.5t-17.5 42.5t-42.5 17.5zM276 674q0 37 26 63.5t63 26.5t63 -26.5t26 -63.5t-26 -63t-63 -26t-63 26t-26 63z
M365 734q-25 0 -42 -17.5t-17 -42.5t17 -42.5t42 -17.5t42.5 17.5t17.5 42.5t-17.5 42.5t-42.5 17.5z" />
    <glyph glyph-name="copyright" unicode="&#xa9;" horiz-adv-x="925" 
d="M112 346q0 145 102 248t246 103t245.5 -103t101.5 -248t-101.5 -246.5t-245.5 -101.5q-145 0 -246.5 101.5t-101.5 246.5zM460 673q-134 0 -228.5 -95.5t-94.5 -231.5q0 -134 94.5 -229t228.5 -95t229 95t95 229q0 136 -95 231.5t-229 95.5zM540 427v-32h-27v18
q0 48 -47 48q-52 0 -52 -55v-115q0 -26 13.5 -41t38.5 -15q47 0 47 48v17h27v-30q0 -29 -22 -46t-52 -17q-38 0 -59 23t-21 61v115q0 38 21.5 60.5t58.5 22.5q30 0 52 -17.5t22 -44.5zM464 114q-57 0 -104.5 16t-83 59t-35.5 108v91q0 65 35 110t83.5 64t104.5 19
q89 0 152 -42t63 -116v-28h-28v32q0 56 -53 91t-134 35t-138 -42.5t-57 -122.5v-91q0 -79 56 -117t139 -38t135 33.5t52 90.5v34h28v-34q0 -73 -62.5 -112.5t-152.5 -39.5z" />
    <glyph glyph-name="ordfeminine" unicode="&#xaa;" horiz-adv-x="421" 
d="M377 294h-319v23h319v-23zM377 224h-319v23h319v-23zM232 539h45v-43q0 -30 -20 -46.5t-41 -16.5q-30 0 -43 15.5t-13 36.5q0 32 26 46q16 8 46 8zM216 455q13 0 26.5 10.5t13.5 30.5v22h-24q-51 0 -51 -33q0 -30 35 -30zM79 618v-25h-23v15q0 54 49 85t120 31
q68 0 115.5 -32t47.5 -95v-146q0 -42 6 -78h-22l-3 26q-2 28 -2 52v146q0 51 -40 78.5t-102 27.5t-101.5 -23.5t-44.5 -61.5zM155 365q-48 0 -78 25.5t-30 71.5q0 44 31.5 72t68.5 36.5t79 8.5h30v22q0 35 -42 35q-40 0 -40 -35v-8h-20q0 24 1 25q10 40 59 40q29 0 46 -15.5
t17 -41.5v-44h-51q-64 0 -107 -20q-50 -24 -50 -75q0 -36 23 -55.5t63 -19.5q64 0 90 42q2 2 8.5 6t9.5 4h4q8 0 14.5 -6t7.5 -13l4 -47h-22l-4 45h-4q-32 -53 -108 -53z" />
    <glyph glyph-name="guillemotleft" unicode="&#xab;" horiz-adv-x="669" 
d="M324 97l-147 160l145 160l24 -21l-123 -139l125 -140zM281 61l-25 -21l-234 217l234 219l24 -21l-208 -198zM623 97l-147 160l145 160l24 -21l-123 -139l125 -140zM580 61l-25 -21l-234 217l234 219l24 -21l-208 -198z" />
    <glyph glyph-name="logicalnot" unicode="&#xac;" horiz-adv-x="689" 
d="M581 344h-523v34h557v-263h-34v229zM515 115h-34v143h-423v34h457v-177z" />
    <glyph glyph-name="registered" unicode="&#xae;" horiz-adv-x="540" 
d="M112 346q0 145 102 248t246 103t245.5 -103t101.5 -248t-101.5 -246.5t-245.5 -101.5q-145 0 -246.5 101.5t-101.5 246.5zM460 673q-134 0 -228.5 -95.5t-94.5 -231.5q0 -134 94.5 -229t228.5 -95t229 95t95 229q0 136 -95 231.5t-229 95.5zM461 348h-83v151h83
q36 0 56.5 -22.5t20.5 -52.5q0 -32 -20.5 -54t-56.5 -22zM378 289h69l89 -182h-25l-79 161h-31v-161h-23v182zM272 107h-22v483h231q90 0 135.5 -44t45.5 -109q0 -104 -86 -146l102 -184h-27l-106 193l33 18q62 38 62 119q0 55 -38.5 92t-120.5 37h-209v-459zM401 477v-106
h60q25 0 39 15t14 38q0 22 -13.5 37.5t-39.5 15.5h-60z" />
    <glyph glyph-name="macron" unicode="&#xaf;" horiz-adv-x="474" 
d="M424 701h-375v34h375v-34zM424 598h-375v34h375v-34z" />
    <glyph glyph-name="degree" unicode="&#xb0;" horiz-adv-x="350" 
d="M44 624q0 54 38.5 93t92.5 39q55 0 93.5 -39t38.5 -93q0 -55 -38.5 -93.5t-93.5 -38.5q-54 0 -92.5 38.5t-38.5 93.5zM175 713q-36 0 -62 -26t-26 -63t26 -62.5t62 -25.5q37 0 62.5 25.5t25.5 62.5t-25.5 63t-62.5 26z" />
    <glyph glyph-name="plusminus" unicode="&#xb1;" horiz-adv-x="620" 
d="M596 82h-572v34h572v-34zM596 0h-572v34h572v-34zM335 403h261v-34h-227v-183h-34v217zM335 451v217h34v-183h227v-34h-261zM286 451h-262v34h228v183h34v-217zM286 186h-34v183h-228v34h262v-217z" />
    <glyph glyph-name="twosuperior" unicode="&#xb2;" horiz-adv-x="449" 
d="M164 547v215h128v-86h87v-129h-215zM212 703h32v31h-32v-31zM77 547h87v-86zM79 776v33h9q6 0 7 -1q2 -1 4 -3q2 -4 2 -7q0 -2 -2 -6l-3 -3q-1 -1 -8 -1h-3v-12h-6zM85 803v-10h3q4 0 4 1l2 2q1 0 1 2t-1 3t-2 1q0 1 -4 1h-3zM105 776v33h20v-6h-14v-7h14v-6h-14v-9h15
v-5h-21zM131 776v33h12q5 0 6 -1l3 -3q1 -2 1 -5q0 -5 -2 -7q-1 -1 -5 -3l3 -3l3 -5l3 -6h-6l-4 7l-3 4l-2 2q-1 1 -4 1v-14h-5zM136 795h4h5q1 0 1 0.5t1 0.5q1 1 1 3t-1 2l-2 2h-4h-5v-8zM158 786l5 1q0 -6 6 -6q3 0 4 1l1 1v2t-1 2q0 1 -1 1l-2 1q-2 1 -3 1t-2.5 0.5
t-2.5 1.5q-2 2 -3 4l-1 2v2v3l1 2q2 2 4 3q1 1 5 1q6 0 8 -2q3 -3 3 -8h-6q0 3 -1 3q-1 2 -4 2t-3 -1l-1 -2q0 -2 1 -3l5 -2q4 -1 5 -3q3 0 3 -3q1 -1 1 -5q0 -5 -2 -7q-3 -3 -9 -3q-10 0 -10 11zM183 792q0 4 2 10q1 2 4 5q3 2 8 2t9 -4q3 -5 3 -13t-3 -13q-4 -4 -9 -4
q-7 0 -10 4q-4 4 -4 13zM189 792q0 -6 2 -9q4 -2 6 -2q3 0 5 2q2 6 2 9q0 5 -2 9q-3 3 -5 3q-3 0 -6 -3q-2 -2 -2 -9zM214 776v33h6l11 -22v22h5v-33h-5l-11 21v-21h-6zM266 776h-5l-3 7h-11l-2 -7h-6l11 33h6zM256 788l-3 13l-4 -13h7zM270 776v33h5v-28h14v-5h-19z
M305 809h5v-18v-6l3 -3q0 -1 3 -1q2 0 3 1l2 2v6v19h6v-18q0 -8 -1 -9q0 -2 -3 -5q-4 -2 -7 -2t-7 2q-1 0 -3 4q-1 2 -1 10v18zM332 786l5 1q0 -6 6 -6q3 0 4 1t1 3q0 1 -1 2q0 1 -1 1q-2 1 -5 2q-1 0 -2.5 0.5t-2.5 1.5q-2 2 -3 4l-1 2v2q0 3 2 5l3 3q1 1 5 1q6 0 8 -2
q3 -3 3 -8h-6q0 3 -1 3q-1 2 -4 2t-3 -1l-1 -2q0 -2 1 -3l5 -2l6 -3q2 0 2 -3q1 -1 1 -5q0 -5 -2 -7q-3 -3 -8 -3q-11 0 -11 11zM358 776v33h21v-6h-15v-7h13v-6h-13v-9h15v-5h-21zM79 822v33h19v-6h-13v-8h12v-5h-12v-14h-6zM103 822v33h11q6 0 7 -1q1 0 3 -3q1 -2 1 -5
t-2 -7q-1 -1 -5 -3l1 -1q1 -1 2 -1l3 -6l3 -6h-6l-4 7l-4 5q0 1 -1 1l-1 1h-3v-14h-5zM108 841h4h5q2 0 2 2v2v3q-1 1 -2 1h-5h-4v-8zM130 822v33h20v-6h-14v-7h13v-6h-13v-8h15v-6h-21zM155 822v33h20v-6h-14v-7h14v-6h-14v-8h15v-6h-21zM190 838q0 4 2 10q3 5 5 6q1 1 6 1
q7 0 10 -4q4 -4 4 -13q0 -5 -4 -13q-3 -4 -10 -4q-5 0 -9 4q-4 8 -4 13zM196 839q0 -5 2 -9q2 -3 5 -3t6 3q2 4 2 9q0 4 -2 8q-3 3 -6 3t-5 -3q-2 -4 -2 -8zM221 822v33h5l11 -22v22h5v-33h-5l-11 22v-22h-5zM249 822v33h5v-27h14v-6h-19zM275 822v14l-9 19h6l6 -13l7 13h6
l-10 -19v-14h-6zM304 822v33h18v-6h-13v-8h12v-5h-12v-14h-5zM326 838q0 7 2 10q3 5 4 6q2 1 7 1q6 0 9 -4q4 -4 4 -13q0 -8 -4 -13q-3 -4 -9 -4t-10 4q-3 6 -3 13zM332 839q0 -7 1 -9q3 -3 6 -3t6 3q2 4 2 9q0 4 -2 8q-3 3 -6 3t-6 -3q-1 -2 -1 -8zM356 822v33h12q5 0 6 -1
q3 0 3 -3q2 -2 2 -5t-2 -7q-1 -1 -6 -3l4 -2l2 -6l4 -6h-7l-4 7l-3 5l-1 1l-2 1h-2v-14h-6zM362 841h4h5q1 1 1 2q1 0 1 2t-1 3l-1 1h-5h-4v-8zM161 391h-3v3l-3 -3h-2q-3 0 -5 2t-2 8t2 7q2 3 5 3h2l3 -3v10h3v-27zM150 401q0 -3 1 -4q0 -1 1 -2h2q2 0 2 1q2 2 2 5t-2 5
q0 1 -2 1t-3 -1t-1 -5zM175 397l4 -1q-1 0 -1 -2t-1 -2q-2 -1 -5 -1q-4 0 -5 2q-3 3 -3 8t3 7q1 3 5 3q2 0 5 -3q2 -1 2 -8h-10q0 -3 1 -4q0 -1 2 -1q1 0 3 2zM175 402q0 3 -1 4t-2 1q-2 0 -3 -1v-4h6zM180 411l3 1v4l2 2q1 1 3 1t4 -1l-1 -3h-2q-1 0 -1 -1q-1 0 -1 -3h3v-4
h-3v-16h-4v16h-3v4zM197 418v-10q0 1 2 3h3q2 0 2 -1l3 -3v-5v-11h-4v10q0 4 -1 5q0 1 -2 1t-2 -1q-1 -1 -1 -5v-10h-5v27h5zM214 405l-4 1q1 1 3 4q0 1 4 1h4q2 -2 2 -3q1 -1 1 -5v-6v-3q1 -1 1 -3h-4l-1 2q0 -1 -1 -1t-1 -1h-3q-3 0 -4 1q-2 2 -2 4l2 4q0 1 1 1l4 2
q3 0 4 1q0 2 -1 3h-2h-2zM220 396v5q0 -1 -3 -1q-1 0 -3 -2v-1v-2h2q2 0 4 1zM232 391h-5v20h5v-3l1 3h2q2 0 3 -1l-1 -4l-2 1l-2 -1q-1 -1 -1 -3v-6v-6zM238 401q0 3 2 5q0 2 2 4q2 1 5 1t6 -3q2 -4 2 -7q0 -4 -1 -5q-1 -2 -3 -4q-1 -1 -4 -1q-4 0 -6 2q-3 3 -3 8zM243 401
q0 -4 1 -5t3 -1t3 1v2q1 2 1 3l-1 4q-2 2 -3 2t-3 -2q-1 0 -1 -4zM258 391v5h4v-5h-4zM280 405l-4 -1q0 3 -3 3q-2 0 -2 -1q-1 -1 -1 -5t1 -5q0 -1 2 -1t2 1q1 0 1 2h4q0 -7 -7 -7q-3 0 -5 2q-3 5 -3 8q0 5 3 7q2 3 5 3t5 -1q2 -4 2 -5zM282 401v3l1 2l3 4q2 1 4 1q4 0 7 -3
q2 -4 2 -7q0 -4 -1 -5q-1 -2 -3 -4q-2 -1 -5 -1t-5 2q-3 3 -3 8zM286 401q0 -3 2 -5q1 -1 2 -1q3 0 3 1q1 1 1 5t-1 4q0 2 -3 2l-2 -2q-2 0 -2 -4zM302 411h3v-3q2 2 3 2q1 1 2 1q3 0 3 -1l2 -2l2 2q1 1 3 1t3 -1q1 0 1 -2q2 -2 2 -5v-12h-5v11v4l-2 1q-2 0 -2 -1
q-2 -2 -2 -5v-10h-4v11v4q-1 1 -2 1h-2l-1 -2v-4v-10h-4v20zM146 439v5h10v-11q-2 -2 -4 -3t-6 -1t-6 1q-3 3 -4 5t-1 8q0 2 1 5v2q0 2 4 5q4 2 6 2q3 0 7 -2q2 -2 2 -6l-4 -1q0 1 -2 3q0 1 -3 1q-1 0 -5 -2q-1 -1 -1 -7t1 -7q2 -2 5 -2h3l2 2v3h-5zM169 435h4q0 -3 -3 -5
q-1 -1 -4 -1t-5 2q-3 3 -3 8t3 8q1 2 5 2t5 -2q2 -2 2 -10h-10q0 -2 1 -3q0 -2 2 -2q3 0 3 3zM169 441q0 3 -1 3q0 1 -2 1t-2 -1q-1 0 -1 -3h6zM184 449v-4h-3v-8v-3l1 -1q1 0 2 1v-4q-1 -1 -3 -1t-3 1t-1 2v4l-2 9l2 4v4l4 3v-7h3zM193 449l3 1v4l1 2h1l2 1q1 0 2 -1h2
l-1 -3h-3q-1 -1 -1 -4h4v-4h-4v-16h-3v16h-3v4zM215 429v3l-2 -2q-1 -1 -3 -1t-3 1l-2 2l-1 2v2v13h5v-9q-1 -1 -1 -3q0 -3 2 -3q1 -1 2 -1t1 1l1 1q1 1 1 6v8h5v-20h-5zM223 429v27h4v-27h-4zM232 429v27h4v-27h-4zM246 449l3 1v4l2 2q1 1 3 1l1 -1h2l-1 -3h-1h-2v-3v-1h3
v-4h-3v-16h-4v16h-3v4zM257 439q0 4 1 6l3 3q1 1 4 1q5 0 6 -3q3 -3 3 -7v-3l-1 -2l-4 -4q-1 -1 -4 -1q-2 0 -6 2q-2 6 -2 8zM261 439q0 -1 1 -3v-1q2 -2 3 -2q3 0 3 2q1 1 1 4t-1 5q0 1 -3 1q-2 0 -3 -1q0 -1 -0.5 -2.5t-0.5 -2.5zM291 429h-4v10q0 3 -1 4v2h-2h-1l-2 -2
v-5v-9h-5v20h4v-3l3 3h3h3l2 -3v-5v-12zM303 449v-4h-3v-8v-3q0 -1 1 -1t2 1v-4q-1 -1 -4 -1q-1 0 -2 1l-2 2v4v9h-2v4h2v4l5 3v-7h3zM317 443l-4 1q0 2 2 4q1 1 5 1h4q2 -2 2 -3q1 -2 1 -4v-6v-4v-3h-4v2l-2 -1l-3 -1q-3 0 -4 1q-2 2 -2 5l1 2l1 3l4 1l4 1v2q0 1 -3 1h-1
q-1 0 -1 -2zM322 435v4q-1 -1 -2 -1q-2 -1 -3 -1v-2v-2q1 -1 2 -1t2 1zM338 449v-4h-3v-8v-3l1 -1q1 0 2 1v-4q-1 -1 -4 -1q-1 0 -2 1q-1 0 -1 2v4v9h-3v4h3v4l4 3v-7h3z" />
    <glyph glyph-name="threesuperior" unicode="&#xb3;" horiz-adv-x="453" 
d="M164 547v215h128v-86h87v-129h-215zM212 703h32v31h-32v-31zM77 547h87v-86zM79 776v33h9q6 0 7 -1q2 -1 4 -3q2 -4 2 -7q0 -2 -2 -6l-3 -3q-1 -1 -8 -1h-3v-12h-6zM85 803v-10h3q4 0 4 1l2 2q1 0 1 2t-1 3t-2 1q0 1 -4 1h-3zM105 776v33h20v-6h-14v-7h14v-6h-14v-9h15
v-5h-21zM131 776v33h12q5 0 6 -1l3 -3q1 -2 1 -5q0 -5 -2 -7q-1 -1 -5 -3l3 -3l3 -5l3 -6h-6l-4 7l-3 4l-2 2q-1 1 -4 1v-14h-5zM136 795h4h5q1 0 1 0.5t1 0.5q1 1 1 3t-1 2l-2 2h-4h-5v-8zM158 786l5 1q0 -6 6 -6q3 0 4 1l1 1v2t-1 2q0 1 -1 1l-2 1q-2 1 -3 1t-2.5 0.5
t-2.5 1.5q-2 2 -3 4l-1 2v2v3l1 2q2 2 4 3q1 1 5 1q6 0 8 -2q3 -3 3 -8h-6q0 3 -1 3q-1 2 -4 2t-3 -1l-1 -2q0 -2 1 -3l5 -2q4 -1 5 -3q3 0 3 -3q1 -1 1 -5q0 -5 -2 -7q-3 -3 -9 -3q-10 0 -10 11zM183 792q0 4 2 10q1 2 4 5q3 2 8 2t9 -4q3 -5 3 -13t-3 -13q-4 -4 -9 -4
q-7 0 -10 4q-4 4 -4 13zM189 792q0 -6 2 -9q4 -2 6 -2q3 0 5 2q2 6 2 9q0 5 -2 9q-3 3 -5 3q-3 0 -6 -3q-2 -2 -2 -9zM214 776v33h6l11 -22v22h5v-33h-5l-11 21v-21h-6zM266 776h-5l-3 7h-11l-2 -7h-6l11 33h6zM256 788l-3 13l-4 -13h7zM270 776v33h5v-28h14v-5h-19z
M305 809h5v-18v-6l3 -3q0 -1 3 -1q2 0 3 1l2 2v6v19h6v-18q0 -8 -1 -9q0 -2 -3 -5q-4 -2 -7 -2t-7 2q-1 0 -3 4q-1 2 -1 10v18zM332 786l5 1q0 -6 6 -6q3 0 4 1t1 3q0 1 -1 2q0 1 -1 1q-2 1 -5 2q-1 0 -2.5 0.5t-2.5 1.5q-2 2 -3 4l-1 2v2q0 3 2 5l3 3q1 1 5 1q6 0 8 -2
q3 -3 3 -8h-6q0 3 -1 3q-1 2 -4 2t-3 -1l-1 -2q0 -2 1 -3l5 -2l6 -3q2 0 2 -3q1 -1 1 -5q0 -5 -2 -7q-3 -3 -8 -3q-11 0 -11 11zM358 776v33h21v-6h-15v-7h13v-6h-13v-9h15v-5h-21zM79 822v33h19v-6h-13v-8h12v-5h-12v-14h-6zM103 822v33h11q6 0 7 -1q1 0 3 -3q1 -2 1 -5
t-2 -7q-1 -1 -5 -3l1 -1q1 -1 2 -1l3 -6l3 -6h-6l-4 7l-4 5q0 1 -1 1l-1 1h-3v-14h-5zM108 841h4h5q2 0 2 2v2v3q-1 1 -2 1h-5h-4v-8zM130 822v33h20v-6h-14v-7h13v-6h-13v-8h15v-6h-21zM155 822v33h20v-6h-14v-7h14v-6h-14v-8h15v-6h-21zM190 838q0 4 2 10q3 5 5 6q1 1 6 1
q7 0 10 -4q4 -4 4 -13q0 -5 -4 -13q-3 -4 -10 -4q-5 0 -9 4q-4 8 -4 13zM196 839q0 -5 2 -9q2 -3 5 -3t6 3q2 4 2 9q0 4 -2 8q-3 3 -6 3t-5 -3q-2 -4 -2 -8zM221 822v33h5l11 -22v22h5v-33h-5l-11 22v-22h-5zM249 822v33h5v-27h14v-6h-19zM275 822v14l-9 19h6l6 -13l7 13h6
l-10 -19v-14h-6zM304 822v33h18v-6h-13v-8h12v-5h-12v-14h-5zM326 838q0 7 2 10q3 5 4 6q2 1 7 1q6 0 9 -4q4 -4 4 -13q0 -8 -4 -13q-3 -4 -9 -4t-10 4q-3 6 -3 13zM332 839q0 -7 1 -9q3 -3 6 -3t6 3q2 4 2 9q0 4 -2 8q-3 3 -6 3t-6 -3q-1 -2 -1 -8zM356 822v33h12q5 0 6 -1
q3 0 3 -3q2 -2 2 -5t-2 -7q-1 -1 -6 -3l4 -2l2 -6l4 -6h-7l-4 7l-3 5l-1 1l-2 1h-2v-14h-6zM362 841h4h5q1 1 1 2q1 0 1 2t-1 3l-1 1h-5h-4v-8zM161 391h-3v3l-3 -3h-2q-3 0 -5 2t-2 8t2 7q2 3 5 3h2l3 -3v10h3v-27zM150 401q0 -3 1 -4q0 -1 1 -2h2q2 0 2 1q2 2 2 5t-2 5
q0 1 -2 1t-3 -1t-1 -5zM175 397l4 -1q-1 0 -1 -2t-1 -2q-2 -1 -5 -1q-4 0 -5 2q-3 3 -3 8t3 7q1 3 5 3q2 0 5 -3q2 -1 2 -8h-10q0 -3 1 -4q0 -1 2 -1q1 0 3 2zM175 402q0 3 -1 4t-2 1q-2 0 -3 -1v-4h6zM180 411l3 1v4l2 2q1 1 3 1t4 -1l-1 -3h-2q-1 0 -1 -1q-1 0 -1 -3h3v-4
h-3v-16h-4v16h-3v4zM197 418v-10q0 1 2 3h3q2 0 2 -1l3 -3v-5v-11h-4v10q0 4 -1 5q0 1 -2 1t-2 -1q-1 -1 -1 -5v-10h-5v27h5zM214 405l-4 1q1 1 3 4q0 1 4 1h4q2 -2 2 -3q1 -1 1 -5v-6v-3q1 -1 1 -3h-4l-1 2q0 -1 -1 -1t-1 -1h-3q-3 0 -4 1q-2 2 -2 4l2 4q0 1 1 1l4 2
q3 0 4 1q0 2 -1 3h-2h-2zM220 396v5q0 -1 -3 -1q-1 0 -3 -2v-1v-2h2q2 0 4 1zM232 391h-5v20h5v-3l1 3h2q2 0 3 -1l-1 -4l-2 1l-2 -1q-1 -1 -1 -3v-6v-6zM238 401q0 3 2 5q0 2 2 4q2 1 5 1t6 -3q2 -4 2 -7q0 -4 -1 -5q-1 -2 -3 -4q-1 -1 -4 -1q-4 0 -6 2q-3 3 -3 8zM243 401
q0 -4 1 -5t3 -1t3 1v2q1 2 1 3l-1 4q-2 2 -3 2t-3 -2q-1 0 -1 -4zM258 391v5h4v-5h-4zM280 405l-4 -1q0 3 -3 3q-2 0 -2 -1q-1 -1 -1 -5t1 -5q0 -1 2 -1t2 1q1 0 1 2h4q0 -7 -7 -7q-3 0 -5 2q-3 5 -3 8q0 5 3 7q2 3 5 3t5 -1q2 -4 2 -5zM282 401v3l1 2l3 4q2 1 4 1q4 0 7 -3
q2 -4 2 -7q0 -4 -1 -5q-1 -2 -3 -4q-2 -1 -5 -1t-5 2q-3 3 -3 8zM286 401q0 -3 2 -5q1 -1 2 -1q3 0 3 1q1 1 1 5t-1 4q0 2 -3 2l-2 -2q-2 0 -2 -4zM302 411h3v-3q2 2 3 2q1 1 2 1q3 0 3 -1l2 -2l2 2q1 1 3 1t3 -1q1 0 1 -2q2 -2 2 -5v-12h-5v11v4l-2 1q-2 0 -2 -1
q-2 -2 -2 -5v-10h-4v11v4q-1 1 -2 1h-2l-1 -2v-4v-10h-4v20zM146 439v5h10v-11q-2 -2 -4 -3t-6 -1t-6 1q-3 3 -4 5t-1 8q0 2 1 5v2q0 2 4 5q4 2 6 2q3 0 7 -2q2 -2 2 -6l-4 -1q0 1 -2 3q0 1 -3 1q-1 0 -5 -2q-1 -1 -1 -7t1 -7q2 -2 5 -2h3l2 2v3h-5zM169 435h4q0 -3 -3 -5
q-1 -1 -4 -1t-5 2q-3 3 -3 8t3 8q1 2 5 2t5 -2q2 -2 2 -10h-10q0 -2 1 -3q0 -2 2 -2q3 0 3 3zM169 441q0 3 -1 3q0 1 -2 1t-2 -1q-1 0 -1 -3h6zM184 449v-4h-3v-8v-3l1 -1q1 0 2 1v-4q-1 -1 -3 -1t-3 1t-1 2v4l-2 9l2 4v4l4 3v-7h3zM193 449l3 1v4l1 2h1l2 1q1 0 2 -1h2
l-1 -3h-3q-1 -1 -1 -4h4v-4h-4v-16h-3v16h-3v4zM215 429v3l-2 -2q-1 -1 -3 -1t-3 1l-2 2l-1 2v2v13h5v-9q-1 -1 -1 -3q0 -3 2 -3q1 -1 2 -1t1 1l1 1q1 1 1 6v8h5v-20h-5zM223 429v27h4v-27h-4zM232 429v27h4v-27h-4zM246 449l3 1v4l2 2q1 1 3 1l1 -1h2l-1 -3h-1h-2v-3v-1h3
v-4h-3v-16h-4v16h-3v4zM257 439q0 4 1 6l3 3q1 1 4 1q5 0 6 -3q3 -3 3 -7v-3l-1 -2l-4 -4q-1 -1 -4 -1q-2 0 -6 2q-2 6 -2 8zM261 439q0 -1 1 -3v-1q2 -2 3 -2q3 0 3 2q1 1 1 4t-1 5q0 1 -3 1q-2 0 -3 -1q0 -1 -0.5 -2.5t-0.5 -2.5zM291 429h-4v10q0 3 -1 4v2h-2h-1l-2 -2
v-5v-9h-5v20h4v-3l3 3h3h3l2 -3v-5v-12zM303 449v-4h-3v-8v-3q0 -1 1 -1t2 1v-4q-1 -1 -4 -1q-1 0 -2 1l-2 2v4v9h-2v4h2v4l5 3v-7h3zM317 443l-4 1q0 2 2 4q1 1 5 1h4q2 -2 2 -3q1 -2 1 -4v-6v-4v-3h-4v2l-2 -1l-3 -1q-3 0 -4 1q-2 2 -2 5l1 2l1 3l4 1l4 1v2q0 1 -3 1h-1
q-1 0 -1 -2zM322 435v4q-1 -1 -2 -1q-2 -1 -3 -1v-2v-2q1 -1 2 -1t2 1zM338 449v-4h-3v-8v-3l1 -1q1 0 2 1v-4q-1 -1 -4 -1q-1 0 -2 1q-1 0 -1 2v4v9h-3v4h3v4l4 3v-7h3z" />
    <glyph glyph-name="acute" unicode="&#xb4;" horiz-adv-x="335" 
d="M165 593h-131l90 184h38l-73 -150h60l118 150h44z" />
    <glyph glyph-name="mu" unicode="&#xb5;" horiz-adv-x="659" 
d="M638 26v-31q-154 2 -191 85q-31 -92 -122 -92q-86 0 -108 57l-8 -1l58 -205l-33 -3l-58 199q-2 6 -2 10q0 12 9 22t22 11l8 1q10 0 21 -7t15 -15q13 -35 76 -35q66 0 90 69q9 29 31 29q20 0 32 -26q23 -54 119 -63l7 -1q6 -1 16.5 -2t17.5 -2zM562 218v321h34v-321
q0 -44 44 -48v-36q-6 2 -16 5t-18 5l-7 3q-37 22 -37 71zM224 211v328h34v-328q0 -26 15 -47t51 -21q25 0 44.5 23.5t19.5 58.5v314h34v-314q0 -47 -28.5 -81.5t-69.5 -34.5q-54 0 -77 33t-23 69zM84 -175l-34 -3v717h34v-714z" />
    <glyph glyph-name="paragraph" unicode="&#xb6;" horiz-adv-x="621" 
d="M325 636h133v-726h-34v692h-65v-692h-34v726zM504 -90v726h77v-34h-43v-692h-34zM280 -90h-34v293q-96 11 -142.5 82t-46.5 170q0 101 59.5 179.5t153.5 78.5h311v-34h-311q-76 0 -127.5 -67t-51.5 -157t39.5 -149.5t119.5 -68.5l30 -4v-323z" />
    <glyph glyph-name="periodcentered" unicode="&#xb7;" horiz-adv-x="306" 
d="M50 358q0 43 30 73.5t73 30.5t73 -30.5t30 -73.5t-30 -73t-73 -30t-73 30t-30 73zM153 428q-29 0 -49 -20.5t-20 -49.5q0 -28 20 -48.5t49 -20.5t49 20.5t20 48.5q0 29 -20 49.5t-49 20.5z" />
    <glyph glyph-name="cedilla" unicode="&#xb8;" horiz-adv-x="364" 
d="M167 -232q-56 0 -122 15v81q71 -16 113 -16q39 0 39 24q0 4 -1.5 7t-4 4.5t-5.5 3t-7.5 2.5t-7.5 1.5t-8 1t-7 0.5l-56 3l33 133h22l-29 -113q54 -4 63 -7q29 -8 29 -36q0 -45 -60 -45q-30 0 -92 11v-38q58 -11 101 -11q65 0 104.5 23.5t39.5 61.5q0 33 -36 47
q-29 12 -81 12h-27l23 95h21l-17 -74h7q131 0 131 -80q0 -51 -48 -78.5t-117 -27.5z" />
    <glyph glyph-name="onesuperior" unicode="&#xb9;" horiz-adv-x="390" 
d="M164 547v215h128v-86h86v-129h-214zM212 702h32v32h-32v-32zM77 547h87v-86zM79 775v33h9h7q3 -1 4 -4q2 -2 2 -6q0 -2 -2 -6q-1 -3 -3 -3q-1 -1 -8 -1h-3v-13h-6zM85 803v-10h3q4 0 4 1q1 0 2 2q1 0 1 2t-1 3t-2 1q0 1 -4 1h-3zM105 775v33h20v-5h-14v-7h14v-6h-14v-9
h15v-6h-21zM131 775v33h11h7q2 -2 3 -4q1 -1 1 -5q0 -5 -2 -6q-3 -3 -5 -3l3 -3l3 -5l3 -7h-6l-4 8l-3 4l-2 2h-4v-14h-5zM136 794h4q5 0 5 1q1 0 1 0.5t1 0.5v3v2l-2 2h-4h-5v-9zM158 786l5 1q0 -7 6 -7l4 2l1 1v2t-1 2q0 1 -1 1l-2 1q-2 1 -3 1q-3 0 -5 2t-3 4l-1 2v2v2
l1 2q1 3 4 4q1 1 5 1t8 -2q3 -5 3 -8h-6q0 3 -2 3q0 1 -3 1h-3l-1 -2q0 -2 1 -3l5 -2q3 -1 5 -3q3 0 3 -3q1 -1 1 -5q0 -5 -2 -7q-3 -3 -9 -3q-10 0 -10 11zM183 792q0 4 2 10q1 2 4 5q6 2 8 2q5 0 9 -5q3 -3 3 -12q0 -8 -3 -13q-4 -4 -9 -4q-7 0 -10 4q-4 4 -4 13zM189 792
q0 -7 2 -9l6 -3q1 0 2.5 1.5t2.5 1.5q2 4 2 9t-2 9q-4 2 -5 2q-4 0 -6 -2t-2 -9zM214 775v33h5l12 -21v21h5v-33h-5l-12 22v-22h-5zM266 775h-5l-3 8h-11l-2 -8h-6l11 33h6zM256 788l-3 13l-4 -13h7zM270 775v33h5v-27h14v-6h-19zM305 808h5v-18v-5l3 -3q0 -2 3 -2q1 0 3 2
l2 2v6v18h6v-17q0 -8 -1 -9q-1 -3 -3 -5t-7 -2t-7 2q-3 0 -3 3q-1 3 -1 11v17zM332 786l5 1q0 -7 6 -7q2 0 4 2q1 1 1 3q0 1 -1 2q0 1 -1 1q-2 1 -5 2q-3 0 -5 2t-3 4l-1 2v2q0 2 2 4q0 2 3 4q1 1 5 1t8 -2q3 -5 3 -8h-6q0 3 -1 3q-1 1 -4 1h-3l-1 -2q0 -2 1 -3l5 -2
q3 -1 5 -3q3 0 3 -3q1 -1 1 -5q0 -5 -2 -7q-3 -3 -8 -3q-11 0 -11 11zM358 775v33h20v-5h-14v-7h13v-6h-13v-9h15v-6h-21zM79 822v33h19v-6h-13v-8h12v-5h-12v-14h-6zM103 822v33h11q6 0 7 -1l3 -3q1 -2 1 -5t-2 -7q-1 -1 -5 -3l3 -3l3 -5l3 -6h-6l-4 7l-4 4q0 2 -1 2l-1 1
h-3v-14h-5zM108 841h4h5l1 1q1 1 1 3t-1 2q0 1 -1 2h-5h-4v-8zM130 822v33h20v-6h-14v-7h13v-6h-13v-9h15v-5h-21zM155 822v33h20v-6h-14v-7h14v-6h-14v-9h15v-5h-21zM190 838q0 4 2 10q2 4 5 6q1 1 6 1q7 0 10 -4q4 -4 4 -13q0 -7 -4 -13q-3 -4 -10 -4q-5 0 -9 4
q-4 6 -4 13zM196 838q0 -4 2 -8q2 -3 5 -3t6 3q2 4 2 8q0 5 -2 9l-6 3q-2 0 -5 -3q-2 -4 -2 -9zM221 822v33h5l11 -22v22h5v-33h-5l-11 21v-21h-5zM248 822v33h6v-28h13v-5h-19zM275 822v14l-9 19h6l6 -13l7 13h6l-10 -19v-14h-6zM304 822v33h18v-6h-13v-8h11v-5h-11v-14h-5
zM325 838q0 6 3 10q2 4 4 6q2 1 7 1q6 0 9 -4q4 -4 4 -13t-4 -13q-3 -4 -9 -4t-10 4q-4 6 -4 13zM332 838q0 -6 1 -8q3 -3 6 -3t5 3q3 3 3 8q0 6 -3 9t-5 3l-6 -3q-1 -2 -1 -9zM356 822v33h12q5 0 6 -1q3 0 3 -3q1 -2 1 -5q0 -5 -1 -7l-6 -3l4 -3l2 -5l4 -6h-7l-4 7l-3 4
l-1 2l-2 1h-2v-14h-6zM362 841h4h5l1 1q1 1 1 3t-1 2l-1 2h-5h-4v-8zM161 391h-3v3l-3 -3h-2q-3 0 -5 2t-2 8t2 7q2 3 5 3h2l3 -3v10h3v-27zM150 401q0 -3 1 -4q0 -1 1 -2h2q2 0 2 1q2 2 2 5t-2 5q0 1 -2 1t-3 -1t-1 -5zM175 397l4 -1q-1 0 -1 -2t-1 -2q-2 -1 -5 -1
q-4 0 -6 2q-2 4 -2 8q0 5 2 7q3 3 5 3q3 0 6 -3q2 -1 2 -8h-10q0 -3 1 -4q0 -1 2 -1q1 0 3 2zM175 402q0 3 -1 4t-2 1q-2 0 -3 -1v-4h6zM180 411l3 1v4l2 2h3h4l-1 -3h-2q-1 0 -1 -1q-1 0 -1 -3h3v-4h-3v-16h-4v16h-3v4zM197 418v-10q0 1 2 3h3q2 0 2 -1l3 -3v-5v-11h-4v10
q0 4 -1 5q0 1 -2 1t-2 -1q-1 -1 -1 -5v-10h-5v27h5zM214 405l-4 1q1 1 3 4q0 1 4 1h4q2 -2 2 -3q1 -1 1 -5v-6v-3q0 -2 1 -3h-4l-1 2l-2 -2h-3q-3 0 -4 1q-2 2 -2 4l2 4q0 1 1 1l4 2q3 0 3 1v3h-2h-2zM219 396v5q0 -1 -2 -1q-1 0 -3 -2v-1v-2h2q2 0 3 1zM232 391h-5v20h5v-3
l1 3h2q2 0 3 -1l-1 -4l-2 1l-2 -1q-1 -1 -1 -3v-6v-6zM238 401q0 3 2 5q0 2 2 4q2 1 5 1t6 -3q2 -4 2 -7q0 -4 -1 -5q-1 -2 -3 -4q-1 -1 -4 -1q-4 0 -6 2q-3 3 -3 8zM243 401q0 -4 1 -5t3 -1t3 1v2q1 2 1 3l-1 4q-2 2 -3 2t-3 -2q-1 0 -1 -4zM258 391v5h4v-5h-4zM280 405
l-4 -1q0 3 -3 3q-2 0 -2 -1q-1 -1 -1 -5t1 -5q0 -1 2 -1t2 1q1 0 1 2h4q0 -7 -7 -7q-2 0 -6 2q-2 6 -2 8q0 5 2 7q3 3 6 3t5 -1q2 -4 2 -5zM282 401q0 4 1 5l3 4q1 1 4 1q4 0 6 -3q3 -3 3 -7t-1 -5q-1 -2 -3 -4q-2 -1 -5 -1t-5 2q-3 3 -3 8zM286 401v-3l1 -2q2 -1 3 -1
q3 0 3 1q1 1 1 5t-1 4q0 2 -3 2l-1 -1q-1 0 -2 -1q-1 -2 -1 -4zM301 411h4v-3q2 2 3 2q1 1 2 1q3 0 3 -1l2 -2l2 2q1 1 3 1t3 -1q1 0 1 -2q1 -1 1 -5v-12h-4v11q0 4 -1 4l-1 1q-2 0 -2 -1q-2 -2 -2 -5v-10h-4v11v4q-1 1 -2 1h-2l-1 -2v-4v-10h-5v20zM146 439v5h10v-11
q-2 -2 -4 -3t-6 -1t-6 1q-3 3 -4 5t-1 8q0 2 1 5v2q0 2 4 5q4 2 6 2q3 0 7 -2q2 -2 2 -6l-4 -1q0 1 -2 3q0 1 -3 1t-5 -2q-1 -1 -1 -7t1 -7q1 -2 5 -2h3l2 2v3h-5zM169 435h4q0 -2 -3 -5q-1 -1 -4 -1t-5 2q-3 3 -3 8t3 8q1 2 5 2t5 -2q2 -2 2 -10h-10q0 -2 1 -3q0 -2 2 -2
q3 0 3 3zM169 441q0 3 -1 3q0 1 -2 1t-2 -1q-1 0 -1 -3h6zM184 449v-4h-3v-8v-3l1 -1q1 0 2 1v-4q-1 -1 -3 -1t-3 1t-1 2v4l-2 9l2 4v4l4 3v-7h3zM193 449l2 1v4l2 2h1l2 1q1 0 2 -1h2l-1 -3h-3q-1 -1 -1 -4h4v-4h-4v-16h-4v16h-2v4zM215 429v3l-2 -2q-1 -1 -3 -1t-3 1l-2 2
l-1 2v2v13h5v-9q-1 -1 -1 -3q0 -3 2 -3q1 -1 2 -1t1 1l1 1q1 1 1 6v8h4v-20h-4zM223 429v27h4v-27h-4zM232 429v27h4v-27h-4zM246 449l2 1q0 4 1 4l2 2q1 1 2 1t3 -1h1l-1 -3h-1h-2v-3v-1h3v-4h-3v-16h-5v16h-2v4zM257 439q0 4 1 6l3 3q1 1 4 1q5 0 6 -3q3 -3 3 -7
q0 -3 -2 -5q-2 -3 -3 -4t-4 -1q-2 0 -6 2q-2 6 -2 8zM261 439q0 -1 1 -3v-1q2 -2 3 -2t3 2q1 1 1 4t-1 5q-1 1 -3 1t-3 -1q0 -1 -0.5 -2.5t-0.5 -2.5zM291 429h-4v10q0 3 -1 4v2h-2h-2l-1 -2v-5v-9h-5v20h4v-3l3 3h3h3l2 -3v-5v-12zM303 449v-4h-3v-8v-3q0 -1 1 -1l2 1v-4
q-1 -1 -4 -1q-1 0 -2 1l-2 2v4v9h-2v4h2v4l5 3v-7h3zM317 443l-4 1q0 2 2 4q1 1 5 1h4q0 -1 1 -1l1 -2q1 -2 1 -4v-6v-4v-3h-4v2q-1 0 -3 -1l-2 -1q-3 0 -4 1q-2 2 -2 5l1 2l1 3l4 1l4 1v2q0 1 -3 1h-1q-1 0 -1 -2zM322 435v4q-1 -1 -2 -1q-2 -1 -3 -1v-2v-2q1 -1 2 -1t1 1z
M338 449v-4h-3v-8v-3q0 -1 1 -1t2 1v-4q-1 -1 -4 -1q-1 0 -2 1l-2 2v4v9h-2v4h2v4l5 3v-7h3z" />
    <glyph glyph-name="ordmasculine" unicode="&#xba;" horiz-adv-x="435" 
d="M381 293h-319v23h319v-23zM381 223h-319v23h319v-23zM151 538v215h128v-86h87v-129h-215zM199 694h32v31h-32v-31zM64 538h87v-86zM66 767v33h9q6 0 7 -1q2 -1 4 -3q2 -4 2 -7q0 -2 -2 -6l-3 -3q-1 -1 -8 -1h-3v-12h-6zM72 794v-10h3q4 0 4 1l2 2q1 0 1 2t-1 3t-2 1
q0 1 -4 1h-3zM92 767v33h20v-6h-14v-7h14v-6h-14v-9h15v-5h-21zM118 767v33h12q5 0 6 -1l3 -3q1 -2 1 -5q0 -5 -2 -7q-1 -1 -5 -3l3 -3l3 -5l3 -6h-6l-4 7l-3 4l-2 2q-1 1 -4 1v-14h-5zM123 786h4h5h1l1 1q1 1 1 3t-1 2l-2 2h-4h-5v-8zM145 777l5 1q0 -6 6 -6q3 0 4 1v1l1 2
q0 1 -1 2q0 1 -1 1t-2 1q-1 0 -3 1q-1 0 -2.5 0.5t-2.5 1.5q-2 2 -3 4v1q-1 2 -1 3t1 3v2q2 2 4 3q1 1 5 1q6 0 8 -2q3 -3 3 -8h-6q0 3 -1 3q-1 2 -4 2t-3 -1l-1 -2q0 -2 1 -3l5 -2q4 -1 5 -3q3 0 3 -3q1 -1 1 -5q0 -5 -2 -7q-3 -3 -9 -3q-10 0 -10 11zM170 783q0 4 2 10
q1 2 4 5q3 2 8 2t9 -4q3 -4 3 -13q0 -8 -3 -13q-4 -4 -9 -4q-7 0 -10 4q-4 4 -4 13zM176 783q0 -6 2 -9q4 -2 6 -2q3 0 5 2q2 6 2 9q0 5 -2 9q-3 3 -5 3q-3 0 -6 -3q-2 -2 -2 -9zM201 767v33h6l11 -22v22h5v-33h-5l-11 21v-21h-6zM253 767h-5l-3 7h-11l-2 -7h-6l11 33h6z
M243 779l-3 13l-4 -13h7zM257 767v33h5v-28h14v-5h-19zM292 800h5v-18v-6l3 -3q0 -1 3 -1q2 0 3 1l2 2v6v19h6v-18q0 -8 -1 -9q0 -2 -3 -5q-4 -2 -7 -2t-7 2q-1 0 -3 4q-1 2 -1 10v18zM319 777l5 1q0 -6 6 -6q3 0 4 1t1 3q0 1 -1 2q0 1 -1 1q-2 1 -5 2q-1 0 -2.5 0.5
t-2.5 1.5q-2 2 -3 4v1q-1 2 -1 3q0 3 2 5l3 3q1 1 5 1q6 0 8 -2q3 -3 3 -8h-6q0 3 -1 3q-1 2 -4 2t-3 -1l-1 -2q0 -2 1 -3l5 -2q5 -1 6 -3q2 0 2 -3q1 -1 1 -5q0 -5 -2 -7q-3 -3 -8 -3q-11 0 -11 11zM345 767v33h21v-6h-15v-7h13v-6h-13v-9h15v-5h-21zM66 813v33h19v-6h-13
v-8h12v-5h-12v-14h-6zM90 813v33h11q6 0 7 -1q2 0 3 -3q1 -2 1 -5t-2 -7q-1 -1 -5 -3l1 -1q2 0 2 -1l3 -6l3 -6h-6l-4 7l-4 5q0 1 -1 1h-1q-1 1 -3 1v-14h-5zM95 832h4h5q2 0 2 2v2v3q-1 1 -2 1h-5h-4v-8zM117 813v33h20v-6h-14v-7h13v-6h-13v-8h15v-6h-21zM142 813v33h20
v-6h-14v-7h14v-6h-14v-8h15v-6h-21zM177 829q0 4 2 10q3 5 5 6q1 1 6 1q7 0 10 -4q4 -4 4 -13q0 -5 -4 -13q-3 -4 -10 -4q-5 0 -9 4q-4 8 -4 13zM183 830q0 -5 2 -9q1 -3 5 -3q3 0 6 3q2 4 2 9q0 4 -2 8q-3 3 -6 3q-4 0 -5 -3q-2 -4 -2 -8zM208 813v33h5l11 -22v22h5v-33h-5
l-11 22v-22h-5zM236 813v33h5v-27h14v-6h-19zM262 813v14l-9 19h6l6 -13l7 13h6l-10 -19v-14h-6zM291 813v33h18v-6h-13v-8h12v-5h-12v-14h-5zM313 829q0 7 2 10q3 5 4 6q2 1 7 1q6 0 9 -4q4 -4 4 -13q0 -8 -4 -13q-3 -4 -9 -4t-10 4q-3 6 -3 13zM319 830q0 -7 1 -9
q3 -3 6 -3t6 3q2 4 2 9q0 4 -2 8q-3 3 -6 3t-6 -3q-1 -2 -1 -8zM343 813v33h12q5 0 6 -1q3 0 3 -3q2 -2 2 -5t-2 -7q-2 -2 -6 -3l4 -2l2 -6l4 -6h-7l-4 7l-3 5l-1 1h-1q-2 1 -3 1v-14h-6zM349 832h4h5q1 1 1 2q1 0 1 2t-1 3l-1 1h-5h-4v-8zM148 382h-3v3l-3 -3h-2q-3 0 -5 2
t-2 8t2 7q1 3 5 3h2l3 -3v10h3v-27zM137 392q0 -3 1 -4q0 -1 1 -2h2q2 0 2 1q2 2 2 5t-2 5q0 1 -2 1t-3 -1t-1 -5zM162 388l4 -1q0 -1 -1 -2t-1 -2q-2 -1 -5 -1q-4 0 -5 2q-3 3 -3 8q0 6 3 7q2 3 5 3q2 0 5 -3q2 -1 2 -8h-10q0 -3 1 -4q0 -1 2 -1q1 0 3 2zM162 393q0 3 -1 4
t-2 1q-2 0 -3 -1v-4h6zM167 402l3 1v4l2 2q1 1 3 1t4 -1l-1 -3h-2q-1 0 -1 -1q-1 0 -1 -3h3v-4h-3v-16h-4v16h-3v4zM184 409v-10q0 1 2 3h3q2 0 2 -1l3 -3v-5v-11h-4v10q0 4 -1 5q0 1 -2 1t-2 -1q-1 -1 -1 -5v-10h-5v27h5zM201 396l-4 1q1 1 3 4q0 1 4 1h4q2 -2 2 -3
q1 -1 1 -5v-6v-3q1 -1 1 -3h-4l-1 2l-1 -1l-1 -1h-3q-3 0 -4 1q-2 2 -2 4l2 4q0 1 1 1l4 2q3 0 4 1q0 2 -1 3h-2h-2zM207 387v5q0 -1 -3 -1q-1 0 -3 -2v-1v-2h2q2 0 4 1zM219 382h-5v20h5v-3l1 3h2q2 0 3 -1l-1 -4l-2 1l-2 -1q-1 -1 -1 -3v-6v-6zM225 392q0 3 2 5q0 2 2 4
q2 1 5 1t6 -3q2 -4 2 -7q0 -4 -1 -5q-1 -2 -3 -4q-1 -1 -4 -1q-4 0 -6 2q-3 3 -3 8zM230 392q0 -4 1 -5t3 -1t3 1l1 2v3l-1 4q-2 2 -3 2t-3 -2q-1 0 -1 -4zM245 382v5h4v-5h-4zM267 396l-4 -1q0 3 -3 3q-2 0 -2 -1q-1 -1 -1 -5t1 -5q0 -1 2 -1t2 1q1 0 1 2h4q0 -7 -7 -7
q-3 0 -5 2q-3 4 -3 8q0 6 3 7q1 3 5 3q3 0 5 -1q2 -4 2 -5zM269 392q0 1 1 3v2l3 4q2 1 4 1q4 0 7 -3q2 -4 2 -7q0 -4 -1 -5q-1 -2 -3 -4q-2 -1 -5 -1t-5 2q-3 3 -3 8zM273 392q0 -3 2 -5q1 -1 2 -1q3 0 3 1q1 1 1 5t-1 4q0 2 -3 2l-2 -2q-2 0 -2 -4zM289 402h3v-3q2 2 3 2
q1 1 2 1q3 0 3 -1l2 -2l2 2q1 1 3 1t3 -1q1 0 1 -2q2 -2 2 -5v-12h-5v11v4l-2 1q-2 0 -2 -1q-2 -2 -2 -5v-10h-4v11v4q-1 1 -2 1h-2l-1 -2v-4v-10h-4v20zM133 430v5h10v-11q-2 -2 -4 -3t-6 -1t-6 1q-3 3 -4 5t-1 8v4l1 3q1 2 4 5q4 2 6 2q3 0 7 -2q2 -2 2 -6l-4 -1q0 1 -2 3
q0 1 -3 1q-1 0 -5 -2q-1 -1 -1 -7t1 -7q2 -2 5 -2h3l2 2v3h-5zM156 426h4q0 -4 -3 -5q-1 -1 -4 -1t-5 2q-3 3 -3 8t3 8q1 2 5 2t5 -2q2 -2 2 -10h-10q0 -2 1 -3q0 -2 2 -2q3 0 3 3zM156 432q0 3 -1 3q0 1 -2 1t-2 -1q-1 0 -1 -3h6zM171 440v-4h-3v-8v-3l1 -1q1 0 2 1v-4
q-1 -1 -3 -1t-3 1t-1 2v4l-2 9l2 4v4l4 3v-7h3zM180 440l3 1v4l1 2l1 1h2h3l1 -1l-1 -3h-3q-1 -1 -1 -4h4v-4h-4v-16h-3v16h-3v4zM202 420v3l-2 -2q-1 -1 -3 -1t-3 1l-2 2q0 1 -0.5 2t-0.5 2v13h5v-9q-1 -1 -1 -3q0 -3 2 -3q1 -1 2 -1t1 1l1 1q1 1 1 6v8h5v-20h-5zM210 420
v27h4v-27h-4zM219 420v27h4v-27h-4zM233 440l3 1v4l2 2q1 1 3 1h1l2 -1l-1 -3h-1h-2v-3v-1h3v-4h-3v-16h-4v16h-3v4zM244 430q0 4 1 6l3 3q1 1 4 1q5 0 6 -3q3 -3 3 -7q0 -1 -1 -3v-2l-4 -4q-1 -1 -4 -1q-2 0 -6 2q-2 6 -2 8zM248 430v-2l1 -2q2 -2 3 -2q3 0 3 2q1 1 1 4
t-1 5q0 1 -3 1q-2 0 -3 -1q0 -1 -0.5 -2.5t-0.5 -2.5zM278 420h-4v10q0 3 -1 4v2h-2h-1l-2 -2v-5v-9h-5v20h4v-3l3 3h3h3l2 -3v-5v-12zM290 440v-4h-3v-8v-3q0 -1 1 -1t2 1v-4q-1 -1 -4 -1q-1 0 -2 1l-2 2v4v9h-2v4h2v4l5 3v-7h3zM304 434l-4 1q0 2 2 4q1 1 5 1h4q2 -2 2 -3
q1 -2 1 -4v-6v-4v-3h-4v2l-2 -1l-3 -1q-3 0 -4 1q-2 2 -2 5l1 2l1 3l4 1l4 1v2q0 1 -3 1h-1q-1 0 -1 -2zM309 426v4q-1 -1 -2 -1q-2 -1 -3 -1v-2v-2q1 -1 2 -1t2 1zM325 440v-4h-3v-8v-3l1 -1q1 0 2 1v-4q-1 -1 -4 -1q-1 0 -2 1q-1 0 -1 2v4v9h-3v4h3v4l4 3v-7h3z" />
    <glyph glyph-name="guillemotright" unicode="&#xbb;" horiz-adv-x="669" 
d="M492 257l-147 -160l-24 20l125 140l-123 139l24 21zM413 40l-25 21l209 196l-208 198l24 21l234 -219zM193 257l-147 -160l-24 20l125 140l-123 139l24 21zM114 40l-25 21l209 196l-208 198l24 21l234 -219z" />
    <glyph glyph-name="onequarter" unicode="&#xbc;" horiz-adv-x="983" 
d="M162 484v216h129v-87h87v-129h-216zM210 640h33v32h-33v-32zM74 484h88v-88zM77 713v34h9q5 0 6 -1q2 -1 4 -3q2 -4 2 -7q0 -2 -2 -6q0 -3 -3 -3q-1 -1 -7 -1h-4v-13h-5zM82 741v-10h4q3 0 4 1q1 0 1 2q1 0 1 2t-1 3l-1 1q-1 1 -5 1h-3zM103 713v34h20v-6h-15v-7h14v-6
h-14v-9h15v-6h-20zM128 713v34h12q5 0 6 -1q2 -1 4 -3v-3l1 -2q0 -5 -2 -7q-1 -1 -5 -3l3 -3l3 -5l3 -7h-7l-4 8l-2 4l-2 2h-4v-14h-6zM134 732h4q4 0 5 1q1 0 1 0.5t1 0.5v3v2l-2 2h-4h-5v-9zM155 724l5 1q2 -7 7 -7l4 2l1 1v2t-1 2q0 1 -1 1l-2 1q-1 1 -3 1q-1 0 -2.5 0.5
t-2.5 1.5q-2 2 -3 4l-1 2v2t0.5 2.5t0.5 2.5q2 2 4 3q1 1 5 1q6 0 8 -2q3 -3 3 -8h-6q0 3 -2 3q0 1 -3 1h-3l-1 -2q0 -2 1 -3l5 -2q3 -1 5 -3q3 0 3 -3q1 -1 1 -5q0 -5 -3 -7q-2 -3 -8 -3q-9 0 -11 11zM181 730q0 4 2 10q1 2 4 5q3 2 8 2t9 -4t4 -13t-4 -13t-9 -4
q-7 0 -10 4q-4 4 -4 13zM187 730q0 -7 2 -9l6 -3q2 0 5 3q2 4 2 9t-2 9q-2 2 -5 2q-4 0 -6 -2t-2 -9zM213 713v34h5l11 -22v22h6v-34h-6l-11 22v-22h-5zM265 713h-6l-2 8h-11l-2 -8h-7l11 34h6zM255 726l-3 13l-4 -13h7zM268 713v34h6v-28h14v-6h-20zM304 747h5v-18v-6l3 -3
q0 -2 3 -2q1 0 3 2l2 2v6v19h6v-18q0 -8 -1 -9q0 -2 -3 -5q-2 -2 -7 -2t-7 2q-3 0 -3 3q-1 3 -1 11v18zM331 724l5 1q0 -7 6 -7q2 0 4 2q1 1 1 3v2q-1 1 -2 1q-2 1 -5 2q-1 0 -2.5 0.5t-2.5 1.5q-2 2 -3 4v2q-1 1 -1 2t2 5l3 3q2 1 5 1q7 0 8 -2q3 -3 3 -8h-5q0 3 -2 3
q-1 1 -4 1h-3l-1 -2q0 -2 1 -3l5 -2q5 -2 6 -3q1 0 3 -3q1 -1 1 -5t-3 -7t-8 -3q-11 0 -11 11zM358 713v34h20v-6h-15v-7h14v-6h-14v-9h16v-6h-21zM77 760v33h19v-5h-14v-8h12v-6h-12v-14h-5zM100 760v33h12h6q3 -3 3 -4q2 -2 2 -5t-2 -7q-4 -2 -6 -2q3 -1 3 -3l4 -6l3 -6
h-7l-4 7l-3 5l-1 1v1h-4v-14h-6zM106 779h4q4 0 4 1q2 0 2 1q1 0 1 3q0 1 -1 2l-2 2h-4h-4v-9zM128 760v33h20v-5h-15v-8h14v-5h-14v-9h16v-6h-21zM153 760v33h20v-5h-14v-8h14v-5h-14v-9h15v-6h-21zM189 776q0 8 1 10q2 5 5 6q2 2 6 2q7 0 10 -5q4 -4 4 -13q0 -5 -4 -13
q-4 -4 -10 -4q-3 0 -9 4q-3 6 -3 13zM194 777q0 -5 2 -9q3 -3 5 -3q3 0 6 3q2 4 2 9q0 6 -2 8q-3 3 -6 3q-2 0 -5 -3q-2 -2 -2 -8zM219 760v33h6l11 -22v22h5v-33h-6l-10 22v-22h-6zM247 760v33h6v-27h13v-6h-19zM274 760v14l-10 19h7l6 -13l7 13h6l-10 -19v-14h-6zM303 760
v33h18v-5h-13v-8h12v-6h-12v-14h-5zM325 776q0 8 2 10q2 5 4 6q4 2 7 2q6 0 10 -5q4 -6 4 -13q0 -5 -4 -13q-6 -4 -10 -4q-5 0 -9 4q-4 5 -4 13zM331 777q0 -7 1 -9q3 -3 6 -3t6 3q2 4 2 9q0 6 -2 8q-3 3 -6 3t-6 -3q-1 -1 -1 -8zM356 760v33h11h7q2 -2 3 -4q1 -1 1 -5
q0 -3 -2 -7q-2 -2 -5 -2l3 -3l3 -6l3 -6h-6l-4 7l-3 5l-2 2h-4v-14h-5zM361 779h4q5 0 5 1q1 0 2 1v3v2l-2 2h-4h-5v-9zM159 326h-4v3q0 -1 -2 -3h-3q-2 0 -4 2t-2 8t2 8t4 2h3l2 -2v9h4v-27zM148 336q0 -2 1 -4q0 -1 1 -2h1q3 0 3 1q1 1 1 5t-1 5q0 2 -3 2l-2 -2
q-1 -1 -1 -5zM173 332l4 -1l-1 -1q-1 -2 -2 -3t-4 -1q-4 0 -6 2q-2 4 -2 8t2 8q4 2 5 2q2 0 6 -2q2 -2 2 -9h-10q0 -3 1 -4q0 -1 2 -1q1 0 3 2zM173 337q0 3 -1 4l-2 2q-1 0 -3 -2v-4h6zM178 346l3 2v4l2 1q1 1 3 1t4 -1l-1 -3h-2q-1 0 -1 -1q-1 0 -1 -3h4v-4h-4v-16h-4v16
h-3v4zM195 353v-9l2 2h3q2 0 3 -1l2 -2v-6v-11h-4v10q0 4 -1 5q0 2 -2 2t-2 -2q-1 -1 -1 -5v-10h-5v27h5zM212 340l-4 1q1 2 3 4q1 1 5 1h3q1 0 2 -1l1 -1v-5v-7v-3q1 -1 1 -3h-4l-1 2l-2 -2h-3q-3 0 -4 1t-1 4t1 4q0 1 1 1l4 2h2l2 1q0 2 -1 3q0 1 -2 1q-1 0 -1 -0.5
t-1 -0.5zM218 331v5q0 -1 -2 -1l-3 -1q-1 -1 -1 -2v-1l1 -1h1q3 0 4 1zM230 326h-4v20h4v-3l2 3h2q2 0 2 -1l-1 -4q-1 1 -2 1t-1 -0.5t-1 -0.5v-2q-1 -2 -1 -7v-6zM237 336q0 4 1 5q1 2 3 4q2 1 4 1q4 0 7 -3q2 -4 2 -7v-3l-1 -2q-1 -3 -4 -4q-1 -1 -4 -1q-2 0 -6 2
q-2 2 -2 8zM241 336q0 -4 2 -5q0 -1 2 -1q3 0 3 1q1 1 1 5t-1 4q0 2 -3 2q-2 0 -2 -2q-2 0 -2 -4zM257 326v5h4v-5h-4zM279 340l-4 -1q0 4 -3 4q-2 0 -2 -2q-2 -2 -2 -5t2 -5q0 -1 2 -1q1 0 2 1q1 0 1 3l4 -1q0 -7 -7 -7q-4 0 -6 2q-2 3 -2 8q0 4 2 8q4 2 6 2q3 0 5 -1
q2 -2 2 -5zM281 336q0 4 1 5l3 4q1 1 4 1q5 0 6 -3q3 -3 3 -7t-1 -5q-1 -2 -3 -4q-2 -1 -5 -1t-5 2q-3 3 -3 8zM285 336q0 -1 1 -3v-2q2 -1 3 -1q2 0 3 1t1 5t-1 4q-2 2 -3 2t-1 -1q-1 -1 -2 -1q-1 -2 -1 -4zM300 346h4v-3q2 2 3 2q1 1 2 1q3 0 3 -1l2 -2l2 2q1 1 3 1t3 -1
q1 0 1 -2q2 0 2 -4v-13h-5v11v4l-2 2q-2 0 -2 -2q-2 -2 -2 -5v-10h-4v11v4l-2 2l-1 -1h-1l-1 -2v-4v-10h-5v20zM144 375v4h10v-11q-2 -2 -4 -2q-2 -2 -6 -2t-6 2q-3 1 -4 5q-1 2 -1 7q0 6 1 8q2 4 4 5q4 2 6 2q4 0 6 -3q3 -2 3 -6h-4q0 2 -2 2q-1 1 -3 1q-4 0 -5 -2
q-2 -2 -2 -7q0 -3 2 -7q2 -2 5 -2q2 0 2 1l3 1v4h-5zM167 371l4 -1q0 -1 -3 -4q-1 -2 -4 -2q-4 0 -5 3q-3 1 -3 8q0 4 3 7q1 3 5 3t5 -3q2 -2 2 -9h-11q0 -3 2 -3q0 -2 2 -2q3 0 3 3zM167 376q0 3 -1 4q0 1 -2 1l-2 -1q-2 -2 -2 -4h7zM182 385v-5h-3v-8v-2l1 -2q1 0 2 1v-4
q-1 -1 -3 -1t-3 1q0 1 -0.5 1t-0.5 1q-1 1 -1 5l-1 8l1 5v4l5 2v-6h3zM191 385l3 1v4l1 2h1l2 1q1 0 2 -1h2l-1 -4h-3v-3h3v-5h-3v-16h-4v16h-3v5zM213 364v4q0 -1 -2 -3q-1 -1 -3 -1t-3 1l-2 2v5v13h4v-10v-3q0 -3 1 -3q1 -1 2 -1t2 1q0 1 0.5 1t0.5 1v5v9h5v-21h-5z
M222 364v28h4v-28h-4zM230 364v28h4v-28h-4zM245 385l2 1q0 3 1 4l1 2h1l2 1l1 -1h2v-4q-1 0 -1 0.5t-1 0.5l-1 -1v-2v-1h2v-5h-2v-16h-5v16h-2v5zM255 375q0 1 2 5q2 3 3 4t4 1t6 -3q2 -2 2 -7q0 -4 -1 -6q-1 -3 -3 -3q-1 -2 -4 -2q-4 0 -6 3q-3 6 -3 8zM260 375v-3l1 -2
q2 -2 3 -2t3 2l1 2v3q0 1 -0.5 2t-0.5 2q-2 2 -3 2t-3 -2q0 -1 -0.5 -2t-0.5 -2zM290 364h-4v11q0 3 -1 3v2q-1 1 -2 1t-2 -1l-1 -2v-5v-9h-5v21h4v-4l3 3q0 1 3 1q2 0 3 -1l2 -3v-4v-13zM302 385v-5h-3v-8v-2q0 -2 1 -2l2 1v-4q-1 -1 -4 -1q-1 0 -2 1l-2 2v5v8h-2v5h2v4
l5 2v-6h3zM316 378l-4 1q0 1 2 5q1 1 5 1q3 0 4 -1q2 0 2 -2l1 -2v-3v-6v-4v-3h-4v3l-2 -2l-3 -1q-3 0 -4 2q-2 2 -2 4l1 1v2l1 2l4 1l4 1v3q0 1 -3 1q-1 0 -1 -1q-1 0 -1 -2zM321 370v4q-1 -1 -2 -1q-2 0 -3 -1v-1v-3h2h2zM337 385v-5h-3v-8v-2l1 -2q1 0 2 1v-4
q-1 -1 -3 -1t-3 1t-1 2v5v8h-3v5h3v4l4 2v-6h3zM678 169v216h129v-87h87v-129h-216zM726 325h32v32h-32v-32zM590 169h88v-88zM593 398v34h9q5 0 6 -1q2 -1 4 -3q2 -4 2 -6q0 -3 -2 -7q0 -1 -3 -3q-1 -1 -7 -1h-4v-13h-5zM598 426v-10h4q3 0 4 1q0 1 0.5 1t0.5 1q1 0 1 3
q0 1 -1 2l-1 1q-1 1 -5 1h-3zM619 398v34h20v-6h-15v-7h14v-6h-14v-9h15v-6h-20zM644 398v34h12q5 0 6 -1q2 -1 4 -3v-3l1 -2q0 -3 -2 -7q-1 -1 -5 -3l3 -3l3 -5l3 -7h-7l-4 8l-2 4l-2 2h-2q-1 1 -2 1v-15h-6zM650 418h4h5q1 0 1 0.5t1 0.5v3v2l-2 2h-5h-4v-8zM671 409l5 1
q2 -6 7 -6q2 0 4 1q0 1 1 3q0 1 -1 2q0 1 -1 1l-2 1q-1 0 -3 1q-1 0 -2.5 0.5t-2.5 1.5q-2 2 -3 4q-1 1 -1 4q0 4 1 5q2 2 4 3q1 1 5 1q6 0 8 -2q3 -3 3 -8h-6q0 3 -2 3q0 2 -3 2t-3 -1l-1 -2q0 -2 1 -3l5 -2q4 -1 5 -3q3 0 3 -3q1 -1 1 -5q0 -5 -3 -7q-2 -3 -8 -3
q-9 0 -11 11zM697 415q0 4 2 10q1 2 4 5q3 2 8 2t9 -4q4 -6 4 -13t-4 -13q-4 -4 -9 -4q-7 0 -10 4q-4 4 -4 13zM703 415q0 -6 2 -9q4 -2 6 -2q3 0 5 2q2 6 2 9q0 5 -2 9q-3 3 -5 3q-3 0 -6 -3q-2 -2 -2 -9zM729 398v34h5l11 -22v22h6v-34h-6l-11 22v-22h-5zM781 398h-6l-2 8
h-11l-2 -8h-7l11 34h6zM771 411l-4 13l-3 -13h7zM784 398v34h6v-28h14v-6h-20zM820 432h5v-18v-6l3 -3q0 -1 3 -1q2 0 3 1l2 2v6v19h6v-18q0 -8 -1 -9q0 -2 -3 -5q-2 -2 -7 -2t-7 2q-3 0 -3 4q-1 2 -1 10v18zM847 409l5 1q0 -6 6 -6q3 0 4 1t1 3q0 1 -1 2q0 1 -1 1
q-2 1 -5 2q-1 0 -2.5 0.5t-2.5 1.5q-2 2 -3 4v2l-1 2q0 3 2 5l3 3q1 1 5 1q7 0 8 -2q3 -3 3 -8h-6q0 3 -1 3q-1 2 -4 2q-2 0 -3 -1l-1 -2q0 -2 1 -3q0 -1 5 -2q5 -2 6 -3q2 0 2 -3q2 -1 2 -5t-3 -7t-8 -3q-11 0 -11 11zM874 398v34h20v-6h-15v-7h14v-6h-14v-9h15v-6h-20z
M593 445v33h19v-5h-14v-8h12v-6h-12v-14h-5zM616 445v33h12h6q2 -2 3 -4q2 -2 2 -5q0 -5 -3 -6q-2 -3 -5 -3q3 -2 3 -3l4 -6l3 -6h-7l-4 7l-3 5q0 1 -0.5 1t-0.5 1h-4v-14h-6zM622 464h4q4 0 4 1q2 0 2 1q1 0 1 3q0 1 -1 2l-2 2h-4h-4v-9zM644 445v33h20v-5h-15v-8h14v-5
h-14v-9h16v-6h-21zM669 445v33h20v-5h-14v-8h14v-5h-14v-9h15v-6h-21zM705 461q0 8 1 11q2 4 5 5q2 2 6 2q7 0 10 -5q4 -3 4 -13q0 -5 -4 -13q-3 -3 -10 -3q-5 0 -9 3q-3 6 -3 13zM710 462q0 -5 2 -9q2 -3 5 -3t6 3q2 4 2 9q0 6 -2 8q-3 3 -6 3t-5 -3q-2 -2 -2 -8zM735 445
v33h5l12 -22v22h5v-33h-6l-11 22v-22h-5zM763 445v33h6v-27h13v-6h-19zM790 445v14l-10 19h7l6 -13l6 13h7l-10 -19v-14h-6zM819 445v33h18v-5h-13v-8h11v-6h-11v-14h-5zM841 461q0 8 2 11q2 4 4 5q4 2 7 2q6 0 10 -5q3 -3 3 -13q0 -7 -3 -13q-4 -3 -10 -3t-10 3q-3 6 -3 13
zM847 462q0 -7 1 -9q3 -3 6 -3t6 3q2 4 2 9q0 6 -2 8q-3 3 -6 3t-6 -3q-1 -1 -1 -8zM871 445v33h12h6q3 -1 4 -4q1 -1 1 -5t-2 -6q-2 -3 -5 -3l3 -3l3 -6l3 -6h-7l-4 7l-2 5l-2 2h-4v-14h-6zM877 464h4q4 0 5 1q1 0 2 1v3v2l-2 2h-4h-5v-9zM675 11h-4v3q0 -1 -2 -3h-3
q-2 0 -4 2t-2 8t2 8t4 2h3l2 -2v9h4v-27zM664 21q0 -2 1 -4q0 -1 1 -2h1q3 0 3 1q1 1 1 5t-1 5q0 2 -3 2l-2 -2q-1 -1 -1 -5zM689 17l4 -1l-1 -1q-1 -2 -2 -3t-4 -1q-5 0 -6 2q-2 4 -2 8t2 8q2 2 5 2q2 0 6 -2q2 -2 2 -9h-10q0 -3 1 -4q0 -1 2 -1q1 0 3 2zM689 22q0 3 -1 4
l-2 2q-1 0 -3 -2v-4h6zM694 31l3 2v4l2 1q1 1 3 1t4 -1l-1 -3h-2q-1 0 -1 -1q-1 0 -1 -3h4v-4h-4v-16h-4v16h-3v4zM711 38v-9l2 2h3q2 0 3 -1l2 -2v-6v-11h-4v10q0 4 -1 5q0 2 -2 2t-2 -2q-1 -1 -1 -5v-10h-5v27h5zM728 25l-4 1q1 2 3 4q1 1 4 1h4q1 -1 2 -1l1 -1v-5v-7v-3
q1 -1 1 -3h-4l-1 2l-2 -2h-3q-3 0 -4 1t-1 4t1 4q0 1 1 1l4 2q1 0 2 1h2q0 2 -1 3q0 1 -2 1q-1 0 -1 -0.5t-1 -0.5zM734 16v5q0 -1 -3 -1l-2 -1q-1 -1 -1 -2t0.5 -1t0.5 -1h1q3 0 4 1zM746 11h-4v20h4v-3l2 3h1q3 0 3 -1l-1 -4l-2 1q-1 0 -1 -0.5t-1 -0.5v-2q-1 -2 -1 -7v-6
zM753 21q0 4 1 5q1 2 3 4q1 1 4 1q5 0 6 -3q3 -3 3 -7v-3l-1 -2l-4 -4q-1 -1 -4 -1q-2 0 -6 2q-2 2 -2 8zM757 21q0 -4 1 -5t3 -1q3 0 3 1q1 1 1 5t-1 4q0 2 -3 2q-1 0 -3 -2q-1 0 -1 -4zM773 11v5h4v-5h-4zM795 25l-4 -1q-2 4 -3 4t-3 -2l-1 -2v-3v-3l1 -2q1 -1 3 -1
q1 0 2 1t1 3l4 -1q-1 -7 -7 -7q-4 0 -6 2q-2 3 -2 8q0 4 2 8q4 2 6 2q3 0 5 -1q1 0 2 -5zM797 21q0 4 1 5l3 4q1 1 4 1q5 0 6 -3q3 -3 3 -7t-2 -5q0 -2 -2 -4q-2 -1 -5 -1q-2 0 -6 2q-2 4 -2 8zM801 21q0 -1 1 -3v-2q1 -1 3 -1t3 1t1 5t-1 4q-2 2 -3 2t-3 -2q-1 -2 -1 -4z
M816 31h4v-3q2 2 3 2q1 1 2 1q3 0 3 -1l2 -2l2 2q1 1 3 1t3 -1q1 0 1 -2q2 0 2 -4v-13h-5v11q0 4 -1 4l-1 2q-2 0 -2 -2q-2 -2 -2 -5v-10h-4v11v4l-2 2h-1l-1 -1l-1 -2v-4v-10h-5v20zM660 60v4h10v-11q-2 -2 -4 -2q-3 -2 -6 -2q-4 0 -6 2q-3 1 -4 5q-1 2 -1 8q0 5 1 7
q2 4 4 5q4 2 6 2q4 0 6 -3q3 -1 3 -6h-4q0 2 -2 2q-1 1 -3 1q-4 0 -5 -2q-2 -2 -2 -6t2 -8q2 -2 5 -2q2 0 2 1l3 1v4h-5zM683 56l4 -1q0 -1 -3 -4q-1 -2 -4 -2q-4 0 -5 3q-3 2 -3 8q0 4 3 7q1 3 5 3t5 -3q2 -2 2 -9h-11q0 -3 2 -3q0 -2 2 -2q3 0 3 3zM683 61q0 3 -1 4t-2 1
l-2 -1q-2 -2 -2 -4h7zM698 70v-5h-3v-8v-2l1 -2q1 0 2 1v-4q-1 -1 -3 -1t-3 1v1l-1 1q-1 1 -1 5l-1 8l1 5v4l5 2v-6h3zM707 70l3 1v4l1 2q1 0 3 1h2l2 -1l-1 -4h-3q-1 -1 -1 -3h4v-5h-4v-16h-3v16h-3v5zM729 49v4q0 -1 -2 -3q-1 -1 -3 -1t-3 1l-2 2v5v13h4v-10q-1 -1 -1 -3
q0 -3 2 -3q1 -1 2 -1t2 1v1l1 1v5v9h5v-21h-5zM738 49v28h4v-28h-4zM746 49v28h4v-28h-4zM761 70l2 1q0 3 1 4l1 2q1 0 3 1h1q1 -1 2 -1v-4q-1 0 -1 0.5t-1 0.5q-1 -1 -2 -1v-2v-1h3v-5h-3v-16h-4v16h-2v5zM771 60q0 3 2 5q2 3 3 4t4 1t6 -3q2 -2 2 -7q0 -4 -1 -6
q-1 -3 -3 -3q-1 -2 -4 -2q-4 0 -6 3q-3 6 -3 8zM776 60q0 -4 1 -5q2 -2 3 -2t3 2l1 1v4v2l-1 2q-2 2 -3 2t-3 -2q-1 -1 -1 -4zM806 49h-4v11q0 3 -1 4v1l-2 1q-1 0 -2 -1l-1 -1v-6v-9h-5v21h4v-4l3 3q0 1 3 1q2 0 2 -1l3 -3v-4v-13zM817 70v-5h-2v-8v-2q0 -2 1 -2l1 1v-4
q0 -1 -3 -1q-2 0 -2 1l-2 2v5v8h-2v5h2v4l5 2v-6h2zM832 64h-4q0 1 2 5q1 1 5 1q3 0 4 -1q2 0 2 -2l1 -1v-4v-6v-4v-3h-4v3q-2 -2 -3 -2l-2 -1q-3 0 -4 2q-2 2 -2 4q0 1 1 3l1 2l4 1l4 1v3q0 1 -3 1q-1 0 -1 -1zM837 55v4q-1 -1 -2 -1q-2 0 -3 -1v-1v-3h2h1zM853 70v-5h-3
v-8v-2l1 -2q1 0 2 1v-4q-1 -1 -4 -1q-1 0 -2 1t-1 2v5v8h-3v5h3v4l4 2v-6h3zM337 99l275 494h27l-275 -494h-27zM315 99h-27l276 494h26z" />
    <glyph glyph-name="onehalf" unicode="&#xbd;" horiz-adv-x="944" 
d="M162 484v216h129v-87h87v-129h-216zM210 640h33v32h-33v-32zM74 484h88v-88zM77 713v34h9q5 0 6 -1q2 -1 4 -3q2 -4 2 -7q0 -2 -2 -6q0 -3 -3 -3q-1 -1 -7 -1h-4v-13h-5zM82 741v-10h4q3 0 4 1q1 0 1 2q1 0 1 2t-1 3l-1 1q-1 1 -5 1h-3zM103 713v34h20v-6h-15v-7h14v-6
h-14v-9h15v-6h-20zM128 713v34h12q5 0 6 -1q2 -1 4 -3v-3l1 -2q0 -5 -2 -7q-1 -1 -5 -3l3 -3l3 -5l3 -7h-7l-4 8l-2 4l-2 2h-4v-14h-6zM134 732h4q4 0 5 1q1 0 1 0.5t1 0.5v3v2l-2 2h-4h-5v-9zM155 724l5 1q2 -7 7 -7l4 2l1 1v2t-1 2q0 1 -1 1l-2 1q-1 1 -3 1q-1 0 -2.5 0.5
t-2.5 1.5q-2 2 -3 4l-1 2v2t0.5 2.5t0.5 2.5q2 2 4 3q1 1 5 1q6 0 8 -2q3 -3 3 -8h-6q0 3 -2 3q0 1 -3 1h-3l-1 -2q0 -2 1 -3l5 -2q3 -1 5 -3q3 0 3 -3q1 -1 1 -5q0 -5 -3 -7q-2 -3 -8 -3q-9 0 -11 11zM181 730q0 4 2 10q1 2 4 5q3 2 8 2t9 -4t4 -13t-4 -13t-9 -4
q-7 0 -10 4q-4 4 -4 13zM187 730q0 -7 2 -9l6 -3q2 0 5 3q2 4 2 9t-2 9q-2 2 -5 2q-4 0 -6 -2t-2 -9zM213 713v34h5l11 -22v22h6v-34h-6l-11 22v-22h-5zM265 713h-6l-2 8h-11l-2 -8h-7l11 34h6zM255 726l-3 13l-4 -13h7zM268 713v34h6v-28h14v-6h-20zM304 747h5v-18v-6l3 -3
q0 -2 3 -2q1 0 3 2l2 2v6v19h6v-18q0 -8 -1 -9q0 -2 -3 -5q-2 -2 -7 -2t-7 2q-3 0 -3 3q-1 3 -1 11v18zM331 724l5 1q0 -7 6 -7q2 0 4 2q1 1 1 3v2q-1 1 -2 1q-2 1 -5 2q-1 0 -2.5 0.5t-2.5 1.5q-2 2 -3 4v2q-1 1 -1 2t2 5l3 3q2 1 5 1q7 0 8 -2q3 -3 3 -8h-5q0 3 -2 3
q-1 1 -4 1h-3l-1 -2q0 -2 1 -3l5 -2q5 -2 6 -3q1 0 3 -3q1 -1 1 -5t-3 -7t-8 -3q-11 0 -11 11zM358 713v34h20v-6h-15v-7h14v-6h-14v-9h16v-6h-21zM77 760v33h19v-5h-14v-8h12v-6h-12v-14h-5zM100 760v33h12h6q3 -3 3 -4q2 -2 2 -5t-2 -7q-4 -2 -6 -2q3 -1 3 -3l4 -6l3 -6
h-7l-4 7l-3 5l-1 1v1h-4v-14h-6zM106 779h4q4 0 4 1q2 0 2 1q1 0 1 3q0 1 -1 2l-2 2h-4h-4v-9zM128 760v33h20v-5h-15v-8h14v-5h-14v-9h16v-6h-21zM153 760v33h20v-5h-14v-8h14v-5h-14v-9h15v-6h-21zM189 776q0 8 1 10q2 5 5 6q2 2 6 2q7 0 10 -5q4 -4 4 -13q0 -5 -4 -13
q-4 -4 -10 -4q-3 0 -9 4q-3 6 -3 13zM194 777q0 -5 2 -9q3 -3 5 -3q3 0 6 3q2 4 2 9q0 6 -2 8q-3 3 -6 3q-2 0 -5 -3q-2 -2 -2 -8zM219 760v33h6l11 -22v22h5v-33h-6l-10 22v-22h-6zM247 760v33h6v-27h13v-6h-19zM274 760v14l-10 19h7l6 -13l7 13h6l-10 -19v-14h-6zM303 760
v33h18v-5h-13v-8h12v-6h-12v-14h-5zM325 776q0 8 2 10q2 5 4 6q4 2 7 2q6 0 10 -5q4 -6 4 -13q0 -5 -4 -13q-6 -4 -10 -4q-5 0 -9 4q-4 5 -4 13zM331 777q0 -7 1 -9q3 -3 6 -3t6 3q2 4 2 9q0 6 -2 8q-3 3 -6 3t-6 -3q-1 -1 -1 -8zM356 760v33h11h7q2 -2 3 -4q1 -1 1 -5
q0 -3 -2 -7q-2 -2 -5 -2l3 -3l3 -6l3 -6h-6l-4 7l-3 5l-2 2h-4v-14h-5zM361 779h4q5 0 5 1q1 0 2 1v3v2l-2 2h-4h-5v-9zM159 326h-4v3q0 -1 -2 -3h-3q-2 0 -4 2t-2 8t2 8t4 2h3l2 -2v9h4v-27zM148 336q0 -2 1 -4q0 -1 1 -2h1q3 0 3 1q1 1 1 5t-1 5q0 2 -3 2l-2 -2
q-1 -1 -1 -5zM173 332l4 -1l-1 -1q-1 -2 -2 -3t-4 -1q-4 0 -6 2q-2 4 -2 8t2 8q4 2 5 2q2 0 6 -2q2 -2 2 -9h-10q0 -3 1 -4q0 -1 2 -1q1 0 3 2zM173 337q0 3 -1 4l-2 2q-1 0 -3 -2v-4h6zM178 346l3 2v4l2 1q1 1 3 1t4 -1l-1 -3h-2q-1 0 -1 -1q-1 0 -1 -3h4v-4h-4v-16h-4v16
h-3v4zM195 353v-9l2 2h3q2 0 3 -1l2 -2v-6v-11h-4v10q0 4 -1 5q0 2 -2 2t-2 -2q-1 -1 -1 -5v-10h-5v27h5zM212 340l-4 1q1 2 3 4q1 1 5 1h3q1 0 2 -1l1 -1v-5v-7v-3q1 -1 1 -3h-4l-1 2l-2 -2h-3q-3 0 -4 1t-1 4t1 4q0 1 1 1l4 2h2l2 1q0 2 -1 3q0 1 -2 1q-1 0 -1 -0.5
t-1 -0.5zM218 331v5q0 -1 -2 -1l-3 -1q-1 -1 -1 -2v-1l1 -1h1q3 0 4 1zM230 326h-4v20h4v-3l2 3h2q2 0 2 -1l-1 -4q-1 1 -2 1t-1 -0.5t-1 -0.5v-2q-1 -2 -1 -7v-6zM237 336q0 4 1 5q1 2 3 4q2 1 4 1q4 0 7 -3q2 -4 2 -7v-3l-1 -2q-1 -3 -4 -4q-1 -1 -4 -1q-2 0 -6 2
q-2 2 -2 8zM241 336q0 -4 2 -5q0 -1 2 -1q3 0 3 1q1 1 1 5t-1 4q0 2 -3 2q-2 0 -2 -2q-2 0 -2 -4zM257 326v5h4v-5h-4zM279 340l-4 -1q0 4 -3 4q-2 0 -2 -2q-2 -2 -2 -5t2 -5q0 -1 2 -1q1 0 2 1q1 0 1 3l4 -1q0 -7 -7 -7q-4 0 -6 2q-2 3 -2 8q0 4 2 8q4 2 6 2q3 0 5 -1
q2 -2 2 -5zM281 336q0 4 1 5l3 4q1 1 4 1q5 0 6 -3q3 -3 3 -7t-1 -5q-1 -2 -3 -4q-2 -1 -5 -1t-5 2q-3 3 -3 8zM285 336q0 -1 1 -3v-2q2 -1 3 -1q2 0 3 1t1 5t-1 4q-2 2 -3 2t-1 -1q-1 -1 -2 -1q-1 -2 -1 -4zM300 346h4v-3q2 2 3 2q1 1 2 1q3 0 3 -1l2 -2l2 2q1 1 3 1t3 -1
q1 0 1 -2q2 0 2 -4v-13h-5v11v4l-2 2q-2 0 -2 -2q-2 -2 -2 -5v-10h-4v11v4l-2 2l-1 -1h-1l-1 -2v-4v-10h-5v20zM144 375v4h10v-11q-2 -2 -4 -2q-2 -2 -6 -2t-6 2q-3 1 -4 5q-1 2 -1 7q0 6 1 8q2 4 4 5q4 2 6 2q4 0 6 -3q3 -2 3 -6h-4q0 2 -2 2q-1 1 -3 1q-4 0 -5 -2
q-2 -2 -2 -7q0 -3 2 -7q2 -2 5 -2q2 0 2 1l3 1v4h-5zM167 371l4 -1q0 -1 -3 -4q-1 -2 -4 -2q-4 0 -5 3q-3 1 -3 8q0 4 3 7q1 3 5 3t5 -3q2 -2 2 -9h-11q0 -3 2 -3q0 -2 2 -2q3 0 3 3zM167 376q0 3 -1 4q0 1 -2 1l-2 -1q-2 -2 -2 -4h7zM182 385v-5h-3v-8v-2l1 -2q1 0 2 1v-4
q-1 -1 -3 -1t-3 1q0 1 -0.5 1t-0.5 1q-1 1 -1 5l-1 8l1 5v4l5 2v-6h3zM191 385l3 1v4l1 2h1l2 1q1 0 2 -1h2l-1 -4h-3v-3h3v-5h-3v-16h-4v16h-3v5zM213 364v4q0 -1 -2 -3q-1 -1 -3 -1t-3 1l-2 2v5v13h4v-10v-3q0 -3 1 -3q1 -1 2 -1t2 1q0 1 0.5 1t0.5 1v5v9h5v-21h-5z
M222 364v28h4v-28h-4zM230 364v28h4v-28h-4zM245 385l2 1q0 3 1 4l1 2h1l2 1l1 -1h2v-4q-1 0 -1 0.5t-1 0.5l-1 -1v-2v-1h2v-5h-2v-16h-5v16h-2v5zM255 375q0 1 2 5q2 3 3 4t4 1t6 -3q2 -2 2 -7q0 -4 -1 -6q-1 -3 -3 -3q-1 -2 -4 -2q-4 0 -6 3q-3 6 -3 8zM260 375v-3l1 -2
q2 -2 3 -2t3 2l1 2v3q0 1 -0.5 2t-0.5 2q-2 2 -3 2t-3 -2q0 -1 -0.5 -2t-0.5 -2zM290 364h-4v11q0 3 -1 3v2q-1 1 -2 1t-2 -1l-1 -2v-5v-9h-5v21h4v-4l3 3q0 1 3 1q2 0 3 -1l2 -3v-4v-13zM302 385v-5h-3v-8v-2q0 -2 1 -2l2 1v-4q-1 -1 -4 -1q-1 0 -2 1l-2 2v5v8h-2v5h2v4
l5 2v-6h3zM316 378l-4 1q0 1 2 5q1 1 5 1q3 0 4 -1q2 0 2 -2l1 -2v-3v-6v-4v-3h-4v3l-2 -2l-3 -1q-3 0 -4 2q-2 2 -2 4l1 1v2l1 2l4 1l4 1v3q0 1 -3 1q-1 0 -1 -1q-1 0 -1 -2zM321 370v4q-1 -1 -2 -1q-2 0 -3 -1v-1v-3h2h2zM337 385v-5h-3v-8v-2l1 -2q1 0 2 1v-4
q-1 -1 -3 -1t-3 1t-1 2v5v8h-3v5h3v4l4 2v-6h3zM678 169v216h129v-87h87v-129h-216zM726 325h32v32h-32v-32zM590 169h88v-88zM593 398v34h9q5 0 6 -1q2 -1 4 -3q2 -4 2 -6q0 -3 -2 -7q0 -1 -3 -3q-1 -1 -7 -1h-4v-13h-5zM598 426v-10h4q3 0 4 1q0 1 0.5 1t0.5 1q1 0 1 3
q0 1 -1 2l-1 1q-1 1 -5 1h-3zM619 398v34h20v-6h-15v-7h14v-6h-14v-9h15v-6h-20zM644 398v34h12q5 0 6 -1q2 -1 4 -3v-3l1 -2q0 -3 -2 -7q-1 -1 -5 -3l3 -3l3 -5l3 -7h-7l-4 8l-2 4l-2 2h-2q-1 1 -2 1v-15h-6zM650 418h4h5q1 0 1 0.5t1 0.5v3v2l-2 2h-5h-4v-8zM671 409l5 1
q2 -6 7 -6q2 0 4 1q0 1 1 3q0 1 -1 2q0 1 -1 1l-2 1q-1 0 -3 1q-1 0 -2.5 0.5t-2.5 1.5q-2 2 -3 4q-1 1 -1 4q0 4 1 5q2 2 4 3q1 1 5 1q6 0 8 -2q3 -3 3 -8h-6q0 3 -2 3q0 2 -3 2t-3 -1l-1 -2q0 -2 1 -3l5 -2q4 -1 5 -3q3 0 3 -3q1 -1 1 -5q0 -5 -3 -7q-2 -3 -8 -3
q-9 0 -11 11zM697 415q0 4 2 10q1 2 4 5q3 2 8 2t9 -4q4 -6 4 -13t-4 -13q-4 -4 -9 -4q-7 0 -10 4q-4 4 -4 13zM703 415q0 -6 2 -9q4 -2 6 -2q3 0 5 2q2 6 2 9q0 5 -2 9q-3 3 -5 3q-3 0 -6 -3q-2 -2 -2 -9zM729 398v34h5l11 -22v22h6v-34h-6l-11 22v-22h-5zM781 398h-6l-2 8
h-11l-2 -8h-7l11 34h6zM771 411l-4 13l-3 -13h7zM784 398v34h6v-28h14v-6h-20zM820 432h5v-18v-6l3 -3q0 -1 3 -1q2 0 3 1l2 2v6v19h6v-18q0 -8 -1 -9q0 -2 -3 -5q-2 -2 -7 -2t-7 2q-3 0 -3 4q-1 2 -1 10v18zM847 409l5 1q0 -6 6 -6q3 0 4 1t1 3q0 1 -1 2q0 1 -1 1
q-2 1 -5 2q-1 0 -2.5 0.5t-2.5 1.5q-2 2 -3 4v2l-1 2q0 3 2 5l3 3q1 1 5 1q7 0 8 -2q3 -3 3 -8h-6q0 3 -1 3q-1 2 -4 2q-2 0 -3 -1l-1 -2q0 -2 1 -3q0 -1 5 -2q5 -2 6 -3q2 0 2 -3q2 -1 2 -5t-3 -7t-8 -3q-11 0 -11 11zM874 398v34h20v-6h-15v-7h14v-6h-14v-9h15v-6h-20z
M593 445v33h19v-5h-14v-8h12v-6h-12v-14h-5zM616 445v33h12h6q2 -2 3 -4q2 -2 2 -5q0 -5 -3 -6q-2 -3 -5 -3q3 -2 3 -3l4 -6l3 -6h-7l-4 7l-3 5q0 1 -0.5 1t-0.5 1h-4v-14h-6zM622 464h4q4 0 4 1q2 0 2 1q1 0 1 3q0 1 -1 2l-2 2h-4h-4v-9zM644 445v33h20v-5h-15v-8h14v-5
h-14v-9h16v-6h-21zM669 445v33h20v-5h-14v-8h14v-5h-14v-9h15v-6h-21zM705 461q0 8 1 11q2 4 5 5q2 2 6 2q7 0 10 -5q4 -3 4 -13q0 -5 -4 -13q-3 -3 -10 -3q-5 0 -9 3q-3 6 -3 13zM710 462q0 -5 2 -9q2 -3 5 -3t6 3q2 4 2 9q0 6 -2 8q-3 3 -6 3t-5 -3q-2 -2 -2 -8zM735 445
v33h5l12 -22v22h5v-33h-6l-11 22v-22h-5zM763 445v33h6v-27h13v-6h-19zM790 445v14l-10 19h7l6 -13l6 13h7l-10 -19v-14h-6zM819 445v33h18v-5h-13v-8h11v-6h-11v-14h-5zM841 461q0 8 2 11q2 4 4 5q4 2 7 2q6 0 10 -5q3 -3 3 -13q0 -7 -3 -13q-4 -3 -10 -3t-10 3q-3 6 -3 13
zM847 462q0 -7 1 -9q3 -3 6 -3t6 3q2 4 2 9q0 6 -2 8q-3 3 -6 3t-6 -3q-1 -1 -1 -8zM871 445v33h12h6q3 -1 4 -4q1 -1 1 -5t-2 -6q-2 -3 -5 -3l3 -3l3 -6l3 -6h-7l-4 7l-2 5l-2 2h-4v-14h-6zM877 464h4q4 0 5 1q1 0 2 1v3v2l-2 2h-4h-5v-9zM675 11h-4v3q0 -1 -2 -3h-3
q-2 0 -4 2t-2 8t2 8t4 2h3l2 -2v9h4v-27zM664 21q0 -2 1 -4q0 -1 1 -2h1q3 0 3 1q1 1 1 5t-1 5q0 2 -3 2l-2 -2q-1 -1 -1 -5zM689 17l4 -1l-1 -1q-1 -2 -2 -3t-4 -1q-5 0 -6 2q-2 4 -2 8t2 8q2 2 5 2q2 0 6 -2q2 -2 2 -9h-10q0 -3 1 -4q0 -1 2 -1q1 0 3 2zM689 22q0 3 -1 4
l-2 2q-1 0 -3 -2v-4h6zM694 31l3 2v4l2 1q1 1 3 1t4 -1l-1 -3h-2q-1 0 -1 -1q-1 0 -1 -3h4v-4h-4v-16h-4v16h-3v4zM711 38v-9l2 2h3q2 0 3 -1l2 -2v-6v-11h-4v10q0 4 -1 5q0 2 -2 2t-2 -2q-1 -1 -1 -5v-10h-5v27h5zM728 25l-4 1q1 2 3 4q1 1 4 1h4q1 -1 2 -1l1 -1v-5v-7v-3
q1 -1 1 -3h-4l-1 2l-2 -2h-3q-3 0 -4 1t-1 4t1 4q0 1 1 1l4 2q1 0 2 1h2q0 2 -1 3q0 1 -2 1q-1 0 -1 -0.5t-1 -0.5zM734 16v5q0 -1 -3 -1l-2 -1q-1 -1 -1 -2t0.5 -1t0.5 -1h1q3 0 4 1zM746 11h-4v20h4v-3l2 3h1q3 0 3 -1l-1 -4l-2 1q-1 0 -1 -0.5t-1 -0.5v-2q-1 -2 -1 -7v-6
zM753 21q0 4 1 5q1 2 3 4q1 1 4 1q5 0 6 -3q3 -3 3 -7v-3l-1 -2l-4 -4q-1 -1 -4 -1q-2 0 -6 2q-2 2 -2 8zM757 21q0 -4 1 -5t3 -1q3 0 3 1q1 1 1 5t-1 4q0 2 -3 2q-1 0 -3 -2q-1 0 -1 -4zM773 11v5h4v-5h-4zM795 25l-4 -1q-2 4 -3 4t-3 -2l-1 -2v-3v-3l1 -2q1 -1 3 -1
q1 0 2 1t1 3l4 -1q-1 -7 -7 -7q-4 0 -6 2q-2 3 -2 8q0 4 2 8q4 2 6 2q3 0 5 -1q1 0 2 -5zM797 21q0 4 1 5l3 4q1 1 4 1q5 0 6 -3q3 -3 3 -7t-2 -5q0 -2 -2 -4q-2 -1 -5 -1q-2 0 -6 2q-2 4 -2 8zM801 21q0 -1 1 -3v-2q1 -1 3 -1t3 1t1 5t-1 4q-2 2 -3 2t-3 -2q-1 -2 -1 -4z
M816 31h4v-3q2 2 3 2q1 1 2 1q3 0 3 -1l2 -2l2 2q1 1 3 1t3 -1q1 0 1 -2q2 0 2 -4v-13h-5v11q0 4 -1 4l-1 2q-2 0 -2 -2q-2 -2 -2 -5v-10h-4v11v4l-2 2h-1l-1 -1l-1 -2v-4v-10h-5v20zM660 60v4h10v-11q-2 -2 -4 -2q-3 -2 -6 -2q-4 0 -6 2q-3 1 -4 5q-1 2 -1 8q0 5 1 7
q2 4 4 5q4 2 6 2q4 0 6 -3q3 -1 3 -6h-4q0 2 -2 2q-1 1 -3 1q-4 0 -5 -2q-2 -2 -2 -6t2 -8q2 -2 5 -2q2 0 2 1l3 1v4h-5zM683 56l4 -1q0 -1 -3 -4q-1 -2 -4 -2q-4 0 -5 3q-3 2 -3 8q0 4 3 7q1 3 5 3t5 -3q2 -2 2 -9h-11q0 -3 2 -3q0 -2 2 -2q3 0 3 3zM683 61q0 3 -1 4t-2 1
l-2 -1q-2 -2 -2 -4h7zM698 70v-5h-3v-8v-2l1 -2q1 0 2 1v-4q-1 -1 -3 -1t-3 1v1l-1 1q-1 1 -1 5l-1 8l1 5v4l5 2v-6h3zM707 70l3 1v4l1 2q1 0 3 1h2l2 -1l-1 -4h-3q-1 -1 -1 -3h4v-5h-4v-16h-3v16h-3v5zM729 49v4q0 -1 -2 -3q-1 -1 -3 -1t-3 1l-2 2v5v13h4v-10q-1 -1 -1 -3
q0 -3 2 -3q1 -1 2 -1t2 1v1l1 1v5v9h5v-21h-5zM738 49v28h4v-28h-4zM746 49v28h4v-28h-4zM761 70l2 1q0 3 1 4l1 2q1 0 3 1h1q1 -1 2 -1v-4q-1 0 -1 0.5t-1 0.5q-1 -1 -2 -1v-2v-1h3v-5h-3v-16h-4v16h-2v5zM771 60q0 3 2 5q2 3 3 4t4 1t6 -3q2 -2 2 -7q0 -4 -1 -6
q-1 -3 -3 -3q-1 -2 -4 -2q-4 0 -6 3q-3 6 -3 8zM776 60q0 -4 1 -5q2 -2 3 -2t3 2l1 1v4v2l-1 2q-2 2 -3 2t-3 -2q-1 -1 -1 -4zM806 49h-4v11q0 3 -1 4v1l-2 1q-1 0 -2 -1l-1 -1v-6v-9h-5v21h4v-4l3 3q0 1 3 1q2 0 2 -1l3 -3v-4v-13zM817 70v-5h-2v-8v-2q0 -2 1 -2l1 1v-4
q0 -1 -3 -1q-2 0 -2 1l-2 2v5v8h-2v5h2v4l5 2v-6h2zM832 64h-4q0 1 2 5q1 1 5 1q3 0 4 -1q2 0 2 -2l1 -1v-4v-6v-4v-3h-4v3q-2 -2 -3 -2l-2 -1q-3 0 -4 2q-2 2 -2 4q0 1 1 3l1 2l4 1l4 1v3q0 1 -3 1q-1 0 -1 -1zM837 55v4q-1 -1 -2 -1q-2 0 -3 -1v-1v-3h2h1zM853 70v-5h-3
v-8v-2l1 -2q1 0 2 1v-4q-1 -1 -4 -1q-1 0 -2 1t-1 2v5v8h-3v5h3v4l4 2v-6h3zM337 99l275 494h27l-275 -494h-27zM315 99h-27l276 494h26z" />
    <glyph glyph-name="threequarters" unicode="&#xbe;" horiz-adv-x="977" 
d="M162 484v216h129v-87h87v-129h-216zM210 640h32v32h-32v-32zM74 484h88v-88zM77 713v34h9q5 0 6 -1q2 -1 4 -3q2 -4 2 -6q0 -3 -2 -7q0 -2 -3 -3q-1 -1 -7 -1h-4v-13h-5zM82 741v-10h4q3 0 4 1v1l1 1q1 0 1 3q0 1 -1 2l-1 1q-1 1 -5 1h-3zM103 713v34h20v-6h-15v-7h14v-6
h-14v-9h15v-6h-20zM128 713v34h12q5 0 6 -1q2 -1 4 -3v-3l1 -2q0 -3 -2 -7q-1 -1 -5 -3l3 -3l3 -5l3 -7h-7l-4 8l-2 4l-2 2l-2 1h-2v-15h-6zM134 733h4h5q1 0 1 0.5t1 0.5v3v2l-2 2h-5h-4v-8zM155 724l5 1q2 -6 7 -6q2 0 4 1l1 1v2t-1 2q0 1 -1 1l-2 1q-1 1 -3 1
q-1 0 -2.5 0.5t-2.5 1.5q-2 2 -3 4q-1 1 -1 4q0 4 1 5q2 2 4 3q1 1 5 1q6 0 8 -2q3 -3 3 -8h-6q0 3 -2 3q0 2 -3 2t-3 -1l-1 -2q0 -2 1 -3l5 -2q4 -1 5 -3q3 0 3 -3q1 -1 1 -5q0 -5 -3 -7q-2 -3 -8 -3q-9 0 -11 11zM181 730q0 4 2 10q1 2 4 5q3 2 8 2t9 -4q4 -6 4 -13
t-4 -13q-4 -4 -9 -4q-7 0 -10 4q-4 4 -4 13zM187 730q0 -6 2 -9q4 -2 6 -2q3 0 5 2q2 6 2 9q0 5 -2 9q-3 3 -5 3q-3 0 -6 -3q-2 -2 -2 -9zM213 713v34h5l11 -22v22h6v-34h-6l-11 22v-22h-5zM265 713h-6l-2 8h-11l-2 -8h-7l11 34h6zM255 726l-4 13l-3 -13h7zM268 713v34h6
v-28h14v-6h-20zM304 747h5v-18v-6l3 -3q0 -1 3 -1q2 0 3 1l2 2v6v19h6v-18q0 -8 -1 -9q0 -2 -3 -5q-2 -2 -7 -2t-7 2q-3 0 -3 4q-1 2 -1 10v18zM331 724l5 1q0 -6 6 -6q3 0 4 1t1 3q0 1 -1 2q0 1 -1 1q-2 1 -5 2q-1 0 -2.5 0.5t-2.5 1.5q-2 2 -3 4v2l-1 2q0 3 2 5l3 3
q1 1 5 1q7 0 8 -2q3 -3 3 -8h-6q0 3 -1 3q-1 2 -4 2q-2 0 -3 -1l-1 -2q0 -2 1 -3l5 -2q5 -2 6 -3q2 0 2 -3q2 -1 2 -5t-3 -7t-8 -3q-11 0 -11 11zM358 713v34h20v-6h-15v-7h14v-6h-14v-9h15v-6h-20zM77 760v33h19v-5h-14v-8h12v-6h-12v-14h-5zM100 760v33h12h6q2 -2 3 -4
q2 -2 2 -5q0 -4 -3 -6q-2 -3 -5 -3q3 -1 3 -3l4 -6l3 -6h-7l-4 7l-3 5l-1 1v1h-4v-14h-6zM106 779h4q4 0 4 1q2 0 2 1q1 0 1 3q0 1 -1 2l-2 2h-4h-4v-9zM128 760v33h20v-5h-15v-8h14v-5h-14v-9h16v-6h-21zM153 760v33h20v-5h-14v-8h14v-5h-14v-9h15v-6h-21zM189 776
q0 8 1 11q2 4 5 5q2 2 6 2q7 0 10 -5q4 -3 4 -13q0 -5 -4 -13q-3 -3 -10 -3q-5 0 -9 3q-3 6 -3 13zM194 777q0 -5 2 -9q2 -3 5 -3t6 3q2 4 2 9q0 6 -2 8q-3 3 -6 3t-5 -3q-2 -2 -2 -8zM219 760v33h5l12 -22v22h5v-33h-6l-11 22v-22h-5zM247 760v33h6v-27h13v-6h-19zM274 760
v14l-10 19h7l6 -13l6 13h7l-10 -19v-14h-6zM303 760v33h18v-5h-13v-8h11v-6h-11v-14h-5zM325 776q0 8 2 11q2 4 4 5q4 2 7 2q6 0 10 -5q3 -3 3 -13q0 -7 -3 -13q-4 -3 -10 -3t-10 3q-3 6 -3 13zM331 777q0 -7 1 -9q3 -3 6 -3t6 3q2 4 2 9q0 6 -2 8q-3 3 -6 3t-6 -3
q-1 -1 -1 -8zM355 760v33h12h6q3 -1 4 -4q1 -1 1 -5t-2 -6q-2 -3 -5 -3l3 -3l3 -6l3 -6h-7l-4 7l-2 5l-2 2h-4v-14h-6zM361 779h4q4 0 5 1q1 0 2 1v3v2l-2 2h-4h-5v-9zM159 326h-4v3q0 -1 -2 -3h-3q-2 0 -4 2t-2 8t2 8t4 2h3l2 -2v9h4v-27zM148 336q0 -2 1 -4q0 -1 1 -2h1
q3 0 3 1q1 1 1 5t-1 5q0 2 -3 2l-2 -2q-1 -1 -1 -5zM173 332l4 -1l-1 -1q-1 -2 -2 -3t-4 -1q-5 0 -6 2q-2 4 -2 8t2 8q2 2 5 2q2 0 6 -2q2 -2 2 -9h-10q0 -3 1 -4q0 -1 2 -1q1 0 3 2zM173 337q0 3 -1 4l-2 2q-1 0 -3 -2v-4h6zM178 346l3 2v4l2 1q1 1 3 1t4 -1l-1 -3h-2
q-1 0 -1 -1q-1 0 -1 -3h4v-4h-4v-16h-4v16h-3v4zM195 353v-9l2 2h3q2 0 3 -1l2 -2v-6v-11h-4v10q0 4 -1 5q0 2 -2 2t-2 -2q-1 -1 -1 -5v-10h-5v27h5zM212 340l-4 1q1 2 3 4q1 1 4 1h4q1 0 2 -1l1 -1v-5v-7v-3q1 -1 1 -3h-4l-1 2l-2 -2h-3q-3 0 -4 1t-1 4t1 4q0 1 1 1l4 2h2
l2 1q0 2 -1 3q0 1 -2 1q-1 0 -1 -0.5t-1 -0.5zM218 331v5q0 -1 -3 -1l-2 -1q-1 -1 -1 -2v-1l1 -1h1q3 0 4 1zM230 326h-4v20h4v-3l2 3h1q3 0 3 -1l-1 -4l-2 1q-1 0 -1 -0.5t-1 -0.5v-2q-1 -2 -1 -7v-6zM237 336q0 4 1 5q1 2 3 4q1 1 4 1q5 0 6 -3q3 -3 3 -7v-3l-1 -2l-4 -4
q-1 -1 -4 -1q-2 0 -6 2q-2 2 -2 8zM241 336q0 -4 1 -5t3 -1q3 0 3 1q1 1 1 5t-1 4q0 2 -3 2q-1 0 -3 -2q-1 0 -1 -4zM257 326v5h4v-5h-4zM279 340l-4 -1q-2 4 -3 4t-3 -2l-1 -1v-4v-3l1 -2q1 -1 3 -1q1 0 2 1t1 3l4 -1q-1 -7 -7 -7q-4 0 -6 2q-2 3 -2 8q0 4 2 8q4 2 6 2
q3 0 5 -1q1 -1 2 -5zM281 336q0 4 1 5l3 4q1 1 4 1q5 0 6 -3q3 -3 3 -7t-2 -5q0 -2 -2 -4q-2 -1 -5 -1q-2 0 -6 2q-2 4 -2 8zM285 336q0 -1 1 -3v-2q1 -1 3 -1t3 1t1 5t-1 4q-2 2 -3 2t-3 -2q-1 -2 -1 -4zM300 346h4v-3q2 2 3 2q1 1 2 1q3 0 3 -1l2 -2l2 2q1 1 3 1t3 -1
q1 0 1 -2q2 0 2 -4v-13h-5v11q0 4 -1 4l-1 2q-2 0 -2 -2q-2 -2 -2 -5v-10h-4v11v4l-2 2l-1 -1h-1l-1 -2v-4v-10h-5v20zM144 375v4h10v-11q-2 -2 -4 -2q-3 -2 -6 -2q-4 0 -6 2q-3 1 -4 5q-1 2 -1 8q0 5 1 7q2 4 4 5q4 2 6 2q4 0 6 -3q3 -2 3 -6h-4q0 2 -2 2q-1 1 -3 1
q-4 0 -5 -2q-2 -2 -2 -6t2 -8q2 -2 5 -2q2 0 2 1l3 1v4h-5zM167 371l4 -1q0 -1 -3 -4q-1 -2 -4 -2q-4 0 -5 3q-3 1 -3 8q0 4 3 7q1 3 5 3t5 -3q2 -2 2 -9h-11q0 -3 2 -3q0 -2 2 -2q3 0 3 3zM167 376q0 3 -1 4t-2 1l-2 -1q-2 -2 -2 -4h7zM182 385v-5h-3v-8v-2l1 -2q1 0 2 1
v-4q-1 -1 -3 -1t-3 1q0 1 -0.5 1t-0.5 1q-1 1 -1 5l-1 8l1 5v4l5 2v-6h3zM191 385l3 1v4l1 2h1l2 1q1 0 2 -1h2l-1 -4h-3q-1 -1 -1 -3h4v-5h-4v-16h-3v16h-3v5zM213 364v4q0 -1 -2 -3q-1 -1 -3 -1t-3 1l-2 2v5v13h4v-10q-1 -1 -1 -3q0 -3 2 -3q1 -1 2 -1t2 1q0 1 0.5 1
t0.5 1v5v9h5v-21h-5zM222 364v28h4v-28h-4zM230 364v28h4v-28h-4zM245 385l2 1q0 3 1 4l1 2h1l2 1l1 -1h2v-4q-1 0 -1 0.5t-1 0.5q-1 -1 -2 -1v-2v-1h3v-5h-3v-16h-4v16h-2v5zM255 375q0 3 2 5q2 3 3 4t4 1t6 -3q2 -2 2 -7q0 -4 -1 -6q-1 -3 -3 -3q-1 -2 -4 -2q-4 0 -6 3
q-3 6 -3 8zM260 375q0 -4 1 -5q2 -2 3 -2t3 2l1 2v3q0 1 -0.5 2t-0.5 2q-2 2 -3 2t-3 -2q-1 -1 -1 -4zM290 364h-4v11q0 3 -1 4v1l-2 1q-1 0 -2 -1l-1 -1v-6v-9h-5v21h4v-4l3 3q0 1 3 1q2 0 2 -1l3 -3v-4v-13zM301 385v-5h-2v-8v-2q0 -2 1 -2l1 1v-4q0 -1 -3 -1q-2 0 -2 1
l-2 2v5v8h-2v5h2v4l5 2v-6h2zM316 379h-4q0 1 2 5q1 1 5 1q3 0 4 -1q2 0 2 -2l1 -2v-3v-6v-4v-3h-4v3q-2 -2 -3 -2l-2 -1q-3 0 -4 2q-2 2 -2 4l1 1v2l1 2l4 1l4 1v3q0 1 -3 1q-1 0 -1 -1zM321 370v4q-1 -1 -2 -1q-2 0 -3 -1v-1v-3h2h1zM337 385v-5h-3v-8v-2l1 -2q1 0 2 1v-4
q-1 -1 -4 -1q-1 0 -2 1t-1 2v5v8h-3v5h3v4l4 2v-6h3zM678 169v216h129v-87h87v-129h-216zM726 325h32v32h-32v-32zM590 169h88v-88zM593 398v34h9q5 0 6 -1q2 -1 4 -3q2 -4 2 -6q0 -3 -2 -7q0 -1 -3 -3q-1 -1 -7 -1h-4v-13h-5zM598 426v-10h4q3 0 4 1q0 1 0.5 1t0.5 1
q1 0 1 3q0 1 -1 2l-1 1q-1 1 -5 1h-3zM619 398v34h20v-6h-15v-7h14v-6h-14v-9h15v-6h-20zM644 398v34h12q5 0 6 -1q2 -1 4 -3v-3l1 -2q0 -3 -2 -7q-1 -1 -5 -3l3 -3l3 -5l3 -7h-7l-4 8l-2 4l-2 2h-2q-1 1 -2 1v-15h-6zM650 418h4h5q1 0 1 0.5t1 0.5v3v2l-2 2h-5h-4v-8z
M671 409l5 1q2 -6 7 -6q2 0 4 1q0 1 1 3q0 1 -1 2q0 1 -1 1l-2 1q-1 0 -3 1q-1 0 -2.5 0.5t-2.5 1.5q-2 2 -3 4q-1 1 -1 4q0 4 1 5q2 2 4 3q1 1 5 1q6 0 8 -2q3 -3 3 -8h-6q0 3 -2 3q0 2 -3 2t-3 -1l-1 -2q0 -2 1 -3l5 -2q4 -1 5 -3q3 0 3 -3q1 -1 1 -5q0 -5 -3 -7
q-2 -3 -8 -3q-9 0 -11 11zM697 415q0 4 2 10q1 2 4 5q3 2 8 2t9 -4q4 -6 4 -13t-4 -13q-4 -4 -9 -4q-7 0 -10 4q-4 4 -4 13zM703 415q0 -6 2 -9q4 -2 6 -2q3 0 5 2q2 6 2 9q0 5 -2 9q-3 3 -5 3q-3 0 -6 -3q-2 -2 -2 -9zM729 398v34h5l11 -22v22h6v-34h-6l-11 22v-22h-5z
M781 398h-6l-2 8h-11l-2 -8h-7l11 34h6zM771 411l-4 13l-3 -13h7zM784 398v34h6v-28h14v-6h-20zM820 432h5v-18v-6l3 -3q0 -1 3 -1q2 0 3 1l2 2v6v19h6v-18q0 -8 -1 -9q0 -2 -3 -5q-2 -2 -7 -2t-7 2q-3 0 -3 4q-1 2 -1 10v18zM847 409l5 1q0 -6 6 -6q3 0 4 1t1 3q0 1 -1 2
q0 1 -1 1q-2 1 -5 2q-1 0 -2.5 0.5t-2.5 1.5q-2 2 -3 4v2l-1 2q0 3 2 5l3 3q1 1 5 1q7 0 8 -2q3 -3 3 -8h-6q0 3 -1 3q-1 2 -4 2q-2 0 -3 -1l-1 -2q0 -2 1 -3q0 -1 5 -2q5 -2 6 -3q2 0 2 -3q2 -1 2 -5t-3 -7t-8 -3q-11 0 -11 11zM874 398v34h20v-6h-15v-7h14v-6h-14v-9h15
v-6h-20zM593 445v33h19v-5h-14v-8h12v-6h-12v-14h-5zM616 445v33h12h6q2 -2 3 -4q2 -2 2 -5q0 -5 -3 -6q-2 -3 -5 -3q3 -2 3 -3l4 -6l3 -6h-7l-4 7l-3 5q0 1 -0.5 1t-0.5 1h-4v-14h-6zM622 464h4q4 0 4 1q2 0 2 1q1 0 1 3q0 1 -1 2l-2 2h-4h-4v-9zM644 445v33h20v-5h-15v-8
h14v-5h-14v-9h16v-6h-21zM669 445v33h20v-5h-14v-8h14v-5h-14v-9h15v-6h-21zM705 461q0 8 1 11q2 4 5 5q2 2 6 2q7 0 10 -5q4 -3 4 -13q0 -5 -4 -13q-3 -3 -10 -3q-5 0 -9 3q-3 6 -3 13zM710 462q0 -5 2 -9q2 -3 5 -3t6 3q2 4 2 9q0 6 -2 8q-3 3 -6 3t-5 -3q-2 -2 -2 -8z
M735 445v33h5l12 -22v22h5v-33h-6l-11 22v-22h-5zM763 445v33h6v-27h13v-6h-19zM790 445v14l-10 19h7l6 -13l6 13h7l-10 -19v-14h-6zM819 445v33h18v-5h-13v-8h11v-6h-11v-14h-5zM841 461q0 8 2 11q2 4 4 5q4 2 7 2q6 0 10 -5q3 -3 3 -13q0 -7 -3 -13q-4 -3 -10 -3t-10 3
q-3 6 -3 13zM847 462q0 -7 1 -9q3 -3 6 -3t6 3q2 4 2 9q0 6 -2 8q-3 3 -6 3t-6 -3q-1 -1 -1 -8zM871 445v33h12h6q3 -1 4 -4q1 -1 1 -5t-2 -6q-2 -3 -5 -3l3 -3l3 -6l3 -6h-7l-4 7l-2 5l-2 2h-4v-14h-6zM877 464h4q4 0 5 1q1 0 2 1v3v2l-2 2h-4h-5v-9zM675 11h-4v3
q0 -1 -2 -3h-3q-2 0 -4 2t-2 8t2 8t4 2h3l2 -2v9h4v-27zM664 21q0 -2 1 -4q0 -1 1 -2h1q3 0 3 1q1 1 1 5t-1 5q0 2 -3 2l-2 -2q-1 -1 -1 -5zM689 17l4 -1l-1 -1q-1 -2 -2 -3t-4 -1q-5 0 -6 2q-2 4 -2 8t2 8q2 2 5 2q2 0 6 -2q2 -2 2 -9h-10q0 -3 1 -4q0 -1 2 -1q1 0 3 2z
M689 22q0 3 -1 4l-2 2q-1 0 -3 -2v-4h6zM694 31l3 2v4l2 1q1 1 3 1t4 -1l-1 -3h-2q-1 0 -1 -1q-1 0 -1 -3h4v-4h-4v-16h-4v16h-3v4zM711 38v-9l2 2h3q2 0 3 -1l2 -2v-6v-11h-4v10q0 4 -1 5q0 2 -2 2t-2 -2q-1 -1 -1 -5v-10h-5v27h5zM728 25l-4 1q1 2 3 4q1 1 4 1h4
q1 -1 2 -1l1 -1v-5v-7v-3q1 -1 1 -3h-4l-1 2l-2 -2h-3q-3 0 -4 1t-1 4t1 4q0 1 1 1l4 2q1 0 2 1h2q0 2 -1 3q0 1 -2 1q-1 0 -1 -0.5t-1 -0.5zM734 16v5q0 -1 -3 -1l-2 -1q-1 -1 -1 -2t0.5 -1t0.5 -1h1q3 0 4 1zM746 11h-4v20h4v-3l2 3h1q3 0 3 -1l-1 -4l-2 1q-1 0 -1 -0.5
t-1 -0.5v-2q-1 -2 -1 -7v-6zM753 21q0 4 1 5q1 2 3 4q1 1 4 1q5 0 6 -3q3 -3 3 -7v-3l-1 -2l-4 -4q-1 -1 -4 -1q-2 0 -6 2q-2 2 -2 8zM757 21q0 -4 1 -5t3 -1q3 0 3 1q1 1 1 5t-1 4q0 2 -3 2q-1 0 -3 -2q-1 0 -1 -4zM773 11v5h4v-5h-4zM795 25l-4 -1q-2 4 -3 4t-3 -2l-1 -2
v-3v-3l1 -2q1 -1 3 -1q1 0 2 1t1 3l4 -1q-1 -7 -7 -7q-4 0 -6 2q-2 3 -2 8q0 4 2 8q4 2 6 2q3 0 5 -1q1 0 2 -5zM797 21q0 4 1 5l3 4q1 1 4 1q5 0 6 -3q3 -3 3 -7t-2 -5q0 -2 -2 -4q-2 -1 -5 -1q-2 0 -6 2q-2 4 -2 8zM801 21q0 -1 1 -3v-2q1 -1 3 -1t3 1t1 5t-1 4q-2 2 -3 2
t-3 -2q-1 -2 -1 -4zM816 31h4v-3q2 2 3 2q1 1 2 1q3 0 3 -1l2 -2l2 2q1 1 3 1t3 -1q1 0 1 -2q2 0 2 -4v-13h-5v11q0 4 -1 4l-1 2q-2 0 -2 -2q-2 -2 -2 -5v-10h-4v11v4l-2 2h-1l-1 -1l-1 -2v-4v-10h-5v20zM660 60v4h10v-11q-2 -2 -4 -2q-3 -2 -6 -2q-4 0 -6 2q-3 1 -4 5
q-1 2 -1 8q0 5 1 7q2 4 4 5q4 2 6 2q4 0 6 -3q3 -1 3 -6h-4q0 2 -2 2q-1 1 -3 1q-4 0 -5 -2q-2 -2 -2 -6t2 -8q2 -2 5 -2q2 0 2 1l3 1v4h-5zM683 56l4 -1q0 -1 -3 -4q-1 -2 -4 -2q-4 0 -5 3q-3 2 -3 8q0 4 3 7q1 3 5 3t5 -3q2 -2 2 -9h-11q0 -3 2 -3q0 -2 2 -2q3 0 3 3z
M683 61q0 3 -1 4t-2 1l-2 -1q-2 -2 -2 -4h7zM698 70v-5h-3v-8v-2l1 -2q1 0 2 1v-4q-1 -1 -3 -1t-3 1v1l-1 1q-1 1 -1 5l-1 8l1 5v4l5 2v-6h3zM707 70l3 1v4l1 2q1 0 3 1h2l2 -1l-1 -4h-3q-1 -1 -1 -3h4v-5h-4v-16h-3v16h-3v5zM729 49v4q0 -1 -2 -3q-1 -1 -3 -1t-3 1l-2 2v5
v13h4v-10q-1 -1 -1 -3q0 -3 2 -3q1 -1 2 -1t2 1v1l1 1v5v9h5v-21h-5zM738 49v28h4v-28h-4zM746 49v28h4v-28h-4zM761 70l2 1q0 3 1 4l1 2q1 0 3 1h1q1 -1 2 -1v-4q-1 0 -1 0.5t-1 0.5q-1 -1 -2 -1v-2v-1h3v-5h-3v-16h-4v16h-2v5zM771 60q0 3 2 5q2 3 3 4t4 1t6 -3q2 -2 2 -7
q0 -4 -1 -6q-1 -3 -3 -3q-1 -2 -4 -2q-4 0 -6 3q-3 6 -3 8zM776 60q0 -4 1 -5q2 -2 3 -2t3 2l1 1v4v2l-1 2q-2 2 -3 2t-3 -2q-1 -1 -1 -4zM806 49h-4v11q0 3 -1 4v1l-2 1q-1 0 -2 -1l-1 -1v-6v-9h-5v21h4v-4l3 3q0 1 3 1q2 0 2 -1l3 -3v-4v-13zM817 70v-5h-2v-8v-2
q0 -2 1 -2l1 1v-4q0 -1 -3 -1q-2 0 -2 1l-2 2v5v8h-2v5h2v4l5 2v-6h2zM832 64h-4q0 1 2 5q1 1 5 1q3 0 4 -1q2 0 2 -2l1 -1v-4v-6v-4v-3h-4v3q-2 -2 -3 -2l-2 -1q-3 0 -4 2q-2 2 -2 4q0 1 1 3l1 2l4 1l4 1v3q0 1 -3 1q-1 0 -1 -1zM837 55v4q-1 -1 -2 -1q-2 0 -3 -1v-1v-3h2
h1zM853 70v-5h-3v-8v-2l1 -2q1 0 2 1v-4q-1 -1 -4 -1q-1 0 -2 1t-1 2v5v8h-3v5h3v4l4 2v-6h3zM337 99l275 494h27l-275 -494h-27zM315 99h-27l276 494h26z" />
    <glyph glyph-name="questiondown" unicode="&#xbf;" horiz-adv-x="573" 
d="M367 311h34v-24q0 -42 -15 -70.5t-48 -57.5q-6 -5 -42 -31.5t-51 -44.5t-15 -39q0 -23 16.5 -37.5t42.5 -14.5q30 0 52 14t22 39v20h33v-35q-6 -36 -39 -54t-68 -18q-38 0 -65.5 23.5t-27.5 62.5q0 45 51 87q11 10 35.5 28t33.5 26q26 22 38 42.5t13 48.5v35zM512 31v34
h34v-32q0 -67 -39.5 -114.5t-97.5 -68.5t-127 -21q-121 0 -186.5 54t-65.5 149q0 101 94 166q7 5 27 16.5t32 19.5t22.5 22t10.5 30v25h34q0 -35 -1 -35q-3 -38 -47 -70q-11 -8 -32.5 -20.5l-26.5 -15.5q-79 -55 -79 -138q0 -79 54 -124t164 -45q98 0 163.5 44.5t66.5 123.5
zM412 463q0 -43 -30 -73.5t-73 -30.5t-73 30.5t-30 73.5t30 73t73 30t73 -30t30 -73zM309 393q29 0 49 20.5t20 49.5t-20 49t-49 20t-49 -20t-20 -49t20 -49.5t49 -20.5z" />
    <glyph glyph-name="Agrave" unicode="&#xc0;" horiz-adv-x="750" 
d="M482 245h-231l115 383zM368 510l-71 -231h139zM223 148h287l44 -148h-35l-34 114h-237l-34 -114h-36zM709 0l-236 714h35l236 -714h-35zM42 0h-36l241 714h38zM438 778h-131l-146 184h44l118 -150h60l-73 150h38z" />
    <glyph glyph-name="Aacute" unicode="&#xc1;" horiz-adv-x="750" 
d="M482 245h-231l115 383zM368 510l-71 -231h139zM223 148h287l44 -148h-35l-34 114h-237l-34 -114h-36zM709 0l-236 714h35l236 -714h-35zM42 0h-36l241 714h38zM442 778h-131l90 184h38l-73 -150h60l118 150h44z" />
    <glyph glyph-name="Acircumflex" unicode="&#xc2;" horiz-adv-x="750" 
d="M482 245h-231l115 383zM368 510l-71 -231h139zM223 148h287l44 -148h-35l-34 114h-237l-34 -114h-36zM709 0l-236 714h35l236 -714h-35zM42 0h-36l241 714h38zM404 889l65 -110h-39l-55 93l-57 -93h-40l68 111q12 19 29 19q18 0 29 -20zM198 779h-43l152 197h144
l143 -197h-42l-118 163h-110z" />
    <glyph glyph-name="Atilde" unicode="&#xc3;" horiz-adv-x="750" 
d="M482 245h-231l115 383zM368 510l-71 -231h139zM223 148h287l44 -148h-35l-34 114h-237l-34 -114h-36zM709 0l-236 714h35l236 -714h-35zM42 0h-36l241 714h38zM167 783l-31 7q10 67 49.5 111t101.5 44q32 0 93 -18t93 -18q6 0 11.5 1.5t9.5 5t6.5 6t5.5 9.5t4 10t3.5 12
t3.5 12l30 -8l-8 -35q-19 -47 -66 -47q-31 0 -94 18t-92 18q-22 0 -40.5 -8.5t-29.5 -19t-22 -31.5t-15.5 -33t-12.5 -36zM242 767l-31 7l10 34q23 45 75 45q29 0 89 -17t88 -17q49 0 75.5 37.5t35.5 90.5l32 -9q-9 -65 -44 -109t-99 -44q-34 0 -93.5 17t-83.5 17
t-34.5 -11.5t-19.5 -40.5z" />
    <glyph glyph-name="Adieresis" unicode="&#xc4;" horiz-adv-x="750" 
d="M482 245h-231l115 383zM368 510l-71 -231h139zM223 148h287l44 -148h-35l-34 114h-237l-34 -114h-36zM709 0l-236 714h35l236 -714h-35zM42 0h-36l241 714h38zM165 859q0 37 26 63.5t63 26.5t63 -26.5t26 -63.5t-26 -63t-63 -26t-63 26t-26 63zM254 919q-25 0 -42 -17.5
t-17 -42.5t17 -42.5t42 -17.5t42.5 17.5t17.5 42.5t-17.5 42.5t-42.5 17.5zM407 859q0 37 26 63.5t63 26.5t63 -26.5t26 -63.5t-26 -63t-63 -26t-63 26t-26 63zM496 919q-25 0 -42 -17.5t-17 -42.5t17 -42.5t42 -17.5t42.5 17.5t17.5 42.5t-17.5 42.5t-42.5 17.5z" />
    <glyph glyph-name="Aring" unicode="&#xc5;" horiz-adv-x="750" 
d="M482 245h-231l115 383zM368 510l-71 -231h139zM223 148h287l44 -148h-35l-34 114h-237l-34 -114h-36zM709 0l-236 714h35l236 -714h-35zM42 0h-36l241 714h38zM267 885q0 45 31.5 77t76.5 32t76.5 -32t31.5 -77t-31.5 -76.5t-76.5 -31.5t-76.5 31.5t-31.5 76.5zM375 958
q-30 0 -51 -21t-21 -52q0 -30 21 -51t51 -21t51 21t21 51q0 31 -21 52t-51 21z" />
    <glyph glyph-name="AE" unicode="&#xc6;" horiz-adv-x="1070" 
d="M503 556v-311h-207l142 325q12 25 33 25q13 0 22.5 -10.5t9.5 -28.5zM469 556l-121 -277h121v277zM503 34h521v-34h-555v115h-192l-50 -115h-38l66 149h248v-115zM659 140v164h296v-34h-262v-96h331v-34h-365zM659 408v166h365v-34h-331v-98h262v-34h-296zM41 0h-39
l332 713h690v-34h-668z" />
    <glyph glyph-name="Ccedilla" unicode="&#xc7;" horiz-adv-x="685" 
d="M382 23l12 1q97 10 161 60t64 137v47h34v-47q0 -105 -75 -163t-183 -68l-8 -36h7q131 0 131 -80q0 -51 -48 -78.5t-117 -27.5q-56 0 -122 15v81q71 -16 113 -16q39 0 39 24q0 4 -1.5 7t-4 4.5t-5.5 3t-7.5 2.5t-7.5 1.5t-8 1t-7 0.5l-56 3l23 94q-58 4 -107 20.5
t-89.5 47t-64 82t-23.5 117.5v207q0 65 26.5 116.5t71 82.5t100 47t116.5 16q56 0 108 -13t98 -40t73.5 -74t27.5 -109v-44h-34v44q0 99 -79.5 150.5t-193.5 51.5q-120 0 -200 -59t-80 -169v-207q0 -116 75.5 -173.5t194.5 -60.5h10l-27 -107q54 -4 63 -7q29 -8 29 -36
q0 -45 -60 -45q-30 0 -92 11v-38q58 -11 101 -11q65 0 104.5 23.5t39.5 61.5q0 33 -36 47q-29 12 -81 12h-27zM476 482v-37h-33v23q0 40 -27 61.5t-64 21.5q-44 0 -69 -23.5t-25 -67.5v-203q0 -45 24 -70t70 -25q37 0 64 21.5t27 61.5v23h33v-38q-6 -49 -42.5 -75.5
t-81.5 -26.5q-61 0 -94.5 35t-33.5 94v203q0 59 35.5 92t92.5 33q45 0 82 -27t42 -76z" />
    <glyph glyph-name="Egrave" unicode="&#xc8;" horiz-adv-x="651" 
d="M240 140v164h296v-34h-262v-96h331v-34h-365zM240 408v166h365v-34h-331v-98h262v-34h-296zM605 0h-555v713h555v-34h-521v-645h521v-34zM464 778h-131l-146 184h44l118 -150h60l-73 150h38z" />
    <glyph glyph-name="Eacute" unicode="&#xc9;" horiz-adv-x="651" 
d="M240 140v164h296v-34h-262v-96h331v-34h-365zM240 408v166h365v-34h-331v-98h262v-34h-296zM605 0h-555v713h555v-34h-521v-645h521v-34zM318 778h-131l90 184h38l-73 -150h60l118 150h44z" />
    <glyph glyph-name="Ecircumflex" unicode="&#xca;" horiz-adv-x="651" 
d="M240 140v164h296v-34h-262v-96h331v-34h-365zM240 408v166h365v-34h-331v-98h262v-34h-296zM605 0h-555v713h555v-34h-521v-645h521v-34zM355 889l65 -110h-39l-55 93l-57 -93h-40l68 111q12 19 29 19q18 0 29 -20zM149 779h-43l152 197h144l143 -197h-42l-118 163h-110z
" />
    <glyph glyph-name="Edieresis" unicode="&#xcb;" horiz-adv-x="651" 
d="M240 140v164h296v-34h-262v-96h331v-34h-365zM240 408v166h365v-34h-331v-98h262v-34h-296zM605 0h-555v713h555v-34h-521v-645h521v-34zM116 859q0 37 26 63.5t63 26.5t63 -26.5t26 -63.5t-26 -63t-63 -26t-63 26t-26 63zM205 919q-25 0 -42 -17.5t-17 -42.5t17 -42.5
t42 -17.5t42.5 17.5t17.5 42.5t-17.5 42.5t-42.5 17.5zM358 859q0 37 26 63.5t63 26.5t63 -26.5t26 -63.5t-26 -63t-63 -26t-63 26t-26 63zM447 919q-25 0 -42 -17.5t-17 -42.5t17 -42.5t42 -17.5t42.5 17.5t17.5 42.5t-17.5 42.5t-42.5 17.5z" />
    <glyph glyph-name="Igrave" unicode="&#xcc;" horiz-adv-x="324" 
d="M240 0v713h34v-713h-34zM84 0h-34v713h34v-713zM221 778h-131l-146 184h44l118 -150h60l-73 150h38z" />
    <glyph glyph-name="Iacute" unicode="&#xcd;" horiz-adv-x="324" 
d="M240 0v713h34v-713h-34zM84 0h-34v713h34v-713zM233 778h-131l90 184h38l-73 -150h60l118 150h44z" />
    <glyph glyph-name="Icircumflex" unicode="&#xce;" horiz-adv-x="324" 
d="M240 0v713h34v-713h-34zM84 0h-34v713h34v-713zM192 889l65 -110h-39l-55 93l-57 -93h-40l68 111q12 19 29 19q18 0 29 -20zM-14 779h-43l152 197h144l143 -197h-42l-118 163h-110z" />
    <glyph glyph-name="Idieresis" unicode="&#xcf;" horiz-adv-x="324" 
d="M240 0v713h34v-713h-34zM84 0h-34v713h34v-713zM-47 859q0 37 26 63.5t63 26.5t63 -26.5t26 -63.5t-26 -63t-63 -26t-63 26t-26 63zM42 919q-25 0 -42 -17.5t-17 -42.5t17 -42.5t42 -17.5t42.5 17.5t17.5 42.5t-17.5 42.5t-42.5 17.5zM195 859q0 37 26 63.5t63 26.5
t63 -26.5t26 -63.5t-26 -63t-63 -26t-63 26t-26 63zM284 919q-25 0 -42 -17.5t-17 -42.5t17 -42.5t42 -17.5t42.5 17.5t17.5 42.5t-17.5 42.5t-42.5 17.5z" />
    <glyph glyph-name="Eth" unicode="&#xd0;" horiz-adv-x="730" 
d="M80 312h-58v34h92v-312h285q120 0 192.5 55.5t72.5 169.5v211q0 104 -72.5 156.5t-194.5 52.5h-283v-291h-92v34h58v291h317q132 0 216.5 -60t84.5 -183v-211q0 -131 -84.5 -195t-214.5 -64h-319v312zM304 312v-138h78q44 0 67 27t23 63v186q0 40 -26 64t-69 24h-73v-116
h99v-34h-133v184h107q56 0 92.5 -33.5t36.5 -88.5v-186q0 -49 -32.5 -86.5t-91.5 -37.5h-112v206h133v-34h-99z" />
    <glyph glyph-name="Ntilde" unicode="&#xd1;" horiz-adv-x="754" 
d="M670 34v679h34v-713h-202l-248 350h-2v-350h-34v456l301 -422h151zM84 0h-34v713h217l233 -320h2v320h34v-424l-286 390h-166v-679zM169 783l-31 7q10 67 49.5 111t101.5 44q32 0 93 -18t93 -18q6 0 11.5 1.5t9.5 5t6.5 6t5.5 9.5t4 10t3.5 12t3.5 12l30 -8l-8 -35
q-19 -47 -66 -47q-31 0 -94 18t-92 18q-22 0 -40.5 -8.5t-29.5 -19t-22 -31.5t-15.5 -33t-12.5 -36zM244 767l-31 7l10 34q23 45 75 45q29 0 89 -17t88 -17q49 0 75.5 37.5t35.5 90.5l32 -9q-9 -65 -44 -109t-99 -44q-34 0 -93.5 17t-83.5 17t-34.5 -11.5t-19.5 -40.5z" />
    <glyph glyph-name="Ograve" unicode="&#xd2;" horiz-adv-x="702" 
d="M32 264v183q0 70 26 124.5t70.5 87.5t100 49.5t119.5 16.5t119.5 -14.5t102 -45.5t73.5 -87t27 -131v-182q0 -134 -91 -205.5t-228 -71.5q-142 0 -230.5 69.5t-88.5 206.5zM66 447v-183q0 -121 77 -181.5t208 -60.5q126 0 205.5 62.5t79.5 180.5v182q0 127 -80 185.5
t-208 58.5q-123 0 -202.5 -62t-79.5 -182zM224 264v190q0 62 33 96t93 34q53 0 90.5 -34.5t37.5 -95.5v-194q0 -58 -34 -94.5t-92 -36.5q-62 0 -95 37t-33 98zM258 454v-190q0 -101 94 -101q43 0 67.5 26t24.5 71v194q0 46 -27 71t-67 25q-92 0 -92 -96zM433 778h-131
l-146 184h44l118 -150h60l-73 150h38z" />
    <glyph glyph-name="Oacute" unicode="&#xd3;" horiz-adv-x="702" 
d="M32 264v183q0 70 26 124.5t70.5 87.5t100 49.5t119.5 16.5t119.5 -14.5t102 -45.5t73.5 -87t27 -131v-182q0 -134 -91 -205.5t-228 -71.5q-142 0 -230.5 69.5t-88.5 206.5zM66 447v-183q0 -121 77 -181.5t208 -60.5q126 0 205.5 62.5t79.5 180.5v182q0 127 -80 185.5
t-208 58.5q-123 0 -202.5 -62t-79.5 -182zM224 264v190q0 62 33 96t93 34q53 0 90.5 -34.5t37.5 -95.5v-194q0 -58 -34 -94.5t-92 -36.5q-62 0 -95 37t-33 98zM258 454v-190q0 -101 94 -101q43 0 67.5 26t24.5 71v194q0 46 -27 71t-67 25q-92 0 -92 -96zM422 778h-131
l90 184h38l-73 -150h60l118 150h44z" />
    <glyph glyph-name="Ocircumflex" unicode="&#xd4;" horiz-adv-x="702" 
d="M32 264v183q0 70 26 124.5t70.5 87.5t100 49.5t119.5 16.5t119.5 -14.5t102 -45.5t73.5 -87t27 -131v-182q0 -134 -91 -205.5t-228 -71.5q-142 0 -230.5 69.5t-88.5 206.5zM66 447v-183q0 -121 77 -181.5t208 -60.5q126 0 205.5 62.5t79.5 180.5v182q0 127 -80 185.5
t-208 58.5q-123 0 -202.5 -62t-79.5 -182zM224 264v190q0 62 33 96t93 34q53 0 90.5 -34.5t37.5 -95.5v-194q0 -58 -34 -94.5t-92 -36.5q-62 0 -95 37t-33 98zM258 454v-190q0 -101 94 -101q43 0 67.5 26t24.5 71v194q0 46 -27 71t-67 25q-92 0 -92 -96zM380 889l65 -110
h-39l-55 93l-57 -93h-40l68 111q12 19 29 19q18 0 29 -20zM174 779h-43l152 197h144l143 -197h-42l-118 163h-110z" />
    <glyph glyph-name="Otilde" unicode="&#xd5;" horiz-adv-x="702" 
d="M32 264v183q0 70 26 124.5t70.5 87.5t100 49.5t119.5 16.5t119.5 -14.5t102 -45.5t73.5 -87t27 -131v-182q0 -134 -91 -205.5t-228 -71.5q-142 0 -230.5 69.5t-88.5 206.5zM66 447v-183q0 -121 77 -181.5t208 -60.5q126 0 205.5 62.5t79.5 180.5v182q0 127 -80 185.5
t-208 58.5q-123 0 -202.5 -62t-79.5 -182zM224 264v190q0 62 33 96t93 34q53 0 90.5 -34.5t37.5 -95.5v-194q0 -58 -34 -94.5t-92 -36.5q-62 0 -95 37t-33 98zM258 454v-190q0 -101 94 -101q43 0 67.5 26t24.5 71v194q0 46 -27 71t-67 25q-92 0 -92 -96zM143 783l-31 7
q10 67 49.5 111t101.5 44q32 0 93 -18t93 -18q6 0 11.5 1.5t9.5 5t6.5 6t5.5 9.5t4 10t3.5 12t3.5 12l30 -8l-8 -35q-19 -47 -66 -47q-31 0 -94 18t-92 18q-22 0 -40.5 -8.5t-29.5 -19t-22 -31.5t-15.5 -33t-12.5 -36zM218 767l-31 7l10 34q23 45 75 45q29 0 89 -17t88 -17
q49 0 75.5 37.5t35.5 90.5l32 -9q-9 -65 -44 -109t-99 -44q-34 0 -93.5 17t-83.5 17t-34.5 -11.5t-19.5 -40.5z" />
    <glyph glyph-name="Odieresis" unicode="&#xd6;" horiz-adv-x="702" 
d="M32 264v183q0 70 26 124.5t70.5 87.5t100 49.5t119.5 16.5t119.5 -14.5t102 -45.5t73.5 -87t27 -131v-182q0 -134 -91 -205.5t-228 -71.5q-142 0 -230.5 69.5t-88.5 206.5zM66 447v-183q0 -121 77 -181.5t208 -60.5q126 0 205.5 62.5t79.5 180.5v182q0 127 -80 185.5
t-208 58.5q-123 0 -202.5 -62t-79.5 -182zM224 264v190q0 62 33 96t93 34q53 0 90.5 -34.5t37.5 -95.5v-194q0 -58 -34 -94.5t-92 -36.5q-62 0 -95 37t-33 98zM258 454v-190q0 -101 94 -101q43 0 67.5 26t24.5 71v194q0 46 -27 71t-67 25q-92 0 -92 -96zM141 859
q0 37 26 63.5t63 26.5t63 -26.5t26 -63.5t-26 -63t-63 -26t-63 26t-26 63zM230 919q-25 0 -42 -17.5t-17 -42.5t17 -42.5t42 -17.5t42.5 17.5t17.5 42.5t-17.5 42.5t-42.5 17.5zM383 859q0 37 26 63.5t63 26.5t63 -26.5t26 -63.5t-26 -63t-63 -26t-63 26t-26 63zM472 919
q-25 0 -42 -17.5t-17 -42.5t17 -42.5t42 -17.5t42.5 17.5t17.5 42.5t-17.5 42.5t-42.5 17.5z" />
    <glyph glyph-name="multiply" unicode="&#xd7;" horiz-adv-x="620" 
d="M546 111l-198 209l199 206l24 -24l-176 -182l176 -184zM513 562l-201 -207l-205 207l23 24l182 -182l177 182zM72 527l204 -208l-198 -208l-25 25l176 183l-181 183zM312 235l-177 -183l-23 23l200 209l200 -209l-23 -23z" />
    <glyph glyph-name="Oslash" unicode="&#xd8;" horiz-adv-x="702" 
d="M470 524l-245 -354v284q0 62 33 96t93 34q52 0 87 -31zM259 454v-175l165 239q-26 32 -73 32q-92 0 -92 -96zM241 178l238 343v-261q0 -56 -40 -94t-93 -38q-45 0 -81 30zM353 163q43 0 67.5 26t24.5 71v152l-158 -228q24 -21 66 -21zM127 95l26 -27l-65 -99l-30 19
l52 76q-77 70 -77 200v183q0 70 26 124.5t70.5 87.5t100 49.5t119.5 16.5q112 0 190 -41l50 72l29 -19l-67 -96l-39 18q-68 32 -163 32q-123 0 -202.5 -62t-79.5 -182v-183q0 -109 60 -169zM175 21l-52 -75l-27 17l65 98l48 -17q63 -22 143 -22q79 0 141 23t103 79.5
t41 140.5v182q0 103 -57 163l-23 25l69 97l28 -18l-53 -76q70 -72 70 -191v-182q0 -73 -27 -128.5t-73.5 -87t-101.5 -46.5t-117 -15q-102 0 -177 33z" />
    <glyph glyph-name="Ugrave" unicode="&#xd9;" horiz-adv-x="725" 
d="M238 267v446h34v-446q0 -52 27 -79t70 -27q41 0 66 28.5t25 77.5v446h34v-446q0 -62 -34.5 -101t-90.5 -39q-58 0 -94.5 37t-36.5 103zM357 -13q-150 0 -229.5 67.5t-79.5 204.5v454h34v-454q0 -238 275 -238q125 0 205.5 63.5t80.5 179.5v449h34v-449q0 -133 -92 -205
t-228 -72zM432 778h-131l-146 184h44l118 -150h60l-73 150h38z" />
    <glyph glyph-name="Uacute" unicode="&#xda;" horiz-adv-x="725" 
d="M238 267v446h34v-446q0 -52 27 -79t70 -27q41 0 66 28.5t25 77.5v446h34v-446q0 -62 -34.5 -101t-90.5 -39q-58 0 -94.5 37t-36.5 103zM357 -13q-150 0 -229.5 67.5t-79.5 204.5v454h34v-454q0 -238 275 -238q125 0 205.5 63.5t80.5 179.5v449h34v-449q0 -133 -92 -205
t-228 -72zM430 778h-131l90 184h38l-73 -150h60l118 150h44z" />
    <glyph glyph-name="Ucircumflex" unicode="&#xdb;" horiz-adv-x="725" 
d="M238 267v446h34v-446q0 -52 27 -79t70 -27q41 0 66 28.5t25 77.5v446h34v-446q0 -62 -34.5 -101t-90.5 -39q-58 0 -94.5 37t-36.5 103zM357 -13q-150 0 -229.5 67.5t-79.5 204.5v454h34v-454q0 -238 275 -238q125 0 205.5 63.5t80.5 179.5v449h34v-449q0 -133 -92 -205
t-228 -72zM392 889l65 -110h-39l-55 93l-57 -93h-40l68 111q12 19 29 19q18 0 29 -20zM186 779h-43l152 197h144l143 -197h-42l-118 163h-110z" />
    <glyph glyph-name="Udieresis" unicode="&#xdc;" horiz-adv-x="725" 
d="M238 267v446h34v-446q0 -52 27 -79t70 -27q41 0 66 28.5t25 77.5v446h34v-446q0 -62 -34.5 -101t-90.5 -39q-58 0 -94.5 37t-36.5 103zM357 -13q-150 0 -229.5 67.5t-79.5 204.5v454h34v-454q0 -238 275 -238q125 0 205.5 63.5t80.5 179.5v449h34v-449q0 -133 -92 -205
t-228 -72zM153 859q0 37 26 63.5t63 26.5t63 -26.5t26 -63.5t-26 -63t-63 -26t-63 26t-26 63zM242 919q-25 0 -42 -17.5t-17 -42.5t17 -42.5t42 -17.5t42.5 17.5t17.5 42.5t-17.5 42.5t-42.5 17.5zM395 859q0 37 26 63.5t63 26.5t63 -26.5t26 -63.5t-26 -63t-63 -26t-63 26
t-26 63zM484 919q-25 0 -42 -17.5t-17 -42.5t17 -42.5t42 -17.5t42.5 17.5t17.5 42.5t-17.5 42.5t-42.5 17.5z" />
    <glyph glyph-name="Yacute" unicode="&#xdd;" horiz-adv-x="682" 
d="M419 0v285l225 428h40l-231 -436v-277h-34zM510 713l-159 -343l-163 343h39l124 -263l119 263h40zM262 0h-34v278l-230 435h40l224 -427v-286zM404 778h-131l90 184h38l-73 -150h60l118 150h44z" />
    <glyph glyph-name="Thorn" unicode="&#xde;" horiz-adv-x="693" 
d="M364 257h-123v210h124q52 0 82.5 -31t30.5 -74t-31.5 -74t-82.5 -31zM275 433v-142h89q37 0 58.5 21t21.5 50t-20.5 50t-58.5 21h-90zM406 552h-165v161h34v-127h131q126 0 191 -62.5t65 -151.5q0 -95 -63.5 -162.5t-192.5 -67.5h-131v-142h-34v176h165q114 0 168 57
t54 139q0 75 -55 127.5t-167 52.5zM85 0h-34v713h34v-713z" />
    <glyph glyph-name="germandbls" unicode="&#xdf;" horiz-adv-x="716" 
d="M21 417h98v-417h-34v383h-64v34zM351 123l3 35q30 -5 44 -5q35 0 53.5 16.5t18.5 44.5q0 31 -28.5 49t-84.5 18v146h23q25 11 41 37t16 55q0 69 -67 69q-36 0 -56.5 -23t-20.5 -60v-505h-34v505q0 50 30 83.5t81 33.5q49 0 75 -28t26 -75q0 -39 -21.5 -73t-55.5 -50
q-1 0 -3 -1v-82q51 -6 82 -31t31 -68q0 -44 -29 -69.5t-77 -25.5h-11q-25 3 -36 4zM472 -12q-82 0 -130 16l2 32q36 -5 36 -7q47 -7 92 -7q77 0 131.5 48.5t54.5 128.5q0 52 -32.5 94.5t-89.5 62.5q-7 2 -15 13t-8 19v5q0 9 8.5 20t16.5 13q36 9 55.5 37t19.5 66
q0 78 -66 124.5t-172 46.5q-70 0 -123 -17.5t-79.5 -45t-39 -52t-14.5 -47.5l-3 -45h-95v34h64v6q0 29 14.5 61t45.5 64.5t91 54t139 21.5q115 0 193.5 -54t78.5 -151q0 -48 -26 -85.5t-74 -50.5v-5q66 -23 105.5 -74t39.5 -115q0 -96 -65 -153.5t-155 -57.5z" />
    <glyph glyph-name="agrave" unicode="&#xe0;" horiz-adv-x="604" 
d="M316 261h71v-68q0 -47 -32 -73t-65 -26q-47 0 -67.5 24t-20.5 58q0 49 41 71q26 14 73 14zM290 128q21 0 42 17.5t21 47.5v34h-37q-80 0 -80 -51q0 -48 54 -48zM75 385v-40h-35v24q0 84 76 133t189 49q106 0 181 -50t75 -149v-230q0 -41 9 -122h-35l-4 40q-4 46 -4 82
v230q0 80 -62.5 122.5t-159.5 42.5t-159.5 -36.5t-70.5 -95.5zM195 -12q-75 0 -122.5 39.5t-47.5 112.5q0 53 27.5 91t72.5 57t89.5 27t92.5 8h46v35q0 24 -17 39.5t-49 15.5q-35 0 -49 -17t-14 -39v-12h-31q0 37 1 39q16 63 93 63q45 0 72.5 -24.5t27.5 -64.5v-69h-80
q-102 0 -169 -32q-79 -38 -79 -117q0 -57 36.5 -87.5t99.5 -30.5q38 0 78.5 15t62.5 51q2 4 13 10t16 6h6q12 0 22 -9.5t12 -21.5l6 -73h-34l-6 70h-6q-28 -46 -77 -64t-93 -18zM376 593h-131l-146 184h44l118 -150h60l-73 150h38z" />
    <glyph glyph-name="aacute" unicode="&#xe1;" horiz-adv-x="604" 
d="M316 261h71v-68q0 -47 -32 -73t-65 -26q-47 0 -67.5 24t-20.5 58q0 49 41 71q26 14 73 14zM290 128q21 0 42 17.5t21 47.5v34h-37q-80 0 -80 -51q0 -48 54 -48zM75 385v-40h-35v24q0 84 76 133t189 49q106 0 181 -50t75 -149v-230q0 -41 9 -122h-35l-4 40q-4 46 -4 82
v230q0 80 -62.5 122.5t-159.5 42.5t-159.5 -36.5t-70.5 -95.5zM195 -12q-75 0 -122.5 39.5t-47.5 112.5q0 53 27.5 91t72.5 57t89.5 27t92.5 8h46v35q0 24 -17 39.5t-49 15.5q-35 0 -49 -17t-14 -39v-12h-31q0 37 1 39q16 63 93 63q45 0 72.5 -24.5t27.5 -64.5v-69h-80
q-102 0 -169 -32q-79 -38 -79 -117q0 -57 36.5 -87.5t99.5 -30.5q38 0 78.5 15t62.5 51q2 4 13 10t16 6h6q12 0 22 -9.5t12 -21.5l6 -73h-34l-6 70h-6q-28 -46 -77 -64t-93 -18zM376 593h-131l90 184h38l-73 -150h60l118 150h44z" />
    <glyph glyph-name="acircumflex" unicode="&#xe2;" horiz-adv-x="604" 
d="M316 261h71v-68q0 -47 -32 -73t-65 -26q-47 0 -67.5 24t-20.5 58q0 49 41 71q26 14 73 14zM290 128q21 0 42 17.5t21 47.5v34h-37q-80 0 -80 -51q0 -48 54 -48zM75 385v-40h-35v24q0 84 76 133t189 49q106 0 181 -50t75 -149v-230q0 -41 9 -122h-35l-4 40q-4 46 -4 82
v230q0 80 -62.5 122.5t-159.5 42.5t-159.5 -36.5t-70.5 -95.5zM195 -12q-75 0 -122.5 39.5t-47.5 112.5q0 53 27.5 91t72.5 57t89.5 27t92.5 8h46v35q0 24 -17 39.5t-49 15.5q-35 0 -49 -17t-14 -39v-12h-31q0 37 1 39q16 63 93 63q45 0 72.5 -24.5t27.5 -64.5v-69h-80
q-102 0 -169 -32q-79 -38 -79 -117q0 -57 36.5 -87.5t99.5 -30.5q38 0 78.5 15t62.5 51q2 4 13 10t16 6h6q12 0 22 -9.5t12 -21.5l6 -73h-34l-6 70h-6q-28 -46 -77 -64t-93 -18zM331 704l65 -110h-39l-55 93l-57 -93h-40l68 111q12 19 29 19q18 0 29 -20zM125 594h-43
l152 197h144l143 -197h-42l-118 163h-110z" />
    <glyph glyph-name="atilde" unicode="&#xe3;" horiz-adv-x="604" 
d="M316 261h71v-68q0 -47 -32 -73t-65 -26q-47 0 -67.5 24t-20.5 58q0 49 41 71q26 14 73 14zM290 128q21 0 42 17.5t21 47.5v34h-37q-80 0 -80 -51q0 -48 54 -48zM75 385v-40h-35v24q0 84 76 133t189 49q106 0 181 -50t75 -149v-230q0 -41 9 -122h-35l-4 40q-4 46 -4 82
v230q0 80 -62.5 122.5t-159.5 42.5t-159.5 -36.5t-70.5 -95.5zM195 -12q-75 0 -122.5 39.5t-47.5 112.5q0 53 27.5 91t72.5 57t89.5 27t92.5 8h46v35q0 24 -17 39.5t-49 15.5q-35 0 -49 -17t-14 -39v-12h-31q0 37 1 39q16 63 93 63q45 0 72.5 -24.5t27.5 -64.5v-69h-80
q-102 0 -169 -32q-79 -38 -79 -117q0 -57 36.5 -87.5t99.5 -30.5q38 0 78.5 15t62.5 51q2 4 13 10t16 6h6q12 0 22 -9.5t12 -21.5l6 -73h-34l-6 70h-6q-28 -46 -77 -64t-93 -18zM94 598l-31 7q10 67 49.5 111t101.5 44q32 0 93 -18t93 -18q6 0 11.5 1.5t9.5 5t6.5 6t5.5 9.5
t4 10t3.5 12t3.5 12l30 -8l-8 -35q-19 -47 -66 -47q-31 0 -94 18t-92 18q-22 0 -40.5 -8.5t-29.5 -19t-22 -31.5t-15.5 -33t-12.5 -36zM169 582l-31 7l10 34q22 45 75 45q29 0 89 -17t88 -17q49 0 75.5 37.5t35.5 90.5l32 -9q-9 -65 -44 -109t-99 -44q-34 0 -93.5 17
t-83.5 17t-34.5 -11.5t-19.5 -40.5z" />
    <glyph glyph-name="adieresis" unicode="&#xe4;" horiz-adv-x="604" 
d="M316 261h71v-68q0 -47 -32 -73t-65 -26q-47 0 -67.5 24t-20.5 58q0 49 41 71q26 14 73 14zM290 128q21 0 42 17.5t21 47.5v34h-37q-80 0 -80 -51q0 -48 54 -48zM75 385v-40h-35v24q0 84 76 133t189 49q106 0 181 -50t75 -149v-230q0 -41 9 -122h-35l-4 40q-4 46 -4 82
v230q0 80 -62.5 122.5t-159.5 42.5t-159.5 -36.5t-70.5 -95.5zM195 -12q-75 0 -122.5 39.5t-47.5 112.5q0 53 27.5 91t72.5 57t89.5 27t92.5 8h46v35q0 24 -17 39.5t-49 15.5q-35 0 -49 -17t-14 -39v-12h-31q0 37 1 39q16 63 93 63q45 0 72.5 -24.5t27.5 -64.5v-69h-80
q-102 0 -169 -32q-79 -38 -79 -117q0 -57 36.5 -87.5t99.5 -30.5q38 0 78.5 15t62.5 51q2 4 13 10t16 6h6q12 0 22 -9.5t12 -21.5l6 -73h-34l-6 70h-6q-28 -46 -77 -64t-93 -18zM92 674q0 37 26 63.5t63 26.5t63 -26.5t26 -63.5t-26 -63t-63 -26t-63 26t-26 63zM181 734
q-25 0 -42 -17.5t-17 -42.5t17 -42.5t42 -17.5t42.5 17.5t17.5 42.5t-17.5 42.5t-42.5 17.5zM334 674q0 37 26 63.5t63 26.5t63 -26.5t26 -63.5t-26 -63t-63 -26t-63 26t-26 63zM423 734q-25 0 -42 -17.5t-17 -42.5t17 -42.5t42 -17.5t42.5 17.5t17.5 42.5t-17.5 42.5
t-42.5 17.5z" />
    <glyph glyph-name="aring" unicode="&#xe5;" horiz-adv-x="604" 
d="M316 261h71v-68q0 -47 -32 -73t-65 -26q-47 0 -67.5 24t-20.5 58q0 49 41 71q26 14 73 14zM290 128q21 0 42 17.5t21 47.5v34h-37q-80 0 -80 -51q0 -48 54 -48zM75 385v-40h-35v24q0 84 76 133t189 49q106 0 181 -50t75 -149v-230q0 -41 9 -122h-35l-4 40q-4 46 -4 82
v230q0 80 -62.5 122.5t-159.5 42.5t-159.5 -36.5t-70.5 -95.5zM195 -12q-75 0 -122.5 39.5t-47.5 112.5q0 53 27.5 91t72.5 57t89.5 27t92.5 8h46v35q0 24 -17 39.5t-49 15.5q-35 0 -49 -17t-14 -39v-12h-31q0 37 1 39q16 63 93 63q45 0 72.5 -24.5t27.5 -64.5v-69h-80
q-102 0 -169 -32q-79 -38 -79 -117q0 -57 36.5 -87.5t99.5 -30.5q38 0 78.5 15t62.5 51q2 4 13 10t16 6h6q12 0 22 -9.5t12 -21.5l6 -73h-34l-6 70h-6q-28 -46 -77 -64t-93 -18zM194 700q0 45 31.5 77t76.5 32t76.5 -32t31.5 -77t-31.5 -76.5t-76.5 -31.5t-76.5 31.5
t-31.5 76.5zM302 773q-30 0 -51 -21t-21 -52q0 -30 21 -51t51 -21t51 21t21 51q0 31 -21 52t-51 21z" />
    <glyph glyph-name="ae" unicode="&#xe6;" horiz-adv-x="910" 
d="M316 261h71v-68q0 -47 -32 -73t-65 -26q-47 0 -67.5 24t-20.5 58q0 49 41 71q26 14 73 14zM290 128q21 0 42 17.5t21 47.5v34h-37q-80 0 -80 -51q0 -48 54 -48zM717 340v-45h-190v55q0 42 26 69t68 27t69 -26t27 -70v-10zM561 350v-21h122v21q0 29 -17 45.5t-45 16.5
q-27 0 -43.5 -17t-16.5 -45zM73 345h-33v24q0 84 76 133t189 49q97 0 163 -39q69 40 161 40q103 0 174 -59.5t71 -166.5v-104h-313v-15q0 -37 32 -53.5t72 -16.5q59 0 162 30l8 -31l-35 -11q-86 -22 -135 -22t-84 18q-54 29 -54 86v49h313v70q0 90 -60 141t-151 51
q-71 0 -129 -27l-34 -17l-15 9q-59 34 -146 34q-98 0 -161 -38t-69 -97q0 -13 -2 -37zM629 -13q-167 0 -237 96q-61 -95 -197 -95q-75 0 -122.5 39.5t-47.5 112.5q0 53 27.5 91t72.5 57t89.5 27t92.5 8h46v35q0 24 -17 39.5t-49 15.5q-35 0 -49 -17t-14 -39v-12h-34
q3 36 3 37q18 65 94 65q45 0 72.5 -24.5t27.5 -64.5v-69h-80q-102 0 -169 -32q-79 -38 -79 -117q0 -57 36.5 -87.5t99.5 -30.5q117 0 168 79l26 40l35 -43q62 -77 205 -77q99 0 189 34l34 11l8 -31q-110 -48 -231 -48z" />
    <glyph glyph-name="ccedilla" unicode="&#xe7;" horiz-adv-x="584" 
d="M282 -232q-56 0 -122 15v81q71 -16 113 -16q39 0 39 24q0 4 -1.5 7t-4 4.5t-5.5 3t-7.5 2.5t-7.5 1.5t-8 1t-7 0.5l-56 3l24 95q-93 12 -154.5 65t-61.5 153v110q0 60 24 106.5t64 73.5t86.5 40.5t95.5 13.5q108 0 184 -51t76 -140v-34h-34v38q0 68 -64.5 110.5
t-161.5 42.5t-166.5 -51.5t-69.5 -148.5v-110q0 -83 53 -129t137 -56l22 -1l-28 -107q54 -4 63 -7q29 -8 29 -36q0 -45 -60 -45q-30 0 -92 11v-38q58 -11 101 -11q65 0 104.5 23.5t39.5 61.5q0 33 -36 47q-29 12 -81 12h-27l21 88h22q88 7 141 46.5t53 102.5v42h34v-42
q0 -83 -68 -130t-168 -52l-8 -34h7q131 0 131 -80q0 -51 -48 -78.5t-117 -27.5zM385 365v-38h-33v21q0 58 -56 58q-63 0 -63 -66v-139q0 -68 63 -68q56 0 56 58v21h33v-37q0 -35 -26 -55.5t-63 -20.5q-46 0 -71.5 28t-25.5 74v139q0 46 26 73t71 27q35 0 62 -21t27 -54z" />
    <glyph glyph-name="egrave" unicode="&#xe8;" horiz-adv-x="582" 
d="M395 350v-55h-190v55q0 42 26 69t68 27t69 -26t27 -70zM239 350v-21h122v21q0 29 -17 45.5t-45 16.5q-27 0 -43.5 -17t-16.5 -45zM307 -13q-54 0 -101.5 12t-88 37t-64 70t-23.5 104v95q0 63 24 112t64.5 77.5t88.5 43t100 14.5q103 0 174 -59.5t71 -166.5v-104h-313v-15
q0 -37 32 -53.5t72 -16.5q59 0 162 30l8 -32q-5 -1 -13.5 -3.5l-15.5 -4.5l-6 -2q-84 -22 -135 -22q-53 0 -95.5 25.5t-42.5 78.5v49h313v70q0 90 -60 141t-151 51q-102 0 -172.5 -54t-70.5 -159v-95q0 -96 67.5 -142.5t175.5 -46.5q97 0 188 33l7 2q6 3 15 5.5t13 4.5
l8 -31q-110 -48 -231 -48zM369 593h-131l-146 184h44l118 -150h60l-73 150h38z" />
    <glyph glyph-name="eacute" unicode="&#xe9;" horiz-adv-x="582" 
d="M395 350v-55h-190v55q0 42 26 69t68 27t69 -26t27 -70zM239 350v-21h122v21q0 29 -17 45.5t-45 16.5q-27 0 -43.5 -17t-16.5 -45zM307 -13q-54 0 -101.5 12t-88 37t-64 70t-23.5 104v95q0 63 24 112t64.5 77.5t88.5 43t100 14.5q103 0 174 -59.5t71 -166.5v-104h-313v-15
q0 -37 32 -53.5t72 -16.5q59 0 162 30l8 -32q-5 -1 -13.5 -3.5l-15.5 -4.5l-6 -2q-84 -22 -135 -22q-53 0 -95.5 25.5t-42.5 78.5v49h313v70q0 90 -60 141t-151 51q-102 0 -172.5 -54t-70.5 -159v-95q0 -96 67.5 -142.5t175.5 -46.5q97 0 188 33l7 2q6 3 15 5.5t13 4.5
l8 -31q-110 -48 -231 -48zM337 593h-131l90 184h38l-73 -150h60l118 150h44z" />
    <glyph glyph-name="ecircumflex" unicode="&#xea;" horiz-adv-x="582" 
d="M395 350v-55h-190v55q0 42 26 69t68 27t69 -26t27 -70zM239 350v-21h122v21q0 29 -17 45.5t-45 16.5q-27 0 -43.5 -17t-16.5 -45zM307 -13q-54 0 -101.5 12t-88 37t-64 70t-23.5 104v95q0 63 24 112t64.5 77.5t88.5 43t100 14.5q103 0 174 -59.5t71 -166.5v-104h-313v-15
q0 -37 32 -53.5t72 -16.5q59 0 162 30l8 -32q-5 -1 -13.5 -3.5l-15.5 -4.5l-6 -2q-84 -22 -135 -22q-53 0 -95.5 25.5t-42.5 78.5v49h313v70q0 90 -60 141t-151 51q-102 0 -172.5 -54t-70.5 -159v-95q0 -96 67.5 -142.5t175.5 -46.5q97 0 188 33l7 2q6 3 15 5.5t13 4.5
l8 -31q-110 -48 -231 -48zM330 704l65 -110h-39l-55 93l-57 -93h-40l68 111q12 19 29 19q18 0 29 -20zM124 594h-43l152 197h144l143 -197h-42l-118 163h-110z" />
    <glyph glyph-name="edieresis" unicode="&#xeb;" horiz-adv-x="582" 
d="M395 350v-55h-190v55q0 42 26 69t68 27t69 -26t27 -70zM239 350v-21h122v21q0 29 -17 45.5t-45 16.5q-27 0 -43.5 -17t-16.5 -45zM307 -13q-54 0 -101.5 12t-88 37t-64 70t-23.5 104v95q0 63 24 112t64.5 77.5t88.5 43t100 14.5q103 0 174 -59.5t71 -166.5v-104h-313v-15
q0 -37 32 -53.5t72 -16.5q59 0 162 30l8 -32q-5 -1 -13.5 -3.5l-15.5 -4.5l-6 -2q-84 -22 -135 -22q-53 0 -95.5 25.5t-42.5 78.5v49h313v70q0 90 -60 141t-151 51q-102 0 -172.5 -54t-70.5 -159v-95q0 -96 67.5 -142.5t175.5 -46.5q97 0 188 33l7 2q6 3 15 5.5t13 4.5
l8 -31q-110 -48 -231 -48zM81 674q0 37 26 63.5t63 26.5t63 -26.5t26 -63.5t-26 -63t-63 -26t-63 26t-26 63zM170 734q-25 0 -42 -17.5t-17 -42.5t17 -42.5t42 -17.5t42.5 17.5t17.5 42.5t-17.5 42.5t-42.5 17.5zM323 674q0 37 26 63.5t63 26.5t63 -26.5t26 -63.5t-26 -63
t-63 -26t-63 26t-26 63zM412 734q-25 0 -42 -17.5t-17 -42.5t17 -42.5t42 -17.5t42.5 17.5t17.5 42.5t-17.5 42.5t-42.5 17.5z" />
    <glyph glyph-name="igrave" unicode="&#xec;" horiz-adv-x="300" 
d="M220 0v539h34v-539h-34zM80 0h-34v539h34v-539zM220 593h-131l-146 184h44l118 -150h60l-73 150h38z" />
    <glyph glyph-name="iacute" unicode="&#xed;" horiz-adv-x="300" 
d="M220 0v539h34v-539h-34zM80 0h-34v539h34v-539zM212 593h-131l90 184h38l-73 -150h60l118 150h44z" />
    <glyph glyph-name="icircumflex" unicode="&#xee;" horiz-adv-x="300" 
d="M220 0v539h34v-539h-34zM80 0h-34v539h34v-539zM180 704l65 -110h-39l-55 93l-57 -93h-40l68 111q12 19 29 19q18 0 29 -20zM-26 594h-43l152 197h144l143 -197h-42l-118 163h-110z" />
    <glyph glyph-name="idieresis" unicode="&#xef;" horiz-adv-x="300" 
d="M220 0v539h34v-539h-34zM80 0h-34v539h34v-539zM-59 674q0 37 26 63.5t63 26.5t63 -26.5t26 -63.5t-26 -63t-63 -26t-63 26t-26 63zM30 734q-25 0 -42 -17.5t-17 -42.5t17 -42.5t42 -17.5t42.5 17.5t17.5 42.5t-17.5 42.5t-42.5 17.5zM183 674q0 37 26 63.5t63 26.5
t63 -26.5t26 -63.5t-26 -63t-63 -26t-63 26t-26 63zM272 734q-25 0 -42 -17.5t-17 -42.5t17 -42.5t42 -17.5t42.5 17.5t17.5 42.5t-17.5 42.5t-42.5 17.5z" />
    <glyph glyph-name="eth" unicode="&#xf0;" 
d="M394 299v-98q0 -41 -23 -70.5t-70 -29.5t-71 27.5t-24 70.5v97q0 42 23 74t71 32q43 0 68.5 -30.5t25.5 -72.5zM301 135q59 0 59 66v98q0 30 -16.5 49.5t-43.5 19.5q-30 0 -45 -20t-15 -52v-97q0 -64 61 -64zM451 685l-137 -37l-70 93l38 6l45 -60l106 29zM104 719
l81 -106l-115 -33l-18 31l76 21l-62 81zM300 -12q-41 0 -77.5 6t-72.5 22t-62 40t-42 63.5t-16 89.5v74q0 94 47.5 153.5t136.5 69.5l9 1l-28 39l-91 -25l-18 30l123 34l75 -105l-66 -8q-75 -8 -114.5 -57.5t-39.5 -131.5v-74q0 -68 34.5 -111.5t85 -59.5t116.5 -16
q99 0 167.5 46.5t68.5 141.5v77q0 68 -44 125l-156 207l132 37l17 -30l-92 -26l126 -167q51 -66 51 -146v-77q0 -59 -24.5 -104t-64.5 -69.5t-86 -36.5t-95 -12z" />
    <glyph glyph-name="ntilde" unicode="&#xf1;" horiz-adv-x="632" 
d="M418 317v-317h-34v317q0 79 -66 79q-26 0 -45 -23.5t-19 -66.5v-306h-34v306q0 54 27.5 89t70.5 35q32 0 54 -12.5t31 -33.5t12 -36t3 -31zM255 441l-39 -36v134h34v-69q68 82 176 82q65 0 115.5 -38t50.5 -115v-399h-34v399q0 60 -39 89.5t-93 29.5q-47 0 -85 -17
t-86 -60zM80 0h-34v539h34v-539zM108 598l-31 7q10 67 49.5 111t101.5 44q32 0 93 -18t93 -18q6 0 11.5 1.5t9.5 5t6.5 6t5.5 9.5t4 10t3.5 12t3.5 12l30 -8l-8 -35q-19 -47 -66 -47q-31 0 -94 18t-92 18q-22 0 -40.5 -8.5t-29.5 -19t-22 -31.5t-15.5 -33t-12.5 -36z
M183 582l-31 7l10 34q22 45 75 45q29 0 89 -17t88 -17q49 0 75.5 37.5t35.5 90.5l32 -9q-9 -65 -44 -109t-99 -44q-34 0 -93.5 17t-83.5 17t-34.5 -11.5t-19.5 -40.5z" />
    <glyph glyph-name="ograve" unicode="&#xf2;" 
d="M30 209v110q0 115 78.5 174t188.5 59q52 0 98 -12t86.5 -37t64.5 -71.5t24 -108.5v-113q0 -108 -80 -165t-190 -57q-115 0 -192.5 54.5t-77.5 166.5zM64 319v-110q0 -95 65 -141t171 -46q101 0 168.5 48t67.5 140v113q0 69 -35 114t-86.5 63t-117.5 18
q-100 0 -166.5 -50.5t-66.5 -148.5zM206 199v133q0 42 23 74t71 32q43 0 68.5 -30.5t25.5 -72.5v-134q0 -43 -24 -71.5t-69 -28.5q-46 0 -70.5 27.5t-24.5 70.5zM240 332v-133q0 -64 61 -64q29 0 44 18t15 48v134q0 30 -16.5 49.5t-43.5 19.5q-30 0 -45 -20t-15 -52z
M380 593h-131l-146 184h44l118 -150h60l-73 150h38z" />
    <glyph glyph-name="oacute" unicode="&#xf3;" 
d="M30 209v110q0 115 78.5 174t188.5 59q52 0 98 -12t86.5 -37t64.5 -71.5t24 -108.5v-113q0 -108 -80 -165t-190 -57q-115 0 -192.5 54.5t-77.5 166.5zM64 319v-110q0 -95 65 -141t171 -46q101 0 168.5 48t67.5 140v113q0 69 -35 114t-86.5 63t-117.5 18
q-100 0 -166.5 -50.5t-66.5 -148.5zM206 199v133q0 42 23 74t71 32q43 0 68.5 -30.5t25.5 -72.5v-134q0 -43 -24 -71.5t-69 -28.5q-46 0 -70.5 27.5t-24.5 70.5zM240 332v-133q0 -64 61 -64q29 0 44 18t15 48v134q0 30 -16.5 49.5t-43.5 19.5q-30 0 -45 -20t-15 -52z
M351 593h-131l90 184h38l-73 -150h60l118 150h44z" />
    <glyph glyph-name="ocircumflex" unicode="&#xf4;" 
d="M30 209v110q0 115 78.5 174t188.5 59q52 0 98 -12t86.5 -37t64.5 -71.5t24 -108.5v-113q0 -108 -80 -165t-190 -57q-115 0 -192.5 54.5t-77.5 166.5zM64 319v-110q0 -95 65 -141t171 -46q101 0 168.5 48t67.5 140v113q0 69 -35 114t-86.5 63t-117.5 18
q-100 0 -166.5 -50.5t-66.5 -148.5zM206 199v133q0 42 23 74t71 32q43 0 68.5 -30.5t25.5 -72.5v-134q0 -43 -24 -71.5t-69 -28.5q-46 0 -70.5 27.5t-24.5 70.5zM240 332v-133q0 -64 61 -64q29 0 44 18t15 48v134q0 30 -16.5 49.5t-43.5 19.5q-30 0 -45 -20t-15 -52z
M329 704l65 -110h-39l-55 93l-57 -93h-40l68 111q12 19 29 19q18 0 29 -20zM123 594h-43l152 197h144l143 -197h-42l-118 163h-110z" />
    <glyph glyph-name="otilde" unicode="&#xf5;" 
d="M30 209v110q0 115 78.5 174t188.5 59q52 0 98 -12t86.5 -37t64.5 -71.5t24 -108.5v-113q0 -108 -80 -165t-190 -57q-115 0 -192.5 54.5t-77.5 166.5zM64 319v-110q0 -95 65 -141t171 -46q101 0 168.5 48t67.5 140v113q0 69 -35 114t-86.5 63t-117.5 18
q-100 0 -166.5 -50.5t-66.5 -148.5zM206 199v133q0 42 23 74t71 32q43 0 68.5 -30.5t25.5 -72.5v-134q0 -43 -24 -71.5t-69 -28.5q-46 0 -70.5 27.5t-24.5 70.5zM240 332v-133q0 -64 61 -64q29 0 44 18t15 48v134q0 30 -16.5 49.5t-43.5 19.5q-30 0 -45 -20t-15 -52zM92 598
l-31 7q10 67 49.5 111t101.5 44q32 0 93 -18t93 -18q6 0 11.5 1.5t9.5 5t6.5 6t5.5 9.5t4 10t3.5 12t3.5 12l30 -8l-8 -35q-19 -47 -66 -47q-31 0 -94 18t-92 18q-22 0 -40.5 -8.5t-29.5 -19t-22 -31.5t-15.5 -33t-12.5 -36zM167 582l-31 7l10 34q22 45 75 45q29 0 89 -17
t88 -17q49 0 75.5 37.5t35.5 90.5l32 -9q-9 -65 -44 -109t-99 -44q-34 0 -93.5 17t-83.5 17t-34.5 -11.5t-19.5 -40.5z" />
    </font>
</defs>
</svg>
