<?xml version="1.0" encoding="utf-8"?>
<!-- Generator: Adobe Illustrator 16.0.0, SVG Export Plug-In . SVG Version: 6.00 Build 0)  -->
<!DOCTYPE svg PUBLIC "-//W3C//DTD SVG 1.1//EN" "http://www.w3.org/Graphics/SVG/1.1/DTD/svg11.dtd">
<svg version="1.1" id="Layer_1" xmlns="http://www.w3.org/2000/svg" xmlns:xlink="http://www.w3.org/1999/xlink" x="0px" y="0px"
	 width="385px" height="130.806px" viewBox="0 0 385 130.806" enable-background="new 0 0 385 130.806" xml:space="preserve">
<g>
	<path fill="#666666" d="M157.344,84.611l17.42-18.554L141,30.106v49.779C146,80.436,151.509,82.152,157.344,84.611z"/>
	<path fill="#999999" d="M132.978,79.649c2.332-0.003,4.638,0.039,4.702,0.039c1.078,0,2.188,0.072,3.32,0.197V30.106l-0.242-0.297
		l-43.159,46.01l-28.362,30.208c21.223-12.284,43.246-26.406,59.13-26.406C128.43,79.621,130.525,79.646,132.978,79.649z"/>
	<path fill="#666666" d="M261.24,83.794c0.052,0,1.76,0.002,3.76,0.004c1.9-0.002,3.781-0.004,3.833-0.004
		c21.441,0,56.66,31.437,79.877,35.487l-54.842-58.363L237,0.393v91.285C245.935,87.091,254.307,83.794,261.24,83.794z"/>
	<path fill="#999999" d="M204.178,110.194c10.771-5.782,22.193-13.061,32.822-18.517V0.393L236.706,0l-57.117,60.918l-4.825,5.139
		l-17.42,18.554C171.911,90.751,188.493,101.498,204.178,110.194z"/>
	<path fill="#CCCCCC" d="M173.997,119.806c0.847-0.059,1.779-0.092,2.822-0.092c7.735,0,17.258-4.098,27.358-9.52
		c-15.685-8.696-32.267-19.443-46.834-25.583C151.509,82.152,146,80.436,141,79.885c-1.133-0.125-2.242-0.197-3.32-0.197
		c-0.063,0-2.37-0.042-4.702-0.039c-2.453-0.003-4.548-0.028-4.611-0.028c-15.885,0-37.907,14.122-59.13,26.406
		c-9.331,5.4-18.507,10.445-26.939,13.778H173.997z"/>
	<path fill="#E6E6E6" d="M379.5,119.806h-23.351c-0.847-0.059-1.779-0.092-2.822-0.092c-1.476,0-3.02-0.154-4.617-0.433
		c-23.217-4.05-58.436-35.487-79.877-35.487c-0.052,0-1.933,0.002-3.833,0.004c-2-0.002-3.708-0.004-3.76-0.004
		c-6.934,0-15.306,3.297-24.24,7.884c-10.629,5.456-22.052,12.735-32.822,18.517c-10.101,5.422-19.623,9.52-27.358,9.52
		c-1.043,0-1.976,0.033-2.822,0.092H42.298H5.5c-3.038,0-5.5,2.463-5.5,5.5s2.462,5.5,5.5,5.5h374c3.037,0,5.5-2.463,5.5-5.5
		S382.537,119.806,379.5,119.806z"/>
</g>
</svg>
