<?xml version="1.0" encoding="utf-8"?>
<!-- Generator: Adobe Illustrator 16.0.0, SVG Export Plug-In . SVG Version: 6.00 Build 0)  -->
<!DOCTYPE svg PUBLIC "-//W3C//DTD SVG 1.1//EN" "http://www.w3.org/Graphics/SVG/1.1/DTD/svg11.dtd">
<svg version="1.1" id="Layer_1" xmlns="http://www.w3.org/2000/svg" xmlns:xlink="http://www.w3.org/1999/xlink" x="0px" y="0px"
	 width="237.947px" height="45.263px" viewBox="0 0 237.947 45.263" enable-background="new 0 0 237.947 45.263"
	 xml:space="preserve">
<g>
	<g>
		
			<rect x="46.258" y="-13.017" transform="matrix(-0.2611 -0.9653 0.9653 -0.2611 39.3189 75.4634)" fill="#FFFFFF" width="4.565" height="71.4"/>
		
			<rect x="83.646" y="20.297" transform="matrix(-0.9654 -0.2609 0.2609 -0.9654 228.6707 75.5113)" fill="#FFFFFF" width="71.4" height="4.567"/>
		
			<rect x="154.451" y="20.4" transform="matrix(0.9654 -0.2609 0.2609 0.9654 0.6669 50.3897)" fill="#FFFFFF" width="71.4" height="4.564"/>
	</g>
	<g>
		<path fill="#FFDE00" d="M14.349,19.624C7.293,18.802,0.907,23.859,0.087,30.912c-0.819,7.055,4.236,13.445,11.292,14.265
			c7.058,0.821,13.444-4.24,14.265-11.294C26.462,26.83,21.406,20.443,14.349,19.624z"/>
		<circle fill="#FFDE00" cx="225.082" cy="12.864" r="12.862"/>
		<circle fill="#FFDE00" cx="83.471" cy="12.864" r="12.862"/>
		<path fill="#FFDE00" d="M152.792,19.624c-7.057,0.819-12.112,7.206-11.292,14.26c0.819,7.053,7.206,12.114,14.262,11.293
			c7.058-0.819,12.113-7.21,11.293-14.263C166.235,23.859,159.848,18.802,152.792,19.624z"/>
	</g>
</g>
<g id="Town">
</g>
<g id="Town_1_">
</g>
<g id="Town_4_">
</g>
<g id="Town_2_">
</g>
<g id="Town_3_">
</g>
</svg>
