<?xml version="1.0" encoding="utf-8"?>
<!-- Generator: Adobe Illustrator 16.0.0, SVG Export Plug-In . SVG Version: 6.00 Build 0)  -->
<!DOCTYPE svg PUBLIC "-//W3C//DTD SVG 1.1//EN" "http://www.w3.org/Graphics/SVG/1.1/DTD/svg11.dtd">
<svg version="1.1" id="Layer_1" xmlns="http://www.w3.org/2000/svg" xmlns:xlink="http://www.w3.org/1999/xlink" x="0px" y="0px"
	 width="541px" height="313px" viewBox="0 0 541 313" enable-background="new 0 0 541 313" xml:space="preserve">
<g>
	<g>
		<path fill="#86782A" d="M271,1C121.883,1,1,70.843,1,157c0,86.156,120.883,156,270,156c149.117,0,270-69.844,270-156
			C541,70.843,420.117,1,271,1z M145.428,122.914c1.519,2.175,3.698,4.23,6.535,6.164c2.835,1.93,6.287,3.74,10.355,5.426
			c4.069,1.686,8.65,3.346,13.747,4.992c9.533,3.041,18.04,6.408,25.52,10.107c7.479,3.697,13.787,7.93,18.926,12.697
			c5.135,4.768,9.039,10.154,11.711,16.152c2.672,6,4.008,12.781,4.008,20.342c0,8.059-1.584,15.226-4.748,21.515
			s-7.643,11.569-13.437,15.845c-5.795,4.273-12.781,7.521-20.96,9.74c-8.178,2.219-17.279,3.329-27.309,3.329
			c-6.163,0-12.287-0.507-18.369-1.534c-6.083-1.023-11.896-2.594-17.444-4.729c-5.547-2.139-10.727-4.801-15.534-8.051
			c-4.81-3.246-8.96-7.072-12.452-11.596c-3.496-4.518-6.249-9.545-8.261-15.299C95.701,202.26,94.694,196,94.694,189h43.398
			c0,5,0.698,9.461,2.097,13.035c1.396,3.576,3.451,6.254,6.164,8.473c2.712,2.219,6.019,3.801,9.924,4.744
			c3.902,0.947,8.403,1.422,13.499,1.422c4.109,0,7.623-0.475,10.543-1.422c2.915-0.943,5.32-2.219,7.211-3.82
			s3.269-3.471,4.131-5.609c0.863-2.137,1.295-4.395,1.295-6.781c0-2.795-0.392-5.318-1.172-7.582
			c-0.783-2.258-2.324-4.395-4.623-6.412c-2.301-2.01-5.528-4.004-9.678-5.98c-4.151-1.971-9.597-4.064-16.336-6.283
			c-7.89-2.633-15.494-5.59-22.808-8.877c-7.315-3.287-13.808-7.191-19.479-11.713c-5.672-4.52-10.214-9.8-13.624-15.843
			c-3.411-6.043-5.117-13.089-5.117-21.144c0-7.725,1.726-14.689,5.179-20.894c3.452-6.204,8.261-11.481,14.425-15.839
			c6.164-4.357,13.457-7.717,21.883-10.105c8.425-2.379,17.608-3.555,27.555-3.555c9.779,0,18.78,1.347,26.999,3.974
			c8.219,2.629,15.29,6.431,21.206,11.279c5.918,4.855,10.543,10.831,13.871,17.692c3.328,6.867,4.992,14.241,4.992,23.241h-43.151
			c0-4-0.514-6.716-1.541-9.553s-2.589-5.508-4.685-7.522s-4.684-3.595-7.768-4.743c-3.082-1.156-6.718-1.729-10.909-1.729
			c-4.111,0-7.727,0.478-10.851,1.417c-3.124,0.947-5.732,2.263-7.827,3.948c-2.097,1.685-3.68,3.616-4.747,5.794
			c-1.069,2.176-1.604,4.499-1.604,6.967C143.146,118.291,143.907,120.735,145.428,122.914z M379,101h-77v41h70v33h-70v72h-43V67
			h120V101z M448,127v1v6v1v6c0,2.762-2.641,5-5.402,5H442v18h-6v4h3v16h-7v4h3v39h-8v19h-0.428l-3.988,4.49l-4.012-4.49H419v-19h-8
			v-39h3v-4h-7v-16h3v-4h-6v-18h-1.402c-2.762,0-4.598-2.238-4.598-5v-6v-1v-6v-1v-6c0-2.762,1.836-5,4.598-5H404v-2v-2v-2v-4
			c0-1.104,0.493-2,1.598-2h1.723h0.981c0.699,0,1.266-0.655,1.266-1.5s-0.566-1.5-1.266-1.5h-1.681h-0.002h-0.002h-1.681h-0.001
			h-0.006c-0.146,0-0.285-0.035-0.416-0.088c-0.007-0.002-0.014-0.004-0.02-0.007c-0.483-0.207-0.83-0.745-0.83-1.405
			c0-0.289,0.07-0.553,0.185-0.777c0.005-0.009,0.007-0.018,0.012-0.025c0.067-0.128,0.152-0.24,0.249-0.337
			c0.016-0.017,0.031-0.032,0.049-0.048c0.099-0.089,0.207-0.162,0.324-0.214c0.017-0.007,0.033-0.012,0.051-0.019
			c0.125-0.048,0.257-0.08,0.396-0.08h0.006h0.001h1.681h0.002h0.002h1.479c0.701,0,1.266-0.657,1.266-1.5
			c0-0.845-0.564-1.5-1.266-1.5h-1.273h-0.004h-0.201h-0.004h-1.475h-0.008h-0.198h-0.007c-0.699,0-1.266-0.654-1.266-1.5
			s0.566-1.5,1.266-1.5h0.007h0.198h0.008h1.475h0.004h0.201h0.004h1.269c0.699,0,1.267-0.655,1.267-1.5s-0.567-1.5-1.267-1.5
			h-1.474h-0.004h-0.002h-1.679h-0.007h-0.002c-0.004,0-0.008-0.002-0.012-0.002c-0.129-0.003-0.252-0.032-0.369-0.076
			c-0.027-0.01-0.055-0.017-0.08-0.029c-0.105-0.049-0.201-0.115-0.29-0.194c-0.032-0.028-0.063-0.058-0.093-0.089
			c-0.077-0.084-0.146-0.176-0.205-0.279c-0.024-0.045-0.043-0.093-0.063-0.141c-0.038-0.087-0.067-0.179-0.091-0.275
			c-0.009-0.037-0.028-0.068-0.035-0.107c-0.018-0.098-0.025-0.201-0.025-0.307s0.008-0.209,0.025-0.307
			c0.007-0.039,0.026-0.07,0.035-0.107c0.023-0.097,0.053-0.188,0.091-0.275c0.021-0.048,0.039-0.096,0.063-0.141
			c0.059-0.104,0.128-0.195,0.205-0.279c0.03-0.031,0.061-0.061,0.093-0.089c0.089-0.079,0.185-0.146,0.29-0.194
			c0.026-0.013,0.053-0.02,0.08-0.029c0.117-0.044,0.24-0.073,0.369-0.076c0.004,0,0.008-0.002,0.012-0.002h0.002h0.007h1.661h0.018
			h0.002h0.004h1.681c0.699,0,1.266-0.655,1.266-1.5c0-0.03-0.006-0.059-0.007-0.088c-0.006-0.117-0.022-0.229-0.049-0.336
			c-0.012-0.045-0.021-0.09-0.035-0.133c-0.041-0.123-0.096-0.237-0.162-0.342c-0.018-0.028-0.037-0.055-0.058-0.082
			c-0.078-0.105-0.165-0.203-0.266-0.279c-0.008-0.006-0.017-0.01-0.024-0.016c-0.109-0.078-0.229-0.139-0.357-0.176
			c-0.1-0.029-0.201-0.049-0.308-0.049h-2.704c-1.104,0-1.598-0.896-1.598-2v-3v-2.982V75v-1.979v-2.996
			c0-0.23-0.166-0.459-0.115-0.673c0.033-0.371-0.023-0.704,0.191-0.94c0.53-0.837,1.459-1.412,2.525-1.412H433v-4
			c0-0.553,0.447-1,1-1s1,0.447,1,1v4h3.591c1.662,0,3.409,1.371,3.409,3.025V72v0.322c0,0.066,0.015,0.131,0.015,0.199
			S442,72.654,442,72.721v0.301v1.996V78c0,1.104-1.298,2-2.402,2h-2h-0.623c-0.089,0-0.175,0.015-0.256,0.034
			c-0.578,0.137-1.017,0.73-1.017,1.468c0,0.739,0.438,1.333,1.017,1.471c0.081,0.02,0.167,0.027,0.256,0.027h0.003h1.679h0.001
			h0.005h0.001h1.685h0.001h0.001h0.001c0.523,0,0.974,0.368,1.164,0.908c0.064,0.181,0.1,0.381,0.1,0.592s-0.035,0.411-0.1,0.592
			c-0.19,0.54-0.641,0.908-1.164,0.908h-0.001h-0.001h-0.001h-1.685h-0.001h-0.005h-0.001h-1.679c-0.088,0-0.174,0.01-0.255,0.029
			c-0.141,0.033-0.271,0.096-0.391,0.18c-0.006,0.003-0.011,0.006-0.016,0.01c-0.362,0.26-0.605,0.729-0.605,1.281
			s0.243,1.021,0.605,1.281c0.005,0.004,0.01,0.007,0.016,0.01c0.119,0.084,0.25,0.146,0.391,0.18
			c0.081,0.02,0.167,0.029,0.255,0.029h1.48h0.199h0.005h1.482h0.204h0.001c0.03,0,0.059,0.008,0.088,0.01
			c0.657,0.055,1.177,0.682,1.177,1.49s-0.52,1.436-1.177,1.49c-0.029,0.002-0.058,0.01-0.088,0.01h-0.001h-0.204h-1.482h-0.005
			h-0.199h-1.274c-0.699,0-1.265,0.655-1.265,1.5s0.565,1.5,1.265,1.5h1.268h0.205h0.007h1.479h0.205h0.003
			c0.697,0,1.264,0.654,1.264,1.5s-0.566,1.5-1.264,1.5h-0.003h-0.205h-1.479h-0.007h-0.205h-1.474
			c-0.125,0-0.243,0.027-0.356,0.066c-0.072,0.024-0.141,0.055-0.206,0.094c-0.057,0.032-0.111,0.066-0.162,0.107
			c-0.067,0.055-0.128,0.117-0.185,0.186c-0.047,0.056-0.089,0.116-0.127,0.182c-0.027,0.045-0.048,0.094-0.07,0.143
			c-0.049,0.105-0.088,0.217-0.114,0.337c-0.015,0.069-0.024,0.14-0.031,0.212c-0.006,0.058-0.015,0.113-0.015,0.174
			c0,0.033,0.006,0.063,0.008,0.096c0.008,0.115,0.022,0.228,0.05,0.334c0.01,0.038,0.018,0.076,0.029,0.113
			c0.048,0.141,0.109,0.271,0.188,0.387c0.007,0.01,0.014,0.02,0.021,0.029c0.182,0.252,0.43,0.432,0.713,0.5
			c0.079,0.019,0.162,0.042,0.249,0.042c0.003,0,0.006,0,0.01,0h1.679h0.001h0.005h0.001h1.685h0.001h0.002h0.002
			c0.035,0,0.068,0.015,0.103,0.018c0.093,0.009,0.188,0.017,0.274,0.048c0.073,0.026,0.145,0.071,0.211,0.112
			c0.042,0.025,0.104,0.041,0.144,0.071c0.06,0.046,0.137,0.108,0.188,0.166c0.037,0.041,0.142,0.073,0.173,0.119
			c0.053,0.075,0.213,0.165,0.253,0.252c0.018,0.038,0.303,0.071,0.303,0.111c0,0.001,0,0.002,0,0.003
			c0,0.003-0.241,0.005-0.24,0.008c0.064,0.181-0.146,0.381-0.146,0.592s-0.035,0.411-0.1,0.592c-0.19,0.54-0.641,0.908-1.164,0.908
			h-0.001h-0.001h-0.001h-1.685h-0.001h-0.005h-0.001h-1.679c-0.088,0-0.174,0.01-0.255,0.029c-0.577,0.138-1.012,0.731-1.012,1.471
			s0.435,1.333,1.012,1.471c0.081,0.02,0.167,0.029,0.255,0.029h1.48h0.14h1c1.104,0,2.402,0.896,2.402,2v3v2v0.301
			c0,0.066,0.017,0.131,0.017,0.199S442,114.633,442,114.699V116h0.598c2.762,0,5.402,2.238,5.402,5V127z"/>
	</g>
	<g>
		<path fill="#FFDE00" d="M270,0C120.883,0,0,69.843,0,156c0,86.156,120.883,156,270,156c149.117,0,270-69.844,270-156
			C540,69.843,419.117,0,270,0z M144.428,121.914c1.519,2.175,3.698,4.23,6.535,6.164c2.835,1.93,6.287,3.74,10.355,5.426
			c4.069,1.686,8.65,3.346,13.747,4.992c9.533,3.041,18.04,6.408,25.52,10.107c7.479,3.697,13.787,7.93,18.926,12.697
			c5.135,4.768,9.039,10.154,11.711,16.152c2.672,6,4.008,12.781,4.008,20.342c0,8.059-1.584,15.226-4.748,21.515
			s-7.643,11.569-13.437,15.845c-5.795,4.273-12.781,7.521-20.96,9.74c-8.178,2.219-17.279,3.329-27.309,3.329
			c-6.163,0-12.287-0.507-18.369-1.534c-6.083-1.023-11.896-2.594-17.444-4.729c-5.547-2.139-10.727-4.801-15.534-8.051
			c-4.81-3.246-8.96-7.072-12.452-11.596c-3.496-4.518-6.249-9.545-8.261-15.299C94.701,201.26,93.694,195,93.694,188h43.398
			c0,5,0.698,9.461,2.097,13.035c1.396,3.576,3.451,6.254,6.164,8.473c2.712,2.219,6.019,3.801,9.924,4.744
			c3.902,0.947,8.403,1.422,13.499,1.422c4.109,0,7.623-0.475,10.543-1.422c2.915-0.943,5.32-2.219,7.211-3.82
			s3.269-3.471,4.131-5.609c0.863-2.137,1.295-4.395,1.295-6.781c0-2.795-0.392-5.318-1.172-7.582
			c-0.783-2.258-2.324-4.395-4.623-6.412c-2.301-2.01-5.528-4.004-9.678-5.98c-4.151-1.971-9.597-4.064-16.336-6.283
			c-7.89-2.633-15.494-5.59-22.808-8.877c-7.315-3.287-13.808-7.191-19.479-11.713c-5.672-4.52-10.214-9.8-13.624-15.843
			c-3.411-6.043-5.117-13.089-5.117-21.144c0-7.725,1.726-14.689,5.179-20.894c3.452-6.204,8.261-11.481,14.425-15.839
			c6.164-4.357,13.457-7.717,21.883-10.105c8.425-2.379,17.608-3.555,27.555-3.555c9.779,0,18.78,1.347,26.999,3.974
			c8.219,2.629,15.29,6.431,21.206,11.279c5.918,4.855,10.543,10.831,13.871,17.692c3.328,6.867,4.992,14.241,4.992,23.241h-43.151
			c0-4-0.514-6.716-1.541-9.553s-2.589-5.508-4.685-7.522s-4.684-3.595-7.768-4.743c-3.082-1.156-6.718-1.729-10.909-1.729
			c-4.111,0-7.727,0.478-10.851,1.417c-3.124,0.947-5.732,2.263-7.827,3.948c-2.097,1.685-3.68,3.616-4.747,5.794
			c-1.069,2.176-1.604,4.499-1.604,6.967C142.146,117.291,142.907,119.735,144.428,121.914z M378,100h-77v41h70v33h-70v72h-43V66
			h120V100z M447,126v1v6v1v6c0,2.762-2.641,5-5.402,5H441v18h-6v4h3v16h-7v4h3v39h-8v19h-0.428l-3.988,4.49l-4.012-4.49H418v-19h-8
			v-39h3v-4h-7v-16h3v-4h-6v-18h-1.402c-2.762,0-4.598-2.238-4.598-5v-6v-1v-6v-1v-6c0-2.762,1.836-5,4.598-5H403v-2v-2v-2v-4
			c0-1.104,0.493-2,1.598-2h1.723h0.981c0.699,0,1.266-0.655,1.266-1.5s-0.566-1.5-1.266-1.5h-1.681h-0.002h-0.002h-1.681h-0.001
			h-0.006c-0.146,0-0.285-0.035-0.416-0.088c-0.007-0.002-0.014-0.004-0.02-0.007c-0.483-0.207-0.83-0.745-0.83-1.405
			c0-0.289,0.07-0.553,0.185-0.777c0.005-0.009,0.007-0.018,0.012-0.025c0.067-0.128,0.152-0.24,0.249-0.337
			c0.016-0.017,0.031-0.032,0.049-0.048c0.099-0.089,0.207-0.162,0.324-0.214c0.017-0.007,0.033-0.012,0.051-0.019
			c0.125-0.048,0.257-0.08,0.396-0.08h0.006h0.001h1.681h0.002h0.002h1.479c0.701,0,1.266-0.657,1.266-1.5
			c0-0.845-0.564-1.5-1.266-1.5h-1.273h-0.004h-0.201h-0.004h-1.475h-0.008h-0.198h-0.007c-0.699,0-1.266-0.654-1.266-1.5
			s0.566-1.5,1.266-1.5h0.007h0.198h0.008h1.475h0.004h0.201h0.004h1.269c0.699,0,1.267-0.655,1.267-1.5s-0.567-1.5-1.267-1.5
			h-1.474h-0.004h-0.002h-1.679h-0.007h-0.002c-0.004,0-0.008-0.002-0.012-0.002c-0.129-0.003-0.252-0.032-0.369-0.076
			c-0.027-0.01-0.055-0.017-0.08-0.029c-0.105-0.049-0.201-0.115-0.29-0.194c-0.032-0.028-0.063-0.058-0.093-0.089
			c-0.077-0.084-0.146-0.176-0.205-0.279c-0.024-0.045-0.043-0.093-0.063-0.141c-0.038-0.087-0.067-0.179-0.091-0.275
			c-0.009-0.037-0.028-0.068-0.035-0.107c-0.018-0.098-0.025-0.201-0.025-0.307s0.008-0.209,0.025-0.307
			c0.007-0.039,0.026-0.07,0.035-0.107c0.023-0.097,0.053-0.188,0.091-0.275c0.021-0.048,0.039-0.096,0.063-0.141
			c0.059-0.104,0.128-0.195,0.205-0.279c0.03-0.031,0.061-0.061,0.093-0.089c0.089-0.079,0.185-0.146,0.29-0.194
			c0.026-0.013,0.053-0.02,0.08-0.029c0.117-0.044,0.24-0.073,0.369-0.076c0.004,0,0.008-0.002,0.012-0.002h0.002h0.007h1.661h0.018
			h0.002h0.004h1.681c0.699,0,1.266-0.655,1.266-1.5c0-0.03-0.006-0.059-0.007-0.088c-0.006-0.117-0.022-0.229-0.049-0.336
			c-0.012-0.045-0.021-0.09-0.035-0.133c-0.041-0.123-0.096-0.237-0.162-0.342c-0.018-0.028-0.037-0.055-0.058-0.082
			c-0.078-0.105-0.165-0.203-0.266-0.279c-0.008-0.006-0.017-0.01-0.024-0.016c-0.109-0.078-0.229-0.139-0.357-0.176
			c-0.1-0.029-0.201-0.049-0.308-0.049h-2.704c-1.104,0-1.598-0.896-1.598-2v-3v-2.982V74v-1.979v-2.996
			c0-0.23-0.166-0.459-0.115-0.673c0.033-0.371-0.023-0.704,0.191-0.94c0.53-0.837,1.459-1.412,2.525-1.412H432v-4
			c0-0.553,0.447-1,1-1s1,0.447,1,1v4h3.591c1.662,0,3.409,1.371,3.409,3.025V71v0.322c0,0.066,0.015,0.131,0.015,0.199
			S441,71.654,441,71.721v0.301v1.996V77c0,1.104-1.298,2-2.402,2h-2h-0.623c-0.089,0-0.175,0.015-0.256,0.034
			c-0.578,0.137-1.017,0.73-1.017,1.468c0,0.739,0.438,1.333,1.017,1.471c0.081,0.02,0.167,0.027,0.256,0.027h0.003h1.679h0.001
			h0.005h0.001h1.685h0.001h0.001h0.001c0.523,0,0.974,0.368,1.164,0.908c0.064,0.181,0.1,0.381,0.1,0.592s-0.035,0.411-0.1,0.592
			c-0.19,0.54-0.641,0.908-1.164,0.908h-0.001h-0.001h-0.001h-1.685h-0.001h-0.005h-0.001h-1.679c-0.088,0-0.174,0.01-0.255,0.029
			c-0.141,0.033-0.271,0.096-0.391,0.18c-0.006,0.003-0.011,0.006-0.016,0.01c-0.362,0.26-0.605,0.729-0.605,1.281
			s0.243,1.021,0.605,1.281c0.005,0.004,0.01,0.007,0.016,0.01c0.119,0.084,0.25,0.146,0.391,0.18
			c0.081,0.02,0.167,0.029,0.255,0.029h1.48h0.199h0.005h1.482h0.204h0.001c0.03,0,0.059,0.008,0.088,0.01
			c0.657,0.055,1.177,0.682,1.177,1.49s-0.52,1.436-1.177,1.49c-0.029,0.002-0.058,0.01-0.088,0.01h-0.001h-0.204h-1.482h-0.005
			h-0.199h-1.274c-0.699,0-1.265,0.655-1.265,1.5s0.565,1.5,1.265,1.5h1.268h0.205h0.007h1.479h0.205h0.003
			c0.697,0,1.264,0.654,1.264,1.5s-0.566,1.5-1.264,1.5h-0.003h-0.205h-1.479h-0.007h-0.205h-1.474
			c-0.125,0-0.243,0.027-0.356,0.066c-0.072,0.024-0.141,0.055-0.206,0.094c-0.057,0.032-0.111,0.066-0.162,0.107
			c-0.067,0.055-0.128,0.117-0.185,0.186c-0.047,0.056-0.089,0.116-0.127,0.182c-0.027,0.045-0.048,0.094-0.07,0.143
			c-0.049,0.105-0.088,0.217-0.114,0.337c-0.015,0.069-0.024,0.14-0.031,0.212c-0.006,0.058-0.015,0.113-0.015,0.174
			c0,0.033,0.006,0.063,0.008,0.096c0.008,0.115,0.022,0.228,0.05,0.334c0.01,0.038,0.018,0.076,0.029,0.113
			c0.048,0.141,0.109,0.271,0.188,0.387c0.007,0.01,0.014,0.02,0.021,0.029c0.182,0.252,0.43,0.432,0.713,0.5
			c0.079,0.019,0.162,0.042,0.249,0.042c0.003,0,0.006,0,0.01,0h1.679h0.001h0.005h0.001h1.685h0.001h0.002h0.002
			c0.035,0,0.068,0.015,0.103,0.018c0.093,0.009,0.188,0.017,0.274,0.048c0.073,0.026,0.145,0.071,0.211,0.112
			c0.042,0.025,0.104,0.041,0.144,0.071c0.06,0.046,0.137,0.108,0.188,0.166c0.037,0.041,0.142,0.073,0.173,0.119
			c0.053,0.075,0.213,0.165,0.253,0.252c0.018,0.038,0.303,0.071,0.303,0.111c0,0.001,0,0.002,0,0.003
			c0,0.003-0.241,0.005-0.24,0.008c0.064,0.181-0.146,0.381-0.146,0.592s-0.035,0.411-0.1,0.592c-0.19,0.54-0.641,0.908-1.164,0.908
			h-0.001h-0.001h-0.001h-1.685h-0.001h-0.005h-0.001h-1.679c-0.088,0-0.174,0.01-0.255,0.029c-0.577,0.138-1.012,0.731-1.012,1.471
			s0.435,1.333,1.012,1.471c0.081,0.02,0.167,0.029,0.255,0.029h1.48h0.14h1c1.104,0,2.402,0.896,2.402,2v3v2v0.301
			c0,0.066,0.017,0.131,0.017,0.199S441,113.633,441,113.699V115h0.598c2.762,0,5.402,2.238,5.402,5V126z"/>
	</g>
</g>
</svg>
