<?xml version="1.0" encoding="utf-8"?>
<!-- Generator: Adobe Illustrator 16.0.0, SVG Export Plug-In . SVG Version: 6.00 Build 0)  -->
<!DOCTYPE svg PUBLIC "-//W3C//DTD SVG 1.1//EN" "http://www.w3.org/Graphics/SVG/1.1/DTD/svg11.dtd">
<svg version="1.1" id="Layer_1" xmlns="http://www.w3.org/2000/svg" xmlns:xlink="http://www.w3.org/1999/xlink" x="0px" y="0px"
	 width="80px" height="46px" viewBox="0 0 80 46" enable-background="new 0 0 80 46" xml:space="preserve">
<g>
	<path fill="#B71C1C" d="M40,0C17.9,0,0,10.3,0,23c0,12.7,17.9,23,40,23c22.1,0,40-10.3,40-23C80,10.3,62.1,0,40,0z M20,18.1
		c0.2,0.3,0.5,0.6,0.9,0.9c0.4,0.3,0.9,0.5,1.4,0.8c0.6,0.2,1.2,0.5,1.9,0.7c1.3,0.4,2.5,0.9,3.6,1.4c1,0.5,1.9,1.1,2.6,1.8
		c0.7,0.7,1.3,1.4,1.6,2.2c0.4,0.8,0.6,1.8,0.6,2.8c0,1.1-0.2,2.1-0.7,3c-0.4,0.9-1.1,1.6-1.9,2.2c-0.8,0.6-1.8,1-2.9,1.4
		c-1.1,0.3-2.4,0.5-3.8,0.5c-0.9,0-1.7-0.1-2.6-0.2c-0.8-0.1-1.7-0.4-2.4-0.7s-1.5-0.7-2.2-1.1c-0.7-0.5-1.2-1-1.7-1.6
		c-0.5-0.6-0.9-1.4-1.1-2.2S13,28,13,27h6c0,1,0.1,1.5,0.3,1.9c0.2,0.5,0.5,1,0.9,1.3c0.4,0.3,0.8,0.5,1.4,0.7
		c0.5,0.1,1.2,0.2,1.9,0.2c0.6,0,1.1-0.1,1.5-0.2c0.4-0.1,0.7-0.3,1-0.5c0.3-0.2,0.5-0.5,0.6-0.8c0.1-0.3,0.2-0.6,0.2-0.9
		c0-0.4-0.1-0.7-0.2-1.1c-0.1-0.3-0.3-0.6-0.6-0.9c-0.3-0.3-0.8-0.6-1.3-0.8c-0.6-0.3-1.3-0.6-2.3-0.9c-1.1-0.4-2.2-0.8-3.2-1.2
		c-1-0.5-1.9-1-2.7-1.6s-1.4-1.4-1.9-2.2c-0.5-0.8-0.7-1.8-0.7-2.9c0-1.1,0.2-2,0.7-2.9c0.5-0.9,1.1-1.6,2-2.2
		c0.9-0.6,1.9-1.1,3-1.4c1.2-0.3,2.4-0.5,3.8-0.5c1.4,0,2.6,0.2,3.8,0.6s2.1,0.9,3,1.6c0.8,0.7,1.5,1.6,1.9,2.5
		c0.5,1,0.7,2.3,0.7,3.3h-6c0-1-0.1-1-0.2-1.4c-0.1-0.4-0.4-0.9-0.7-1.1c-0.3-0.3-0.7-0.5-1.1-0.7c-0.4-0.2-0.9-0.2-1.5-0.2
		c-0.6,0-1.1,0.1-1.5,0.2c-0.4,0.1-0.8,0.3-1.1,0.5s-0.5,0.5-0.7,0.8c-0.1,0.3-0.2,0.6-0.2,1C19.7,17.4,19.8,17.8,20,18.1z M54,15
		H43v5h10v5H43v10h-6V10h17V15z M67,18h-1v1h-1h-2v1h2v3h-1h-1v1h1v5h-1h-1v1h1v4h-1v0.4v0.8V36h-1v-2h-1v-4h1v-1h-1h-0.1H59v-5h1
		v-1h-1h-0.1H58v-3h2v-1h-2h-0.1H57v-1h-1v-2h1v-1h0.9H58h1v-1v-1h-1v-1h1v-1h-1v-1h5V8h1v2h1v2h-1v1h1v1h-1v1h1h1v1h1V18z"/>
	<path fill="#FFFFFF" d="M20.6,15.3c0.3-0.2,0.7-0.4,1.1-0.5c0.4-0.1,0.9-0.2,1.5-0.2c0.6,0,1.1,0.1,1.5,0.2
		c0.4,0.2,0.8,0.4,1.1,0.7c0.3,0.3,0.5,0.7,0.7,1.1c0.1,0.4,0.2,0.4,0.2,1.4h6c0-1-0.2-2.4-0.7-3.3c-0.5-1-1.1-1.8-1.9-2.5
		c-0.8-0.7-1.8-1.2-3-1.6S24.7,10,23.3,10c-1.4,0-2.7,0.2-3.8,0.5c-1.2,0.3-2.2,0.8-3,1.4c-0.9,0.6-1.5,1.3-2,2.2
		C14,15,13.7,15.9,13.7,17c0,1.1,0.2,2.1,0.7,2.9c0.5,0.8,1.1,1.6,1.9,2.2s1.7,1.2,2.7,1.6c1,0.5,2.1,0.9,3.2,1.2
		c0.9,0.3,1.7,0.6,2.3,0.9c0.6,0.3,1,0.6,1.3,0.8c0.3,0.3,0.5,0.6,0.6,0.9c0.1,0.3,0.2,0.7,0.2,1.1c0,0.3-0.1,0.6-0.2,0.9
		c-0.1,0.3-0.3,0.6-0.6,0.8c-0.3,0.2-0.6,0.4-1,0.5c-0.4,0.1-0.9,0.2-1.5,0.2c-0.7,0-1.3-0.1-1.9-0.2c-0.5-0.1-1-0.3-1.4-0.7
		c-0.4-0.3-0.7-0.8-0.9-1.3C19.1,28.4,19,28,19,27h-6c0,1,0.1,2,0.4,2.8s0.7,1.6,1.1,2.2c0.5,0.6,1.1,1.2,1.7,1.6
		c0.7,0.5,1.4,0.8,2.2,1.1s1.6,0.5,2.4,0.7c0.8,0.1,1.7,0.2,2.6,0.2c1.4,0,2.7-0.2,3.8-0.5c1.1-0.3,2.1-0.8,2.9-1.4
		c0.8-0.6,1.4-1.3,1.9-2.2c0.4-0.9,0.7-1.9,0.7-3c0-1.1-0.2-2-0.6-2.8c-0.4-0.8-0.9-1.6-1.6-2.2c-0.7-0.7-1.6-1.3-2.6-1.8
		c-1-0.5-2.2-1-3.6-1.4c-0.7-0.2-1.3-0.5-1.9-0.7c-0.6-0.2-1-0.5-1.4-0.8c-0.4-0.3-0.7-0.6-0.9-0.9c-0.2-0.3-0.3-0.6-0.3-1
		c0-0.3,0.1-0.7,0.2-1C20.1,15.8,20.3,15.5,20.6,15.3z"/>
	<polygon fill="#FFFFFF" points="37,35 43,35 43,25 53,25 53,20 43,20 43,15 54,15 54,10 37,10 	"/>
	<polygon fill="#FFFFFF" points="66,15 65,15 64,15 64,14 65,14 65,13 64,13 64,12 65,12 65,10 64,10 64,8 63,8 63,10 58,10 58,11 
		59,11 59,12 58,12 58,13 59,13 59,14 59,15 58,15 57.9,15 57,15 57,16 56,16 56,18 57,18 57,19 57.9,19 58,19 60,19 60,20 58,20 
		58,23 58.9,23 59,23 60,23 60,24 59,24 59,29 59.9,29 60,29 61,29 61,30 60,30 60,34 61,34 61,36 62,36 62,35.2 62,34.4 62,34 
		63,34 63,30 62,30 62,29 63,29 64,29 64,24 63,24 63,23 64,23 65,23 65,20 63,20 63,19 65,19 66,19 66,18 67,18 67,16 66,16 	"/>
</g>
</svg>
