<?xml version="1.0" encoding="utf-8"?>
<!-- Generator: Adobe Illustrator 16.0.0, SVG Export Plug-In . SVG Version: 6.00 Build 0)  -->
<!DOCTYPE svg PUBLIC "-//W3C//DTD SVG 1.1//EN" "http://www.w3.org/Graphics/SVG/1.1/DTD/svg11.dtd">
<svg version="1.1" id="Layer_1" xmlns="http://www.w3.org/2000/svg" xmlns:xlink="http://www.w3.org/1999/xlink" x="0px" y="0px"
	 width="384px" height="384px" viewBox="0 0 384 384" enable-background="new 0 0 384 384" xml:space="preserve">
<g>
	<path fill="#B71C1C" d="M339.998,70.398C305.057,27.199,251.68,0,191.998,0C86.218,0,0.332,85.601,0.332,192
		c0,47.203,16.982,90.397,45.611,124c34.938,41.6,87.341,68,146.055,68c105.779,0,191.67-85.603,191.67-192
		C383.668,145.602,367.17,103.2,339.998,70.398z"/>
	<g opacity="0.3">
		<path opacity="0.8" fill="#FFFFFF" enable-background="new    " d="M339.998,70.398l-14.563,12
			c26.693,29.601,36.563,68,36.563,109.602c0,92.796-72.465,174.334-169.998,174.334c-52.404,0-99.474-27.936-131.985-62.335
			L45.457,316c34.938,41.6,87.342,68,146.056,68c106.265,0,192.155-85.603,192.155-192C383.668,145.602,367.17,103.2,339.998,70.398
			z"/>
		<g>
			<path d="M20.665,192c0-92.8,73.315-173.667,171.333-173.667c53.375,0,101.414,28.065,133.922,64.065l14.563-12
				C305.057,27.199,251.68,0,191.998,0C86.218,0,0.332,85.601,0.332,192c0,47.203,16.982,90.397,45.611,124L60.5,303.999
				C32.357,274.4,20.665,235.202,20.665,192z"/>
		</g>
	</g>
</g>
<g>
	<g opacity="0.3">
		<polygon points="225.707,139.037 225.707,129.406 219.93,129.406 216.078,129.406 216.078,119.776 225.707,119.776 
			225.707,110.145 216.078,110.145 216.078,100.515 225.707,100.515 225.707,81.257 216.078,81.257 216.078,61.996 206.445,61.996 
			206.445,81.257 158.295,81.257 158.295,90.889 167.926,90.889 167.926,100.515 158.295,100.515 158.295,110.145 167.926,110.145 
			167.926,119.776 167.926,129.406 165.039,129.406 165.039,129.406 158.295,129.406 158.295,139.037 148.665,139.037 
			148.665,158.296 158.295,158.296 158.295,167.926 165.039,167.926 165.039,167.926 177.555,167.926 177.555,177.556 
			167.926,177.556 167.926,216.074 167.926,225.707 187.183,225.707 187.183,235.332 177.555,235.332 177.555,254.594 
			177.555,264.225 177.555,273.855 177.555,283.486 177.555,293.117 187.183,293.117 187.183,312.375 196.816,312.375 
			196.816,293.117 206.445,293.117 206.445,283.486 206.445,273.855 206.445,264.225 206.445,254.594 206.445,235.332 
			196.816,235.332 196.816,225.707 216.078,225.707 216.078,216.074 216.078,177.556 206.445,177.556 206.445,167.926 
			219.93,167.926 225.707,167.926 225.707,158.296 235.336,158.296 235.336,139.037 		"/>
	</g>
	<g>
		<polygon fill="#FFFFFF" points="225.707,148.665 225.707,139.037 219.93,139.037 216.078,139.037 216.078,129.406 
			225.707,129.406 225.707,119.776 216.078,119.776 216.078,110.145 225.707,110.145 225.707,90.889 216.078,90.889 216.078,71.627 
			206.445,71.627 206.445,90.889 158.295,90.889 158.295,100.515 167.926,100.515 167.926,110.145 158.295,110.145 158.295,119.776 
			167.926,119.776 167.926,129.406 167.926,139.037 165.039,139.037 165.039,139.037 158.295,139.037 158.295,148.665 
			148.665,148.665 148.665,167.926 158.295,167.926 158.295,177.556 165.039,177.556 165.039,177.556 177.555,177.556 
			177.555,187.184 167.926,187.184 167.926,225.707 167.926,235.332 187.183,235.332 187.183,244.963 177.555,244.963 
			177.555,264.225 177.555,273.855 177.555,283.486 177.555,293.117 177.555,302.744 187.183,302.744 187.183,322.004 
			196.816,322.004 196.816,302.744 206.445,302.744 206.445,293.117 206.445,283.486 206.445,273.855 206.445,264.225 
			206.445,244.963 196.816,244.963 196.816,235.332 216.078,235.332 216.078,225.707 216.078,187.184 206.445,187.184 
			206.445,177.556 219.93,177.556 225.707,177.556 225.707,167.926 235.336,167.926 235.336,148.665 		"/>
	</g>
</g>
</svg>
