<?xml version="1.0" encoding="utf-8"?>
<!-- Generator: Adobe Illustrator 16.0.0, SVG Export Plug-In . SVG Version: 6.00 Build 0)  -->
<!DOCTYPE svg PUBLIC "-//W3C//DTD SVG 1.1//EN" "http://www.w3.org/Graphics/SVG/1.1/DTD/svg11.dtd">
<svg version="1.1" id="Layer_1" xmlns="http://www.w3.org/2000/svg" xmlns:xlink="http://www.w3.org/1999/xlink" x="0px" y="0px"
	 width="79px" height="48px" viewBox="0 0 79 48" enable-background="new 0 0 79 48" xml:space="preserve">
<g>
	<path fill="#B71C1C" enable-background="new    " d="M70,8.8C62.8,3.4,51.8,0,39.5,0C17.7,0,0,10.7,0,24c0,5.9,3.5,11.3,9.4,15.5
		c7.2,5.2,18,8.5,30.1,8.5C61.3,48,79,37.3,79,24C79,18.2,75.6,12.9,70,8.8z"/>
	<g opacity="0.3">
		<path opacity="0.8" fill="#FFFFFF" enable-background="new    " d="M70,8.8l-3,1.5c5.5,3.7,8.8,8.5,8.8,13.7
			c0,11.6-16.3,21-36.4,21c-10.8,0-20.4-2.7-27.1-7l-3,1.5c7.2,5.2,18,8.5,30.1,8.5C61.3,48,79,37.3,79,24C79,18.2,75.6,12.9,70,8.8
			z"/>
		<g>
			<path d="M3,24C3,12.4,19.3,3,39.5,3c11,0,20.9,2.8,27.6,7.3l3-1.5C62.8,3.4,51.8,0,39.5,0C17.7,0,0,10.7,0,24
				c0,5.9,3.5,11.3,9.4,15.5l3-1.5C6.6,34.3,3,29.4,3,24z"/>
		</g>
	</g>
	<g opacity="0.3">
		<path d="M22,15.8c0.3-0.2,0.6-0.4,1-0.5c0.4-0.1,0.9-0.2,1.4-0.2s1,0.1,1.4,0.2c0.4,0.1,0.7,0.4,1,0.6c0.3,0.3,0.5,0.6,0.6,0.9
			c0.1,0.4,0.2,0.2,0.2,1.2h5.6c0-1-0.2-2.1-0.6-3s-1-1.6-1.8-2.3c-0.8-0.6-1.7-1.1-2.7-1.4c-1-0.3-2.2-0.5-3.5-0.5
			c-1.3,0-2.5,0.2-3.6,0.5c-1.1,0.3-2,0.7-2.8,1.3c-0.8,0.6-1.4,1.2-1.9,2.1c-0.5,0.9-0.7,1.7-0.7,2.7s0.2,2,0.7,2.7
			c0.4,0.8,1,1.5,1.8,2c0.7,0.6,1.6,1.1,2.5,1.5s1.9,0.8,2.9,1.1c0.9,0.3,1.6,0.6,2.1,0.8c0.5,0.3,1,0.5,1.3,0.8
			c0.3,0.3,0.5,0.5,0.6,0.8c0.1,0.301,0.2,0.601,0.2,1c0,0.301-0.1,0.601-0.2,0.9s-0.3,0.5-0.5,0.7s-0.6,0.399-0.9,0.5
			c-0.4,0.1-0.8,0.2-1.4,0.2c-0.7,0-1.2-0.101-1.7-0.2c-0.5-0.101-0.9-0.3-1.3-0.601c-0.4-0.3-0.6-0.6-0.8-1
			c-0.2-0.5-0.3-0.6-0.3-1.6H15c0,1,0.1,1.7,0.4,2.4c0.3,0.699,0.6,1.399,1.1,2c0.5,0.6,1,1.1,1.6,1.5c0.6,0.399,1.3,0.8,2,1
			c0.7,0.3,1.5,0.5,2.3,0.6c0.8,0.1,1.6,0.2,2.4,0.2c1.3,0,2.5-0.101,3.5-0.4c1.1-0.3,2-0.7,2.7-1.3s1.3-1.2,1.7-2.1
			c0.4-0.801,0.6-1.7,0.6-2.801c0-1-0.2-1.899-0.5-2.6c-0.3-0.7-0.9-1.5-1.5-2.1c-0.7-0.6-1.5-1.2-2.4-1.6c-0.9-0.4-2.1-0.9-3.3-1.3
			c-0.7-0.2-1.3-0.4-1.8-0.6c-0.5-0.2-1-0.5-1.3-0.7c-0.4-0.2-0.6-0.5-0.8-0.8c-0.2-0.3-0.3-0.6-0.3-0.9s0.1-0.6,0.2-0.9
			C21.5,16.2,21.7,16,22,15.8z"/>
		<polygon points="36,34 41,34 41,25 50,25 50,20 41,20 41,15 51,15 51,11 36,11 		"/>
		<polygon points="61,17 61,16 60.4,16 60,16 60,15 61,15 61,14 60,14 60,13 61,13 61,11 60,11 60,9 59,9 59,11 54,11 54,12 55,12 
			55,13 54,13 54,14 55,14 55,15 55,16 54.7,16 54.7,16 54,16 54,17 53,17 53,19 54,19 54,20 54.7,20 54.7,20 56,20 56,21 55,21 
			55,25 55,26 57,26 57,27 56,27 56,29 56,30 56,31 56,32 56,33 57,33 57,35 58,35 58,33 59,33 59,32 59,31 59,30 59,29 59,27 
			58,27 58,26 60,26 60,25 60,21 59,21 59,20 60.4,20 61,20 61,19 62,19 62,17 		"/>
	</g>
	<g>
		<path fill="#FFFFFF" d="M22,16.8c0.3-0.2,0.6-0.4,1-0.5c0.4-0.1,0.9-0.2,1.4-0.2s1,0.1,1.4,0.2c0.4,0.1,0.7,0.4,1,0.6
			c0.3,0.3,0.5,0.6,0.6,0.9c0.1,0.4,0.2,0.2,0.2,1.2h5.6c0-1-0.2-2.1-0.6-3s-1-1.6-1.8-2.3c-0.8-0.6-1.7-1.1-2.7-1.4
			c-1-0.3-2.2-0.5-3.5-0.5c-1.3,0-2.5,0.2-3.6,0.5c-1.1,0.3-2,0.7-2.8,1.3c-0.8,0.6-1.4,1.2-1.9,2.1c-0.5,0.9-0.7,1.7-0.7,2.7
			s0.2,2,0.7,2.7c0.4,0.8,1,1.5,1.8,2c0.7,0.6,1.6,1.1,2.5,1.5c0.9,0.4,1.9,0.801,2.9,1.101c0.9,0.3,1.6,0.6,2.1,0.8
			c0.5,0.3,1,0.5,1.3,0.8c0.3,0.3,0.5,0.5,0.6,0.8c0.1,0.301,0.2,0.601,0.2,1c0,0.301-0.1,0.601-0.2,0.9s-0.3,0.5-0.5,0.7
			s-0.6,0.399-0.9,0.5c-0.4,0.1-0.8,0.2-1.4,0.2c-0.7,0-1.2-0.101-1.7-0.2c-0.5-0.101-0.9-0.3-1.3-0.601c-0.4-0.3-0.6-0.6-0.8-1
			c-0.2-0.5-0.3-0.6-0.3-1.6H15c0,1,0.1,1.7,0.4,2.4c0.3,0.699,0.6,1.399,1.1,2c0.5,0.6,1,1.1,1.6,1.5c0.6,0.399,1.3,0.8,2,1
			c0.7,0.3,1.5,0.5,2.3,0.6c0.8,0.1,1.6,0.2,2.4,0.2c1.3,0,2.5-0.101,3.5-0.4c1.1-0.3,2-0.7,2.7-1.3s1.3-1.2,1.7-2.1
			c0.4-0.801,0.6-1.7,0.6-2.801c0-1-0.2-1.899-0.5-2.6c-0.3-0.7-0.9-1.5-1.5-2.1c-0.7-0.6-1.5-1.2-2.4-1.6c-0.9-0.4-2.1-0.9-3.3-1.3
			c-0.7-0.2-1.3-0.4-1.8-0.6c-0.5-0.2-1-0.5-1.3-0.7c-0.4-0.2-0.6-0.5-0.8-0.8c-0.2-0.3-0.3-0.6-0.3-0.9s0.1-0.6,0.2-0.9
			C21.5,17.2,21.7,17,22,16.8z"/>
		<polygon fill="#FFFFFF" points="36,35 41,35 41,26 50,26 50,21 41,21 41,16 51,16 51,12 36,12 		"/>
		<polygon fill="#FFFFFF" points="61,18 61,17 60.4,17 60,17 60,16 61,16 61,15 60,15 60,14 61,14 61,12 60,12 60,10 59,10 59,12 
			54,12 54,13 55,13 55,14 54,14 54,15 55,15 55,16 55,17 54.7,17 54.7,17 54,17 54,18 53,18 53,20 54,20 54,21 54.7,21 54.7,21 
			56,21 56,22 55,22 55,26 55,27 57,27 57,28 56,28 56,30 56,31 56,32 56,33 56,34 57,34 57,36 58,36 58,34 59,34 59,33 59,32 
			59,31 59,30 59,28 58,28 58,27 60,27 60,26 60,22 59,22 59,21 60.4,21 61,21 61,20 62,20 62,18 		"/>
	</g>
</g>
</svg>
