<?xml version="1.0" encoding="utf-8"?>
<!-- Generator: Adobe Illustrator 16.0.0, SVG Export Plug-In . SVG Version: 6.00 Build 0)  -->
<!DOCTYPE svg PUBLIC "-//W3C//DTD SVG 1.1//EN" "http://www.w3.org/Graphics/SVG/1.1/DTD/svg11.dtd">
<svg version="1.1" id="Layer_1" xmlns="http://www.w3.org/2000/svg" xmlns:xlink="http://www.w3.org/1999/xlink" x="0px" y="0px"
	 width="79px" height="48px" viewBox="0 0 79 48" enable-background="new 0 0 79 48" xml:space="preserve">
<path fill="#B71C1C" d="M3,24c0,5.4,3.6,10.3,9.4,14l-0.1,0c6.7,4.3,16.3,7,27.1,7c20.1,0,36.4-9.4,36.4-21c0-5.2-3.3-10-8.8-13.7
	l0.1,0C60.4,5.8,50.5,3,39.5,3C19.3,3,3,12.4,3,24z M33.3,29.1c0,1.1-0.2,2-0.6,2.8c-0.4,0.9-1,1.5-1.7,2.1s-1.6,1-2.7,1.3
	c-1,0.3-2.2,0.4-3.5,0.4c-0.8,0-1.6-0.1-2.4-0.2c-0.8-0.1-1.6-0.3-2.3-0.6c-0.7-0.2-1.4-0.6-2-1c-0.6-0.4-1.1-0.9-1.6-1.5
	c-0.5-0.6-0.8-1.3-1.1-2C15.1,29.7,15,29,15,28h0.1c0-0.3-0.1-0.6-0.1-1h5.6c0,1,0.1,1.1,0.3,1.6c0.2,0.4,0.4,0.7,0.8,1
	c0.4,0.3,0.8,0.5,1.3,0.6c0.5,0.1,1,0.2,1.7,0.2c0.6,0,1-0.1,1.4-0.2c0.3-0.1,0.7-0.3,0.9-0.5s0.4-0.4,0.5-0.7
	c0-0.1,0.1-0.3,0.1-0.4c0-0.2-0.1-0.3-0.1-0.5c-0.1-0.3-0.3-0.5-0.6-0.8c-0.3-0.3-0.8-0.5-1.3-0.8c-0.5-0.2-1.2-0.5-2.1-0.8
	c-1-0.3-2-0.7-2.9-1.1c-0.9-0.4-1.8-0.9-2.5-1.5c-0.8-0.5-1.4-1.2-1.8-2c-0.5-0.7-0.7-1.7-0.7-2.7c0-0.2,0-0.3,0-0.5
	c0-0.2,0-0.3,0-0.5c0-1,0.2-1.8,0.7-2.7c0.5-0.9,1.1-1.5,1.9-2.1c0.8-0.6,1.7-1,2.8-1.3c1.1-0.3,2.3-0.5,3.6-0.5
	c1.3,0,2.5,0.2,3.5,0.5c1,0.3,1.9,0.8,2.7,1.4c0.8,0.7,1.4,1.4,1.8,2.3s0.6,2,0.6,3h-0.1c0,0.3,0.1,0.7,0.1,1h-5.6
	c0-1-0.1-0.8-0.2-1.2c-0.1-0.3-0.3-0.6-0.6-0.9c-0.3-0.2-0.6-0.5-1-0.6c-0.4-0.1-0.9-0.2-1.4-0.2s-1,0.1-1.4,0.2
	c-0.4,0.1-0.7,0.3-1,0.5c-0.3,0.2-0.5,0.4-0.4,0.8c0,0.1-0.1,0.2-0.1,0.4c0.1,0.1,0.1,0.3,0.2,0.4c0.2,0.3,0.4,0.6,0.8,0.8
	c0.3,0.2,0.8,0.5,1.3,0.7c0.5,0.2,1.1,0.4,1.8,0.6c1.2,0.4,2.4,0.9,3.3,1.3c0.9,0.4,1.7,1,2.4,1.6c0.6,0.6,1.2,1.4,1.5,2.1
	c0.3,0.7,0.5,1.6,0.5,2.6c0,0.2,0,0.3,0,0.5C33.3,28.8,33.3,28.9,33.3,29.1z M53,19v-2h1v-1h1v-1h-1v-4h5V9h1v2h1v6h1v3h-1v1h-1v6
	h-1v7h-1v2h-1v-2h-1v-7h-1v-6h-1v-1h-1V19z M51,12v4H41v4h9v6h-9v9h-5V11h15V12z"/>
<path fill="#B71C1C" d="M39.5,48L39.5,48c20.5,0,37.3-9.4,39.3-21.5C76.8,38.6,60,48,39.5,48z"/>
<path fill="#960C0C" d="M32.8,25.5c-0.3-0.7-0.9-1.5-1.5-2.1c-0.7-0.6-1.5-1.2-2.4-1.6c-0.9-0.4-2.1-0.9-3.3-1.3
	c-0.7-0.2-1.3-0.4-1.8-0.6c-0.5-0.2-1-0.5-1.3-0.7c-0.4-0.2-0.6-0.5-0.8-0.8c-0.1-0.1-0.2-0.3-0.2-0.4c0,0.2-0.1,0.4-0.1,0.5
	c0,0.3,0.1,0.6,0.3,0.9c0.2,0.3,0.4,0.6,0.8,0.8c0.3,0.2,0.8,0.5,1.3,0.7c0.5,0.2,1.1,0.4,1.8,0.6c1.2,0.4,2.4,0.9,3.3,1.3
	c0.9,0.4,1.7,1,2.4,1.6c0.6,0.6,1.2,1.4,1.5,2.1c0.3,0.6,0.4,1.3,0.5,2.1c0-0.2,0-0.3,0-0.5C33.3,27.1,33.1,26.2,32.8,25.5
	L32.8,25.5z M20.9,29.6c0.2,0.4,0.4,0.7,0.8,1c0.4,0.3,0.8,0.5,1.3,0.6c0.5,0.1,1,0.2,1.7,0.2c0.6,0,1-0.1,1.4-0.2
	c0.3-0.1,0.7-0.3,0.9-0.5s0.4-0.4,0.5-0.7s0.2-0.6,0.2-0.9c0-0.2,0-0.4-0.1-0.5c0,0.1-0.1,0.3-0.1,0.4c-0.1,0.3-0.3,0.5-0.5,0.7
	c-0.2,0.2-0.6,0.4-0.9,0.5c-0.4,0.1-0.8,0.2-1.4,0.2c-0.7,0-1.2-0.1-1.7-0.2c-0.5-0.1-0.9-0.3-1.3-0.6c-0.4-0.3-0.6-0.6-0.8-1
	c-0.2-0.5-0.3-0.6-0.3-1.6H15c0,0.4,0,0.7,0.1,1h5.5C20.6,29,20.7,29.1,20.9,29.6L20.9,29.6z M18.2,13.6c0.8-0.6,1.7-1,2.8-1.3
	c1.1-0.3,2.3-0.5,3.6-0.5c1.3,0,2.5,0.2,3.5,0.5c1,0.3,1.9,0.8,2.7,1.4c0.8,0.7,1.4,1.4,1.8,2.3c0.3,0.6,0.4,1.3,0.5,2h0.1
	c0-1-0.2-2.1-0.6-3s-1-1.6-1.8-2.3c-0.8-0.6-1.7-1.1-2.7-1.4c-1-0.3-2.2-0.5-3.5-0.5c-1.3,0-2.5,0.2-3.6,0.5c-1.1,0.3-2,0.7-2.8,1.3
	c-0.8,0.6-1.4,1.2-1.9,2.1c-0.5,0.9-0.7,1.7-0.7,2.7c0,0.2,0,0.3,0,0.5c0.1-0.8,0.3-1.5,0.7-2.2C16.8,14.8,17.4,14.2,18.2,13.6z
	 M36,11h15v1H36V11z M41,20h9v1h-9V20z M53,17h1v1h-1V17z M59,21h1v1h-1V21z M61,17h1v1h-1V17z M56,27h1v1h-1V27z M60,16v1h1v-1
	h-0.6 M58,27h1v1h-1V27z M55,21h1v1h-1V21z M54,13h1v1h-1V13z M60,14h1v1h-1V14z M59,12v-1h-5v1h1 M60,11h1v1h-1V11z M55,17v-1h-1v1
	h0.7 M59,9h1v1h-1V9z"/>
<path fill="#FFFFFF" d="M31.3,24.4c-0.7-0.6-1.5-1.2-2.4-1.6c-0.9-0.4-2.1-0.9-3.3-1.3c-0.7-0.2-1.3-0.4-1.8-0.6
	c-0.5-0.2-1-0.5-1.3-0.7c-0.4-0.2-0.6-0.5-0.8-0.8c-0.2-0.3-0.3-0.6-0.3-0.9c0-0.2,0-0.4,0.1-0.5c0-0.1,0.1-0.2,0.1-0.4
	c-0.1-0.4,0.1-0.6,0.4-0.8c0.3-0.2,0.6-0.4,1-0.5c0.4-0.1,0.9-0.2,1.4-0.2s1,0.1,1.4,0.2c0.4,0.1,0.7,0.4,1,0.6
	c0.3,0.3,0.5,0.6,0.6,0.9c0.1,0.4,0.2,0.2,0.2,1.2h5.6c0-0.3,0-0.7-0.1-1c-0.1-0.7-0.3-1.4-0.5-2c-0.4-0.9-1-1.6-1.8-2.3
	c-0.8-0.6-1.7-1.1-2.7-1.4c-1-0.3-2.2-0.5-3.5-0.5c-1.3,0-2.5,0.2-3.6,0.5c-1.1,0.3-2,0.7-2.8,1.3c-0.8,0.6-1.4,1.2-1.9,2.1
	c-0.4,0.7-0.6,1.4-0.7,2.2c0,0.2,0,0.3,0,0.5c0,1,0.2,2,0.7,2.7c0.4,0.8,1,1.5,1.8,2c0.7,0.6,1.6,1.1,2.5,1.5
	c0.9,0.4,1.9,0.8,2.9,1.1c0.9,0.3,1.6,0.6,2.1,0.8c0.5,0.3,1,0.5,1.3,0.8c0.3,0.3,0.5,0.5,0.6,0.8c0,0.2,0.1,0.3,0.1,0.5
	c0,0.2,0.1,0.3,0.1,0.5c0,0.3-0.1,0.6-0.2,0.9s-0.3,0.5-0.5,0.7c-0.2,0.2-0.6,0.4-0.9,0.5c-0.4,0.1-0.8,0.2-1.4,0.2
	c-0.7,0-1.2-0.1-1.7-0.2s-0.9-0.3-1.3-0.6c-0.4-0.3-0.6-0.6-0.8-1c-0.2-0.5-0.3-0.6-0.3-1.6H15c0,1,0.1,1.7,0.4,2.4
	c0.3,0.7,0.6,1.4,1.1,2c0.5,0.6,1,1.1,1.6,1.5c0.6,0.4,1.3,0.8,2,1c0.7,0.3,1.5,0.5,2.3,0.6c0.8,0.1,1.6,0.2,2.4,0.2
	c1.3,0,2.5-0.1,3.5-0.4c1.1-0.3,2-0.7,2.7-1.3s1.3-1.2,1.7-2.1c0.4-0.8,0.6-1.7,0.6-2.8c0-0.2,0-0.3,0-0.5c-0.1-0.8-0.2-1.5-0.5-2.1
	C32.5,25.8,31.9,25,31.3,24.4L31.3,24.4z M36,34v1h5v-9h9v-5h-9v-5h10v-4H36 M54,21h2v1h-1v5h2v1h-1v6h1v2h1v-2h1v-6h-1v-1h2v-5h-1
	v-1h2v-1h1v-2h-1v-1h-1v-1h1v-1h-1v-1h1v-2h-1v-2h-1v2h-5v1h1v1h-1v1h1v2h-1v1h-1v2h1"/>
<path fill="#960C0C" d="M12.3,38L12.3,38C6.6,34.3,3,29.4,3,24C3,12.4,19.3,3,39.5,3c11,0,20.9,2.8,27.6,7.3L70,8.8l0,0l0.1,0
	C62.8,3.4,51.8,0,39.5,0C17.7,0,0,10.7,0,24c0,5.9,3.5,11.3,9.4,15.5L12.3,38C12.3,38,12.3,38,12.3,38z"/>
<path opacity="0.8" fill="#E65252" enable-background="new    " d="M9.4,39.5L9.4,39.5c7.1,5.2,17.9,8.5,30,8.5h0.1
	C27.4,48,16.6,44.7,9.4,39.5L9.4,39.5z"/>
<path fill="#B71C1C" d="M70,8.8l-2.9,1.5l0,0l-0.1,0c5.5,3.7,8.8,8.5,8.8,13.7c0,11.6-16.3,21-36.4,21c-10.8,0-20.4-2.7-27.1-7
	l-2.9,1.5c7.2,5.2,18,8.5,30.1,8.5c20.5,0,37.3-9.4,39.3-21.5c0.1-0.8,0.2-1.6,0.2-2.5C79,18.2,75.6,12.9,70,8.8z"/>
<path opacity="0.8" fill="#E65252" enable-background="new    " d="M70,8.8l-2.9,1.5l0,0l-0.1,0c5.5,3.7,8.8,8.5,8.8,13.7
	c0,11.6-16.3,21-36.4,21c-10.8,0-20.4-2.7-27.1-7l-2.9,1.5c7.2,5.2,18,8.5,30.1,8.5c20.5,0,37.3-9.4,39.3-21.5
	c0.1-0.8,0.2-1.6,0.2-2.5C79,18.2,75.6,12.9,70,8.8z"/>
<path fill="#960C0C" d="M67.1,10.3L67.1,10.3l3-1.4l0,0L67.1,10.3z"/>
<path opacity="0.8" fill="#E65252" enable-background="new    " d="M67.1,10.3L67.1,10.3l3-1.4l0,0L67.1,10.3z"/>
<path fill="#960C0C" d="M12.3,38L12.3,38l-3,1.4l0,0L12.3,38z"/>
<path opacity="0.8" fill="#E65252" enable-background="new    " d="M12.3,38L12.3,38l-3,1.4l0,0L12.3,38z"/>
</svg>
