<?xml version="1.0" encoding="utf-8"?>
<!-- Generator: Adobe Illustrator 16.0.0, SVG Export Plug-In . SVG Version: 6.00 Build 0)  -->
<!DOCTYPE svg PUBLIC "-//W3C//DTD SVG 1.1//EN" "http://www.w3.org/Graphics/SVG/1.1/DTD/svg11.dtd">
<svg version="1.1" id="Layer_1" xmlns="http://www.w3.org/2000/svg" xmlns:xlink="http://www.w3.org/1999/xlink" x="0px" y="0px"
	 width="77.596px" height="58.728px" viewBox="0 0 77.596 58.728" enable-background="new 0 0 77.596 58.728" xml:space="preserve">
<g>
	<path d="M19.986,21.193C20.992,12.292,23.894,4.698,27.865,0C12.947,3.271,1.406,18.52,0.123,37.838
		C0.047,38.526,0,39.223,0,39.931c0,0.132,0.017,0.26,0.02,0.392C0.013,40.692,0,41.059,0,41.431h0.076
		c0.766,9.678,8.847,17.297,18.722,17.297c10.382,0,18.798-8.416,18.798-18.797C37.596,29.95,29.812,21.809,19.986,21.193z"/>
	<path d="M59.986,21.193C60.992,12.292,63.894,4.698,67.865,0C52.947,3.271,41.406,18.52,40.123,37.838
		C40.047,38.526,40,39.223,40,39.931c0,0.132,0.017,0.26,0.02,0.392C40.013,40.692,40,41.059,40,41.431h0.076
		c0.766,9.678,8.847,17.297,18.722,17.297c10.382,0,18.798-8.416,18.798-18.797C77.596,29.95,69.812,21.809,59.986,21.193z"/>
</g>
</svg>
