<?xml version="1.0" encoding="utf-8"?>
<!-- Generator: Adobe Illustrator 16.0.0, SVG Export Plug-In . SVG Version: 6.00 Build 0)  -->
<!DOCTYPE svg PUBLIC "-//W3C//DTD SVG 1.1//EN" "http://www.w3.org/Graphics/SVG/1.1/DTD/svg11.dtd">
<svg version="1.1" id="Layer_1" xmlns="http://www.w3.org/2000/svg" xmlns:xlink="http://www.w3.org/1999/xlink" x="0px" y="0px"
	 width="77.596px" height="58.728px" viewBox="0 0 77.596 58.728" enable-background="new 0 0 77.596 58.728" xml:space="preserve">
<g>
	<path d="M57.609,37.535c-1.006,8.902-3.907,16.495-7.879,21.193c14.918-3.271,26.459-18.52,27.742-37.838
		c0.076-0.688,0.123-1.384,0.123-2.092c0-0.132-0.017-0.194-0.02-0.326c0.007-0.369,0.02-1.041,0.02-1.041H77.52
		c-0.766-10-8.847-17.364-18.722-17.364C48.416,0.066,40,8.449,40,18.831C40,28.811,47.784,36.919,57.609,37.535z"/>
	<path d="M17.609,37.535c-1.006,8.902-3.907,16.495-7.879,21.193c14.918-3.271,26.459-18.52,27.742-37.838
		c0.076-0.688,0.123-1.384,0.123-2.092c0-0.132-0.017-0.194-0.02-0.326c0.007-0.369,0.02-1.041,0.02-1.041H37.52
		c-0.766-10-8.847-17.364-18.722-17.364C8.416,0.066,0,8.449,0,18.831C0,28.811,7.784,36.919,17.609,37.535z"/>
</g>
</svg>
