<?xml version="1.0" encoding="utf-8"?>
<!-- Generator: Adobe Illustrator 16.0.0, SVG Export Plug-In . SVG Version: 6.00 Build 0)  -->
<!DOCTYPE svg PUBLIC "-//W3C//DTD SVG 1.1//EN" "http://www.w3.org/Graphics/SVG/1.1/DTD/svg11.dtd">
<svg version="1.1" id="Layer_1" xmlns="http://www.w3.org/2000/svg" xmlns:xlink="http://www.w3.org/1999/xlink" x="0px" y="0px"
	 width="326px" height="142.167px" viewBox="0 0 326 142.167" enable-background="new 0 0 326 142.167" xml:space="preserve">
<g>
	<path fill="none" d="M176.576,128.428c-0.069,0.061-0.135,0.125-0.205,0.185C176.441,128.553,176.507,128.488,176.576,128.428z"/>
	<path fill="none" d="M175.779,129.073c-0.149,0.114-0.299,0.228-0.453,0.336C175.48,129.301,175.63,129.188,175.779,129.073z"/>
	<path fill="none" d="M93.16,128.03c-0.153,0.145-0.312,0.284-0.471,0.423C92.849,128.314,93.007,128.175,93.16,128.03z"/>
	<path fill="none" d="M178.041,126.971c-0.047,0.054-0.097,0.104-0.145,0.157C177.944,127.075,177.995,127.024,178.041,126.971z"/>
	<path fill="none" d="M170.818,131.554c-0.289,0.082-0.58,0.157-0.875,0.223C170.238,131.711,170.529,131.636,170.818,131.554z"/>
	<path fill="none" d="M179.459,125.057c-0.033,0.055-0.066,0.11-0.102,0.164C179.393,125.166,179.426,125.111,179.459,125.057z"/>
	<path fill="none" d="M172.377,131.022c-0.362,0.148-0.732,0.282-1.108,0.402C171.645,131.305,172.015,131.171,172.377,131.022z"/>
	<path fill="none" d="M173.648,130.433c-0.275,0.143-0.557,0.274-0.842,0.4C173.092,130.707,173.373,130.576,173.648,130.433z"/>
	<path fill="none" d="M174.756,129.789c-0.188,0.118-0.377,0.231-0.57,0.342C174.378,130.021,174.568,129.907,174.756,129.789z"/>
	<path fill="none" d="M200.826,131.428c-0.407-0.129-0.809-0.272-1.199-0.435C200.018,131.155,200.419,131.298,200.826,131.428z"/>
	<path fill="none" d="M199.229,130.81c-0.26-0.117-0.519-0.236-0.77-0.367C198.71,130.573,198.969,130.692,199.229,130.81z"/>
	<path fill="none" d="M193.457,126.248c-0.042-0.054-0.083-0.107-0.123-0.162C193.374,126.141,193.416,126.194,193.457,126.248z"/>
	<path fill="none" d="M202.148,131.777c-0.297-0.064-0.59-0.142-0.881-0.224C201.559,131.636,201.852,131.712,202.148,131.777z"/>
	<path fill="none" d="M194.2,127.141c-0.037-0.041-0.076-0.081-0.113-0.123C194.124,127.06,194.163,127.1,194.2,127.141z"/>
	<path fill="none" d="M196.768,129.414c-0.141-0.098-0.276-0.202-0.413-0.305C196.491,129.212,196.627,129.316,196.768,129.414z"/>
	<path fill="none" d="M197.9,130.131c-0.183-0.104-0.363-0.213-0.542-0.325C197.537,129.918,197.718,130.026,197.9,130.131z"/>
	<path fill="none" d="M94.028,127.139c-0.126,0.141-0.252,0.281-0.384,0.416C93.775,127.42,93.901,127.279,94.028,127.139z"/>
	<path fill="none" d="M155.505,127.149c-0.062-0.068-0.126-0.133-0.187-0.202C155.378,127.017,155.443,127.081,155.505,127.149z"/>
	<path fill="none" d="M169.457,131.874c-0.308,0.058-0.619,0.104-0.934,0.142C168.838,131.978,169.149,131.932,169.457,131.874z"/>
	<path fill="none" d="M154.756,126.252c-0.071-0.093-0.144-0.186-0.213-0.279C154.612,126.067,154.685,126.159,154.756,126.252z"/>
	<path fill="none" d="M157.011,128.611c-0.108-0.091-0.21-0.189-0.316-0.283C156.801,128.422,156.902,128.521,157.011,128.611z"/>
	<path fill="none" d="M154.027,125.226c-0.052-0.081-0.102-0.164-0.153-0.246C153.925,125.062,153.975,125.145,154.027,125.226z"/>
	<path fill="none" d="M203.566,132.016c-0.314-0.038-0.627-0.084-0.936-0.141C202.939,131.932,203.252,131.978,203.566,132.016z"/>
	<path fill="none" d="M96.408,123.599c-0.067,0.14-0.135,0.279-0.207,0.417C96.273,123.878,96.341,123.738,96.408,123.599z"/>
	<path fill="none" d="M95.824,124.696c-0.08,0.136-0.165,0.269-0.249,0.401C95.66,124.964,95.744,124.832,95.824,124.696z"/>
	<path fill="none" d="M158.058,129.41c-0.164-0.115-0.323-0.235-0.482-0.356C157.734,129.175,157.894,129.295,158.058,129.41z"/>
	<path fill="none" d="M164.858,132.016c-0.315-0.039-0.628-0.085-0.936-0.142C164.23,131.932,164.543,131.977,164.858,132.016z"/>
	<path fill="none" d="M166.691,132.138c-0.472,0-0.937-0.027-1.396-0.07C165.755,132.11,166.22,132.138,166.691,132.138z"/>
	<path fill="none" d="M168.088,132.068c-0.461,0.042-0.926,0.069-1.396,0.069C167.163,132.138,167.627,132.11,168.088,132.068z"/>
	<path fill="none" d="M159.201,130.134c-0.199-0.114-0.396-0.231-0.59-0.354C158.805,129.902,159.002,130.02,159.201,130.134z"/>
	<path fill="none" d="M160.614,130.852c-0.302-0.133-0.6-0.272-0.891-0.425C160.014,130.579,160.313,130.719,160.614,130.852z"/>
	<path fill="none" d="M162.112,131.424c-0.369-0.117-0.731-0.249-1.086-0.394C161.381,131.175,161.743,131.307,162.112,131.424z"/>
	<path fill="none" d="M163.438,131.775c-0.296-0.064-0.587-0.141-0.876-0.223C162.851,131.635,163.142,131.711,163.438,131.775z"/>
	<path fill="none" d="M178.81,126.011c-0.058,0.078-0.116,0.154-0.176,0.23C178.693,126.165,178.752,126.089,178.81,126.011z"/>
	<path fill="none" d="M277.855,132.032c-0.383-0.044-0.761-0.101-1.134-0.172C277.095,131.933,277.473,131.988,277.855,132.032z"/>
	<path fill="none" d="M279.578,132.138c-0.46,0-0.913-0.028-1.362-0.068C278.666,132.109,279.118,132.138,279.578,132.138z"/>
	<path fill="none" d="M280.946,132.069c-0.451,0.04-0.906,0.068-1.368,0.068C280.04,132.138,280.495,132.11,280.946,132.069z"/>
	<path fill="none" d="M282.486,131.853c-0.416,0.081-0.838,0.146-1.266,0.191C281.648,131.997,282.07,131.935,282.486,131.853z"/>
	<path fill="none" d="M273.664,130.93c-0.381-0.162-0.754-0.341-1.118-0.533C272.91,130.59,273.283,130.768,273.664,130.93z"/>
	<path fill="none" d="M276.518,131.825c-0.426-0.088-0.843-0.197-1.254-0.319C275.675,131.628,276.092,131.737,276.518,131.825z"/>
	<path fill="none" d="M283.859,131.514c-0.356,0.105-0.719,0.197-1.086,0.276C283.141,131.711,283.503,131.62,283.859,131.514z"/>
	<path fill="none" d="M274.924,131.396c-0.324-0.105-0.644-0.221-0.957-0.347C274.28,131.176,274.6,131.291,274.924,131.396z"/>
	<path fill="none" d="M272.232,130.221c-0.273-0.153-0.542-0.314-0.805-0.483C271.69,129.906,271.959,130.067,272.232,130.221z"/>
	<path fill="none" d="M290.76,127.154c-0.064,0.07-0.129,0.14-0.193,0.209C290.631,127.294,290.695,127.225,290.76,127.154z"/>
	<path fill="none" d="M285.179,131.054c-0.361,0.145-0.726,0.282-1.101,0.398C284.453,131.335,284.818,131.199,285.179,131.054z"/>
	<path fill="none" d="M289.63,128.278c-0.087,0.077-0.171,0.156-0.259,0.231C289.459,128.435,289.543,128.355,289.63,128.278z"/>
	<path fill="none" d="M286.561,130.42c-0.316,0.166-0.643,0.32-0.973,0.464C285.918,130.739,286.244,130.587,286.561,130.42z"/>
	<path fill="none" d="M287.593,129.818c-0.188,0.119-0.38,0.234-0.575,0.346C287.212,130.053,287.404,129.938,287.593,129.818z"/>
	<path fill="none" d="M288.819,128.961c-0.153,0.118-0.31,0.232-0.468,0.345C288.51,129.192,288.666,129.08,288.819,128.961z"/>
	<path fill="none" d="M215.72,128.033c-0.075,0.071-0.154,0.138-0.231,0.207C215.564,128.171,215.645,128.104,215.72,128.033z"/>
	<path fill="none" d="M212.256,130.478c-0.225,0.115-0.455,0.224-0.687,0.327C211.801,130.701,212.031,130.594,212.256,130.478z"/>
	<path fill="none" d="M271.082,129.512c-0.328-0.225-0.65-0.459-0.959-0.709C270.432,129.053,270.754,129.287,271.082,129.512z"/>
	<path fill="none" d="M211.094,131.018c-0.387,0.158-0.78,0.303-1.183,0.429C210.313,131.32,210.707,131.176,211.094,131.018z"/>
	<path fill="none" d="M209.565,131.542c-0.317,0.091-0.638,0.175-0.963,0.245C208.928,131.717,209.248,131.634,209.565,131.542z"/>
	<path fill="none" d="M206.779,132.068c-0.457,0.042-0.918,0.069-1.385,0.069C205.861,132.138,206.322,132.11,206.779,132.068z"/>
	<path fill="none" d="M208.148,131.876c-0.313,0.058-0.629,0.105-0.947,0.144C207.52,131.981,207.836,131.934,208.148,131.876z"/>
	<path fill="none" d="M214.259,129.239c-0.112,0.082-0.221,0.169-0.335,0.248C214.038,129.408,214.146,129.321,214.259,129.239z"/>
	<path fill="none" d="M213.35,129.854c-0.18,0.111-0.359,0.222-0.543,0.326C212.99,130.076,213.17,129.967,213.35,129.854z"/>
	<path fill="none" d="M268.838,127.634c-0.228-0.231-0.447-0.47-0.66-0.715C268.391,127.164,268.61,127.402,268.838,127.634z"/>
	<path fill="none" d="M269.846,128.565c-0.228-0.192-0.449-0.392-0.666-0.597C269.396,128.174,269.618,128.373,269.846,128.565z"/>
	<path fill="none" d="M267.848,126.521c-0.192-0.237-0.378-0.48-0.556-0.729C267.47,126.041,267.655,126.283,267.848,126.521z"/>
	<path fill="none" d="M216.544,127.189c-0.062,0.068-0.124,0.136-0.187,0.203C216.42,127.325,216.482,127.258,216.544,127.189z"/>
	<path fill="none" d="M205.395,132.138c-0.471,0-0.935-0.027-1.395-0.069C204.46,132.11,204.924,132.138,205.395,132.138z"/>
	<path fill="none" d="M266.999,125.363c-0.151-0.228-0.294-0.461-0.433-0.697C266.705,124.902,266.848,125.136,266.999,125.363z"/>
	<path fill="none" d="M218.959,123.622c-0.008,0.019-0.018,0.036-0.027,0.055C218.941,123.658,218.951,123.641,218.959,123.622z"/>
	<path fill="none" d="M54.546,127.949c-0.235,0.225-0.478,0.442-0.727,0.652C54.068,128.392,54.311,128.174,54.546,127.949z"/>
	<path fill="none" d="M75.295,130.105c-0.194-0.112-0.387-0.226-0.576-0.346C74.908,129.88,75.101,129.992,75.295,130.105z"/>
	<path fill="none" d="M74.133,129.361c-0.126-0.09-0.25-0.184-0.374-0.276C73.882,129.179,74.006,129.271,74.133,129.361z"/>
	<path fill="none" d="M71.773,127.287c-0.043-0.047-0.086-0.093-0.128-0.139C71.687,127.194,71.73,127.24,71.773,127.287z"/>
	<path fill="none" d="M56.423,125.777c-0.191,0.27-0.391,0.532-0.599,0.788C56.032,126.31,56.232,126.047,56.423,125.777z"/>
	<path fill="none" d="M76.807,130.876c-0.263-0.114-0.52-0.24-0.775-0.369C76.287,130.637,76.544,130.762,76.807,130.876z"/>
	<path fill="none" d="M79.724,131.813c-0.416-0.087-0.826-0.192-1.229-0.313C78.898,131.621,79.308,131.726,79.724,131.813z"/>
	<path fill="none" d="M82.832,132.138c-0.46,0-0.915-0.028-1.364-0.068C81.917,132.11,82.371,132.138,82.832,132.138z"/>
	<path fill="none" d="M84.212,132.068c-0.455,0.042-0.915,0.069-1.38,0.069C83.298,132.138,83.757,132.11,84.212,132.068z"/>
	<path fill="none" d="M85.591,131.875c-0.319,0.06-0.642,0.107-0.967,0.146C84.949,131.982,85.272,131.935,85.591,131.875z"/>
	<path fill="none" d="M78.107,131.371c-0.279-0.092-0.554-0.191-0.826-0.299C77.553,131.18,77.828,131.278,78.107,131.371z"/>
	<path fill="none" d="M81.084,132.028c-0.348-0.04-0.691-0.093-1.031-0.156C80.393,131.936,80.736,131.987,81.084,132.028z"/>
	<path fill="none" d="M55.642,126.793c-0.262,0.31-0.539,0.607-0.825,0.895C55.103,127.399,55.38,127.104,55.642,126.793z"/>
	<path fill="none" d="M40.763,131.747c-0.173-0.039-0.344-0.085-0.515-0.131C40.419,131.662,40.589,131.708,40.763,131.747z"/>
	<path fill="none" d="M48.437,131.507c-0.414,0.123-0.833,0.233-1.262,0.321C47.604,131.74,48.023,131.63,48.437,131.507z"/>
	<path fill="none" d="M45.489,132.069c-0.449,0.04-0.902,0.068-1.362,0.068C44.587,132.138,45.04,132.109,45.489,132.069z"/>
	<path fill="none" d="M42.429,132.035c-0.168-0.019-0.332-0.051-0.498-0.075C42.097,131.984,42.261,132.017,42.429,132.035z"/>
	<path fill="none" d="M47.014,131.856c-0.385,0.074-0.776,0.132-1.171,0.177C46.237,131.988,46.628,131.931,47.014,131.856z"/>
	<path fill="none" d="M39.114,131.267c-0.141-0.05-0.283-0.099-0.422-0.153C38.832,131.168,38.973,131.217,39.114,131.267z"/>
	<path fill="none" d="M51.152,130.4c-0.371,0.195-0.75,0.378-1.138,0.542C50.402,130.777,50.781,130.596,51.152,130.4z"/>
	<path fill="none" d="M52.307,129.72c-0.281,0.182-0.569,0.354-0.862,0.519C51.738,130.074,52.025,129.901,52.307,129.72z"/>
	<path fill="none" d="M37.406,130.545c-0.058-0.029-0.118-0.055-0.175-0.084C37.288,130.49,37.348,130.516,37.406,130.545z"/>
	<path fill="none" d="M49.772,131.037c-0.33,0.134-0.666,0.255-1.007,0.365C49.106,131.292,49.442,131.171,49.772,131.037z"/>
	<path fill="none" d="M53.573,128.81c-0.319,0.258-0.65,0.501-0.991,0.732C52.923,129.311,53.253,129.067,53.573,128.81z"/>
	<path fill="none" d="M88.517,131.023c-0.394,0.16-0.794,0.309-1.204,0.437C87.722,131.332,88.123,131.184,88.517,131.023z"/>
	<path fill="none" d="M89.7,130.475c-0.25,0.128-0.503,0.248-0.76,0.362C89.197,130.723,89.451,130.603,89.7,130.475z"/>
	<path fill="none" d="M87.102,131.517c-0.357,0.105-0.72,0.198-1.088,0.277C86.382,131.715,86.745,131.622,87.102,131.517z"/>
	<path fill="none" d="M90.875,129.802c-0.234,0.147-0.469,0.292-0.711,0.428C90.405,130.094,90.641,129.949,90.875,129.802z"/>
	<path fill="none" d="M92.216,128.855c-0.304,0.242-0.616,0.475-0.939,0.693C91.6,129.33,91.912,129.098,92.216,128.855z"/>
	<path fill="#FF0000" d="M323.412,103.021c-0.012-22.066-3.785-27.827-3.785-27.827C309.322,65.005,298.206,64.5,298.206,64.5
		h-0.036c0.111-1-0.176-2.771-0.949-4.542l-10.47-23.93c-1.373-3.146-5.024-5.528-7.876-5.528h-33.566
		c-0.596,0-1.309,0.594-1.309,0.792V2.582C244,1.156,242.426,0,241,0s-3,1.156-3,2.582V101.5h-3V34.756
		c0-5.344-4.602-9.256-9.945-9.256H21.643C16.299,25.5,12,29.412,12,34.756v67.179c-3,0.612-5,3.168-5,6.23v2.746
		c0,3.52,2.725,6.589,6.329,6.589h7.589c-0.002,0-0.004-0.266-0.004-0.354c0-12.801,10.414-23.269,23.213-23.269
		c8.072,0,15.191,4.116,19.354,10.385c4.16-6.269,11.28-10.426,19.352-10.426c12.801,0,23.214,10.516,23.214,23.316
		c0,0.089-0.002,0.348-0.004,0.348h37.438c-0.002,0-0.004-0.266-0.004-0.354c0-12.801,10.414-23.269,23.215-23.269
		c8.071,0,15.19,4.115,19.352,10.385c4.161-6.27,11.28-10.426,19.352-10.426c12.801,0,23.215,10.516,23.215,23.316
		c0,0.089-0.002,0.348-0.004,0.348h27.762c-0.002,0-0.004-0.266-0.004-0.354c0-12.801,10.414-23.269,23.215-23.269
		c12.8,0,23.214,10.495,23.214,23.296c0,0.089-0.002,0.327-0.005,0.327h16.884c3.604,0,6.329-3.069,6.329-6.589v-2.746
		C326,106.049,325.038,104.18,323.412,103.021z M290.669,64.5h-28.033h-5.663h-10.15c-1.906,0-2.822-1.138-2.822-3.59V39.475
		c0-1.51,0.516-2.975,1.928-2.975h24.937h5.663h1.89c1.409,0,3.46,1.383,4.149,2.893l9.758,21.142
		C293.439,62.985,292.575,64.5,290.669,64.5z"/>
	<g>
		<path fill="#B3B3B3" d="M44.127,127.138c-0.345,0-0.716-0.023-1.133-0.07l-0.337-0.055c-0.263-0.038-0.522-0.081-0.776-0.139
			c-0.125-0.028-0.23-0.059-0.335-0.087c-0.26-0.069-0.511-0.145-0.756-0.232l-0.267-0.095c-0.316-0.122-0.602-0.248-0.879-0.387
			l-0.172-0.083c-1.326-0.699-2.503-1.704-3.407-2.91c-1.29-1.722-1.99-3.753-2.024-5.878c0-0.062-0.004-0.167-0.011-0.283
			c0.063-5.515,4.57-9.982,10.099-9.982s10.035,4.465,10.101,9.979c-0.006,0.104-0.011,0.206-0.012,0.309
			c-0.032,1.927-0.624,3.813-1.712,5.434l-0.15,0.214c-0.136,0.192-0.27,0.368-0.41,0.54l-0.134,0.168
			c-0.159,0.188-0.345,0.387-0.536,0.579l-0.187,0.179c-0.156,0.149-0.322,0.298-0.492,0.442l-0.139,0.117
			c-0.239,0.194-0.46,0.356-0.687,0.511l-0.186,0.118c-0.183,0.118-0.379,0.236-0.58,0.349l-0.21,0.117
			c-0.218,0.115-0.468,0.236-0.725,0.345l-0.164,0.063c-0.23,0.094-0.453,0.173-0.679,0.246l-0.231,0.074
			c-0.24,0.071-0.497,0.142-0.76,0.197c-0.073,0.013-0.142,0.025-0.21,0.039c-0.217,0.042-0.481,0.08-0.748,0.11l-0.241,0.024
			C44.743,127.116,44.437,127.138,44.127,127.138z"/>
		<path fill="#666666" d="M44.127,111.937c2.748,0,4.996,2.184,5.098,4.907c-0.004,0.097-0.007,0.19-0.008,0.276
			c-0.017,0.995-0.307,1.921-0.863,2.749l-0.084,0.118c-0.065,0.093-0.134,0.183-0.187,0.247c-0.044,0.054-0.087,0.107-0.133,0.165
			c-0.056,0.063-0.121,0.132-0.195,0.207l-0.041,0.039l-0.073,0.069c-0.083,0.079-0.167,0.155-0.255,0.229
			c-0.046,0.039-0.094,0.079-0.146,0.124c-0.065,0.051-0.138,0.104-0.227,0.166l-0.133,0.085c-0.103,0.066-0.209,0.13-0.317,0.19
			l0,0l-0.128,0.071l-0.006,0.004c-0.084,0.043-0.162,0.081-0.232,0.112c-0.056,0.021-0.115,0.045-0.182,0.072
			c-0.098,0.039-0.208,0.079-0.326,0.117l-0.088,0.028l-0.06,0.02c-0.113,0.033-0.209,0.059-0.278,0.076
			c-0.051,0.009-0.102,0.019-0.152,0.028c-0.106,0.02-0.232,0.038-0.375,0.055l-0.137,0.015c-0.267,0.024-0.405,0.029-0.474,0.029
			c-0.122,0-0.269-0.008-0.454-0.026c-0.097-0.016-0.195-0.031-0.295-0.046c-0.239-0.035-0.345-0.058-0.37-0.063l-0.179-0.048
			c-0.142-0.038-0.266-0.075-0.387-0.118l-0.08-0.028l-0.073-0.026c-0.141-0.055-0.277-0.114-0.406-0.179
			c-0.053-0.026-0.106-0.053-0.16-0.079c-0.644-0.353-1.216-0.85-1.661-1.443c-0.453-0.604-0.998-1.605-1.024-2.941
			c-0.001-0.095-0.004-0.189-0.007-0.284C39.126,114.127,41.376,111.937,44.127,111.937 M44.127,101.937
			c-8.338,0-15.1,6.761-15.1,15.101c0,0.083,0.012,0.163,0.012,0.246c0.054,3.3,1.177,6.333,3.021,8.794c0,0,0,0,0.001,0
			c1.366,1.824,3.133,3.329,5.17,4.384c0.058,0.029,0.118,0.055,0.175,0.084c0.418,0.209,0.847,0.398,1.286,0.568
			c0.139,0.055,0.281,0.104,0.422,0.153c0.371,0.132,0.75,0.247,1.133,0.35c0.171,0.046,0.342,0.092,0.515,0.131
			c0.383,0.088,0.774,0.155,1.168,0.213c0.167,0.024,0.33,0.057,0.498,0.075c0.558,0.063,1.123,0.103,1.698,0.103
			c0.46,0,0.913-0.028,1.362-0.068c0.118-0.011,0.236-0.023,0.353-0.036c0.395-0.045,0.786-0.103,1.171-0.177
			c0.053-0.011,0.108-0.018,0.162-0.028c0.428-0.088,0.848-0.198,1.262-0.321c0.11-0.033,0.219-0.069,0.328-0.104
			c0.341-0.11,0.677-0.231,1.007-0.365c0.08-0.032,0.162-0.061,0.241-0.095c0.389-0.164,0.768-0.347,1.138-0.542
			c0.099-0.053,0.195-0.108,0.292-0.162c0.293-0.164,0.581-0.337,0.862-0.519c0.092-0.06,0.186-0.116,0.275-0.178
			c0.34-0.231,0.671-0.475,0.991-0.732c0.084-0.067,0.164-0.14,0.247-0.208c0.249-0.21,0.491-0.428,0.727-0.652
			c0.091-0.087,0.183-0.173,0.271-0.262c0.286-0.287,0.563-0.585,0.825-0.895c0.063-0.074,0.121-0.152,0.182-0.228
			c0.208-0.256,0.408-0.519,0.599-0.788c0.078-0.109,0.156-0.22,0.231-0.332c1.572-2.34,2.512-5.142,2.561-8.162
			c0.001-0.083,0.013-0.163,0.013-0.246C59.229,108.697,52.468,101.937,44.127,101.937L44.127,101.937z"/>
	</g>
	<g>
		<path fill="#B3B3B3" d="M82.832,127.138c-0.311,0-0.617-0.021-0.921-0.049l-0.256-0.028c-0.229-0.026-0.458-0.062-0.684-0.104
			l-0.21-0.037c-0.292-0.06-0.567-0.131-0.836-0.212l-0.241-0.082c-0.2-0.065-0.382-0.132-0.562-0.203
			c-0.088-0.035-0.188-0.073-0.287-0.117c-0.21-0.092-0.378-0.176-0.546-0.261c-0.157-0.08-0.32-0.168-0.479-0.262
			c-0.14-0.081-0.273-0.157-0.402-0.24c-0.116-0.074-0.248-0.165-0.377-0.257l-0.204-0.151c-0.531-0.402-0.98-0.809-1.38-1.241
			l-0.083-0.09c-0.605-0.673-1.118-1.419-1.521-2.216c-0.703-1.387-1.072-2.863-1.096-4.385c-0.002-0.109-0.006-0.199-0.012-0.283
			c0.063-5.516,4.57-9.983,10.1-9.983c5.532,0,10.039,4.471,10.099,9.989c-0.006,0.103-0.01,0.2-0.011,0.299
			c-0.021,1.261-0.286,2.518-0.787,3.715c-0.064,0.152-0.141,0.306-0.216,0.46l-0.149,0.305c-0.08,0.153-0.164,0.305-0.251,0.453
			c-0.051,0.086-0.106,0.171-0.161,0.257c-0.312,0.492-0.66,0.952-1.044,1.379c-0.096,0.106-0.17,0.191-0.249,0.271
			c-0.111,0.114-0.222,0.223-0.335,0.329c-0.102,0.097-0.21,0.19-0.318,0.284l-0.076,0.066c-0.083,0.072-0.165,0.146-0.25,0.214
			c-0.186,0.148-0.395,0.305-0.612,0.452l-0.278,0.171c-0.147,0.093-0.309,0.193-0.476,0.287c-0.095,0.053-0.203,0.107-0.309,0.162
			c-0.158,0.081-0.328,0.161-0.501,0.238l-0.287,0.128c-0.228,0.093-0.468,0.184-0.715,0.264l-0.213,0.06
			c-0.244,0.071-0.485,0.134-0.73,0.187l-0.287,0.054c-0.215,0.04-0.43,0.071-0.647,0.097l-0.273,0.032
			C83.449,127.117,83.143,127.138,82.832,127.138z"/>
		<path fill="#666666" d="M82.832,111.937c2.751,0,5.001,2.19,5.097,4.92c-0.004,0.094-0.006,0.183-0.007,0.264
			c-0.011,0.645-0.145,1.279-0.38,1.843c-0.04,0.087-0.083,0.173-0.14,0.29l-0.067,0.141c-0.04,0.076-0.081,0.15-0.108,0.197
			l-0.104,0.164c-0.153,0.242-0.33,0.475-0.546,0.716l-0.099,0.11c-0.059,0.061-0.119,0.118-0.176,0.173
			c-0.055,0.051-0.112,0.1-0.169,0.149l-0.081,0.07l-0.115,0.1c-0.065,0.051-0.127,0.098-0.186,0.14
			c-0.078,0.048-0.152,0.094-0.209,0.13c-0.088,0.056-0.176,0.112-0.237,0.146l-0.167,0.087c-0.085,0.044-0.173,0.085-0.247,0.117
			l-0.185,0.083l-0.027,0.013c-0.083,0.032-0.157,0.061-0.223,0.084c-0.061,0.017-0.122,0.034-0.184,0.053
			c-0.106,0.031-0.212,0.059-0.323,0.084l-0.055,0.01l-0.14,0.025c-0.106,0.02-0.213,0.035-0.336,0.05l-0.081,0.01l-0.078,0.01
			c-0.221,0.02-0.353,0.023-0.426,0.023c-0.069,0-0.208-0.005-0.451-0.026l-0.152-0.018c-0.105-0.012-0.22-0.029-0.331-0.05
			c-0.067-0.013-0.135-0.025-0.21-0.038c-0.077-0.018-0.157-0.038-0.24-0.062l-0.218-0.073c-0.09-0.03-0.18-0.063-0.245-0.088
			l-0.121-0.048l-0.034-0.015l-0.037-0.017c-0.083-0.037-0.165-0.079-0.232-0.113c-0.08-0.041-0.159-0.084-0.252-0.139
			c-0.068-0.039-0.136-0.077-0.203-0.119c-0.06-0.039-0.118-0.079-0.166-0.113l-0.112-0.084l-0.042-0.031
			c-0.247-0.188-0.47-0.391-0.64-0.574l-0.095-0.103c-0.299-0.338-0.423-0.708-0.62-1.097c-0.358-0.708-0.43-1.451-0.43-2.209
			v-0.038v-0.038c0-0.066-0.133-0.132-0.136-0.197C77.963,114.123,80.083,111.937,82.832,111.937 M82.832,101.937
			c-8.34,0-15.101,6.761-15.101,15.101c0,0.083,0.011,0.163,0.013,0.246c0.038,2.363,0.633,4.585,1.636,6.565
			c0.609,1.201,1.373,2.309,2.265,3.3c0.042,0.046,0.085,0.092,0.128,0.139c0.606,0.656,1.272,1.257,1.986,1.798
			c0.124,0.093,0.248,0.187,0.374,0.276c0.192,0.137,0.388,0.271,0.586,0.398c0.188,0.12,0.382,0.233,0.576,0.346
			c0.242,0.141,0.487,0.274,0.737,0.401c0.255,0.129,0.512,0.255,0.775,0.369c0.156,0.069,0.315,0.133,0.475,0.196
			c0.271,0.107,0.546,0.207,0.826,0.299c0.129,0.043,0.257,0.089,0.388,0.129c0.403,0.12,0.813,0.226,1.229,0.313
			c0.109,0.023,0.22,0.039,0.329,0.06c0.34,0.063,0.683,0.116,1.031,0.156c0.127,0.015,0.255,0.029,0.384,0.041
			c0.45,0.04,0.904,0.068,1.364,0.068c0.466,0,0.925-0.027,1.38-0.069c0.138-0.013,0.274-0.03,0.411-0.047
			c0.326-0.039,0.648-0.087,0.967-0.146c0.142-0.026,0.283-0.051,0.423-0.081c0.368-0.079,0.73-0.172,1.088-0.277
			c0.07-0.021,0.142-0.035,0.21-0.057c0.41-0.128,0.81-0.276,1.204-0.437c0.143-0.059,0.283-0.124,0.424-0.187
			c0.257-0.114,0.51-0.234,0.76-0.362c0.155-0.08,0.311-0.16,0.463-0.245c0.242-0.136,0.478-0.28,0.711-0.428
			c0.134-0.085,0.272-0.164,0.403-0.253c0.323-0.219,0.635-0.451,0.939-0.693c0.162-0.13,0.316-0.267,0.473-0.402
			c0.16-0.139,0.318-0.278,0.471-0.423c0.165-0.155,0.326-0.313,0.484-0.476c0.131-0.135,0.257-0.275,0.384-0.416
			c0.571-0.634,1.089-1.316,1.547-2.041c0.084-0.133,0.169-0.266,0.249-0.401c0.132-0.224,0.257-0.45,0.377-0.681
			c0.072-0.138,0.139-0.277,0.207-0.417c0.116-0.24,0.232-0.479,0.336-0.727c0.723-1.726,1.143-3.608,1.175-5.589
			c0.001-0.083,0.012-0.163,0.012-0.246C97.932,108.697,91.172,101.937,82.832,101.937L82.832,101.937z"/>
	</g>
	<g>
		<path fill="#B3B3B3" d="M166.691,127.138c-0.314,0-0.624-0.02-0.932-0.049l-0.302-0.037c-0.203-0.025-0.419-0.057-0.632-0.096
			c-0.1-0.019-0.21-0.041-0.32-0.065c-0.198-0.043-0.389-0.094-0.577-0.147l-0.311-0.087c-0.235-0.075-0.475-0.162-0.709-0.258
			l-0.28-0.123c-0.198-0.088-0.395-0.178-0.586-0.278c-0.094-0.049-0.185-0.104-0.276-0.156c-0.21-0.12-0.342-0.198-0.47-0.279
			c-0.127-0.081-0.249-0.162-0.369-0.246c-0.108-0.075-0.216-0.158-0.325-0.241l-0.094-0.071c-0.091-0.069-0.183-0.137-0.271-0.211
			l-0.229-0.208c-0.28-0.249-0.548-0.515-0.789-0.782l-0.16-0.172c-0.099-0.114-0.222-0.272-0.343-0.43l-0.154-0.201
			c-0.107-0.147-0.227-0.318-0.34-0.493l-0.097-0.158c-0.385-0.622-0.701-1.276-0.937-1.944c-0.372-1.051-0.569-2.128-0.586-3.201
			c-0.001-0.089-0.005-0.187-0.011-0.288c0.066-5.513,4.572-9.978,10.101-9.978c5.532,0,10.039,4.472,10.099,9.99
			c-0.006,0.102-0.009,0.198-0.011,0.297c-0.017,1.05-0.213,2.125-0.583,3.173c-0.244,0.689-0.57,1.362-0.971,2l-0.06,0.097
			c-0.127,0.198-0.251,0.374-0.378,0.547l-0.093,0.121c-0.154,0.201-0.277,0.357-0.408,0.507l-0.094,0.1
			c-0.288,0.322-0.585,0.614-0.903,0.892l-0.193,0.174c-0.033,0.027-0.546,0.415-0.645,0.485c-0.12,0.083-0.255,0.172-0.391,0.259
			c-0.098,0.062-0.225,0.137-0.354,0.211c-0.175,0.102-0.28,0.164-0.389,0.221c-0.153,0.079-0.342,0.166-0.532,0.251l-0.293,0.131
			c-0.252,0.104-0.497,0.191-0.746,0.271l-0.303,0.084c-0.187,0.053-0.384,0.104-0.584,0.148c-0.094,0.021-0.204,0.043-0.316,0.063
			c-0.21,0.039-0.415,0.068-0.622,0.094l-0.306,0.039C167.323,127.117,167.009,127.138,166.691,127.138z"/>
		<path fill="#666666" d="M166.691,111.937c2.751,0,5.001,2.19,5.097,4.92c-0.004,0.094-0.007,0.183-0.008,0.264
			c-0.009,0.531-0.109,1.074-0.298,1.609c-0.121,0.343-0.286,0.682-0.49,1.007l-0.067,0.108c-0.051,0.076-0.105,0.152-0.17,0.238
			l-0.032,0.041l-0.032,0.042c-0.04,0.053-0.08,0.105-0.135,0.172l-0.065,0.07l-0.021,0.023l-0.021,0.023
			c-0.131,0.146-0.281,0.293-0.451,0.44c-0.029,0.026-0.06,0.053-0.089,0.079l-0.071,0.054l-0.133,0.102l-0.135,0.102
			c-0.057,0.038-0.112,0.075-0.17,0.112c-0.057,0.035-0.118,0.071-0.212,0.125l-0.051,0.029l-0.136,0.079
			c-0.078,0.038-0.157,0.073-0.236,0.108l-0.04,0.018l-0.039,0.018l-0.093,0.043l-0.05,0.022c-0.078,0.031-0.16,0.061-0.233,0.085
			l-0.011,0.004l-0.212,0.059c-0.103,0.029-0.205,0.057-0.277,0.073c-0.059,0.013-0.119,0.024-0.194,0.038
			c-0.098,0.019-0.196,0.031-0.291,0.043l-0.235,0.029c-0.163,0.014-0.297,0.021-0.398,0.021c-0.107,0-0.246-0.008-0.414-0.022
			h-0.001l-0.188-0.023c-0.12-0.016-0.24-0.031-0.335-0.049c-0.06-0.011-0.118-0.023-0.188-0.038
			c-0.091-0.021-0.181-0.046-0.258-0.067l-0.225-0.063l-0.01-0.002c-0.08-0.027-0.161-0.058-0.237-0.088l-0.081-0.035l-0.112-0.05
			c-0.13-0.058-0.208-0.095-0.253-0.117l-0.125-0.071l-0.089-0.052c-0.066-0.038-0.132-0.076-0.202-0.12
			c-0.06-0.038-0.119-0.077-0.164-0.108c-0.062-0.044-0.121-0.09-0.163-0.122l-0.112-0.086l-0.059-0.045
			c-0.049-0.045-0.096-0.087-0.137-0.123c-0.151-0.135-0.288-0.27-0.401-0.395c-0.041-0.046-0.083-0.092-0.126-0.139
			c-0.045-0.056-0.088-0.112-0.126-0.163l-0.053-0.068l-0.045-0.058c-0.058-0.08-0.113-0.159-0.156-0.225l0.014,0.02l-0.069-0.111
			c-0.197-0.319-0.357-0.649-0.473-0.978c-0.192-0.542-0.293-1.086-0.301-1.572c-0.001-0.106-0.004-0.213-0.009-0.319
			C161.694,114.122,163.942,111.937,166.691,111.937 M166.691,101.937c-8.341,0-15.102,6.761-15.102,15.101
			c0,0.083,0.012,0.163,0.013,0.246c0.027,1.679,0.341,3.285,0.873,4.789c0.363,1.024,0.835,1.997,1.399,2.907
			c0.051,0.082,0.101,0.165,0.153,0.246c0.165,0.254,0.337,0.503,0.516,0.747c0.069,0.094,0.142,0.187,0.213,0.279
			c0.182,0.236,0.367,0.471,0.563,0.695c0.06,0.069,0.125,0.134,0.187,0.202c0.374,0.415,0.772,0.808,1.19,1.179
			c0.106,0.094,0.208,0.192,0.316,0.283c0.183,0.154,0.374,0.297,0.564,0.442c0.159,0.121,0.318,0.241,0.482,0.356
			c0.181,0.127,0.366,0.25,0.554,0.369c0.193,0.123,0.391,0.24,0.59,0.354c0.173,0.1,0.345,0.2,0.522,0.293
			c0.291,0.152,0.589,0.292,0.891,0.425c0.137,0.061,0.272,0.122,0.411,0.179c0.355,0.145,0.718,0.276,1.086,0.394
			c0.148,0.047,0.299,0.086,0.45,0.129c0.289,0.082,0.58,0.158,0.876,0.223c0.161,0.035,0.322,0.068,0.485,0.099
			c0.308,0.057,0.621,0.103,0.936,0.142c0.146,0.018,0.29,0.039,0.437,0.052c0.46,0.043,0.925,0.07,1.396,0.07
			c0.471,0,0.936-0.027,1.396-0.069c0.146-0.014,0.29-0.035,0.436-0.053c0.314-0.038,0.626-0.084,0.934-0.142
			c0.163-0.03,0.325-0.063,0.486-0.098c0.295-0.065,0.586-0.141,0.875-0.223c0.15-0.043,0.302-0.082,0.45-0.129
			c0.376-0.12,0.746-0.254,1.108-0.402c0.146-0.06,0.287-0.125,0.43-0.189c0.285-0.126,0.566-0.258,0.842-0.4
			c0.182-0.096,0.359-0.199,0.537-0.302c0.193-0.11,0.383-0.224,0.57-0.342c0.192-0.123,0.383-0.249,0.57-0.38
			c0.154-0.108,0.304-0.222,0.453-0.336c0.199-0.151,0.4-0.301,0.592-0.461c0.07-0.06,0.136-0.124,0.205-0.185
			c0.466-0.406,0.908-0.84,1.32-1.3c0.048-0.053,0.098-0.104,0.145-0.157c0.207-0.235,0.402-0.48,0.593-0.729
			c0.06-0.076,0.118-0.152,0.176-0.23c0.19-0.258,0.374-0.521,0.548-0.79c0.035-0.054,0.068-0.109,0.102-0.164
			c0.588-0.936,1.078-1.938,1.452-2.996c0.529-1.5,0.841-3.103,0.868-4.777c0.001-0.083,0.012-0.163,0.012-0.246
			C181.791,108.697,175.031,101.937,166.691,101.937L166.691,101.937z"/>
	</g>
	<g>
		<path fill="#B3B3B3" d="M205.395,127.138c-0.317,0-0.63-0.021-0.939-0.049l-0.285-0.037c-0.216-0.025-0.427-0.057-0.637-0.095
			c-0.095-0.018-0.204-0.04-0.313-0.063c-0.208-0.045-0.402-0.098-0.596-0.152l-0.3-0.084c-0.258-0.081-0.522-0.175-0.78-0.282
			l-0.27-0.128c-0.163-0.073-0.336-0.151-0.504-0.238c-0.128-0.066-0.25-0.139-0.372-0.209c-0.138-0.079-0.259-0.152-0.38-0.228
			c-0.116-0.074-0.249-0.159-0.378-0.25l-0.286-0.213c-0.525-0.396-1.011-0.839-1.436-1.312l-0.115-0.124
			c-0.105-0.122-0.244-0.293-0.379-0.468l-0.09-0.118c-0.605-0.81-1.084-1.694-1.422-2.632c-0.386-1.069-0.59-2.164-0.607-3.253
			c-0.002-0.109-0.006-0.199-0.011-0.283c0.063-5.516,4.569-9.983,10.1-9.983c5.532,0,10.04,4.472,10.1,9.99
			c-0.006,0.102-0.009,0.198-0.011,0.297c-0.019,1.185-0.264,2.384-0.726,3.546c-0.087,0.218-0.182,0.43-0.282,0.639l-0.035,0.07
			c-0.414,0.847-0.952,1.638-1.601,2.353l-0.148,0.161c-0.109,0.115-0.257,0.266-0.408,0.409l-0.138,0.12
			c-0.264,0.239-0.542,0.465-0.841,0.684l-0.196,0.146c-0.108,0.078-0.203,0.135-0.297,0.193l-0.11,0.068
			c-0.111,0.069-0.238,0.148-0.368,0.222c-0.105,0.06-0.228,0.126-0.351,0.189c-0.154,0.079-0.305,0.148-0.454,0.216l-0.314,0.145
			c-0.27,0.11-0.53,0.206-0.797,0.29l-0.247,0.065c-0.192,0.056-0.406,0.112-0.624,0.16l-0.24,0.047
			c-0.273,0.05-0.485,0.082-0.698,0.107l-0.28,0.034C206.016,127.117,205.707,127.138,205.395,127.138z"/>
		<path fill="#666666" d="M205.395,111.937c2.752,0,5.002,2.19,5.098,4.92c-0.004,0.094-0.007,0.184-0.008,0.267
			c-0.009,0.596-0.135,1.2-0.372,1.798c-0.034,0.085-0.075,0.178-0.122,0.276l-0.041,0.084c-0.207,0.424-0.48,0.824-0.838,1.218
			l-0.053,0.058c-0.05,0.052-0.101,0.104-0.154,0.157l-0.127,0.112c-0.124,0.112-0.268,0.229-0.417,0.338
			c-0.047,0.034-0.093,0.068-0.144,0.106l-0.045,0.028l-0.089,0.055c-0.074,0.047-0.148,0.094-0.192,0.119
			c-0.06,0.033-0.12,0.067-0.2,0.107c-0.066,0.034-0.136,0.065-0.204,0.097l-0.047,0.021l-0.046,0.021l-0.136,0.063l-0.018,0.008
			c-0.073,0.029-0.145,0.056-0.216,0.08c-0.08,0.021-0.153,0.042-0.21,0.059c-0.098,0.028-0.195,0.056-0.327,0.086l-0.097,0.018
			l-0.055,0.011c-0.106,0.02-0.214,0.035-0.308,0.047l-0.188,0.022l-0.029,0.004c-0.215,0.019-0.345,0.022-0.417,0.022
			c-0.103,0-0.239-0.007-0.388-0.02l-0.237-0.03c-0.112-0.014-0.224-0.028-0.303-0.043c-0.059-0.011-0.116-0.022-0.197-0.04
			c-0.098-0.021-0.193-0.233-0.246-0.249l-0.252-0.256h-0.003c-0.079,0-0.144,0.136-0.194,0.117
			c-0.083-0.039-0.163,0.016-0.233-0.016c-0.09-0.041-0.181-0.033-0.239-0.062c-0.069-0.038-0.137-0.056-0.234-0.112
			c-0.063-0.036-0.126-0.062-0.153-0.079c-0.063-0.04-0.127-0.073-0.188-0.116l-0.068-0.048l-0.088-0.064
			c-0.276-0.208-0.523-0.433-0.754-0.688l-0.062-0.066c-0.056-0.065-0.109-0.133-0.161-0.201l-0.029-0.038l-0.004-0.005
			l-0.024-0.032c-0.308-0.411-0.701-0.857-0.873-1.329c-0.197-0.549-0.463-1.1-0.463-1.637v-0.037v-0.037
			c0-0.066,0.148-0.133,0.145-0.199C200.244,114.123,202.645,111.937,205.395,111.937 M205.395,101.937
			c-8.341,0-15.101,6.761-15.101,15.101c0,0.083,0.011,0.163,0.013,0.246c0.027,1.709,0.353,3.342,0.902,4.867
			c0.513,1.424,1.234,2.747,2.125,3.936c0.04,0.055,0.081,0.108,0.123,0.162c0.202,0.264,0.411,0.521,0.63,0.77
			c0.037,0.042,0.076,0.082,0.113,0.123c0.651,0.725,1.375,1.382,2.154,1.969c0.137,0.103,0.272,0.207,0.413,0.305
			c0.193,0.136,0.391,0.265,0.591,0.392c0.179,0.112,0.359,0.221,0.542,0.325c0.185,0.106,0.369,0.213,0.559,0.312
			c0.251,0.131,0.51,0.25,0.77,0.367c0.133,0.06,0.263,0.127,0.398,0.184c0.391,0.162,0.792,0.306,1.199,0.435
			c0.146,0.046,0.295,0.084,0.441,0.126c0.291,0.082,0.584,0.159,0.881,0.224c0.16,0.035,0.32,0.067,0.482,0.098
			c0.309,0.057,0.621,0.103,0.936,0.141c0.145,0.018,0.288,0.039,0.434,0.053c0.46,0.042,0.924,0.069,1.395,0.069
			c0.467,0,0.928-0.027,1.385-0.069c0.141-0.013,0.281-0.032,0.422-0.049c0.318-0.038,0.635-0.086,0.947-0.144
			c0.151-0.028,0.304-0.056,0.454-0.089c0.325-0.07,0.646-0.154,0.963-0.245c0.114-0.033,0.231-0.06,0.346-0.096
			c0.402-0.126,0.796-0.271,1.183-0.429c0.162-0.065,0.318-0.141,0.476-0.213c0.231-0.104,0.462-0.212,0.687-0.327
			c0.186-0.095,0.369-0.194,0.551-0.297c0.184-0.104,0.363-0.215,0.543-0.326c0.192-0.12,0.387-0.238,0.574-0.367
			c0.114-0.079,0.223-0.166,0.335-0.248c0.427-0.313,0.838-0.645,1.229-0.999c0.077-0.069,0.156-0.136,0.231-0.207
			c0.219-0.207,0.431-0.422,0.638-0.641c0.063-0.067,0.125-0.135,0.187-0.203c0.95-1.048,1.759-2.228,2.388-3.513
			c0.01-0.019,0.02-0.036,0.027-0.055c0.159-0.328,0.308-0.661,0.443-1.002c0.66-1.657,1.051-3.451,1.081-5.337
			c0.001-0.083,0.012-0.163,0.012-0.246C220.495,108.697,213.734,101.937,205.395,101.937L205.395,101.937z"/>
	</g>
	<g>
		<path fill="#B3B3B3" d="M279.578,127.138c-0.311,0-0.615-0.021-0.919-0.049l-0.238-0.024c-0.254-0.029-0.509-0.067-0.761-0.115
			l-0.195-0.034c-0.264-0.057-0.522-0.127-0.778-0.202l-0.206-0.068c-0.227-0.073-0.439-0.15-0.649-0.234l-0.171-0.066
			c-0.29-0.122-0.538-0.241-0.779-0.368l-0.203-0.116c-0.186-0.104-0.367-0.213-0.546-0.327l-0.213-0.138
			c-0.229-0.157-0.444-0.312-0.648-0.477l-0.2-0.174c-0.153-0.129-0.306-0.267-0.455-0.407l-0.211-0.208
			c-0.156-0.158-0.307-0.321-0.452-0.488c-0.057-0.067-0.133-0.158-0.206-0.25c-0.143-0.176-0.266-0.338-0.385-0.503
			c-0.068-0.097-0.131-0.19-0.193-0.285c-0.105-0.158-0.198-0.312-0.289-0.467l-0.115-0.191c-0.832-1.512-1.248-3.087-1.275-4.742
			c-0.002-0.108-0.006-0.198-0.011-0.282c0.063-5.516,4.569-9.983,10.101-9.983c5.532,0,10.039,4.472,10.099,9.99
			c-0.006,0.102-0.009,0.198-0.011,0.297c-0.033,2.055-0.701,4.046-1.931,5.737c-0.202,0.278-0.434,0.563-0.688,0.844l-0.143,0.154
			c-0.185,0.197-0.396,0.402-0.615,0.599l-0.119,0.107c-0.186,0.163-0.307,0.26-0.429,0.355c-0.075,0.059-0.18,0.134-0.284,0.208
			c-0.197,0.143-0.361,0.254-0.53,0.359c-0.13,0.083-0.256,0.158-0.385,0.232l-0.296,0.167c-0.218,0.115-0.434,0.217-0.652,0.312
			l-0.248,0.103c-0.262,0.105-0.501,0.198-0.747,0.274l-0.164,0.045c-0.23,0.068-0.471,0.129-0.714,0.182l-0.117,0.026
			c-0.351,0.07-0.632,0.113-0.916,0.144l-0.219,0.02C280.199,127.116,279.891,127.138,279.578,127.138z"/>
		<path fill="#666666" d="M279.578,111.937c2.751,0,5.001,2.19,5.097,4.92c-0.004,0.093-0.007,0.183-0.008,0.263
			c-0.021,1.318-0.543,2.306-0.976,2.902c-0.094,0.127-0.204,0.263-0.329,0.403l-0.087,0.095c-0.1,0.106-0.21,0.213-0.326,0.318l0,0
			l-0.135,0.121c-0.038,0.032-0.078,0.063-0.117,0.095c-0.044,0.033-0.089,0.065-0.135,0.098l-0.036,0.025l-0.035,0.026
			c-0.075,0.054-0.151,0.105-0.241,0.162c-0.061,0.038-0.122,0.075-0.17,0.103l-0.149,0.086l-0.054,0.03
			c-0.063,0.032-0.156,0.077-0.289,0.135l-0.123,0.05c-0.146,0.059-0.235,0.093-0.289,0.111c-0.053,0.016-0.104,0.03-0.154,0.045
			c-0.109,0.032-0.229,0.063-0.354,0.09l-0.043,0.009l-0.044,0.01l-0.065,0.015c-0.123,0.022-0.245,0.041-0.365,0.054l0.033-0.004
			l-0.122,0.011c-0.271,0.024-0.413,0.029-0.483,0.029c-0.068,0-0.207-0.005-0.471-0.028l-0.111-0.012
			c-0.144-0.017-0.277-0.037-0.423-0.064c-0.047-0.009-0.093-0.017-0.14-0.025c-0.078-0.019-0.167-0.043-0.269-0.072l-0.017-0.006
			l-0.132-0.043c-0.114-0.037-0.223-0.076-0.353-0.128l-0.144-0.057c-0.075-0.033-0.155-0.071-0.249-0.119l-0.148-0.085
			c-0.098-0.055-0.193-0.111-0.28-0.168l-0.107-0.068l-0.036-0.023c-0.103-0.07-0.174-0.123-0.229-0.165
			c-0.058-0.051-0.114-0.1-0.167-0.144c-0.076-0.064-0.15-0.131-0.223-0.199l-0.111-0.107c-0.076-0.078-0.15-0.157-0.222-0.239
			c-0.035-0.041-0.073-0.087-0.132-0.16c-0.063-0.078-0.125-0.159-0.188-0.247l-0.104-0.152c-0.047-0.071-0.09-0.146-0.153-0.254
			l-0.35-0.175c-0.37-0.708-0.821-1.472-0.821-2.274v-0.036v-0.036c0-0.066,0.239-0.133,0.237-0.199
			C274.336,114.123,276.828,111.937,279.578,111.937 M279.578,101.937c-8.341,0-15.102,6.761-15.102,15.101
			c0,0.083,0.011,0.163,0.013,0.246c0.041,2.535,0.71,4.917,1.852,7.002c0.071,0.13,0.15,0.254,0.226,0.381
			c0.139,0.236,0.281,0.47,0.433,0.697c0.096,0.145,0.192,0.288,0.293,0.429c0.178,0.249,0.363,0.492,0.556,0.729
			c0.107,0.134,0.218,0.267,0.33,0.397c0.213,0.245,0.433,0.483,0.66,0.715c0.111,0.113,0.227,0.225,0.342,0.335
			c0.217,0.205,0.438,0.404,0.666,0.597c0.094,0.079,0.183,0.161,0.277,0.237c0.309,0.25,0.631,0.484,0.959,0.709
			c0.113,0.078,0.23,0.151,0.346,0.226c0.263,0.169,0.531,0.33,0.805,0.483c0.104,0.059,0.207,0.12,0.313,0.176
			c0.364,0.192,0.737,0.371,1.118,0.533c0.1,0.043,0.202,0.08,0.303,0.12c0.313,0.126,0.633,0.241,0.957,0.347
			c0.113,0.037,0.225,0.075,0.34,0.109c0.411,0.122,0.828,0.231,1.254,0.319c0.067,0.014,0.137,0.022,0.204,0.035
			c0.373,0.071,0.751,0.128,1.134,0.172c0.12,0.014,0.24,0.026,0.36,0.037c0.449,0.04,0.902,0.068,1.362,0.068
			c0.462,0,0.917-0.028,1.368-0.068c0.092-0.009,0.184-0.016,0.274-0.025c0.428-0.046,0.85-0.11,1.266-0.191
			c0.097-0.019,0.191-0.041,0.287-0.063c0.367-0.079,0.729-0.171,1.086-0.276c0.072-0.021,0.146-0.039,0.219-0.062
			c0.375-0.116,0.739-0.254,1.101-0.398c0.138-0.056,0.274-0.11,0.409-0.17c0.33-0.144,0.656-0.298,0.973-0.464
			c0.155-0.081,0.306-0.17,0.457-0.256c0.195-0.111,0.387-0.227,0.575-0.346c0.259-0.163,0.512-0.334,0.759-0.513
			c0.158-0.112,0.314-0.227,0.468-0.345c0.188-0.146,0.372-0.296,0.552-0.451c0.088-0.075,0.172-0.154,0.259-0.231
			c0.325-0.292,0.638-0.597,0.937-0.915c0.064-0.069,0.129-0.139,0.193-0.209c0.36-0.399,0.702-0.816,1.02-1.253
			c1.766-2.429,2.834-5.397,2.887-8.618c0.001-0.083,0.012-0.163,0.012-0.246C294.678,108.697,287.918,101.937,279.578,101.937
			L279.578,101.937z"/>
	</g>
	<path opacity="0.15" d="M291.779,125.901c-0.316,0.437-0.658,0.854-1.02,1.253c-0.064,0.07-0.129,0.14-0.193,0.209
		c-0.299,0.318-0.611,0.623-0.937,0.915c-0.087,0.077-0.171,0.156-0.259,0.231c-0.181,0.155-0.364,0.305-0.552,0.451
		c-0.153,0.119-0.31,0.231-0.468,0.345c-0.248,0.179-0.5,0.35-0.759,0.513c-0.188,0.119-0.381,0.234-0.575,0.346
		c-0.152,0.086-0.301,0.175-0.457,0.256c-0.316,0.167-0.643,0.319-0.973,0.464c-0.135,0.059-0.271,0.115-0.409,0.17
		c-0.36,0.146-0.726,0.281-1.101,0.398c-0.072,0.022-0.146,0.04-0.219,0.062c-0.356,0.106-0.719,0.197-1.086,0.276
		c-0.096,0.021-0.19,0.044-0.287,0.063c-0.416,0.082-0.838,0.145-1.266,0.191c-0.091,0.01-0.183,0.017-0.274,0.025
		c-0.451,0.041-0.906,0.068-1.368,0.068c-0.46,0-0.912-0.028-1.362-0.068c-0.12-0.011-0.24-0.023-0.36-0.037
		c-0.383-0.044-0.761-0.1-1.134-0.172c-0.067-0.013-0.137-0.021-0.204-0.035c-0.426-0.088-0.843-0.197-1.254-0.319
		c-0.115-0.034-0.227-0.072-0.34-0.109c-0.324-0.105-0.644-0.221-0.957-0.347c-0.101-0.04-0.203-0.077-0.303-0.12
		c-0.381-0.162-0.754-0.34-1.118-0.533c-0.106-0.056-0.209-0.117-0.313-0.176c-0.273-0.153-0.542-0.314-0.805-0.483
		c-0.115-0.074-0.232-0.147-0.346-0.226c-0.328-0.225-0.65-0.459-0.959-0.709c-0.096-0.076-0.184-0.158-0.277-0.237
		c-0.228-0.192-0.449-0.392-0.666-0.597c-0.115-0.11-0.229-0.222-0.342-0.335c-0.228-0.231-0.447-0.47-0.66-0.715
		c-0.112-0.131-0.223-0.264-0.33-0.397c-0.192-0.238-0.378-0.48-0.556-0.729c-0.101-0.141-0.197-0.284-0.293-0.429
		c-0.151-0.228-0.294-0.461-0.433-0.697c-0.075-0.127-0.154-0.251-0.226-0.381c-13.909-0.706-29.741-1.272-46.938-1.665
		c-0.135,0.341-0.283,0.674-0.443,1.002c-0.008,0.019-0.018,0.036-0.027,0.055c-0.63,1.285-1.435,2.465-2.388,3.513
		c-0.062,0.068-0.124,0.136-0.187,0.203c-0.207,0.219-0.418,0.434-0.638,0.641c-0.075,0.071-0.155,0.138-0.231,0.207
		c-0.393,0.354-0.802,0.688-1.229,0.999c-0.112,0.082-0.221,0.169-0.335,0.248c-0.188,0.129-0.381,0.247-0.574,0.367
		c-0.18,0.112-0.359,0.222-0.543,0.326c-0.182,0.103-0.364,0.202-0.551,0.297c-0.225,0.116-0.455,0.224-0.687,0.327
		c-0.158,0.071-0.313,0.147-0.476,0.213c-0.387,0.158-0.78,0.303-1.183,0.429c-0.114,0.036-0.231,0.063-0.346,0.096
		c-0.317,0.092-0.638,0.175-0.963,0.245c-0.15,0.033-0.302,0.061-0.454,0.089c-0.313,0.058-0.629,0.105-0.947,0.144
		c-0.141,0.017-0.281,0.036-0.422,0.049c-0.457,0.042-0.918,0.069-1.385,0.069c-0.471,0-0.935-0.027-1.395-0.069
		c-0.146-0.014-0.289-0.035-0.434-0.053c-0.314-0.038-0.627-0.084-0.936-0.141c-0.162-0.03-0.322-0.063-0.482-0.098
		c-0.297-0.065-0.59-0.142-0.881-0.224c-0.146-0.042-0.296-0.08-0.441-0.126c-0.407-0.13-0.809-0.272-1.199-0.435
		c-0.136-0.057-0.266-0.124-0.398-0.184c-0.26-0.117-0.519-0.236-0.77-0.367c-0.189-0.099-0.373-0.205-0.559-0.312
		c-0.183-0.104-0.363-0.213-0.542-0.325c-0.2-0.127-0.397-0.256-0.591-0.392c-0.141-0.098-0.276-0.202-0.413-0.305
		c-0.78-0.586-1.501-1.245-2.154-1.969c-0.037-0.041-0.076-0.081-0.113-0.123c-0.22-0.249-0.427-0.506-0.63-0.77
		c-0.041-0.054-0.083-0.107-0.123-0.162c-0.893-1.188-1.612-2.511-2.125-3.936c-3.398-0.036-6.832-0.066-10.298-0.09
		c-0.374,1.059-0.863,2.061-1.452,2.996c-0.033,0.055-0.066,0.109-0.102,0.164c-0.174,0.27-0.357,0.532-0.548,0.79
		c-0.058,0.078-0.116,0.154-0.176,0.23c-0.191,0.249-0.386,0.494-0.593,0.729c-0.046,0.054-0.097,0.104-0.145,0.157
		c-0.413,0.46-0.854,0.894-1.32,1.3c-0.069,0.061-0.135,0.125-0.205,0.185c-0.191,0.16-0.392,0.31-0.592,0.461
		c-0.149,0.114-0.299,0.228-0.453,0.336c-0.188,0.131-0.377,0.257-0.57,0.38c-0.188,0.118-0.378,0.231-0.57,0.342
		c-0.178,0.103-0.354,0.206-0.537,0.302c-0.275,0.144-0.557,0.274-0.842,0.4c-0.143,0.063-0.283,0.13-0.43,0.189
		c-0.362,0.148-0.732,0.282-1.108,0.402c-0.148,0.047-0.3,0.086-0.45,0.129c-0.289,0.082-0.58,0.157-0.875,0.223
		c-0.161,0.035-0.322,0.067-0.486,0.098c-0.308,0.058-0.619,0.104-0.934,0.142c-0.146,0.018-0.289,0.039-0.436,0.053
		c-0.461,0.042-0.925,0.069-1.396,0.069s-0.937-0.027-1.396-0.07c-0.147-0.013-0.291-0.034-0.437-0.052
		c-0.315-0.039-0.628-0.084-0.936-0.142c-0.163-0.03-0.324-0.063-0.485-0.099c-0.296-0.064-0.587-0.141-0.876-0.223
		c-0.15-0.043-0.302-0.082-0.45-0.129c-0.369-0.117-0.731-0.249-1.086-0.394c-0.139-0.057-0.274-0.118-0.411-0.179
		c-0.302-0.133-0.6-0.272-0.891-0.425c-0.177-0.092-0.349-0.193-0.522-0.293c-0.199-0.114-0.396-0.231-0.59-0.354
		c-0.188-0.119-0.372-0.242-0.554-0.369c-0.164-0.115-0.323-0.235-0.482-0.356c-0.19-0.146-0.381-0.289-0.564-0.442
		c-0.108-0.091-0.21-0.189-0.316-0.283c-0.418-0.371-0.815-0.764-1.19-1.179c-0.062-0.068-0.126-0.133-0.187-0.202
		c-0.196-0.225-0.38-0.459-0.563-0.695c-0.071-0.093-0.144-0.185-0.213-0.279c-0.179-0.244-0.352-0.492-0.516-0.747
		c-0.052-0.081-0.102-0.164-0.153-0.246c-0.564-0.91-1.036-1.882-1.399-2.907c-0.006-0.018-0.014-0.033-0.02-0.051
		c-19.73,0.078-38.506,0.373-55.709,0.847c0,0.001-0.001,0.002-0.001,0.004c-0.104,0.247-0.22,0.486-0.336,0.727
		c-0.067,0.14-0.135,0.279-0.207,0.417c-0.12,0.23-0.246,0.457-0.377,0.681c-0.08,0.136-0.165,0.268-0.249,0.401
		c-0.458,0.725-0.976,1.407-1.547,2.041c-0.126,0.141-0.252,0.281-0.384,0.416c-0.158,0.162-0.319,0.32-0.484,0.476
		c-0.153,0.145-0.312,0.284-0.471,0.423c-0.157,0.136-0.311,0.272-0.473,0.402c-0.304,0.242-0.616,0.475-0.939,0.693
		c-0.131,0.089-0.269,0.168-0.403,0.253c-0.234,0.147-0.469,0.292-0.711,0.428c-0.152,0.085-0.307,0.165-0.463,0.245
		c-0.25,0.128-0.503,0.248-0.76,0.362c-0.141,0.063-0.281,0.128-0.424,0.187c-0.394,0.16-0.794,0.309-1.204,0.437
		c-0.069,0.021-0.141,0.036-0.21,0.057c-0.357,0.105-0.72,0.198-1.088,0.277c-0.14,0.03-0.282,0.055-0.423,0.081
		c-0.319,0.06-0.642,0.107-0.967,0.146c-0.137,0.017-0.273,0.035-0.411,0.047c-0.455,0.042-0.915,0.069-1.38,0.069
		c-0.461,0-0.915-0.027-1.364-0.068c-0.129-0.012-0.256-0.026-0.384-0.041c-0.348-0.041-0.691-0.093-1.031-0.156
		c-0.109-0.021-0.22-0.036-0.329-0.06c-0.416-0.087-0.826-0.191-1.229-0.313c-0.131-0.039-0.259-0.086-0.388-0.129
		c-0.279-0.093-0.554-0.191-0.826-0.299c-0.16-0.063-0.318-0.127-0.475-0.196c-0.263-0.114-0.52-0.239-0.775-0.369
		c-0.25-0.127-0.495-0.262-0.737-0.401c-0.194-0.113-0.387-0.226-0.576-0.346c-0.199-0.128-0.394-0.262-0.586-0.398
		c-0.126-0.09-0.25-0.183-0.374-0.276c-0.715-0.54-1.378-1.142-1.986-1.798c-0.043-0.047-0.086-0.093-0.128-0.139
		c-0.894-0.991-1.656-2.098-2.265-3.3c-0.003-0.007-0.007-0.013-0.011-0.02c-4.172,0.182-8.198,0.375-12.07,0.579
		c-0.199,0.356-0.417,0.7-0.644,1.037c-0.075,0.112-0.153,0.223-0.231,0.332c-0.191,0.27-0.391,0.532-0.599,0.788
		c-0.062,0.075-0.119,0.153-0.182,0.228c-0.262,0.311-0.539,0.606-0.825,0.895c-0.088,0.089-0.18,0.175-0.271,0.262
		c-0.235,0.225-0.478,0.442-0.727,0.652c-0.083,0.069-0.163,0.141-0.247,0.208c-0.319,0.258-0.65,0.501-0.991,0.732
		c-0.09,0.062-0.184,0.118-0.275,0.178c-0.281,0.182-0.569,0.354-0.862,0.519c-0.098,0.054-0.193,0.109-0.292,0.162
		c-0.371,0.195-0.75,0.377-1.138,0.542c-0.079,0.034-0.161,0.063-0.241,0.095c-0.33,0.134-0.666,0.255-1.007,0.365
		c-0.109,0.035-0.218,0.071-0.328,0.104c-0.414,0.123-0.833,0.233-1.262,0.321c-0.053,0.011-0.108,0.018-0.162,0.028
		c-0.385,0.074-0.776,0.132-1.171,0.177c-0.118,0.013-0.235,0.025-0.353,0.036c-0.449,0.04-0.902,0.068-1.362,0.068
		c-0.575,0-1.14-0.039-1.698-0.103c-0.168-0.019-0.332-0.051-0.498-0.075c-0.394-0.058-0.784-0.125-1.168-0.213
		c-0.173-0.039-0.344-0.085-0.515-0.131c-0.384-0.103-0.762-0.219-1.133-0.35c-0.142-0.05-0.283-0.099-0.422-0.153
		c-0.439-0.17-0.868-0.359-1.286-0.568c-0.058-0.029-0.118-0.055-0.175-0.084c-2.042-1.053-3.804-2.559-5.171-4.384
		C11.919,127.755,0,129.833,0,132.084c0,5.569,72.978,10.083,163,10.083s163-4.514,163-10.083
		C326,129.754,313.225,127.609,291.779,125.901z"/>
	<g>
		<path fill="#B3B3B3" d="M40.248,131.616c-0.384-0.103-0.762-0.218-1.133-0.35C39.486,131.397,39.863,131.514,40.248,131.616z"/>
		<path fill="#666666" d="M39.114,131.267c0.332,0.118,0.67,0.223,1.013,0.316C39.784,131.489,39.447,131.384,39.114,131.267
			L39.114,131.267z M40.127,131.583c0.04,0.012,0.08,0.022,0.121,0.033C40.207,131.605,40.167,131.595,40.127,131.583
			L40.127,131.583z"/>
	</g>
	<path opacity="0.15" d="M40.248,131.616c-0.384-0.103-0.762-0.218-1.133-0.35C39.486,131.397,39.863,131.514,40.248,131.616z"/>
	<g>
		<path fill="#B3B3B3" d="M45.842,132.033c-0.117,0.013-0.235,0.025-0.353,0.036C45.607,132.059,45.725,132.046,45.842,132.033z"/>
		<path fill="#666666" d="M45.842,132.033c-0.118,0.013-0.235,0.025-0.353,0.036C45.607,132.059,45.725,132.046,45.842,132.033
			L45.842,132.033z"/>
	</g>
	<path opacity="0.15" d="M45.842,132.033c-0.117,0.013-0.235,0.025-0.353,0.036C45.607,132.059,45.725,132.046,45.842,132.033z"/>
	<g>
		<path fill="#B3B3B3" d="M38.692,131.113c-0.439-0.17-0.868-0.359-1.286-0.568C37.824,130.754,38.252,130.943,38.692,131.113z"/>
		<path fill="#666666" d="M37.406,130.545c0.214,0.107,0.432,0.209,0.652,0.306C37.837,130.754,37.62,130.652,37.406,130.545
			L37.406,130.545z M38.058,130.851c0.209,0.093,0.42,0.18,0.634,0.263C38.478,131.03,38.267,130.943,38.058,130.851L38.058,130.851
			z"/>
	</g>
	<path opacity="0.15" d="M38.692,131.113c-0.439-0.17-0.868-0.359-1.286-0.568C37.824,130.754,38.252,130.943,38.692,131.113z"/>
	<g>
		<path fill="#B3B3B3" d="M41.931,131.96c-0.394-0.058-0.785-0.125-1.168-0.213C41.146,131.835,41.537,131.902,41.931,131.96z"/>
		<path fill="#666666" d="M40.763,131.747c0.38,0.087,0.768,0.154,1.159,0.212C41.531,131.901,41.144,131.834,40.763,131.747
			L40.763,131.747z M41.921,131.959c0.003,0,0.006,0.001,0.009,0.001C41.928,131.96,41.924,131.959,41.921,131.959L41.921,131.959z"
			/>
	</g>
	<path opacity="0.15" d="M41.931,131.96c-0.394-0.058-0.785-0.125-1.168-0.213C41.146,131.835,41.537,131.902,41.931,131.96z"/>
	<g>
		<path fill="#B3B3B3" d="M44.127,132.138c-0.575,0-1.14-0.039-1.698-0.103C42.987,132.099,43.552,132.138,44.127,132.138z"/>
		<path fill="#666666" d="M42.429,132.035c0.558,0.063,1.123,0.103,1.698,0.103C43.552,132.138,42.987,132.099,42.429,132.035
			L42.429,132.035z"/>
	</g>
	<path opacity="0.15" d="M44.127,132.138c-0.575,0-1.14-0.039-1.698-0.103C42.987,132.099,43.552,132.138,44.127,132.138z"/>
	<g>
		<path fill="#B3B3B3" d="M47.175,131.828c-0.053,0.011-0.108,0.018-0.162,0.028C47.067,131.846,47.122,131.839,47.175,131.828z"/>
		<path fill="#666666" d="M47.175,131.828c-0.053,0.011-0.108,0.018-0.162,0.028C47.067,131.846,47.122,131.839,47.175,131.828
			L47.175,131.828z"/>
	</g>
	<path opacity="0.15" d="M47.175,131.828c-0.053,0.011-0.108,0.018-0.162,0.028C47.067,131.846,47.122,131.839,47.175,131.828z"/>
	<g>
		<path fill="#B3B3B3" d="M54.817,127.688c-0.088,0.089-0.18,0.175-0.271,0.262C54.637,127.862,54.729,127.776,54.817,127.688z"/>
		<path fill="#666666" d="M54.817,127.688c-0.088,0.089-0.18,0.175-0.271,0.262C54.637,127.862,54.729,127.776,54.817,127.688
			L54.817,127.688z"/>
	</g>
	<path opacity="0.15" d="M54.817,127.688c-0.088,0.089-0.18,0.175-0.271,0.262C54.637,127.862,54.729,127.776,54.817,127.688z"/>
	<g>
		<path fill="#B3B3B3" d="M51.444,130.238c-0.098,0.054-0.194,0.109-0.292,0.162C51.251,130.348,51.347,130.292,51.444,130.238z"/>
		<path fill="#666666" d="M51.444,130.238c-0.098,0.054-0.194,0.109-0.292,0.162C51.251,130.348,51.347,130.292,51.444,130.238
			L51.444,130.238z"/>
	</g>
	<path opacity="0.15" d="M51.444,130.238c-0.098,0.054-0.194,0.109-0.292,0.162C51.251,130.348,51.347,130.292,51.444,130.238z"/>
	<g>
		<path fill="#B3B3B3" d="M37.23,130.461c-2.037-1.055-3.804-2.56-5.17-4.384c0,0,0,0-0.001,0
			C33.427,127.902,35.189,129.408,37.23,130.461z"/>
		<path fill="#666666" d="M32.061,126.077C32.06,126.077,32.06,126.077,32.061,126.077c1.366,1.825,3.128,3.331,5.17,4.384
			C35.193,129.406,33.427,127.901,32.061,126.077L32.061,126.077z"/>
	</g>
	<path opacity="0.15" d="M37.23,130.461c-2.037-1.055-3.804-2.56-5.17-4.384c0,0,0,0-0.001,0
		C33.427,127.902,35.189,129.408,37.23,130.461z"/>
	<g>
		<path fill="#B3B3B3" d="M53.819,128.602c-0.083,0.068-0.163,0.141-0.247,0.208C53.657,128.742,53.737,128.671,53.819,128.602z"/>
		<path fill="#666666" d="M53.819,128.602c-0.081,0.066-0.159,0.137-0.24,0.203C53.661,128.738,53.739,128.669,53.819,128.602
			L53.819,128.602z M53.579,128.805c-0.002,0.002-0.004,0.003-0.006,0.005C53.575,128.808,53.577,128.807,53.579,128.805
			L53.579,128.805z"/>
	</g>
	<path opacity="0.15" d="M53.819,128.602c-0.083,0.068-0.163,0.141-0.247,0.208C53.657,128.742,53.737,128.671,53.819,128.602z"/>
	<g>
		<path fill="#B3B3B3" d="M52.582,129.542c-0.09,0.062-0.184,0.118-0.275,0.178C52.398,129.66,52.492,129.604,52.582,129.542z"/>
		<path fill="#666666" d="M52.582,129.542c-0.09,0.062-0.184,0.118-0.275,0.178C52.398,129.66,52.492,129.604,52.582,129.542
			L52.582,129.542z"/>
	</g>
	<path opacity="0.15" d="M52.582,129.542c-0.09,0.062-0.184,0.118-0.275,0.178C52.398,129.66,52.492,129.604,52.582,129.542z"/>
	<g>
		<path fill="#B3B3B3" d="M56.655,125.445c-0.075,0.112-0.153,0.223-0.231,0.332C56.501,125.668,56.58,125.558,56.655,125.445z"/>
		<path fill="#666666" d="M56.655,125.445c-0.075,0.112-0.153,0.223-0.231,0.332C56.501,125.668,56.58,125.558,56.655,125.445
			L56.655,125.445z"/>
	</g>
	<path opacity="0.15" d="M56.655,125.445c-0.075,0.112-0.153,0.223-0.231,0.332C56.501,125.668,56.58,125.558,56.655,125.445z"/>
	<g>
		<path fill="#B3B3B3" d="M55.824,126.565c-0.062,0.075-0.119,0.153-0.182,0.228C55.705,126.719,55.763,126.641,55.824,126.565z"/>
		<path fill="#666666" d="M55.824,126.565c-0.062,0.075-0.119,0.153-0.182,0.228C55.705,126.719,55.763,126.641,55.824,126.565
			L55.824,126.565z"/>
	</g>
	<path opacity="0.15" d="M55.824,126.565c-0.062,0.075-0.119,0.153-0.182,0.228C55.705,126.719,55.763,126.641,55.824,126.565z"/>
	<g>
		<path fill="#B3B3B3" d="M48.765,131.402c-0.109,0.035-0.218,0.071-0.328,0.104C48.547,131.474,48.656,131.438,48.765,131.402z"/>
		<path fill="#666666" d="M48.765,131.402c-0.109,0.035-0.218,0.071-0.328,0.104C48.547,131.474,48.656,131.438,48.765,131.402
			L48.765,131.402z"/>
	</g>
	<path opacity="0.15" d="M48.765,131.402c-0.109,0.035-0.218,0.071-0.328,0.104C48.547,131.474,48.656,131.438,48.765,131.402z"/>
	<g>
		<path fill="#B3B3B3" d="M50.014,130.942c-0.079,0.034-0.161,0.063-0.241,0.095C49.853,131.005,49.935,130.977,50.014,130.942z"/>
		<path fill="#666666" d="M50.014,130.942c-0.079,0.034-0.161,0.063-0.241,0.095C49.853,131.005,49.935,130.977,50.014,130.942
			L50.014,130.942z"/>
	</g>
	<path opacity="0.15" d="M50.014,130.942c-0.079,0.034-0.161,0.063-0.241,0.095C49.853,131.005,49.935,130.977,50.014,130.942z"/>
	<g>
		<path fill="#B3B3B3" d="M77.282,131.072c-0.159-0.063-0.318-0.127-0.475-0.196C76.964,130.945,77.122,131.009,77.282,131.072z"/>
		<path fill="#666666" d="M76.807,130.876c0.076,0.034,0.153,0.066,0.23,0.098C76.96,130.942,76.883,130.91,76.807,130.876
			L76.807,130.876z M77.037,130.974c0.081,0.033,0.163,0.066,0.245,0.099C77.2,131.04,77.119,131.007,77.037,130.974L77.037,130.974
			z"/>
	</g>
	<path opacity="0.15" d="M77.282,131.072c-0.159-0.063-0.318-0.127-0.475-0.196C76.964,130.945,77.122,131.009,77.282,131.072z"/>
	<g>
		<path fill="#B3B3B3" d="M84.624,132.021c-0.137,0.017-0.273,0.034-0.411,0.047C84.351,132.057,84.486,132.038,84.624,132.021z"/>
		<path fill="#666666" d="M84.624,132.021c-0.008,0.001-0.016,0.002-0.024,0.003C84.607,132.023,84.616,132.022,84.624,132.021
			L84.624,132.021z M84.6,132.024c-0.128,0.016-0.257,0.032-0.387,0.044C84.343,132.058,84.471,132.04,84.6,132.024L84.6,132.024z"
			/>
	</g>
	<path opacity="0.15" d="M84.624,132.021c-0.137,0.017-0.273,0.034-0.411,0.047C84.351,132.057,84.486,132.038,84.624,132.021z"/>
	<g>
		<path fill="#B3B3B3" d="M76.032,130.507c-0.25-0.127-0.496-0.261-0.737-0.401C75.537,130.245,75.782,130.38,76.032,130.507z"/>
		<path fill="#666666" d="M75.295,130.105c0.201,0.117,0.405,0.229,0.611,0.337C75.7,130.334,75.497,130.222,75.295,130.105
			L75.295,130.105z M75.906,130.442c0.042,0.021,0.084,0.043,0.126,0.064C75.99,130.485,75.948,130.464,75.906,130.442
			L75.906,130.442z"/>
	</g>
	<path opacity="0.15" d="M76.032,130.507c-0.25-0.127-0.496-0.261-0.737-0.401C75.537,130.245,75.782,130.38,76.032,130.507z"/>
	<g>
		<path fill="#B3B3B3" d="M86.014,131.794c-0.14,0.03-0.282,0.055-0.423,0.081C85.732,131.849,85.874,131.824,86.014,131.794z"/>
		<path fill="#666666" d="M86.014,131.794c-0.14,0.03-0.282,0.055-0.423,0.081C85.732,131.849,85.874,131.824,86.014,131.794
			L86.014,131.794z"/>
	</g>
	<path opacity="0.15" d="M86.014,131.794c-0.14,0.03-0.282,0.055-0.423,0.081C85.732,131.849,85.874,131.824,86.014,131.794z"/>
	<g>
		<path fill="#B3B3B3" d="M96.745,122.872c-0.104,0.247-0.22,0.486-0.336,0.727C96.524,123.358,96.641,123.119,96.745,122.872z"/>
		<path fill="#666666" d="M96.745,122.872c-0.104,0.247-0.22,0.486-0.336,0.727C96.524,123.358,96.641,123.119,96.745,122.872
			L96.745,122.872z"/>
	</g>
	<path opacity="0.15" d="M96.745,122.872c-0.104,0.247-0.22,0.486-0.336,0.727C96.524,123.358,96.641,123.119,96.745,122.872z"/>
	<g>
		<path fill="#B3B3B3" d="M96.202,124.016c-0.12,0.23-0.246,0.457-0.377,0.681C95.956,124.473,96.082,124.246,96.202,124.016z"/>
		<path fill="#666666" d="M96.202,124.016c-0.12,0.23-0.246,0.457-0.377,0.681C95.956,124.473,96.082,124.246,96.202,124.016
			L96.202,124.016z"/>
	</g>
	<path opacity="0.15" d="M96.202,124.016c-0.12,0.23-0.246,0.457-0.377,0.681C95.956,124.473,96.082,124.246,96.202,124.016z"/>
	<g>
		<path fill="#B3B3B3" d="M81.468,132.069c-0.129-0.012-0.256-0.026-0.384-0.041C81.211,132.043,81.339,132.058,81.468,132.069z"/>
		<path fill="#666666" d="M81.084,132.028c0.127,0.015,0.255,0.029,0.384,0.041C81.339,132.058,81.211,132.043,81.084,132.028
			L81.084,132.028z"/>
	</g>
	<path opacity="0.15" d="M81.468,132.069c-0.129-0.012-0.256-0.026-0.384-0.041C81.211,132.043,81.339,132.058,81.468,132.069z"/>
	<g>
		<path fill="#B3B3B3" d="M80.053,131.872c-0.109-0.021-0.22-0.036-0.329-0.06C79.833,131.836,79.944,131.852,80.053,131.872z"/>
		<path fill="#666666" d="M79.724,131.813c0.109,0.023,0.22,0.039,0.329,0.06C79.944,131.852,79.833,131.836,79.724,131.813
			L79.724,131.813z"/>
	</g>
	<path opacity="0.15" d="M80.053,131.872c-0.109-0.021-0.22-0.036-0.329-0.06C79.833,131.836,79.944,131.852,80.053,131.872z"/>
	<g>
		<path fill="#B3B3B3" d="M78.496,131.5c-0.131-0.04-0.259-0.086-0.388-0.129C78.237,131.414,78.364,131.461,78.496,131.5z"/>
		<path fill="#666666" d="M78.107,131.371c0.129,0.043,0.257,0.09,0.388,0.129C78.365,131.46,78.237,131.414,78.107,131.371
			L78.107,131.371z"/>
	</g>
	<path opacity="0.15" d="M78.496,131.5c-0.131-0.04-0.259-0.086-0.388-0.129C78.237,131.414,78.364,131.461,78.496,131.5z"/>
	<g>
		<path fill="#B3B3B3" d="M92.689,128.453c-0.156,0.136-0.311,0.272-0.473,0.402C92.378,128.726,92.532,128.589,92.689,128.453z"/>
		<path fill="#666666" d="M92.689,128.453c-0.079,0.068-0.156,0.136-0.234,0.203C92.533,128.589,92.611,128.521,92.689,128.453
			L92.689,128.453z M92.455,128.656c-0.079,0.067-0.158,0.135-0.238,0.199C92.297,128.791,92.376,128.724,92.455,128.656
			L92.455,128.656z"/>
	</g>
	<path opacity="0.15" d="M92.689,128.453c-0.156,0.136-0.311,0.272-0.473,0.402C92.378,128.726,92.532,128.589,92.689,128.453z"/>
	<g>
		<path fill="#B3B3B3" d="M88.94,130.837c-0.141,0.063-0.281,0.128-0.424,0.187C88.66,130.965,88.799,130.899,88.94,130.837z"/>
		<path fill="#666666" d="M88.94,130.837c-0.141,0.063-0.281,0.128-0.424,0.187C88.66,130.965,88.799,130.899,88.94,130.837
			L88.94,130.837z"/>
	</g>
	<path opacity="0.15" d="M88.94,130.837c-0.141,0.063-0.281,0.128-0.424,0.187C88.66,130.965,88.799,130.899,88.94,130.837z"/>
	<g>
		<path fill="#B3B3B3" d="M90.163,130.229c-0.152,0.085-0.308,0.165-0.463,0.245C89.856,130.395,90.011,130.314,90.163,130.229z"/>
		<path fill="#666666" d="M90.163,130.229c-0.152,0.085-0.308,0.165-0.463,0.245C89.856,130.395,90.011,130.314,90.163,130.229
			L90.163,130.229z"/>
	</g>
	<path opacity="0.15" d="M90.163,130.229c-0.152,0.085-0.308,0.165-0.463,0.245C89.856,130.395,90.011,130.314,90.163,130.229z"/>
	<g>
		<path fill="#B3B3B3" d="M71.773,127.287c0.608,0.656,1.271,1.258,1.986,1.798C73.045,128.544,72.379,127.943,71.773,127.287z"/>
		<path fill="#666666" d="M71.773,127.287c0.225,0.243,0.458,0.479,0.699,0.707C72.231,127.766,71.998,127.53,71.773,127.287
			L71.773,127.287z M72.472,127.994c0.408,0.387,0.837,0.751,1.287,1.091C73.31,128.744,72.88,128.381,72.472,127.994
			L72.472,127.994z"/>
	</g>
	<path opacity="0.15" d="M71.773,127.287c0.608,0.656,1.271,1.258,1.986,1.798C73.045,128.544,72.379,127.943,71.773,127.287z"/>
	<g>
		<path fill="#B3B3B3" d="M91.277,129.549c-0.131,0.089-0.269,0.168-0.403,0.253C91.009,129.717,91.146,129.638,91.277,129.549z"/>
		<path fill="#666666" d="M91.277,129.549c-0.131,0.089-0.269,0.168-0.403,0.253C91.009,129.717,91.146,129.638,91.277,129.549
			L91.277,129.549z"/>
	</g>
	<path opacity="0.15" d="M91.277,129.549c-0.131,0.089-0.269,0.168-0.403,0.253C91.009,129.717,91.146,129.638,91.277,129.549z"/>
	<g>
		<path fill="#B3B3B3" d="M95.575,125.098c-0.458,0.725-0.977,1.407-1.547,2.041C94.6,126.505,95.117,125.822,95.575,125.098z"/>
		<path fill="#666666" d="M95.575,125.098c-0.155,0.246-0.317,0.486-0.486,0.722C95.258,125.584,95.42,125.344,95.575,125.098
			L95.575,125.098z M95.089,125.819c-0.329,0.46-0.684,0.9-1.061,1.319C94.406,126.72,94.76,126.279,95.089,125.819L95.089,125.819z
			"/>
	</g>
	<path opacity="0.15" d="M95.575,125.098c-0.458,0.725-0.977,1.407-1.547,2.041C94.6,126.505,95.117,125.822,95.575,125.098z"/>
	<g>
		<path fill="#B3B3B3" d="M93.644,127.555c-0.158,0.162-0.319,0.32-0.484,0.476C93.325,127.875,93.486,127.717,93.644,127.555z"/>
		<path fill="#666666" d="M93.644,127.555c-0.158,0.162-0.319,0.32-0.484,0.476C93.325,127.875,93.486,127.717,93.644,127.555
			L93.644,127.555z"/>
	</g>
	<path opacity="0.15" d="M93.644,127.555c-0.158,0.162-0.319,0.32-0.484,0.476C93.325,127.875,93.486,127.717,93.644,127.555z"/>
	<g>
		<path fill="#B3B3B3" d="M87.313,131.46c-0.069,0.021-0.141,0.036-0.21,0.057C87.172,131.496,87.244,131.481,87.313,131.46z"/>
		<path fill="#666666" d="M87.313,131.46c-0.069,0.021-0.141,0.036-0.21,0.057C87.172,131.496,87.244,131.481,87.313,131.46
			L87.313,131.46z"/>
	</g>
	<path opacity="0.15" d="M87.313,131.46c-0.069,0.021-0.141,0.036-0.21,0.057C87.172,131.496,87.244,131.481,87.313,131.46z"/>
	<g>
		<path fill="#B3B3B3" d="M74.719,129.76c-0.199-0.128-0.394-0.262-0.586-0.398C74.326,129.498,74.52,129.632,74.719,129.76z"/>
		<path fill="#666666" d="M74.133,129.361c0.096,0.068,0.193,0.136,0.291,0.202C74.326,129.497,74.229,129.43,74.133,129.361
			L74.133,129.361z M74.424,129.563c0.098,0.067,0.196,0.132,0.295,0.196C74.62,129.695,74.521,129.631,74.424,129.563
			L74.424,129.563z"/>
	</g>
	<path opacity="0.15" d="M74.719,129.76c-0.199-0.128-0.394-0.262-0.586-0.398C74.326,129.498,74.52,129.632,74.719,129.76z"/>
	<g>
		<path fill="#B3B3B3" d="M69.38,123.849c0.609,1.202,1.371,2.309,2.265,3.3C70.753,126.157,69.989,125.05,69.38,123.849z"/>
		<path fill="#666666" d="M69.38,123.849c0.609,1.202,1.371,2.309,2.265,3.3C70.753,126.157,69.989,125.05,69.38,123.849
			L69.38,123.849z"/>
	</g>
	<path opacity="0.15" d="M69.38,123.849c0.609,1.202,1.371,2.309,2.265,3.3C70.753,126.157,69.989,125.05,69.38,123.849z"/>
	<g>
		<path fill="#B3B3B3" d="M176.576,128.428c0.467-0.406,0.907-0.84,1.32-1.3C177.484,127.588,177.042,128.021,176.576,128.428z"/>
		<path fill="#666666" d="M177.896,127.128c-0.207,0.229-0.42,0.453-0.64,0.67C177.477,127.581,177.69,127.357,177.896,127.128
			L177.896,127.128z M177.257,127.798c-0.221,0.217-0.448,0.427-0.681,0.63C176.81,128.225,177.036,128.015,177.257,127.798
			L177.257,127.798z"/>
	</g>
	<path opacity="0.15" d="M176.576,128.428c0.467-0.406,0.907-0.84,1.32-1.3C177.484,127.588,177.042,128.021,176.576,128.428z"/>
	<g>
		<path fill="#B3B3B3" d="M157.575,129.054c-0.19-0.146-0.382-0.288-0.564-0.442C157.194,128.765,157.385,128.908,157.575,129.054z"
			/>
		<path fill="#666666" d="M157.011,128.611c0.183,0.154,0.374,0.297,0.564,0.442C157.385,128.908,157.194,128.765,157.011,128.611
			L157.011,128.611z"/>
	</g>
	<path opacity="0.15" d="M157.575,129.054c-0.19-0.146-0.382-0.288-0.564-0.442C157.194,128.765,157.385,128.908,157.575,129.054z"
		/>
	<g>
		<path fill="#B3B3B3" d="M161.025,131.03c-0.139-0.057-0.274-0.118-0.411-0.179C160.751,130.912,160.887,130.974,161.025,131.03z"
			/>
		<path fill="#666666" d="M160.614,130.852c0.137,0.061,0.272,0.122,0.411,0.179C160.887,130.974,160.751,130.912,160.614,130.852
			L160.614,130.852z"/>
	</g>
	<path opacity="0.15" d="M161.025,131.03c-0.139-0.057-0.274-0.118-0.411-0.179C160.751,130.912,160.887,130.974,161.025,131.03z"/>
	<g>
		<path fill="#B3B3B3" d="M159.723,130.427c-0.177-0.093-0.349-0.193-0.522-0.293C159.375,130.233,159.546,130.335,159.723,130.427z
			"/>
		<path fill="#666666" d="M159.201,130.134c0.038,0.021,0.076,0.044,0.114,0.065C159.277,130.178,159.239,130.155,159.201,130.134
			L159.201,130.134z M159.315,130.199c0.135,0.078,0.27,0.156,0.408,0.228C159.585,130.354,159.45,130.277,159.315,130.199
			L159.315,130.199z"/>
	</g>
	<path opacity="0.15" d="M159.723,130.427c-0.177-0.093-0.349-0.193-0.522-0.293C159.375,130.233,159.546,130.335,159.723,130.427z"
		/>
	<g>
		<path fill="#B3B3B3" d="M179.459,125.057c0.589-0.936,1.078-1.938,1.452-2.996l0,0
			C180.537,123.119,180.047,124.121,179.459,125.057z"/>
		<path fill="#666666" d="M180.911,122.061c-0.374,1.059-0.864,2.061-1.452,2.996C180.048,124.121,180.537,123.119,180.911,122.061
			L180.911,122.061z"/>
	</g>
	<path opacity="0.15" d="M179.459,125.057c0.589-0.936,1.078-1.938,1.452-2.996l0,0
		C180.537,123.119,180.047,124.121,179.459,125.057z"/>
	<g>
		<path fill="#B3B3B3" d="M168.523,132.016c-0.146,0.018-0.289,0.039-0.436,0.053C168.234,132.055,168.378,132.033,168.523,132.016z
			"/>
		<path fill="#666666" d="M168.523,132.016c-0.146,0.018-0.289,0.039-0.436,0.053C168.234,132.055,168.378,132.033,168.523,132.016
			L168.523,132.016z"/>
	</g>
	<path opacity="0.15" d="M168.523,132.016c-0.146,0.018-0.289,0.039-0.436,0.053C168.234,132.055,168.378,132.033,168.523,132.016z"
		/>
	<g>
		<path fill="#B3B3B3" d="M169.943,131.776c-0.161,0.035-0.323,0.067-0.486,0.098C169.621,131.844,169.782,131.812,169.943,131.776z
			"/>
		<path fill="#666666" d="M169.943,131.776c-0.161,0.035-0.323,0.067-0.486,0.098C169.621,131.844,169.782,131.812,169.943,131.776
			L169.943,131.776z"/>
	</g>
	<path opacity="0.15" d="M169.943,131.776c-0.161,0.035-0.323,0.067-0.486,0.098C169.621,131.844,169.782,131.812,169.943,131.776z"
		/>
	<g>
		<path fill="#B3B3B3" d="M165.295,132.067c-0.146-0.013-0.291-0.034-0.437-0.052C165.004,132.033,165.147,132.055,165.295,132.067z
			"/>
		<path fill="#666666" d="M164.858,132.016c0.146,0.018,0.289,0.039,0.437,0.052C165.148,132.055,165.004,132.033,164.858,132.016
			L164.858,132.016z"/>
	</g>
	<path opacity="0.15" d="M165.295,132.067c-0.146-0.013-0.291-0.034-0.437-0.052C165.004,132.033,165.147,132.055,165.295,132.067z"
		/>
	<g>
		<path fill="#B3B3B3" d="M158.611,129.779c-0.188-0.119-0.373-0.242-0.554-0.369C158.239,129.537,158.424,129.66,158.611,129.779z"
			/>
		<path fill="#666666" d="M158.058,129.41c0.181,0.127,0.366,0.25,0.554,0.369C158.424,129.66,158.239,129.537,158.058,129.41
			L158.058,129.41z"/>
	</g>
	<path opacity="0.15" d="M158.611,129.779c-0.188-0.119-0.373-0.242-0.554-0.369C158.239,129.537,158.424,129.66,158.611,129.779z"
		/>
	<g>
		<path fill="#B3B3B3" d="M162.562,131.553c-0.15-0.043-0.302-0.082-0.45-0.129C162.26,131.471,162.411,131.51,162.562,131.553z"/>
		<path fill="#666666" d="M162.112,131.424c0.148,0.047,0.299,0.086,0.45,0.129C162.411,131.51,162.26,131.471,162.112,131.424
			L162.112,131.424z"/>
	</g>
	<path opacity="0.15" d="M162.562,131.553c-0.15-0.043-0.302-0.082-0.45-0.129C162.26,131.471,162.411,131.51,162.562,131.553z"/>
	<g>
		<path fill="#B3B3B3" d="M155.318,126.947c-0.195-0.225-0.38-0.459-0.563-0.695C154.938,126.488,155.123,126.723,155.318,126.947z"
			/>
		<path fill="#666666" d="M154.756,126.252c0.091,0.118,0.183,0.236,0.276,0.352C154.939,126.488,154.847,126.37,154.756,126.252
			L154.756,126.252z M155.032,126.604c0.093,0.117,0.188,0.231,0.286,0.344C155.221,126.835,155.125,126.721,155.032,126.604
			L155.032,126.604z"/>
	</g>
	<path opacity="0.15" d="M155.318,126.947c-0.195-0.225-0.38-0.459-0.563-0.695C154.938,126.488,155.123,126.723,155.318,126.947z"
		/>
	<g>
		<path fill="#B3B3B3" d="M163.922,131.874c-0.163-0.03-0.324-0.063-0.485-0.099C163.598,131.811,163.76,131.844,163.922,131.874z"
			/>
		<path fill="#666666" d="M163.438,131.775c0.161,0.035,0.322,0.068,0.485,0.099C163.76,131.844,163.598,131.811,163.438,131.775
			L163.438,131.775z"/>
	</g>
	<path opacity="0.15" d="M163.922,131.874c-0.163-0.03-0.324-0.063-0.485-0.099C163.598,131.811,163.76,131.844,163.922,131.874z"/>
	<g>
		<path fill="#B3B3B3" d="M155.505,127.149c0.375,0.415,0.772,0.808,1.19,1.179C156.277,127.957,155.879,127.564,155.505,127.149z"
			/>
		<path fill="#666666" d="M155.505,127.149c0.187,0.208,0.38,0.409,0.579,0.605C155.885,127.559,155.692,127.357,155.505,127.149
			L155.505,127.149z M156.083,127.755c0.199,0.196,0.402,0.388,0.611,0.573C156.486,128.143,156.282,127.951,156.083,127.755
			L156.083,127.755z"/>
	</g>
	<path opacity="0.15" d="M155.505,127.149c0.375,0.415,0.772,0.808,1.19,1.179C156.277,127.957,155.879,127.564,155.505,127.149z"/>
	<g>
		<path fill="#B3B3B3" d="M154.543,125.973c-0.179-0.244-0.352-0.493-0.516-0.747C154.191,125.48,154.364,125.729,154.543,125.973z"
			/>
		<path fill="#666666" d="M154.027,125.226c0.165,0.255,0.337,0.503,0.516,0.747C154.364,125.729,154.191,125.479,154.027,125.226
			L154.027,125.226z"/>
	</g>
	<path opacity="0.15" d="M154.543,125.973c-0.179-0.244-0.352-0.493-0.516-0.747C154.191,125.48,154.364,125.729,154.543,125.973z"
		/>
	<g>
		<path fill="#B3B3B3" d="M178.634,126.241c-0.19,0.249-0.386,0.494-0.593,0.729C178.248,126.735,178.442,126.49,178.634,126.241z"
			/>
		<path fill="#666666" d="M178.634,126.241c-0.191,0.249-0.386,0.494-0.593,0.729C178.248,126.735,178.443,126.49,178.634,126.241
			L178.634,126.241z"/>
	</g>
	<path opacity="0.15" d="M178.634,126.241c-0.19,0.249-0.386,0.494-0.593,0.729C178.248,126.735,178.442,126.49,178.634,126.241z"/>
	<g>
		<path fill="#B3B3B3" d="M174.186,130.131c-0.178,0.103-0.355,0.206-0.537,0.302C173.831,130.337,174.008,130.233,174.186,130.131z
			"/>
		<path fill="#666666" d="M174.186,130.131c-0.178,0.103-0.355,0.206-0.537,0.302C173.831,130.337,174.008,130.233,174.186,130.131
			L174.186,130.131z"/>
	</g>
	<path opacity="0.15" d="M174.186,130.131c-0.178,0.103-0.355,0.206-0.537,0.302C173.831,130.337,174.008,130.233,174.186,130.131z"
		/>
	<g>
		<path fill="#B3B3B3" d="M152.475,122.072c0.363,1.025,0.834,1.997,1.399,2.907C153.311,124.069,152.838,123.097,152.475,122.072z"
			/>
		<path fill="#666666" d="M152.475,122.072c0.363,1.025,0.834,1.997,1.399,2.907C153.311,124.069,152.838,123.097,152.475,122.072
			L152.475,122.072z"/>
	</g>
	<path opacity="0.15" d="M152.475,122.072c0.363,1.025,0.834,1.997,1.399,2.907C153.311,124.069,152.838,123.097,152.475,122.072z"
		/>
	<g>
		<path fill="#B3B3B3" d="M175.326,129.409c-0.188,0.131-0.378,0.257-0.57,0.38C174.949,129.666,175.139,129.54,175.326,129.409z"/>
		<path fill="#666666" d="M175.326,129.409c-0.188,0.131-0.378,0.257-0.57,0.38C174.949,129.666,175.139,129.54,175.326,129.409
			L175.326,129.409z"/>
	</g>
	<path opacity="0.15" d="M175.326,129.409c-0.188,0.131-0.378,0.257-0.57,0.38C174.949,129.666,175.139,129.54,175.326,129.409z"/>
	<g>
		<path fill="#B3B3B3" d="M176.371,128.612c-0.191,0.16-0.393,0.31-0.592,0.461C175.979,128.922,176.18,128.772,176.371,128.612z"/>
		<path fill="#666666" d="M176.371,128.612c-0.191,0.16-0.393,0.31-0.592,0.461C175.979,128.922,176.18,128.772,176.371,128.612
			L176.371,128.612z"/>
	</g>
	<path opacity="0.15" d="M176.371,128.612c-0.191,0.16-0.393,0.31-0.592,0.461C175.979,128.922,176.18,128.772,176.371,128.612z"/>
	<g>
		<path fill="#B3B3B3" d="M171.269,131.425c-0.148,0.047-0.3,0.086-0.45,0.129C170.969,131.511,171.12,131.472,171.269,131.425z"/>
		<path fill="#666666" d="M171.269,131.425c-0.148,0.047-0.3,0.086-0.45,0.129C170.969,131.511,171.12,131.472,171.269,131.425
			L171.269,131.425z"/>
	</g>
	<path opacity="0.15" d="M171.269,131.425c-0.148,0.047-0.3,0.086-0.45,0.129C170.969,131.511,171.12,131.472,171.269,131.425z"/>
	<g>
		<path fill="#B3B3B3" d="M179.357,125.221c-0.174,0.27-0.357,0.532-0.548,0.79C179,125.753,179.184,125.49,179.357,125.221z"/>
		<path fill="#666666" d="M179.357,125.221c-0.174,0.27-0.357,0.532-0.548,0.79C179,125.753,179.184,125.49,179.357,125.221
			L179.357,125.221z"/>
	</g>
	<path opacity="0.15" d="M179.357,125.221c-0.174,0.27-0.357,0.532-0.548,0.79C179,125.753,179.184,125.49,179.357,125.221z"/>
	<g>
		<path fill="#B3B3B3" d="M172.807,130.833c-0.143,0.064-0.283,0.13-0.43,0.189C172.523,130.963,172.664,130.896,172.807,130.833z"
			/>
		<path fill="#666666" d="M172.807,130.833c-0.143,0.063-0.283,0.13-0.43,0.189C172.523,130.963,172.664,130.897,172.807,130.833
			L172.807,130.833z"/>
	</g>
	<path opacity="0.15" d="M172.807,130.833c-0.143,0.064-0.283,0.13-0.43,0.189C172.523,130.963,172.664,130.896,172.807,130.833z"/>
	<g>
		<path fill="#B3B3B3" d="M201.268,131.554c-0.146-0.042-0.296-0.08-0.441-0.126C200.972,131.474,201.121,131.512,201.268,131.554z"
			/>
		<path fill="#666666" d="M200.826,131.428c0.146,0.046,0.295,0.084,0.441,0.126C201.121,131.512,200.972,131.474,200.826,131.428
			L200.826,131.428z"/>
	</g>
	<path opacity="0.15" d="M201.268,131.554c-0.146-0.042-0.296-0.08-0.441-0.126C200.972,131.474,201.121,131.512,201.268,131.554z"
		/>
	<g>
		<path fill="#B3B3B3" d="M209.911,131.446c-0.114,0.036-0.231,0.063-0.346,0.096C209.68,131.509,209.797,131.482,209.911,131.446z"
			/>
		<path fill="#666666" d="M209.911,131.446c-0.114,0.036-0.231,0.063-0.346,0.096C209.68,131.509,209.797,131.482,209.911,131.446
			L209.911,131.446z"/>
	</g>
	<path opacity="0.15" d="M209.911,131.446c-0.114,0.036-0.231,0.063-0.346,0.096C209.68,131.509,209.797,131.482,209.911,131.446z"
		/>
	<g>
		<path fill="#B3B3B3" d="M218.932,123.677c-0.629,1.285-1.438,2.465-2.388,3.513C217.497,126.142,218.302,124.962,218.932,123.677z
			"/>
		<path fill="#666666" d="M218.932,123.677c-0.157,0.321-0.326,0.636-0.505,0.943C218.605,124.313,218.774,123.998,218.932,123.677
			L218.932,123.677z M218.427,124.62c-0.537,0.924-1.17,1.783-1.883,2.569C217.259,126.403,217.891,125.544,218.427,124.62
			L218.427,124.62z"/>
	</g>
	<path opacity="0.15" d="M218.932,123.677c-0.629,1.285-1.438,2.465-2.388,3.513C217.497,126.142,218.302,124.962,218.932,123.677z"
		/>
	<g>
		<path fill="#B3B3B3" d="M191.209,122.15L191.209,122.15c0.513,1.425,1.232,2.747,2.125,3.936
			C192.443,124.897,191.722,123.574,191.209,122.15z"/>
		<path fill="#666666" d="M191.209,122.15c0.513,1.425,1.232,2.747,2.125,3.936C192.443,124.897,191.722,123.574,191.209,122.15
			L191.209,122.15z"/>
	</g>
	<path opacity="0.15" d="M191.209,122.15L191.209,122.15c0.513,1.425,1.232,2.747,2.125,3.936
		C192.443,124.897,191.722,123.574,191.209,122.15z"/>
	<g>
		<path fill="#B3B3B3" d="M198.459,130.442c-0.189-0.099-0.374-0.205-0.559-0.312C198.086,130.237,198.27,130.344,198.459,130.442z"
			/>
		<path fill="#666666" d="M197.9,130.131c0.185,0.106,0.369,0.213,0.559,0.312C198.27,130.344,198.086,130.237,197.9,130.131
			L197.9,130.131z"/>
	</g>
	<path opacity="0.15" d="M198.459,130.442c-0.189-0.099-0.374-0.205-0.559-0.312C198.086,130.237,198.27,130.344,198.459,130.442z"
		/>
	<g>
		<path fill="#B3B3B3" d="M197.358,129.806c-0.2-0.127-0.397-0.256-0.591-0.392C196.961,129.55,197.158,129.679,197.358,129.806z"/>
		<path fill="#666666" d="M196.768,129.414c0.193,0.136,0.391,0.265,0.591,0.392C197.158,129.679,196.961,129.55,196.768,129.414
			L196.768,129.414z"/>
	</g>
	<path opacity="0.15" d="M197.358,129.806c-0.2-0.127-0.397-0.256-0.591-0.392C196.961,129.55,197.158,129.679,197.358,129.806z"/>
	<g>
		<path fill="#B3B3B3" d="M199.627,130.993c-0.136-0.057-0.266-0.124-0.398-0.184C199.361,130.869,199.491,130.937,199.627,130.993z
			"/>
		<path fill="#666666" d="M199.229,130.81c0.133,0.06,0.263,0.127,0.398,0.184C199.491,130.937,199.361,130.869,199.229,130.81
			L199.229,130.81z"/>
	</g>
	<path opacity="0.15" d="M199.627,130.993c-0.136-0.057-0.266-0.124-0.398-0.184C199.361,130.869,199.491,130.937,199.627,130.993z"
		/>
	<g>
		<path fill="#B3B3B3" d="M218.959,123.622c0.16-0.328,0.309-0.661,0.443-1.002l0,0
			C219.267,122.961,219.118,123.294,218.959,123.622z"/>
		<path fill="#666666" d="M219.402,122.62c-0.136,0.341-0.284,0.674-0.443,1.002C219.119,123.294,219.268,122.961,219.402,122.62
			L219.402,122.62z"/>
	</g>
	<path opacity="0.15" d="M218.959,123.622c0.16-0.328,0.309-0.661,0.443-1.002l0,0C219.267,122.961,219.118,123.294,218.959,123.622
		z"/>
	<g>
		<path fill="#B3B3B3" d="M194.2,127.141c0.653,0.724,1.374,1.383,2.154,1.969C195.575,128.522,194.852,127.865,194.2,127.141z"/>
		<path fill="#666666" d="M194.2,127.141c0.388,0.431,0.801,0.838,1.235,1.221C195.001,127.979,194.589,127.571,194.2,127.141
			L194.2,127.141z M195.436,128.361c0.296,0.261,0.603,0.511,0.919,0.748C196.039,128.871,195.732,128.622,195.436,128.361
			L195.436,128.361z"/>
	</g>
	<path opacity="0.15" d="M194.2,127.141c0.653,0.724,1.374,1.383,2.154,1.969C195.575,128.522,194.852,127.865,194.2,127.141z"/>
	<g>
		<path fill="#B3B3B3" d="M202.631,131.875c-0.162-0.03-0.322-0.063-0.482-0.098C202.309,131.813,202.469,131.845,202.631,131.875z"
			/>
		<path fill="#666666" d="M202.148,131.777c0.16,0.035,0.32,0.067,0.482,0.098C202.469,131.845,202.309,131.813,202.148,131.777
			L202.148,131.777z"/>
	</g>
	<path opacity="0.15" d="M202.631,131.875c-0.162-0.03-0.322-0.063-0.482-0.098C202.309,131.813,202.469,131.845,202.631,131.875z"
		/>
	<g>
		<path fill="#B3B3B3" d="M215.488,128.24c-0.392,0.354-0.803,0.687-1.229,0.999C214.687,128.928,215.096,128.595,215.488,128.24z"
			/>
		<path fill="#666666" d="M215.488,128.24c-0.121,0.109-0.244,0.217-0.368,0.322C215.244,128.457,215.367,128.35,215.488,128.24
			L215.488,128.24z M215.12,128.563c-0.279,0.235-0.566,0.461-0.861,0.677C214.555,129.023,214.842,128.798,215.12,128.563
			L215.12,128.563z"/>
	</g>
	<path opacity="0.15" d="M215.488,128.24c-0.392,0.354-0.803,0.687-1.229,0.999C214.687,128.928,215.096,128.595,215.488,128.24z"/>
	<g>
		<path fill="#B3B3B3" d="M216.357,127.393c-0.207,0.219-0.419,0.434-0.638,0.641C215.939,127.826,216.15,127.611,216.357,127.393z"
			/>
		<path fill="#666666" d="M216.357,127.393c-0.207,0.219-0.419,0.434-0.638,0.641C215.939,127.826,216.15,127.611,216.357,127.393
			L216.357,127.393z"/>
	</g>
	<path opacity="0.15" d="M216.357,127.393c-0.207,0.219-0.419,0.434-0.638,0.641C215.939,127.826,216.15,127.611,216.357,127.393z"
		/>
	<g>
		<path fill="#B3B3B3" d="M213.924,129.487c-0.188,0.129-0.382,0.247-0.574,0.367C213.543,129.734,213.736,129.616,213.924,129.487z
			"/>
		<path fill="#666666" d="M213.924,129.487c-0.188,0.129-0.382,0.247-0.574,0.367C213.543,129.734,213.736,129.616,213.924,129.487
			L213.924,129.487z"/>
	</g>
	<path opacity="0.15" d="M213.924,129.487c-0.188,0.129-0.382,0.247-0.574,0.367C213.543,129.734,213.736,129.616,213.924,129.487z"
		/>
	<g>
		<path fill="#B3B3B3" d="M208.603,131.787c-0.15,0.033-0.303,0.061-0.454,0.089C208.301,131.848,208.452,131.82,208.603,131.787z"
			/>
		<path fill="#666666" d="M208.603,131.787c-0.15,0.033-0.303,0.061-0.454,0.089C208.301,131.848,208.452,131.82,208.603,131.787
			L208.603,131.787z"/>
	</g>
	<path opacity="0.15" d="M208.603,131.787c-0.15,0.033-0.303,0.061-0.454,0.089C208.301,131.848,208.452,131.82,208.603,131.787z"/>
	<g>
		<path fill="#B3B3B3" d="M204,132.068c-0.146-0.014-0.289-0.035-0.434-0.053C203.711,132.033,203.854,132.055,204,132.068z"/>
		<path fill="#666666" d="M203.566,132.016c0.145,0.018,0.288,0.039,0.434,0.053C203.854,132.055,203.711,132.033,203.566,132.016
			L203.566,132.016z"/>
	</g>
	<path opacity="0.15" d="M204,132.068c-0.146-0.014-0.289-0.035-0.434-0.053C203.711,132.033,203.854,132.055,204,132.068z"/>
	<g>
		<path fill="#B3B3B3" d="M207.201,132.02c-0.141,0.017-0.281,0.036-0.422,0.049C206.92,132.056,207.061,132.036,207.201,132.02z"/>
		<path fill="#666666" d="M207.201,132.02c-0.141,0.017-0.281,0.036-0.422,0.049C206.92,132.056,207.061,132.036,207.201,132.02
			L207.201,132.02z"/>
	</g>
	<path opacity="0.15" d="M207.201,132.02c-0.141,0.017-0.281,0.036-0.422,0.049C206.92,132.056,207.061,132.036,207.201,132.02z"/>
	<g>
		<path fill="#B3B3B3" d="M211.569,130.805c-0.157,0.072-0.313,0.147-0.476,0.213C211.256,130.952,211.411,130.876,211.569,130.805z
			"/>
		<path fill="#666666" d="M211.569,130.805c-0.158,0.071-0.313,0.147-0.476,0.213C211.256,130.952,211.412,130.877,211.569,130.805
			L211.569,130.805z"/>
	</g>
	<path opacity="0.15" d="M211.569,130.805c-0.157,0.072-0.313,0.147-0.476,0.213C211.256,130.952,211.411,130.876,211.569,130.805z"
		/>
	<g>
		<path fill="#B3B3B3" d="M212.807,130.181c-0.182,0.103-0.365,0.202-0.551,0.297C212.442,130.383,212.625,130.283,212.807,130.181z
			"/>
		<path fill="#666666" d="M212.807,130.181c-0.182,0.103-0.365,0.202-0.551,0.297C212.442,130.383,212.625,130.283,212.807,130.181
			L212.807,130.181z"/>
	</g>
	<path opacity="0.15" d="M212.807,130.181c-0.182,0.103-0.365,0.202-0.551,0.297C212.442,130.383,212.625,130.283,212.807,130.181z"
		/>
	<g>
		<path fill="#B3B3B3" d="M194.087,127.018c-0.219-0.249-0.428-0.506-0.63-0.77C193.66,126.512,193.867,126.769,194.087,127.018z"/>
		<path fill="#666666" d="M193.457,126.248c0.102,0.132,0.204,0.262,0.309,0.391C193.661,126.51,193.559,126.38,193.457,126.248
			L193.457,126.248z M193.766,126.639c0.104,0.128,0.211,0.254,0.321,0.379C193.978,126.893,193.871,126.767,193.766,126.639
			L193.766,126.639z"/>
	</g>
	<path opacity="0.15" d="M194.087,127.018c-0.219-0.249-0.428-0.506-0.63-0.77C193.66,126.512,193.867,126.769,194.087,127.018z"/>
	<g>
		<path fill="#B3B3B3" d="M269.18,127.969c-0.115-0.11-0.23-0.222-0.342-0.335C268.95,127.747,269.064,127.858,269.18,127.969z"/>
		<path fill="#666666" d="M268.838,127.634c0.111,0.113,0.227,0.225,0.342,0.335C269.064,127.858,268.95,127.747,268.838,127.634
			L268.838,127.634z"/>
	</g>
	<path opacity="0.15" d="M269.18,127.969c-0.115-0.11-0.23-0.222-0.342-0.335C268.95,127.747,269.064,127.858,269.18,127.969z"/>
	<g>
		<path fill="#B3B3B3" d="M289.63,128.278c0.325-0.292,0.638-0.597,0.937-0.915C290.268,127.682,289.955,127.986,289.63,128.278z"/>
		<path fill="#666666" d="M290.566,127.363c-0.299,0.318-0.611,0.623-0.937,0.915C289.955,127.986,290.268,127.682,290.566,127.363
			L290.566,127.363z"/>
	</g>
	<path opacity="0.15" d="M289.63,128.278c0.325-0.292,0.638-0.597,0.937-0.915C290.268,127.682,289.955,127.986,289.63,128.278z"/>
	<g>
		<path fill="#B3B3B3" d="M276.722,131.86c-0.067-0.013-0.137-0.021-0.204-0.035C276.585,131.839,276.654,131.848,276.722,131.86z"
			/>
		<path fill="#666666" d="M276.518,131.825c0.067,0.014,0.137,0.022,0.204,0.035C276.654,131.848,276.585,131.839,276.518,131.825
			L276.518,131.825z"/>
	</g>
	<path opacity="0.15" d="M276.722,131.86c-0.067-0.013-0.137-0.021-0.204-0.035C276.585,131.839,276.654,131.848,276.722,131.86z"/>
	<g>
		<path fill="#B3B3B3" d="M278.216,132.069c-0.12-0.011-0.24-0.023-0.36-0.037C277.976,132.046,278.096,132.059,278.216,132.069z"/>
		<path fill="#666666" d="M277.855,132.032c0.12,0.014,0.24,0.026,0.36,0.037C278.096,132.059,277.976,132.046,277.855,132.032
			L277.855,132.032z"/>
	</g>
	<path opacity="0.15" d="M278.216,132.069c-0.12-0.011-0.24-0.023-0.36-0.037C277.976,132.046,278.096,132.059,278.216,132.069z"/>
	<g>
		<path fill="#B3B3B3" d="M270.123,128.803c-0.095-0.076-0.184-0.158-0.277-0.237C269.939,128.645,270.027,128.727,270.123,128.803z
			"/>
		<path fill="#666666" d="M269.846,128.565c0.094,0.079,0.182,0.161,0.277,0.237C270.028,128.727,269.939,128.645,269.846,128.565
			L269.846,128.565z"/>
	</g>
	<path opacity="0.15" d="M270.123,128.803c-0.095-0.076-0.184-0.158-0.277-0.237C269.939,128.645,270.027,128.727,270.123,128.803z"
		/>
	<g>
		<path fill="#B3B3B3" d="M272.546,130.396c-0.106-0.056-0.209-0.117-0.313-0.176C272.337,130.279,272.439,130.341,272.546,130.396z
			"/>
		<path fill="#666666" d="M272.232,130.221c0.104,0.059,0.207,0.12,0.313,0.176C272.439,130.341,272.337,130.279,272.232,130.221
			L272.232,130.221z"/>
	</g>
	<path opacity="0.15" d="M272.546,130.396c-0.106-0.056-0.209-0.117-0.313-0.176C272.337,130.279,272.439,130.341,272.546,130.396z"
		/>
	<g>
		<path fill="#B3B3B3" d="M267.292,125.792c-0.101-0.141-0.197-0.284-0.293-0.429C267.095,125.508,267.191,125.651,267.292,125.792z
			"/>
		<path fill="#666666" d="M266.999,125.363c0.096,0.145,0.192,0.288,0.293,0.429C267.191,125.651,267.095,125.508,266.999,125.363
			L266.999,125.363z"/>
	</g>
	<path opacity="0.15" d="M267.292,125.792c-0.101-0.141-0.197-0.284-0.293-0.429C267.095,125.508,267.191,125.651,267.292,125.792z"
		/>
	<g>
		<path fill="#B3B3B3" d="M268.178,126.919c-0.112-0.131-0.223-0.264-0.33-0.397C267.955,126.655,268.065,126.788,268.178,126.919z"
			/>
		<path fill="#666666" d="M267.848,126.521c0.107,0.134,0.218,0.267,0.33,0.397C268.065,126.788,267.955,126.655,267.848,126.521
			L267.848,126.521z"/>
	</g>
	<path opacity="0.15" d="M268.178,126.919c-0.112-0.131-0.223-0.264-0.33-0.397C267.955,126.655,268.065,126.788,268.178,126.919z"
		/>
	<g>
		<path fill="#B3B3B3" d="M271.428,129.737c-0.115-0.074-0.232-0.147-0.346-0.226C271.195,129.59,271.313,129.663,271.428,129.737z"
			/>
		<path fill="#666666" d="M271.082,129.512c0.113,0.078,0.23,0.151,0.346,0.226C271.313,129.663,271.195,129.59,271.082,129.512
			L271.082,129.512z"/>
	</g>
	<path opacity="0.15" d="M271.428,129.737c-0.115-0.074-0.232-0.147-0.346-0.226C271.195,129.59,271.313,129.663,271.428,129.737z"
		/>
	<g>
		<path fill="#B3B3B3" d="M273.967,131.05c-0.101-0.04-0.203-0.077-0.303-0.12C273.764,130.973,273.866,131.01,273.967,131.05z"/>
		<path fill="#666666" d="M273.664,130.93c0.1,0.043,0.202,0.08,0.303,0.12C273.866,131.01,273.764,130.973,273.664,130.93
			L273.664,130.93z"/>
	</g>
	<path opacity="0.15" d="M273.967,131.05c-0.101-0.04-0.203-0.077-0.303-0.12C273.764,130.973,273.866,131.01,273.967,131.05z"/>
	<g>
		<path fill="#B3B3B3" d="M275.264,131.506c-0.115-0.034-0.227-0.072-0.34-0.109C275.037,131.434,275.148,131.472,275.264,131.506z"
			/>
		<path fill="#666666" d="M274.924,131.396c0.113,0.037,0.225,0.075,0.34,0.109C275.148,131.472,275.037,131.434,274.924,131.396
			L274.924,131.396z"/>
	</g>
	<path opacity="0.15" d="M275.264,131.506c-0.115-0.034-0.227-0.072-0.34-0.109C275.037,131.434,275.148,131.472,275.264,131.506z"
		/>
	<g>
		<path fill="#B3B3B3" d="M266.341,124.285L266.341,124.285c0.071,0.13,0.15,0.254,0.226,0.381
			C266.491,124.539,266.412,124.415,266.341,124.285z"/>
		<path fill="#666666" d="M266.341,124.285c0.071,0.13,0.15,0.254,0.226,0.381C266.491,124.539,266.412,124.415,266.341,124.285
			L266.341,124.285z"/>
	</g>
	<path opacity="0.15" d="M266.341,124.285L266.341,124.285c0.071,0.13,0.15,0.254,0.226,0.381
		C266.491,124.539,266.412,124.415,266.341,124.285z"/>
	<g>
		<path fill="#B3B3B3" d="M281.221,132.044c-0.091,0.01-0.183,0.017-0.274,0.025C281.038,132.061,281.13,132.054,281.221,132.044z"
			/>
		<path fill="#666666" d="M281.221,132.044c-0.091,0.01-0.183,0.017-0.274,0.025C281.038,132.061,281.13,132.054,281.221,132.044
			L281.221,132.044z"/>
	</g>
	<path opacity="0.15" d="M281.221,132.044c-0.091,0.01-0.183,0.017-0.274,0.025C281.038,132.061,281.13,132.054,281.221,132.044z"/>
	<g>
		<path fill="#B3B3B3" d="M285.588,130.884c-0.135,0.06-0.271,0.114-0.409,0.17C285.316,130.999,285.453,130.942,285.588,130.884z"
			/>
		<path fill="#666666" d="M285.588,130.884c-0.067,0.029-0.135,0.058-0.203,0.087C285.453,130.942,285.521,130.914,285.588,130.884
			L285.588,130.884z M285.385,130.971c-0.068,0.027-0.137,0.055-0.206,0.083C285.248,131.026,285.316,130.998,285.385,130.971
			L285.385,130.971z"/>
	</g>
	<path opacity="0.15" d="M285.588,130.884c-0.135,0.06-0.271,0.114-0.409,0.17C285.316,130.999,285.453,130.942,285.588,130.884z"/>
	<g>
		<path fill="#B3B3B3" d="M287.018,130.164c-0.151,0.086-0.302,0.175-0.457,0.256C286.717,130.339,286.865,130.25,287.018,130.164z"
			/>
		<path fill="#666666" d="M287.018,130.164c-0.076,0.043-0.151,0.087-0.227,0.13C286.866,130.251,286.941,130.207,287.018,130.164
			L287.018,130.164z M286.791,130.294c-0.076,0.043-0.152,0.085-0.23,0.126C286.639,130.379,286.715,130.337,286.791,130.294
			L286.791,130.294z"/>
	</g>
	<path opacity="0.15" d="M287.018,130.164c-0.151,0.086-0.302,0.175-0.457,0.256C286.717,130.339,286.865,130.25,287.018,130.164z"
		/>
	<g>
		<path fill="#B3B3B3" d="M289.371,128.51c-0.18,0.155-0.364,0.305-0.552,0.451C289.007,128.814,289.19,128.665,289.371,128.51z"/>
		<path fill="#666666" d="M289.371,128.51c-0.181,0.155-0.364,0.305-0.552,0.451C289.007,128.814,289.191,128.665,289.371,128.51
			L289.371,128.51z"/>
	</g>
	<path opacity="0.15" d="M289.371,128.51c-0.18,0.155-0.364,0.305-0.552,0.451C289.007,128.814,289.19,128.665,289.371,128.51z"/>
	<g>
		<path fill="#B3B3B3" d="M288.352,129.306c-0.247,0.179-0.5,0.35-0.759,0.513C287.852,129.655,288.104,129.484,288.352,129.306z"/>
		<path fill="#666666" d="M288.352,129.306c-0.248,0.179-0.5,0.35-0.759,0.513C287.852,129.655,288.104,129.484,288.352,129.306
			L288.352,129.306z"/>
	</g>
	<path opacity="0.15" d="M288.352,129.306c-0.247,0.179-0.5,0.35-0.759,0.513C287.852,129.655,288.104,129.484,288.352,129.306z"/>
	<g>
		<path fill="#B3B3B3" d="M284.078,131.452c-0.072,0.022-0.146,0.04-0.219,0.062C283.932,131.492,284.006,131.475,284.078,131.452z"
			/>
		<path fill="#666666" d="M284.078,131.452c-0.072,0.022-0.146,0.04-0.219,0.062C283.932,131.492,284.006,131.475,284.078,131.452
			L284.078,131.452z"/>
	</g>
	<path opacity="0.15" d="M284.078,131.452c-0.072,0.022-0.146,0.04-0.219,0.062C283.932,131.492,284.006,131.475,284.078,131.452z"
		/>
	<g>
		<path fill="#B3B3B3" d="M282.773,131.79c-0.096,0.021-0.19,0.044-0.287,0.063C282.583,131.834,282.678,131.812,282.773,131.79z"/>
		<path fill="#666666" d="M282.773,131.79c-0.096,0.021-0.19,0.044-0.287,0.063C282.583,131.834,282.678,131.812,282.773,131.79
			L282.773,131.79z"/>
	</g>
	<path opacity="0.15" d="M282.773,131.79c-0.096,0.021-0.19,0.044-0.287,0.063C282.583,131.834,282.678,131.812,282.773,131.79z"/>
	<g>
		<path fill="#B3B3B3" d="M290.76,127.154c0.361-0.399,0.703-0.816,1.02-1.253l0,0C291.462,126.338,291.12,126.755,290.76,127.154z"
			/>
		<path fill="#666666" d="M291.779,125.901c-0.317,0.437-0.659,0.854-1.02,1.253C291.121,126.755,291.463,126.338,291.779,125.901
			L291.779,125.901z"/>
	</g>
	<path opacity="0.15" d="M290.76,127.154c0.361-0.399,0.703-0.816,1.02-1.253l0,0C291.462,126.338,291.12,126.755,290.76,127.154z"
		/>
	<path fill="#CCCCCC" d="M282.566,39.393c-0.689-1.51-2.74-2.893-4.149-2.893h-1.89l-13.892,28h28.033
		c1.906,0,2.771-1.515,1.655-3.966L282.566,39.393z"/>
	<path fill="#CCCCCC" d="M245.928,36.5c-1.412,0-1.928,1.465-1.928,2.975V60.91c0,2.452,0.916,3.59,2.822,3.59h10.15l13.892-28
		H245.928z"/>
	<polygon fill="#FFFFFF" points="270.864,36.5 256.973,64.5 262.636,64.5 276.527,36.5 	"/>
</g>
</svg>
