<?xml version="1.0" encoding="utf-8"?>
<!-- Generator: Adobe Illustrator 16.0.0, SVG Export Plug-In . SVG Version: 6.00 Build 0)  -->
<!DOCTYPE svg PUBLIC "-//W3C//DTD SVG 1.1//EN" "http://www.w3.org/Graphics/SVG/1.1/DTD/svg11.dtd">
<svg version="1.1" id="Layer_1" xmlns="http://www.w3.org/2000/svg" xmlns:xlink="http://www.w3.org/1999/xlink" x="0px" y="0px"
	 width="792px" height="612px" viewBox="0 0 792 612" enable-background="new 0 0 792 612" xml:space="preserve">
<g>
	<polygon points="125,159 125,158 123,158 123,157 124,157 124,155 122,155 122,154 124,154 124,153 122,153 122,152 124,152 
		124,151 122,151 122,150 124,150 124,149 124,147 123,147 123,146 122,146 122,144 121,144 121,146 114,146 114,147 113,147 
		113,149 115,149 115,150 113,150 113,151 115,151 115,152 113,152 113,153 115,153 115,154 113,154 113,157 114,157 114,158 
		112,158 112,159 111,159 111,163 112,163 112,164 114,164 114,170 116,170 116,171 115,171 115,179 117,179 117,180 116,180 
		116,185 117,185 117,190 120,190 120,185 121,185 121,180 120,180 120,179 122,179 122,171 121,171 121,170 123,170 123,164 
		125,164 125,163 126,163 126,159 	"/>
	<path d="M61.679,151.881c-1.803-1.862-3.953-3.311-6.45-4.338c-2.498-1.027-5.237-1.543-8.217-1.543H33v44h14.133
		c2.94,0,5.649-0.518,8.126-1.545c2.477-1.027,4.617-2.469,6.419-4.322c1.802-1.853,3.005-4.069,4.013-6.647
		c1.007-2.578,1.309-5.428,1.309-8.55v-1.843c0-3.101-0.302-5.946-1.309-8.534C64.684,155.97,63.481,153.745,61.679,151.881z
		 M57,168.935c0,4.27-1.021,7.57-2.652,9.735c-1.632,2.165-4.174,3.33-7.215,3.33H43v-28h4.012c3.121,0,5.704,1.174,7.335,3.329
		c1.631,2.155,2.652,5.454,2.652,9.703V168.935z"/>
	<path d="M102.9,150.235c-1.47-1.33-3.263-2.37-5.377-3.115c-2.115-0.745-4.491-1.121-7.129-1.121H73v44h10v-15h7.393
		c2.638,0,5.015-0.303,7.129-0.978s3.907-1.615,5.377-2.853c1.47-1.238,2.598-2.715,3.383-4.448
		c0.786-1.731,1.178-3.661,1.178-5.796c0-2.155-0.393-4.141-1.178-5.964C105.498,153.139,104.37,151.564,102.9,150.235z
		 M96.344,163.346c-0.242,0.725-0.619,1.35-1.133,1.873c-0.514,0.524-1.168,0.991-1.963,1.283C92.452,166.794,91.5,167,90.393,167
		H83v-13h7.393c1.107,0,2.059,0.283,2.855,0.655c0.795,0.373,1.45,0.92,1.963,1.544s0.891,1.368,1.133,2.184
		c0.242,0.816,0.363,1.688,0.363,2.595C96.707,161.824,96.586,162.621,96.344,163.346z"/>
</g>
<rect x="115" y="42" width="9" height="1"/>
<rect x="114" y="43" width="11" height="2"/>
<rect x="122" y="40" width="1" height="2"/>
<rect x="116" y="45" width="7" height="9"/>
<rect x="123" y="45" width="2" height="1"/>
<rect x="123" y="47" width="2" height="1"/>
<rect x="123" y="49" width="2" height="1"/>
<rect x="123" y="51" width="2" height="2"/>
<rect x="114" y="46" width="2" height="1"/>
<rect x="114" y="48" width="2" height="1"/>
<rect x="114" y="50" width="2" height="3"/>
<rect x="115" y="53" width="9" height="1"/>
<rect x="113" y="54" width="13" height="6"/>
<rect x="126" y="55" width="1" height="4"/>
<rect x="112" y="55" width="1" height="4"/>
<rect x="115" y="60" width="9" height="6"/>
<rect x="117" y="66" width="5" height="1"/>
<rect x="116" y="67" width="7" height="8"/>
<rect x="118" y="75" width="3" height="1"/>
<rect x="117" y="76" width="5" height="5"/>
<rect x="118" y="81" width="3" height="5"/>
<text transform="matrix(1 0 0 1 30.5205 85.9912)" font-family="'Roboto-Black'" font-size="61.8696">DP</text>
<text transform="matrix(1 0 0 1 33.0205 32.4912)" fill="#848484" font-family="'Roboto-Light'" font-size="9">ORIGINAL (SMALL)</text>
<text transform="matrix(1 0 0 1 33.0205 134.9912)" fill="#848484" font-family="'Roboto-Light'" font-size="9">COMBINED (SMALL)</text>
<g>
	<path d="M150.028,271.161c-7.356-7.6-16.129-13.59-26.319-17.782c-10.191-4.19-21.37-6.379-33.53-6.379H33v180h57.671
		c11.999,0,23.053-2.26,33.161-6.449c10.108-4.193,18.839-10.147,26.196-17.711c7.354-7.56,12.393-16.642,16.503-27.162
		c4.109-10.519,5.469-22.187,5.469-34.927v-7.52c0-12.654-1.36-24.265-5.469-34.825C162.42,287.846,157.382,278.764,150.028,271.161
		z M131,340.751c0,17.425-4.201,30.857-10.855,39.692C113.485,389.278,103.08,394,90.671,394H74V280h16.179
		c12.736,0,23.307,4.695,29.966,13.488c6.655,8.795,10.855,22.158,10.855,39.497V340.751z"/>
	<path d="M318.237,264.444c-6-5.426-13.314-9.75-21.943-12.791c-8.63-3.039-18.327-4.653-29.093-4.653H196v180h41v-61h30.201
		c10.766,0,20.463-1.487,29.093-4.241c8.629-2.754,15.944-6.714,21.943-11.767c5.998-5.054,10.602-11.144,13.806-18.213
		c3.206-7.065,4.808-14.971,4.808-23.684c0-8.793-1.602-16.913-4.808-24.353C328.839,276.307,324.234,269.868,318.237,264.444z
		 M291.485,317.945c-0.986,2.958-2.526,5.507-4.623,7.643c-2.096,2.139-4.768,4.117-8.012,5.309
		c-3.248,1.191-7.131,2.104-11.65,2.104H237v-53h30.201c4.519,0,8.402,1.057,11.65,2.577c3.244,1.522,5.916,3.706,8.012,6.252
		s3.636,5.559,4.623,8.886c0.986,3.33,1.48,6.878,1.48,10.576C292.966,311.744,292.472,314.986,291.485,317.945z"/>
</g>
<text transform="matrix(1 0 0 1 33.0205 234.9912)" fill="#848484" font-family="'Roboto-Light'" font-size="9">DETAILS (BIG)</text>
<g>
	<path d="M728,267.5c0-0.829-0.672-1.5-1.5-1.5H718v3h8.5C727.328,269,728,268.329,728,267.5z"/>
	<path d="M726.5,270H718v3h8.5c0.828,0,1.5-0.671,1.5-1.5S727.328,270,726.5,270z"/>
	<path d="M726.5,274H718v3h8.5c0.828,0,1.5-0.671,1.5-1.5S727.328,274,726.5,274z"/>
	<path d="M726.5,298H718v3h8.5c0.828,0,1.5-0.671,1.5-1.5S727.328,298,726.5,298z"/>
	<path d="M726.5,278H718v3h8.5c0.828,0,1.5-0.671,1.5-1.5S727.328,278,726.5,278z"/>
	<path d="M726.5,294H718v3h8.5c0.828,0,1.5-0.671,1.5-1.5S727.328,294,726.5,294z"/>
	<path d="M726.5,282H718v3h8.5c0.828,0,1.5-0.671,1.5-1.5S727.328,282,726.5,282z"/>
	<path d="M726.5,290H718v3h8.5c0.828,0,1.5-0.671,1.5-1.5S727.328,290,726.5,290z"/>
	<path d="M726.5,286H718v3h8.5c0.828,0,1.5-0.671,1.5-1.5S727.328,286,726.5,286z"/>
	<path d="M688,267.5c0,0.829,0.672,1.5,1.5,1.5h8.5v-3h-8.5C688.672,266,688,266.671,688,267.5z"/>
	<path d="M688,271.5c0,0.829,0.672,1.5,1.5,1.5h8.5v-3h-8.5C688.672,270,688,270.671,688,271.5z"/>
	<path d="M688,275.5c0,0.829,0.672,1.5,1.5,1.5h8.5v-3h-8.5C688.672,274,688,274.671,688,275.5z"/>
	<path d="M688,299.5c0,0.829,0.672,1.5,1.5,1.5h8.5v-3h-8.5C688.672,298,688,298.671,688,299.5z"/>
	<path d="M688,279.5c0,0.829,0.672,1.5,1.5,1.5h8.5v-3h-8.5C688.672,278,688,278.671,688,279.5z"/>
	<path d="M688,295.5c0,0.829,0.672,1.5,1.5,1.5h8.5v-3h-8.5C688.672,294,688,294.671,688,295.5z"/>
	<path d="M688,283.5c0,0.829,0.672,1.5,1.5,1.5h8.5v-3h-8.5C688.672,282,688,282.671,688,283.5z"/>
	<path d="M688,291.5c0,0.829,0.672,1.5,1.5,1.5h8.5v-3h-8.5C688.672,290,688,290.671,688,291.5z"/>
	<path d="M688,287.5c0,0.829,0.672,1.5,1.5,1.5h8.5v-3h-8.5C688.672,286,688,286.671,688,287.5z"/>
</g>
<rect x="692" y="266" width="32" height="34"/>
<rect x="685" y="318" width="46" height="29"/>
<rect x="696" y="347" width="24" height="3"/>
<rect x="692" y="349" width="32" height="39"/>
<rect x="701" y="388" width="14" height="3"/>
<rect x="696" y="390" width="24" height="20"/>
<rect x="696" y="325" width="24" height="3"/>
<polygon points="704,410 704,427 703.975,427 707.986,430.93 711.975,427 712,427 712,410 "/>
<polygon points="739.052,293 739,293 737.569,293 734,293 725,293 724,293 723.274,293 723,293 716,293 700,293 693,293 
	692.726,293 692,293 691,293 682,293 681,293 680,293 678.431,293 677,293 676.948,293 674,295.904 674,297.709 674,299 674,300 
	674,302 674,302.475 674,305.908 674,306.949 674,307 674.052,307 685.219,318 691,318 692,318 693,318 697.168,318 700,318 
	716,318 718.832,318 723,318 724,318 725,318 730.781,318 741.948,307 742,307 742,306.949 742,305.908 742,302.475 742,302 
	742,300 742,297.709 742,295.904 "/>
<path d="M725,249h-34c-3.313,0-6,2.687-6,6v1v5v5h41h2h3v-2v-2v-2v-4v-1C731,251.687,728.313,249,725,249z"/>
<path d="M404,296h-1v-1.301c0.007-0.066,0.017-0.13,0.017-0.199s-0.01-0.133-0.017-0.199V294v-2v-3c0-1.104-0.896-2-2-2h-1h-0.14
	h-1.48c-0.088,0-0.174-0.01-0.255-0.03c-0.577-0.137-1.012-0.731-1.012-1.47s0.435-1.333,1.012-1.47
	c0.081-0.02,0.167-0.03,0.255-0.03h1.679h0.001h0.005h0.001h1.685h0.001h0.001h0.001c0.523,0,0.974-0.368,1.164-0.909
	c0.064-0.18,0.1-0.38,0.1-0.591s0.009-0.411-0.056-0.591c-0.001-0.003,0.039-0.005,0.039-0.009c0,0,0-0.001,0-0.002
	c0-0.041-0.084-0.073-0.102-0.111c-0.04-0.087-0.1-0.177-0.152-0.252c-0.031-0.046-0.086-0.078-0.122-0.119
	c-0.052-0.057-0.104-0.12-0.163-0.166c-0.039-0.031-0.089-0.046-0.131-0.072c-0.066-0.04-0.131-0.086-0.204-0.112
	c-0.086-0.031-0.179-0.039-0.271-0.048c-0.034-0.003-0.066-0.018-0.102-0.018h-0.001h-0.001h-0.001h-1.685h-0.001h-0.005h-0.001
	h-1.679c-0.004,0-0.007-0.001-0.01-0.001c-0.087-0.001-0.17-0.022-0.249-0.041c-0.283-0.067-0.531-0.248-0.713-0.499
	c-0.007-0.01-0.014-0.02-0.021-0.03c-0.078-0.115-0.14-0.246-0.188-0.386c-0.012-0.037-0.02-0.076-0.029-0.114
	c-0.027-0.106-0.042-0.218-0.05-0.333c-0.002-0.032-0.008-0.063-0.008-0.096c0-0.06,0.009-0.116,0.015-0.174
	c0.007-0.072,0.017-0.143,0.031-0.211c0.026-0.12,0.065-0.232,0.114-0.337c0.022-0.048,0.043-0.098,0.07-0.143
	c0.038-0.065,0.08-0.125,0.127-0.182c0.057-0.068,0.117-0.131,0.185-0.185c0.051-0.042,0.105-0.075,0.162-0.108
	c0.065-0.038,0.134-0.069,0.206-0.093c0.113-0.039,0.231-0.066,0.356-0.066h1.474h0.205h0.007h1.479h0.205h0.003
	c0.697,0,1.264-0.654,1.264-1.5s-0.566-1.5-1.264-1.5h-0.003h-0.205h-1.479h-0.007h-0.205h-1.268c-0.699,0-1.265-0.655-1.265-1.5
	s0.565-1.5,1.265-1.5h1.274h0.199h0.005h1.482h0.204h0.001c0.03,0,0.059-0.008,0.088-0.01c0.657-0.054,1.177-0.681,1.177-1.49
	s-0.52-1.436-1.177-1.49c-0.029-0.002-0.058-0.01-0.088-0.01h-0.001h-0.204h-1.482h-0.005h-0.199h-1.48
	c-0.088,0-0.174-0.01-0.255-0.03c-0.141-0.033-0.271-0.096-0.391-0.179c-0.006-0.003-0.011-0.006-0.016-0.01
	c-0.362-0.26-0.605-0.73-0.605-1.282s0.243-1.021,0.605-1.282c0.005-0.003,0.01-0.006,0.016-0.01
	c0.119-0.083,0.25-0.146,0.391-0.179c0.081-0.02,0.167-0.03,0.255-0.03h1.679h0.001h0.005h0.001h1.685h0.001h0.001h0.001
	c0.523,0,0.974-0.368,1.164-0.909c0.064-0.18,0.1-0.38,0.1-0.591s-0.035-0.411-0.1-0.591c-0.19-0.541-0.641-0.909-1.164-0.909
	h-0.001h-0.001h-0.001h-1.685h-0.001h-0.005h-0.001h-1.679h-0.003c-0.089,0-0.175-0.008-0.256-0.028
	c-0.578-0.137-1.017-0.731-1.017-1.47c0-0.737,0.438-1.331,1.017-1.468c0.081-0.02,0.167-0.034,0.256-0.034H399h2
	c1.104,0,2-0.896,2-2v-2.982v-1.996v-0.301c0-0.066,0.015-0.13,0.015-0.199S403,252.389,403,252.323V252v-1.975
	c0-1.655-1.345-3.025-3.007-3.025H396v-4c0-0.552-0.447-1-1-1s-1,0.448-1,1v4h-25.996c-1.067,0-1.996,0.575-2.526,1.413
	c-0.215,0.236-0.36,0.569-0.393,0.94c-0.051,0.213-0.085,0.443-0.085,0.673v2.996V255v0.018V258v3c0,1.104,0.896,2,2,2h2.704
	c0.106,0,0.208,0.02,0.308,0.049c0.128,0.037,0.248,0.097,0.357,0.176c0.008,0.006,0.017,0.01,0.024,0.016
	c0.101,0.076,0.188,0.173,0.266,0.279c0.02,0.027,0.04,0.054,0.058,0.083c0.066,0.104,0.12,0.218,0.162,0.341
	c0.015,0.042,0.024,0.088,0.035,0.132c0.027,0.107,0.043,0.22,0.049,0.337c0.001,0.029,0.007,0.057,0.007,0.087
	c0,0.845-0.566,1.5-1.266,1.5h-1.681h-0.004h-0.001H368h-1.661h-0.007h-0.001c-0.004,0-0.007,0.002-0.012,0.002
	c-0.129,0.002-0.252,0.032-0.37,0.076c-0.027,0.01-0.053,0.017-0.08,0.029c-0.105,0.049-0.201,0.116-0.29,0.195
	c-0.033,0.028-0.063,0.057-0.092,0.089c-0.078,0.083-0.147,0.175-0.205,0.279c-0.025,0.044-0.043,0.092-0.064,0.14
	c-0.038,0.087-0.068,0.179-0.091,0.275c-0.009,0.038-0.028,0.068-0.035,0.107c-0.017,0.099-0.025,0.202-0.025,0.307
	s0.008,0.208,0.025,0.307c0.007,0.039,0.026,0.069,0.035,0.107c0.023,0.097,0.053,0.188,0.091,0.275
	c0.021,0.048,0.039,0.096,0.064,0.14c0.058,0.104,0.127,0.196,0.205,0.279c0.03,0.032,0.06,0.061,0.092,0.089
	c0.089,0.079,0.185,0.146,0.29,0.195c0.026,0.012,0.053,0.019,0.08,0.029c0.117,0.044,0.24,0.073,0.369,0.076
	c0.004,0,0.008,0.002,0.012,0.002h0.001h0.007h1.679h0.001h0.004h1.474c0.699,0,1.266,0.655,1.266,1.5s-0.567,1.5-1.266,1.5h-1.268
	h-0.005h-0.201h-0.004h-1.474h-0.008h-0.198h-0.007c-0.699,0-1.265,0.654-1.265,1.5s0.566,1.5,1.265,1.5h0.007h0.198h0.008h1.474
	h0.004h0.201h0.005h1.273c0.701,0,1.266,0.655,1.266,1.5c0,0.843-0.565,1.5-1.266,1.5h-1.479h-0.002h-0.002h-1.68h-0.001h-0.006
	c-0.139,0-0.271,0.032-0.396,0.081c-0.017,0.006-0.034,0.011-0.05,0.018c-0.118,0.052-0.226,0.125-0.325,0.214
	c-0.017,0.016-0.033,0.031-0.049,0.047c-0.097,0.097-0.181,0.209-0.249,0.336c-0.004,0.008-0.007,0.017-0.012,0.025
	c-0.115,0.226-0.185,0.489-0.185,0.778c0,0.66,0.347,1.198,0.83,1.405c0.006,0.003,0.013,0.004,0.019,0.007
	c0.131,0.053,0.27,0.088,0.416,0.088h0.006h0.001h1.68h0.002h0.002h1.681c0.699,0,1.266,0.655,1.266,1.5s-0.566,1.5-1.266,1.5
	h-0.981H367c-1.104,0-2,0.896-2,2v4v2v2v2h-1c-2.762,0-5,2.238-5,5v6v1v6v1v6c0,2.762,2.238,5,5,5h1v18h6v4h-3v16h7v4h-3v39h8v19
	h-0.025l4.012,4.49l3.988-4.49H388v-19h8v-39h-3v-4h7v-16h-3v-4h6v-18h1c2.762,0,5-2.238,5-5v-6v-1v-6v-1v-6
	C409,298.238,406.762,296,404,296z"/>
</svg>
