<?xml version="1.0" encoding="utf-8"?>
<!-- Generator: Adobe Illustrator 16.0.0, SVG Export Plug-In . SVG Version: 6.00 Build 0)  -->
<!DOCTYPE svg PUBLIC "-//W3C//DTD SVG 1.1//EN" "http://www.w3.org/Graphics/SVG/1.1/DTD/svg11.dtd">
<svg version="1.1" id="Layer_1" xmlns="http://www.w3.org/2000/svg" xmlns:xlink="http://www.w3.org/1999/xlink" x="0px" y="0px"
	 width="178px" height="69.061px" viewBox="-63.5 4 178 69.061" enable-background="new -63.5 4 178 69.061" xml:space="preserve">
<circle fill="#FFFFFF" cx="24" cy="18" r="6"/>
<image overflow="visible" width="178" height="28" xlink:href="A6C9C21E.png"  transform="matrix(1 0 0 1 -63.5 49.5)">
</image>
<g>
	<path fill="#FFFFFF" d="M-50.761,63.113c-0.384-0.319-0.855-0.597-1.413-0.832s-1.193-0.452-1.905-0.65
		c-0.682-0.18-1.255-0.37-1.719-0.571c-0.465-0.201-0.84-0.418-1.125-0.65c-0.285-0.232-0.488-0.485-0.609-0.758
		c-0.121-0.272-0.181-0.57-0.181-0.892c0-0.341,0.073-0.663,0.218-0.967s0.359-0.568,0.642-0.795
		c0.282-0.226,0.635-0.405,1.059-0.539c0.424-0.133,0.916-0.199,1.473-0.199s1.053,0.077,1.487,0.232
		c0.434,0.154,0.799,0.368,1.097,0.641c0.297,0.273,0.523,0.597,0.678,0.972s0.232,0.782,0.232,1.222h1.152
		c0-0.563-0.109-1.09-0.326-1.58c-0.217-0.489-0.526-0.916-0.929-1.282c-0.403-0.365-0.891-0.653-1.463-0.864
		c-0.573-0.21-1.216-0.315-1.928-0.315c-0.663,0-1.273,0.085-1.831,0.255c-0.557,0.171-1.038,0.409-1.44,0.716
		c-0.403,0.307-0.716,0.674-0.939,1.102c-0.223,0.427-0.334,0.901-0.334,1.422c0,0.532,0.104,0.997,0.312,1.394
		s0.502,0.746,0.883,1.05s0.844,0.568,1.389,0.795c0.545,0.227,1.158,0.436,1.84,0.627c0.707,0.198,1.295,0.396,1.766,0.595
		s0.851,0.417,1.139,0.655s0.492,0.502,0.613,0.79c0.121,0.288,0.181,0.618,0.181,0.989c0,0.385-0.082,0.733-0.246,1.046
		c-0.165,0.313-0.4,0.581-0.707,0.804s-0.675,0.395-1.106,0.516s-0.909,0.182-1.436,0.182c-0.465,0-0.929-0.055-1.394-0.163
		c-0.464-0.108-0.883-0.283-1.254-0.525c-0.372-0.241-0.675-0.559-0.911-0.952s-0.353-0.875-0.353-1.445h-1.143
		c0,0.478,0.07,0.909,0.209,1.297c0.139,0.387,0.328,0.731,0.567,1.031c0.238,0.301,0.521,0.56,0.846,0.776s0.675,0.395,1.05,0.534
		c0.375,0.14,0.765,0.243,1.171,0.312c0.406,0.067,0.81,0.102,1.213,0.102c0.669,0,1.289-0.08,1.858-0.241
		c0.57-0.161,1.061-0.394,1.473-0.697s0.734-0.674,0.966-1.11s0.349-0.931,0.349-1.482c0-0.545-0.099-1.025-0.297-1.44
		S-50.377,63.433-50.761,63.113z"/>
	<path fill="#FFFFFF" d="M-40.938,66.222c-0.093,0.291-0.22,0.558-0.381,0.799c-0.161,0.242-0.366,0.452-0.613,0.632
		c-0.248,0.18-0.542,0.319-0.883,0.418c-0.341,0.1-0.734,0.149-1.181,0.149c-0.316,0-0.615-0.047-0.896-0.14
		c-0.282-0.093-0.528-0.248-0.739-0.465c-0.211-0.217-0.378-0.505-0.502-0.864s-0.186-0.809-0.186-1.348v-6.458h-1.106v6.439
		c0,0.688,0.079,1.272,0.237,1.752c0.158,0.48,0.382,0.872,0.674,1.176c0.291,0.304,0.638,0.524,1.041,0.664
		c0.403,0.14,0.852,0.209,1.348,0.209c0.774,0,1.423-0.128,1.947-0.386c0.523-0.257,0.943-0.614,1.259-1.073L-40.901,69h1.078
		V58.945h-1.115V66.222z"/>
	<rect x="-36.803" y="54.727" fill="#FFFFFF" width="1.115" height="14.273"/>
	<path fill="#FFFFFF" d="M-25.586,60.153c-0.329-0.446-0.732-0.79-1.213-1.031c-0.48-0.242-1.027-0.362-1.64-0.362
		c-0.719,0-1.338,0.143-1.858,0.427c-0.521,0.285-0.951,0.679-1.292,1.181l-0.056-1.422h-1.031v13.921h1.106v-5.13
		c0.34,0.452,0.772,0.807,1.296,1.063c0.523,0.258,1.144,0.386,1.863,0.386c0.607,0,1.148-0.125,1.622-0.376
		c0.474-0.251,0.875-0.601,1.204-1.05c0.328-0.449,0.578-0.987,0.748-1.612c0.17-0.626,0.255-1.316,0.255-2.072V63.88
		c0-0.781-0.085-1.485-0.255-2.114S-25.258,60.6-25.586,60.153z M-25.698,64.075c0,0.588-0.061,1.137-0.181,1.645
		c-0.121,0.508-0.304,0.949-0.548,1.324c-0.245,0.375-0.553,0.669-0.925,0.883s-0.812,0.32-1.319,0.32
		c-0.378,0-0.719-0.045-1.022-0.135s-0.575-0.214-0.813-0.371c-0.239-0.158-0.446-0.346-0.623-0.563
		c-0.177-0.217-0.324-0.452-0.441-0.706v-4.823c0.105-0.254,0.24-0.497,0.404-0.729c0.164-0.232,0.362-0.437,0.595-0.613
		c0.232-0.177,0.503-0.317,0.813-0.423c0.31-0.105,0.666-0.158,1.068-0.158c0.508,0,0.951,0.107,1.329,0.32
		c0.378,0.214,0.689,0.507,0.934,0.879c0.245,0.371,0.427,0.812,0.548,1.319c0.121,0.508,0.181,1.054,0.181,1.636V64.075z"/>
	<path fill="#FFFFFF" d="M-15.388,59.614c-0.275-0.297-0.612-0.514-1.008-0.65s-0.845-0.204-1.347-0.204
		c-0.359,0-0.699,0.045-1.018,0.135c-0.319,0.09-0.617,0.217-0.892,0.381c-0.276,0.164-0.528,0.362-0.757,0.595
		c-0.229,0.232-0.431,0.491-0.604,0.775v-5.919h-1.106V69h1.106v-6.886c0.105-0.304,0.248-0.6,0.427-0.888s0.394-0.544,0.641-0.767
		c0.248-0.223,0.533-0.401,0.855-0.534c0.322-0.134,0.682-0.2,1.078-0.2c0.359,0,0.686,0.045,0.98,0.135
		c0.294,0.09,0.543,0.24,0.748,0.451c0.205,0.21,0.362,0.489,0.474,0.836c0.112,0.347,0.167,0.78,0.167,1.301V69h1.106v-6.542
		c0-0.663-0.073-1.229-0.218-1.696C-14.902,60.294-15.112,59.912-15.388,59.614z"/>
	<path fill="#FFFFFF" d="M-5.226,66.222c-0.093,0.291-0.22,0.558-0.381,0.799c-0.161,0.242-0.366,0.452-0.613,0.632
		c-0.248,0.18-0.542,0.319-0.883,0.418c-0.341,0.1-0.734,0.149-1.181,0.149c-0.316,0-0.615-0.047-0.896-0.14
		c-0.282-0.093-0.528-0.248-0.739-0.465c-0.211-0.217-0.378-0.505-0.502-0.864s-0.186-0.809-0.186-1.348v-6.458h-1.106v6.439
		c0,0.688,0.079,1.272,0.237,1.752c0.158,0.48,0.382,0.872,0.674,1.176c0.291,0.304,0.638,0.524,1.041,0.664
		c0.403,0.14,0.852,0.209,1.348,0.209c0.774,0,1.423-0.128,1.947-0.386c0.523-0.257,0.943-0.614,1.259-1.073L-5.189,69h1.078V58.945
		h-1.115V66.222z"/>
	<path fill="#FFFFFF" d="M2.719,58.76c-0.681,0-1.256,0.159-1.724,0.479c-0.468,0.318-0.838,0.754-1.11,1.306l-0.019-1.599h-1.087
		V69h1.106v-6.904c0.093-0.335,0.218-0.64,0.376-0.916c0.158-0.275,0.354-0.514,0.585-0.715c0.232-0.201,0.5-0.358,0.804-0.47
		c0.303-0.111,0.644-0.167,1.022-0.167c0.267,0,0.517,0.021,0.753,0.064l0.028-1.013c-0.068-0.03-0.173-0.059-0.316-0.083
		C2.995,58.771,2.855,58.76,2.719,58.76z"/>
	<polygon fill="#FFFFFF" points="10.07,69 11.213,69 11.213,62.681 17.522,62.681 17.522,61.705 11.213,61.705 11.213,56.445 
		18.452,56.445 18.452,55.47 10.07,55.47 	"/>
	<path fill="#FFFFFF" d="M26.964,66.222c-0.093,0.291-0.22,0.558-0.381,0.799c-0.161,0.242-0.365,0.452-0.612,0.632
		c-0.248,0.18-0.543,0.319-0.883,0.418c-0.342,0.1-0.735,0.149-1.181,0.149c-0.316,0-0.615-0.047-0.896-0.14
		c-0.282-0.093-0.528-0.248-0.739-0.465c-0.211-0.217-0.378-0.505-0.502-0.864s-0.186-0.809-0.186-1.348v-6.458h-1.106v6.439
		c0,0.688,0.079,1.272,0.237,1.752c0.158,0.48,0.382,0.872,0.674,1.176c0.291,0.304,0.638,0.524,1.041,0.664
		c0.403,0.14,0.852,0.209,1.348,0.209c0.774,0,1.423-0.128,1.947-0.386c0.523-0.257,0.943-0.614,1.259-1.073L27.002,69h1.077V58.945
		h-1.115V66.222z"/>
	<path fill="#FFFFFF" d="M37.609,60.061c-0.338-0.409-0.755-0.729-1.25-0.957c-0.496-0.229-1.063-0.344-1.701-0.344
		c-0.576,0-1.123,0.12-1.64,0.362c-0.518,0.241-0.975,0.584-1.371,1.026c-0.396,0.443-0.711,0.979-0.943,1.607
		c-0.232,0.629-0.349,1.331-0.349,2.105v0.399c0,0.719,0.112,1.379,0.335,1.979s0.534,1.119,0.934,1.557
		c0.4,0.437,0.875,0.777,1.427,1.021c0.552,0.245,1.155,0.367,1.813,0.367c0.452,0,0.86-0.046,1.227-0.139
		c0.365-0.094,0.693-0.221,0.984-0.382c0.291-0.16,0.547-0.35,0.767-0.566c0.221-0.217,0.414-0.446,0.581-0.688l-0.697-0.53
		c-0.371,0.478-0.785,0.824-1.24,1.041s-0.98,0.325-1.575,0.325c-0.514,0-0.981-0.104-1.403-0.312
		c-0.421-0.207-0.783-0.49-1.087-0.85s-0.539-0.782-0.706-1.269c-0.168-0.486-0.251-1.005-0.251-1.557v-0.214h7.174v-0.679
		c0-0.669-0.087-1.285-0.26-1.849C38.202,60.956,37.946,60.469,37.609,60.061z M37.53,63.099h-6.031
		c0.062-0.508,0.181-0.971,0.357-1.389s0.403-0.776,0.679-1.073c0.275-0.298,0.593-0.526,0.952-0.688s0.75-0.242,1.171-0.242
		c0.471,0,0.883,0.092,1.236,0.274c0.353,0.183,0.648,0.426,0.888,0.729c0.238,0.304,0.419,0.652,0.543,1.045
		c0.124,0.394,0.192,0.801,0.205,1.223V63.099z"/>
	<rect x="40.932" y="54.727" fill="#FFFFFF" width="1.115" height="14.273"/>
	<rect x="50.205" y="55.47" fill="#FFFFFF" width="1.143" height="13.53"/>
	<path fill="#FFFFFF" d="M61.492,59.614c-0.276-0.297-0.612-0.514-1.009-0.65s-0.846-0.204-1.348-0.204
		c-0.359,0-0.7,0.045-1.021,0.135c-0.322,0.09-0.623,0.218-0.901,0.385c-0.279,0.168-0.531,0.369-0.758,0.604s-0.426,0.496-0.6,0.78
		l-0.037-1.719h-1.06V69h1.106v-6.886c0.105-0.304,0.248-0.6,0.428-0.888s0.393-0.544,0.641-0.767s0.533-0.401,0.855-0.534
		c0.321-0.134,0.681-0.2,1.077-0.2c0.359,0,0.687,0.045,0.98,0.135c0.295,0.09,0.544,0.24,0.748,0.451
		c0.205,0.21,0.363,0.489,0.475,0.836s0.167,0.78,0.167,1.301V69h1.105v-6.542c0-0.663-0.072-1.229-0.218-1.696
		S61.768,59.912,61.492,59.614z"/>
	<path fill="#FFFFFF" d="M65.864,55.284c-0.236,0-0.42,0.072-0.554,0.218c-0.133,0.146-0.199,0.324-0.199,0.534
		c0,0.211,0.066,0.388,0.199,0.53c0.134,0.143,0.317,0.214,0.554,0.214c0.241,0,0.43-0.071,0.566-0.214s0.204-0.319,0.204-0.53
		c0-0.21-0.067-0.389-0.204-0.534S66.105,55.284,65.864,55.284z"/>
	<path fill="#FFFFFF" d="M65.307,70.199c0,0.638-0.143,1.111-0.428,1.421c-0.285,0.311-0.694,0.465-1.227,0.465
		c-0.143,0-0.291-0.013-0.446-0.037c-0.154-0.024-0.285-0.053-0.391-0.083l-0.019,0.92c0.149,0.056,0.311,0.099,0.483,0.13
		c0.174,0.031,0.338,0.046,0.493,0.046c0.867,0,1.523-0.244,1.97-0.733c0.446-0.49,0.669-1.199,0.669-2.128V58.945h-1.105V70.199z"
		/>
	<path fill="#FFFFFF" d="M76.193,60.061c-0.338-0.409-0.755-0.729-1.25-0.957c-0.496-0.229-1.063-0.344-1.701-0.344
		c-0.576,0-1.123,0.12-1.64,0.362c-0.518,0.241-0.975,0.584-1.371,1.026c-0.396,0.443-0.711,0.979-0.943,1.607
		c-0.232,0.629-0.349,1.331-0.349,2.105v0.399c0,0.719,0.112,1.379,0.335,1.979s0.534,1.119,0.934,1.557
		c0.4,0.437,0.875,0.777,1.427,1.021c0.552,0.245,1.155,0.367,1.813,0.367c0.452,0,0.86-0.046,1.227-0.139
		c0.365-0.094,0.693-0.221,0.984-0.382c0.291-0.16,0.547-0.35,0.767-0.566c0.221-0.217,0.414-0.446,0.581-0.688l-0.697-0.53
		c-0.371,0.478-0.785,0.824-1.24,1.041s-0.98,0.325-1.575,0.325c-0.514,0-0.981-0.104-1.403-0.312
		c-0.421-0.207-0.783-0.49-1.087-0.85s-0.539-0.782-0.706-1.269c-0.168-0.486-0.251-1.005-0.251-1.557v-0.214h7.174v-0.679
		c0-0.669-0.087-1.285-0.26-1.849C76.786,60.956,76.53,60.469,76.193,60.061z M76.114,63.099h-6.031
		c0.062-0.508,0.181-0.971,0.357-1.389s0.403-0.776,0.679-1.073c0.275-0.298,0.593-0.526,0.952-0.688s0.75-0.242,1.171-0.242
		c0.471,0,0.883,0.092,1.236,0.274c0.353,0.183,0.648,0.426,0.888,0.729c0.238,0.304,0.419,0.652,0.543,1.045
		c0.124,0.394,0.192,0.801,0.205,1.223V63.099z"/>
	<path fill="#FFFFFF" d="M80.096,62.244c0.115-0.489,0.299-0.923,0.554-1.301c0.254-0.378,0.58-0.679,0.98-0.901
		c0.399-0.224,0.887-0.335,1.463-0.335c0.378,0,0.732,0.061,1.064,0.182c0.331,0.12,0.622,0.296,0.873,0.524
		c0.251,0.229,0.452,0.505,0.604,0.827c0.151,0.322,0.24,0.688,0.265,1.097h1.068c-0.024-0.545-0.139-1.039-0.344-1.482
		c-0.204-0.442-0.479-0.819-0.822-1.129s-0.746-0.548-1.208-0.716c-0.462-0.167-0.962-0.25-1.501-0.25c-0.7,0-1.317,0.13-1.854,0.39
		c-0.536,0.261-0.983,0.615-1.343,1.064s-0.631,0.979-0.813,1.589s-0.274,1.269-0.274,1.975v0.391c0,0.706,0.092,1.364,0.274,1.975
		s0.455,1.142,0.818,1.594c0.362,0.452,0.81,0.807,1.343,1.063c0.532,0.258,1.152,0.386,1.858,0.386
		c0.508,0,0.991-0.082,1.449-0.246c0.459-0.164,0.863-0.392,1.213-0.683s0.632-0.639,0.846-1.041s0.333-0.843,0.357-1.319h-1.068
		c-0.024,0.384-0.119,0.722-0.283,1.013s-0.373,0.536-0.627,0.734c-0.255,0.198-0.544,0.349-0.869,0.45
		c-0.325,0.103-0.665,0.153-1.018,0.153c-0.576,0-1.067-0.111-1.473-0.334c-0.406-0.224-0.734-0.522-0.985-0.897
		c-0.251-0.374-0.434-0.809-0.549-1.301c-0.114-0.492-0.172-1.008-0.172-1.547v-0.391C79.924,63.245,79.981,62.733,80.096,62.244z"
		/>
	<path fill="#FFFFFF" d="M92.711,68.178c-0.155,0.021-0.316,0.032-0.483,0.032c-0.174,0-0.339-0.02-0.497-0.061
		c-0.158-0.04-0.297-0.12-0.418-0.241s-0.217-0.288-0.288-0.502s-0.107-0.497-0.107-0.851v-6.7h2.082v-0.91h-2.082v-2.574h-1.114
		v2.574h-1.85v0.91h1.85v6.7c0,0.502,0.054,0.922,0.162,1.26s0.259,0.608,0.451,0.813c0.191,0.205,0.423,0.349,0.691,0.433
		c0.27,0.083,0.563,0.125,0.879,0.125c0.217,0,0.435-0.014,0.655-0.042c0.22-0.027,0.397-0.066,0.534-0.115l-0.047-0.911
		C93.005,68.136,92.865,68.156,92.711,68.178z"/>
	<path fill="#FFFFFF" d="M102.449,60.195c-0.391-0.449-0.862-0.801-1.417-1.055s-1.176-0.381-1.863-0.381
		c-0.675,0-1.289,0.127-1.84,0.381c-0.552,0.254-1.022,0.605-1.412,1.055c-0.391,0.449-0.692,0.983-0.906,1.603
		c-0.214,0.62-0.321,1.295-0.321,2.026v0.307c0,0.73,0.107,1.406,0.321,2.025c0.214,0.62,0.517,1.154,0.91,1.604
		s0.866,0.799,1.417,1.05c0.552,0.251,1.168,0.376,1.85,0.376s1.298-0.125,1.85-0.376c0.551-0.251,1.021-0.601,1.412-1.05
		s0.69-0.983,0.901-1.604c0.211-0.619,0.316-1.295,0.316-2.025v-0.307c0-0.731-0.105-1.406-0.316-2.026
		C103.14,61.179,102.84,60.645,102.449,60.195z M102.561,64.131c0,0.551-0.074,1.076-0.223,1.575
		c-0.148,0.498-0.365,0.936-0.65,1.31c-0.285,0.375-0.637,0.674-1.055,0.897c-0.418,0.223-0.9,0.334-1.445,0.334
		s-1.028-0.111-1.449-0.334c-0.422-0.224-0.774-0.522-1.06-0.897c-0.285-0.374-0.502-0.812-0.65-1.31
		c-0.149-0.499-0.224-1.024-0.224-1.575v-0.307c0-0.539,0.074-1.058,0.224-1.557c0.148-0.499,0.365-0.938,0.65-1.315
		s0.637-0.68,1.055-0.906c0.418-0.226,0.896-0.339,1.436-0.339c0.545,0,1.03,0.113,1.454,0.339c0.425,0.227,0.779,0.528,1.064,0.906
		s0.502,0.816,0.65,1.315s0.223,1.018,0.223,1.557V64.131z"/>
	<path fill="#FFFFFF" d="M110.32,58.797c-0.143-0.025-0.281-0.037-0.418-0.037c-0.682,0-1.256,0.159-1.724,0.479
		c-0.468,0.318-0.838,0.754-1.11,1.306l-0.019-1.599h-1.088V69h1.106v-6.904c0.093-0.335,0.218-0.64,0.376-0.916
		c0.158-0.275,0.354-0.514,0.586-0.715s0.5-0.358,0.804-0.47s0.645-0.167,1.022-0.167c0.266,0,0.517,0.021,0.752,0.064l0.028-1.013
		C110.568,58.85,110.463,58.821,110.32,58.797z"/>
	<path fill="#D0304E" d="M24,4c-7.73,0-14,6.27-14,14c0,10.5,14,26,14,26s14-15.5,14-26C38,10.27,31.73,4,24,4z M24,23
		c-2.76,0-5-2.24-5-5s2.24-5,5-5s5,2.24,5,5S26.76,23,24,23z"/>
	<path d="M-51.761,62.113c-0.384-0.319-0.855-0.597-1.413-0.832s-1.193-0.452-1.905-0.65c-0.682-0.18-1.255-0.37-1.719-0.571
		c-0.465-0.201-0.84-0.418-1.125-0.65c-0.285-0.232-0.488-0.485-0.609-0.758c-0.121-0.272-0.181-0.57-0.181-0.892
		c0-0.341,0.073-0.663,0.218-0.967s0.359-0.568,0.642-0.795c0.282-0.226,0.635-0.405,1.059-0.539
		c0.424-0.133,0.916-0.199,1.473-0.199s1.053,0.077,1.487,0.232c0.434,0.154,0.799,0.368,1.097,0.641
		c0.297,0.273,0.523,0.597,0.678,0.972s0.232,0.782,0.232,1.222h1.152c0-0.563-0.109-1.09-0.326-1.58
		c-0.217-0.489-0.526-0.916-0.929-1.282c-0.403-0.365-0.891-0.653-1.463-0.864c-0.573-0.21-1.216-0.315-1.928-0.315
		c-0.663,0-1.273,0.085-1.831,0.255c-0.557,0.171-1.038,0.409-1.44,0.716c-0.403,0.307-0.716,0.674-0.939,1.102
		c-0.223,0.427-0.334,0.901-0.334,1.422c0,0.532,0.104,0.997,0.312,1.394s0.502,0.746,0.883,1.05s0.844,0.568,1.389,0.795
		c0.545,0.227,1.158,0.436,1.84,0.627c0.707,0.198,1.295,0.396,1.766,0.595s0.851,0.417,1.139,0.655s0.492,0.502,0.613,0.79
		c0.121,0.288,0.181,0.618,0.181,0.989c0,0.385-0.082,0.733-0.246,1.046c-0.165,0.313-0.4,0.581-0.707,0.804
		s-0.675,0.395-1.106,0.516s-0.909,0.182-1.436,0.182c-0.465,0-0.929-0.055-1.394-0.163c-0.464-0.108-0.883-0.283-1.254-0.525
		c-0.372-0.241-0.675-0.559-0.911-0.952s-0.353-0.875-0.353-1.445h-1.143c0,0.478,0.07,0.909,0.209,1.297
		c0.139,0.387,0.328,0.731,0.567,1.031c0.238,0.301,0.521,0.56,0.846,0.776s0.675,0.395,1.05,0.534
		c0.375,0.14,0.765,0.243,1.171,0.312c0.406,0.067,0.81,0.102,1.213,0.102c0.669,0,1.289-0.08,1.858-0.241
		c0.57-0.161,1.061-0.394,1.473-0.697s0.734-0.674,0.966-1.11s0.349-0.931,0.349-1.482c0-0.545-0.099-1.025-0.297-1.44
		S-51.377,62.433-51.761,62.113z"/>
	<path d="M-41.938,65.222c-0.093,0.291-0.22,0.558-0.381,0.799c-0.161,0.242-0.366,0.452-0.613,0.632
		c-0.248,0.18-0.542,0.319-0.883,0.418c-0.341,0.1-0.734,0.149-1.181,0.149c-0.316,0-0.615-0.047-0.896-0.14
		c-0.282-0.093-0.528-0.248-0.739-0.465c-0.211-0.217-0.378-0.505-0.502-0.864s-0.186-0.809-0.186-1.348v-6.458h-1.106v6.439
		c0,0.688,0.079,1.272,0.237,1.752c0.158,0.48,0.382,0.872,0.674,1.176c0.291,0.304,0.638,0.524,1.041,0.664
		c0.403,0.14,0.852,0.209,1.348,0.209c0.774,0,1.423-0.128,1.947-0.386c0.523-0.257,0.943-0.614,1.259-1.073L-41.901,68h1.078
		V57.945h-1.115V65.222z"/>
	<rect x="-37.803" y="53.727" width="1.115" height="14.273"/>
	<path d="M-26.586,59.153c-0.329-0.446-0.732-0.79-1.213-1.031c-0.48-0.242-1.027-0.362-1.64-0.362
		c-0.719,0-1.338,0.143-1.858,0.427c-0.521,0.285-0.951,0.679-1.292,1.181l-0.056-1.422h-1.031v13.921h1.106v-5.13
		c0.34,0.452,0.772,0.807,1.296,1.063c0.523,0.258,1.144,0.386,1.863,0.386c0.607,0,1.148-0.125,1.622-0.376
		c0.474-0.251,0.875-0.601,1.204-1.05c0.328-0.449,0.578-0.987,0.748-1.612c0.17-0.626,0.255-1.316,0.255-2.072V62.88
		c0-0.781-0.085-1.485-0.255-2.114S-26.258,59.6-26.586,59.153z M-26.698,63.075c0,0.588-0.061,1.137-0.181,1.645
		c-0.121,0.508-0.304,0.949-0.548,1.324c-0.245,0.375-0.553,0.669-0.925,0.883s-0.812,0.32-1.319,0.32
		c-0.378,0-0.719-0.045-1.022-0.135s-0.575-0.214-0.813-0.371c-0.239-0.158-0.446-0.346-0.623-0.563
		c-0.177-0.217-0.324-0.452-0.441-0.706v-4.823c0.105-0.254,0.24-0.497,0.404-0.729c0.164-0.232,0.362-0.437,0.595-0.613
		c0.232-0.177,0.503-0.317,0.813-0.423c0.31-0.105,0.666-0.158,1.068-0.158c0.508,0,0.951,0.107,1.329,0.32
		c0.378,0.214,0.689,0.507,0.934,0.879c0.245,0.371,0.427,0.812,0.548,1.319c0.121,0.508,0.181,1.054,0.181,1.636V63.075z"/>
	<path d="M-16.388,58.614c-0.275-0.297-0.612-0.514-1.008-0.65s-0.845-0.204-1.347-0.204c-0.359,0-0.699,0.045-1.018,0.135
		c-0.319,0.09-0.617,0.217-0.892,0.381c-0.276,0.164-0.528,0.362-0.757,0.595c-0.229,0.232-0.431,0.491-0.604,0.775v-5.919h-1.106
		V68h1.106v-6.886c0.105-0.304,0.248-0.6,0.427-0.888s0.394-0.544,0.641-0.767c0.248-0.223,0.533-0.401,0.855-0.534
		c0.322-0.134,0.682-0.2,1.078-0.2c0.359,0,0.686,0.045,0.98,0.135c0.294,0.09,0.543,0.24,0.748,0.451
		c0.205,0.21,0.362,0.489,0.474,0.836c0.112,0.347,0.167,0.78,0.167,1.301V68h1.106v-6.542c0-0.663-0.073-1.229-0.218-1.696
		C-15.902,59.294-16.112,58.912-16.388,58.614z"/>
	<path d="M-6.226,65.222c-0.093,0.291-0.22,0.558-0.381,0.799c-0.161,0.242-0.366,0.452-0.613,0.632
		c-0.248,0.18-0.542,0.319-0.883,0.418c-0.341,0.1-0.734,0.149-1.181,0.149c-0.316,0-0.615-0.047-0.896-0.14
		c-0.282-0.093-0.528-0.248-0.739-0.465c-0.211-0.217-0.378-0.505-0.502-0.864s-0.186-0.809-0.186-1.348v-6.458h-1.106v6.439
		c0,0.688,0.079,1.272,0.237,1.752c0.158,0.48,0.382,0.872,0.674,1.176c0.291,0.304,0.638,0.524,1.041,0.664
		c0.403,0.14,0.852,0.209,1.348,0.209c0.774,0,1.423-0.128,1.947-0.386c0.523-0.257,0.943-0.614,1.259-1.073L-6.189,68h1.078V57.945
		h-1.115V65.222z"/>
	<path d="M1.719,57.76c-0.681,0-1.256,0.159-1.724,0.479c-0.468,0.318-0.838,0.754-1.11,1.306l-0.019-1.599h-1.087V68h1.106v-6.904
		c0.093-0.335,0.218-0.64,0.376-0.916c0.158-0.275,0.354-0.514,0.585-0.715c0.232-0.201,0.5-0.358,0.804-0.47
		c0.303-0.111,0.644-0.167,1.022-0.167c0.267,0,0.517,0.021,0.753,0.064l0.028-1.013c-0.068-0.03-0.173-0.059-0.316-0.083
		C1.995,57.771,1.855,57.76,1.719,57.76z"/>
	<polygon points="9.07,68 10.213,68 10.213,61.681 16.522,61.681 16.522,60.705 10.213,60.705 10.213,55.445 17.452,55.445 
		17.452,54.47 9.07,54.47 	"/>
	<path d="M25.964,65.222c-0.093,0.291-0.22,0.558-0.381,0.799c-0.161,0.242-0.365,0.452-0.612,0.632
		c-0.248,0.18-0.543,0.319-0.883,0.418c-0.341,0.1-0.734,0.149-1.181,0.149c-0.316,0-0.615-0.047-0.896-0.14
		c-0.282-0.093-0.528-0.248-0.739-0.465c-0.211-0.217-0.378-0.505-0.502-0.864s-0.186-0.809-0.186-1.348v-6.458h-1.106v6.439
		c0,0.688,0.079,1.272,0.237,1.752c0.158,0.48,0.382,0.872,0.674,1.176c0.291,0.304,0.638,0.524,1.041,0.664
		c0.403,0.14,0.852,0.209,1.348,0.209c0.774,0,1.423-0.128,1.947-0.386c0.523-0.257,0.943-0.614,1.259-1.073L26.002,68h1.077V57.945
		h-1.115V65.222z"/>
	<path d="M36.609,59.061c-0.338-0.409-0.755-0.729-1.25-0.957c-0.496-0.229-1.063-0.344-1.701-0.344c-0.576,0-1.123,0.12-1.64,0.362
		c-0.518,0.241-0.975,0.584-1.371,1.026c-0.396,0.443-0.711,0.979-0.943,1.607c-0.232,0.629-0.349,1.331-0.349,2.105v0.399
		c0,0.719,0.112,1.379,0.335,1.979s0.534,1.119,0.934,1.557c0.4,0.437,0.875,0.777,1.427,1.021c0.552,0.245,1.155,0.367,1.813,0.367
		c0.452,0,0.86-0.046,1.227-0.139c0.365-0.094,0.693-0.221,0.984-0.382c0.291-0.16,0.547-0.35,0.767-0.566
		c0.221-0.217,0.414-0.446,0.581-0.688l-0.697-0.53c-0.371,0.478-0.785,0.824-1.24,1.041s-0.98,0.325-1.575,0.325
		c-0.514,0-0.981-0.104-1.403-0.312c-0.421-0.207-0.783-0.49-1.087-0.85s-0.539-0.782-0.706-1.269
		c-0.168-0.486-0.251-1.005-0.251-1.557v-0.214h7.174v-0.679c0-0.669-0.087-1.285-0.26-1.849
		C37.202,59.956,36.946,59.469,36.609,59.061z M36.53,62.099h-6.031c0.062-0.508,0.181-0.971,0.357-1.389s0.403-0.776,0.679-1.073
		c0.275-0.298,0.593-0.526,0.952-0.688s0.75-0.242,1.171-0.242c0.471,0,0.883,0.092,1.236,0.274
		c0.353,0.183,0.648,0.426,0.888,0.729c0.238,0.304,0.419,0.652,0.543,1.045c0.124,0.394,0.192,0.801,0.205,1.223V62.099z"/>
	<rect x="39.932" y="53.727" width="1.115" height="14.273"/>
	<rect x="49.205" y="54.47" width="1.143" height="13.53"/>
	<path d="M60.492,58.614c-0.276-0.297-0.612-0.514-1.009-0.65s-0.846-0.204-1.348-0.204c-0.359,0-0.7,0.045-1.021,0.135
		c-0.322,0.09-0.623,0.218-0.901,0.385c-0.279,0.168-0.531,0.369-0.758,0.604s-0.426,0.496-0.6,0.78l-0.037-1.719h-1.06V68h1.106
		v-6.886c0.105-0.304,0.248-0.6,0.428-0.888s0.393-0.544,0.641-0.767s0.533-0.401,0.855-0.534c0.321-0.134,0.681-0.2,1.077-0.2
		c0.359,0,0.687,0.045,0.98,0.135c0.295,0.09,0.544,0.24,0.748,0.451c0.205,0.21,0.363,0.489,0.475,0.836s0.167,0.78,0.167,1.301V68
		h1.105v-6.542c0-0.663-0.072-1.229-0.218-1.696S60.768,58.912,60.492,58.614z"/>
	<path d="M64.864,54.284c-0.236,0-0.42,0.072-0.554,0.218c-0.133,0.146-0.199,0.324-0.199,0.534c0,0.211,0.066,0.388,0.199,0.53
		c0.134,0.143,0.317,0.214,0.554,0.214c0.241,0,0.43-0.071,0.566-0.214s0.204-0.319,0.204-0.53c0-0.21-0.067-0.389-0.204-0.534
		S65.105,54.284,64.864,54.284z"/>
	<path d="M64.307,69.199c0,0.638-0.143,1.111-0.428,1.421c-0.285,0.311-0.694,0.465-1.227,0.465c-0.143,0-0.291-0.013-0.446-0.037
		c-0.154-0.024-0.285-0.053-0.391-0.083l-0.019,0.92c0.149,0.056,0.311,0.099,0.483,0.13c0.174,0.031,0.338,0.046,0.493,0.046
		c0.867,0,1.523-0.244,1.97-0.733c0.446-0.49,0.669-1.199,0.669-2.128V57.945h-1.105V69.199z"/>
	<path d="M75.193,59.061c-0.338-0.409-0.755-0.729-1.25-0.957c-0.496-0.229-1.063-0.344-1.701-0.344c-0.576,0-1.123,0.12-1.64,0.362
		c-0.518,0.241-0.975,0.584-1.371,1.026c-0.396,0.443-0.711,0.979-0.943,1.607c-0.232,0.629-0.349,1.331-0.349,2.105v0.399
		c0,0.719,0.112,1.379,0.335,1.979s0.534,1.119,0.934,1.557c0.4,0.437,0.875,0.777,1.427,1.021c0.552,0.245,1.155,0.367,1.813,0.367
		c0.452,0,0.86-0.046,1.227-0.139c0.365-0.094,0.693-0.221,0.984-0.382c0.291-0.16,0.547-0.35,0.767-0.566
		c0.221-0.217,0.414-0.446,0.581-0.688l-0.697-0.53c-0.371,0.478-0.785,0.824-1.24,1.041s-0.98,0.325-1.575,0.325
		c-0.514,0-0.981-0.104-1.403-0.312c-0.421-0.207-0.783-0.49-1.087-0.85s-0.539-0.782-0.706-1.269
		c-0.168-0.486-0.251-1.005-0.251-1.557v-0.214h7.174v-0.679c0-0.669-0.087-1.285-0.26-1.849
		C75.786,59.956,75.53,59.469,75.193,59.061z M75.114,62.099h-6.031c0.062-0.508,0.181-0.971,0.357-1.389s0.403-0.776,0.679-1.073
		c0.275-0.298,0.593-0.526,0.952-0.688s0.75-0.242,1.171-0.242c0.471,0,0.883,0.092,1.236,0.274
		c0.353,0.183,0.648,0.426,0.888,0.729c0.238,0.304,0.419,0.652,0.543,1.045c0.124,0.394,0.192,0.801,0.205,1.223V62.099z"/>
	<path d="M79.096,61.244c0.115-0.489,0.299-0.923,0.554-1.301c0.254-0.378,0.58-0.679,0.98-0.901
		c0.399-0.224,0.887-0.335,1.463-0.335c0.378,0,0.732,0.061,1.064,0.182c0.331,0.12,0.622,0.296,0.873,0.524
		c0.251,0.229,0.452,0.505,0.604,0.827c0.151,0.322,0.24,0.688,0.265,1.097h1.068c-0.024-0.545-0.139-1.039-0.344-1.482
		c-0.204-0.442-0.479-0.819-0.822-1.129s-0.746-0.548-1.208-0.716c-0.462-0.167-0.962-0.25-1.501-0.25c-0.7,0-1.317,0.13-1.854,0.39
		c-0.536,0.261-0.983,0.615-1.343,1.064s-0.631,0.979-0.813,1.589s-0.274,1.269-0.274,1.975v0.391c0,0.706,0.092,1.364,0.274,1.975
		s0.455,1.142,0.818,1.594c0.362,0.452,0.81,0.807,1.343,1.063c0.532,0.258,1.152,0.386,1.858,0.386
		c0.508,0,0.991-0.082,1.449-0.246c0.459-0.164,0.863-0.392,1.213-0.683s0.632-0.639,0.846-1.041s0.333-0.843,0.357-1.319h-1.068
		c-0.024,0.384-0.119,0.722-0.283,1.013s-0.373,0.536-0.627,0.734c-0.255,0.198-0.544,0.349-0.869,0.45
		c-0.325,0.103-0.665,0.153-1.018,0.153c-0.576,0-1.067-0.111-1.473-0.334c-0.406-0.224-0.734-0.522-0.985-0.897
		c-0.251-0.374-0.434-0.809-0.549-1.301c-0.114-0.492-0.172-1.008-0.172-1.547v-0.391C78.924,62.245,78.981,61.733,79.096,61.244z"
		/>
	<path d="M91.711,67.178c-0.155,0.021-0.316,0.032-0.483,0.032c-0.174,0-0.339-0.02-0.497-0.061c-0.158-0.04-0.297-0.12-0.418-0.241
		s-0.217-0.288-0.288-0.502s-0.107-0.497-0.107-0.851v-6.7h2.082v-0.91h-2.082v-2.574h-1.114v2.574h-1.85v0.91h1.85v6.7
		c0,0.502,0.054,0.922,0.162,1.26s0.259,0.608,0.451,0.813c0.191,0.205,0.423,0.349,0.691,0.433c0.27,0.083,0.563,0.125,0.879,0.125
		c0.217,0,0.435-0.014,0.655-0.042c0.22-0.027,0.397-0.066,0.534-0.115l-0.047-0.911C92.005,67.136,91.865,67.156,91.711,67.178z"/>
	<path d="M101.449,59.195c-0.391-0.449-0.862-0.801-1.417-1.055s-1.176-0.381-1.863-0.381c-0.675,0-1.289,0.127-1.84,0.381
		c-0.552,0.254-1.022,0.605-1.412,1.055c-0.391,0.449-0.692,0.983-0.906,1.603c-0.214,0.62-0.321,1.295-0.321,2.026v0.307
		c0,0.73,0.107,1.406,0.321,2.025c0.214,0.62,0.517,1.154,0.91,1.604s0.866,0.799,1.417,1.05c0.552,0.251,1.168,0.376,1.85,0.376
		s1.298-0.125,1.85-0.376c0.551-0.251,1.021-0.601,1.412-1.05s0.69-0.983,0.901-1.604c0.211-0.619,0.316-1.295,0.316-2.025v-0.307
		c0-0.731-0.105-1.406-0.316-2.026C102.14,60.179,101.84,59.645,101.449,59.195z M101.561,63.131c0,0.551-0.074,1.076-0.223,1.575
		c-0.148,0.498-0.365,0.936-0.65,1.31c-0.285,0.375-0.637,0.674-1.055,0.897c-0.418,0.223-0.9,0.334-1.445,0.334
		s-1.028-0.111-1.449-0.334c-0.422-0.224-0.774-0.522-1.06-0.897c-0.285-0.374-0.502-0.812-0.65-1.31
		c-0.149-0.499-0.224-1.024-0.224-1.575v-0.307c0-0.539,0.074-1.058,0.224-1.557c0.148-0.499,0.365-0.938,0.65-1.315
		s0.637-0.68,1.055-0.906c0.418-0.226,0.896-0.339,1.436-0.339c0.545,0,1.03,0.113,1.454,0.339c0.425,0.227,0.779,0.528,1.064,0.906
		s0.502,0.816,0.65,1.315s0.223,1.018,0.223,1.557V63.131z"/>
	<path d="M109.32,57.797c-0.143-0.025-0.281-0.037-0.418-0.037c-0.682,0-1.256,0.159-1.724,0.479
		c-0.468,0.318-0.838,0.754-1.11,1.306l-0.019-1.599h-1.088V68h1.106v-6.904c0.093-0.335,0.218-0.64,0.376-0.916
		c0.158-0.275,0.354-0.514,0.586-0.715s0.5-0.358,0.804-0.47s0.645-0.167,1.022-0.167c0.266,0,0.517,0.021,0.752,0.064l0.028-1.013
		C109.568,57.85,109.463,57.821,109.32,57.797z"/>
</g>
</svg>
