<svg version="1.1" id="Layer_1" xmlns="http://www.w3.org/2000/svg" xmlns:xlink="http://www.w3.org/1999/xlink" x="0px" y="0px"
	 width="86.125px" height="46px" viewBox="33.875 18.75 86.125 46" enable-background="new 33.875 18.75 86.125 46"
	 xml:space="preserve">
<g>
	<polygon points="119,33.75 119,32.75 117,32.75 117,31.75 118,31.75 118,29.75 116,29.75 116,28.75 118,28.75 118,27.75 116,27.75
		116,26.75 118,26.75 118,25.75 116,25.75 116,24.75 118,24.75 118,23.75 118,21.75 117,21.75 117,20.75 116,20.75 116,18.75
		115,18.75 115,20.75 108,20.75 108,21.75 107,21.75 107,23.75 109,23.75 109,24.75 107,24.75 107,25.75 109,25.75 109,26.75
		107,26.75 107,27.75 109,27.75 109,28.75 107,28.75 107,31.75 108,31.75 108,32.75 106,32.75 106,33.75 105,33.75 105,37.75
		106,37.75 106,38.75 108,38.75 108,44.75 110,44.75 110,45.75 109,45.75 109,53.75 111,53.75 111,54.75 110,54.75 110,59.75
		111,59.75 112,59.75 112,64.75 113,64.75 113,59.75 114,59.75 115,59.75 115,54.75 114,54.75 114,53.75 116,53.75 116,45.75
		115,45.75 115,44.75 117,44.75 117,38.75 119,38.75 119,37.75 120,37.75 120,33.75 	"/>
	<path d="M47.2114258,29.0668945c0.5097656-0.4101563,1.1445313-0.7304688,1.9047852-0.9609375
		c0.7602539-0.2285156,1.6401367-0.3447266,2.640625-0.3447266c1.0205078,0,1.9052734,0.1396484,2.6552734,0.4208984
		c0.75,0.2792969,1.3798828,0.6640625,1.8896484,1.1542969c0.5107422,0.4902344,0.8896484,1.269043,1.1396484,1.9594727
		s0.375,1.4541016,0.375,2.4541016h10.5019531c0-2-0.4052734-4.1142578-1.2148438-5.7851563
		c-0.8105469-1.6699219-1.9355469-3.1879883-3.3759766-4.3696289c-1.4404297-1.1796875-3.1611328-2.137207-5.1611328-2.7768555
		s-4.1894531-0.9838867-6.5693359-0.9838867c-2.4208984,0-4.6557617,0.2783203-6.7060547,0.8574219
		c-2.050293,0.5810547-3.8251953,1.3945313-5.3251953,2.4550781s-2.6704102,2.3427734-3.5102539,3.8525391
		c-0.840332,1.5097656-1.2602539,3.2036133-1.2602539,5.0834961c0,1.9599609,0.4150391,3.6738281,1.2451172,5.1445313
		c0.8295898,1.4707031,1.9350586,2.7558594,3.3154297,3.8554688c1.3798828,1.1005859,2.9599609,2.0507813,4.7402344,2.8496094
		c1.7797852,0.8007813,3.6303711,1.5195313,5.550293,2.1601563c1.6401367,0.5410156,2.965332,1.0507813,3.9750977,1.5292969
		c1.0097656,0.4804688,1.7949219,0.9667969,2.3554688,1.4550781c0.5595703,0.4921875,0.9345703,1.0117188,1.125,1.5605469
		c0.1894531,0.5507813,0.2851563,1.1660156,0.2851563,1.8457031c0,0.5800781-0.1054688,1.1308594-0.3144531,1.6503906
		c-0.2109375,0.5195313-0.5458984,0.9746094-1.0058594,1.3652344c-0.4599609,0.3886719-1.0449219,0.6992188-1.7548828,0.9296875
		s-1.5654297,0.3457031-2.5654297,0.3457031c-1.2402344,0-2.3354492-0.1152344-3.2851563-0.3457031
		c-0.9501953-0.2304688-1.7548828-0.6152344-2.4150391-1.1542969c-0.6601563-0.5410156-1.1601563-1.3369141-1.5-2.2070313
		C44.605957,52.1972656,44.4360352,50.75,44.4360352,49.75H33.875c0,2,0.2451172,3.3720703,0.7353516,4.7724609
		c0.4897461,1.4003906,1.159668,2.6953125,2.0102539,3.7949219c0.8496094,1.1015625,1.8598633,2.0683594,3.0302734,2.8583984
		c1.1699219,0.7910156,2.4301758,1.4570313,3.7802734,1.9775391c1.3500977,0.5195313,2.7646484,0.9101563,4.2451172,1.1601563
		c1.4799805,0.25,2.9702148,0.3769531,4.4702148,0.3769531c2.4404297,0,4.6552734-0.2675781,6.6455078-0.8076172
		s3.6904297-1.3291016,5.1005859-2.3681641c1.4101563-1.0410156,2.5-2.3261719,3.2695313-3.8554688
		c0.7705078-1.53125,1.15625-3.2753906,1.15625-5.2363281c0-1.8398438-0.3261719-3.4902344-0.9755859-4.9492188
		c-0.6503906-1.4609375-1.6005859-2.7714844-2.8505859-3.9316406s-2.7851563-2.1899414-4.6054688-3.0893555
		c-1.8203125-0.9003906-3.890625-1.7197266-6.2099609-2.4599609c-1.2402344-0.4003906-2.3549805-0.8046875-3.3452148-1.2148438
		s-1.8300781-0.8505859-2.5200195-1.3203125c-0.6904297-0.4707031-1.2207031-0.9707031-1.590332-1.5
		c-0.3701172-0.5302734-0.5551758-1.125-0.5551758-1.7851563c0-0.6005859,0.1298828-1.1660156,0.3901367-1.6953125
		C46.315918,29.9467773,46.7011719,29.4770508,47.2114258,29.0668945z"/>
	<polygon points="73,63.75 83,63.75 83,46.75 100,46.75 100,38.75 83,38.75 83,28.75 102,28.75 102,20.75 73,20.75 	"/>
</g>
</svg>
