<?xml version="1.0" encoding="utf-8"?>
<!-- Generator: Adobe Illustrator 16.0.0, SVG Export Plug-In . SVG Version: 6.00 Build 0)  -->
<!DOCTYPE svg PUBLIC "-//W3C//DTD SVG 1.1//EN" "http://www.w3.org/Graphics/SVG/1.1/DTD/svg11.dtd">
<svg version="1.1" id="Layer_1" xmlns="http://www.w3.org/2000/svg" xmlns:xlink="http://www.w3.org/1999/xlink" x="0px" y="0px"
	 width="373px" height="188.49px" viewBox="0 0 373 188.49" enable-background="new 0 0 373 188.49" xml:space="preserve">
<g>
	<path d="M117.028,29.161c-7.356-7.6-16.129-13.59-26.319-17.782C80.517,7.189,69.339,5,57.179,5H0v180h57.671
		c11.999,0,23.053-2.26,33.161-6.449c10.108-4.193,18.839-10.147,26.196-17.711c7.354-7.56,12.393-16.642,16.503-27.162
		C137.64,123.159,139,111.491,139,98.751v-7.52c0-12.654-1.36-24.265-5.469-34.825C129.42,45.846,124.382,36.764,117.028,29.161z
		 M98,98.751c0,17.425-4.201,30.857-10.855,39.692C80.485,147.278,70.08,152,57.671,152H41V38h16.179
		c12.736,0,23.307,4.695,29.966,13.488C93.799,60.283,98,73.646,98,90.984V98.751z"/>
	<path d="M285.236,22.444c-5.999-5.426-13.313-9.75-21.943-12.791C254.664,6.615,244.967,5,234.201,5H163v180h41v-61h30.201
		c10.766,0,20.463-1.487,29.092-4.241c8.63-2.754,15.944-6.714,21.943-11.767c5.998-5.054,10.603-11.144,13.807-18.213
		c3.205-7.065,4.808-14.971,4.808-23.684c0-8.793-1.603-16.912-4.808-24.353C295.839,34.307,291.234,27.868,285.236,22.444z
		 M258.485,75.945c-0.986,2.958-2.526,5.507-4.622,7.643c-2.097,2.139-4.769,4.117-8.012,5.309C242.604,90.088,238.72,91,234.201,91
		H204V38h30.201c4.519,0,8.402,1.057,11.65,2.577c3.243,1.522,5.915,3.706,8.012,6.252c2.096,2.546,3.636,5.559,4.622,8.886
		c0.986,3.33,1.48,6.878,1.48,10.576C259.966,69.744,259.472,72.986,258.485,75.945z"/>
	<path d="M368,54h-1v-1.301c0.007-0.066,0.017-0.131,0.017-0.199s-0.01-0.133-0.017-0.199V52v-2v-3c0-1.104-0.896-2-2-2h-1h-0.14
		h-1.48c-0.088,0-0.174-0.01-0.255-0.029c-0.577-0.138-1.012-0.731-1.012-1.471s0.435-1.333,1.012-1.471
		c0.081-0.02,0.167-0.029,0.255-0.029h1.679h0.001h0.005h0.001h1.685h0.001h0.001h0.001c0.523,0,0.974-0.368,1.164-0.908
		c0.064-0.181,0.1-0.381,0.1-0.592s0.009-0.411-0.056-0.592C366.96,39.905,367,39.903,367,39.9c0-0.001,0-0.002,0-0.003
		c0-0.04-0.084-0.073-0.102-0.111c-0.04-0.087-0.1-0.177-0.152-0.252c-0.031-0.046-0.086-0.078-0.122-0.119
		c-0.052-0.058-0.104-0.12-0.163-0.166c-0.039-0.03-0.089-0.046-0.131-0.071c-0.066-0.041-0.131-0.086-0.204-0.112
		c-0.086-0.031-0.179-0.039-0.271-0.048C365.82,39.015,365.788,39,365.753,39h-0.001h-0.001h-0.001h-1.685h-0.001h-0.005h-0.001
		h-1.679c-0.004,0-0.007-0.001-0.01-0.001c-0.087-0.001-0.17-0.022-0.249-0.041c-0.283-0.067-0.531-0.247-0.713-0.499
		c-0.007-0.01-0.014-0.02-0.021-0.029c-0.078-0.115-0.14-0.246-0.188-0.387c-0.012-0.037-0.02-0.075-0.029-0.113
		c-0.027-0.106-0.042-0.219-0.05-0.334c-0.002-0.032-0.008-0.063-0.008-0.096c0-0.061,0.009-0.116,0.015-0.174
		c0.007-0.072,0.017-0.143,0.031-0.212c0.026-0.12,0.065-0.231,0.114-0.337c0.022-0.049,0.043-0.098,0.07-0.143
		c0.038-0.065,0.08-0.126,0.127-0.182c0.057-0.068,0.117-0.131,0.185-0.186c0.051-0.041,0.105-0.075,0.162-0.107
		c0.065-0.039,0.134-0.069,0.206-0.094c0.113-0.039,0.231-0.066,0.356-0.066h1.474h0.205h0.007h1.479h0.205h0.003
		c0.697,0,1.264-0.654,1.264-1.5s-0.566-1.5-1.264-1.5h-0.003h-0.205h-1.479h-0.007h-0.205h-1.268c-0.699,0-1.265-0.655-1.265-1.5
		s0.565-1.5,1.265-1.5h1.274h0.199h0.005h1.482h0.204h0.001c0.03,0,0.059-0.008,0.088-0.01c0.657-0.055,1.177-0.682,1.177-1.49
		c0-0.809-0.52-1.436-1.177-1.49c-0.029-0.002-0.058-0.01-0.088-0.01h-0.001h-0.204h-1.482h-0.005h-0.199h-1.48
		c-0.088,0-0.174-0.01-0.255-0.03c-0.141-0.033-0.271-0.096-0.391-0.179c-0.006-0.003-0.011-0.006-0.016-0.01
		c-0.362-0.26-0.605-0.73-0.605-1.282s0.243-1.021,0.605-1.282c0.005-0.003,0.01-0.006,0.016-0.01
		c0.119-0.083,0.25-0.146,0.391-0.179c0.081-0.02,0.167-0.03,0.255-0.03h1.679h0.001h0.005h0.001h1.685h0.001h0.001h0.001
		c0.523,0,0.974-0.368,1.164-0.909c0.064-0.18,0.1-0.38,0.1-0.591s-0.035-0.411-0.1-0.591c-0.19-0.541-0.641-0.909-1.164-0.909
		h-0.001h-0.001h-0.001h-1.685h-0.001h-0.005h-0.001h-1.679h-0.003c-0.089,0-0.175-0.008-0.256-0.028
		c-0.578-0.137-1.017-0.731-1.017-1.47c0-0.737,0.438-1.331,1.017-1.468c0.081-0.02,0.167-0.034,0.256-0.034H363h2
		c1.104,0,2-0.896,2-2v-2.982v-1.996V10.72c0-0.066,0.015-0.13,0.015-0.199S367,10.389,367,10.323V10V8.025
		C367,6.371,365.655,5,363.993,5H360V1c0-0.552-0.447-1-1-1s-1,0.448-1,1v4h-25.996c-1.066,0-1.995,0.575-2.525,1.413
		c-0.215,0.236-0.359,0.569-0.393,0.94C329.035,7.566,329,7.795,329,8.025v2.996V13v0.018V16v3c0,1.104,0.896,2,2,2h2.704
		c0.106,0,0.208,0.02,0.308,0.049c0.128,0.037,0.248,0.097,0.357,0.176c0.008,0.006,0.017,0.01,0.024,0.016
		c0.101,0.076,0.188,0.173,0.266,0.279c0.021,0.027,0.04,0.054,0.058,0.083c0.066,0.104,0.121,0.218,0.162,0.341
		c0.015,0.042,0.023,0.088,0.035,0.132c0.026,0.107,0.043,0.22,0.049,0.337c0.001,0.029,0.007,0.057,0.007,0.087
		c0,0.845-0.566,1.5-1.266,1.5h-1.681h-0.004h-0.002H332h-1.661h-0.007h-0.002c-0.004,0-0.008,0.002-0.012,0.002
		c-0.129,0.002-0.252,0.032-0.369,0.076c-0.027,0.01-0.054,0.017-0.08,0.029c-0.105,0.049-0.201,0.116-0.29,0.195
		c-0.032,0.028-0.063,0.057-0.093,0.089c-0.077,0.083-0.146,0.175-0.205,0.279c-0.024,0.044-0.043,0.092-0.063,0.14
		c-0.038,0.087-0.067,0.179-0.091,0.275c-0.009,0.038-0.028,0.068-0.035,0.107c-0.018,0.099-0.025,0.202-0.025,0.307
		s0.008,0.208,0.025,0.307c0.007,0.039,0.026,0.069,0.035,0.107c0.023,0.097,0.053,0.188,0.091,0.275
		c0.021,0.048,0.039,0.096,0.063,0.14c0.059,0.104,0.128,0.196,0.205,0.279c0.03,0.032,0.061,0.061,0.093,0.089
		c0.089,0.079,0.185,0.146,0.29,0.195c0.025,0.012,0.053,0.019,0.08,0.029c0.117,0.044,0.24,0.073,0.369,0.076
		c0.004,0,0.008,0.002,0.012,0.002h0.002h0.007h1.679h0.002h0.004h1.474c0.699,0,1.267,0.655,1.267,1.5s-0.567,1.5-1.267,1.5h-1.269
		h-0.004h-0.201h-0.004h-1.475h-0.008h-0.198h-0.007c-0.699,0-1.266,0.654-1.266,1.5s0.566,1.5,1.266,1.5h0.007h0.198h0.008h1.475
		h0.004h0.201h0.004h1.273c0.701,0,1.266,0.655,1.266,1.5c0,0.843-0.564,1.5-1.266,1.5h-1.479h-0.002h-0.002h-1.681h-0.001h-0.006
		c-0.14,0-0.271,0.032-0.396,0.08c-0.018,0.007-0.034,0.012-0.051,0.019c-0.117,0.052-0.226,0.125-0.324,0.214
		c-0.018,0.016-0.033,0.031-0.049,0.048c-0.097,0.097-0.182,0.209-0.249,0.337c-0.005,0.008-0.007,0.017-0.012,0.025
		c-0.114,0.225-0.185,0.488-0.185,0.777c0,0.66,0.347,1.198,0.83,1.405c0.006,0.003,0.013,0.005,0.02,0.007
		c0.131,0.053,0.27,0.088,0.416,0.088h0.006h0.001h1.681h0.002h0.002h1.681c0.699,0,1.266,0.655,1.266,1.5s-0.566,1.5-1.266,1.5
		h-0.981H331c-1.104,0-2,0.896-2,2v4v2v2v2h-1c-2.762,0-5,2.238-5,5v6v1v6v1v6c0,2.762,2.238,5,5,5h1v18h6v4h-3v16h7v4h-3v39h8v19
		h-0.025l4.012,4.49l3.988-4.49H352v-19h8v-39h-3v-4h7v-16h-3v-4h6V84h1c2.762,0,5-2.238,5-5v-6v-1v-6v-1v-6
		C373,56.238,370.762,54,368,54z"/>
</g>
</svg>
