<?xml version="1.0" encoding="utf-8"?>
<!-- Generator: Adobe Illustrator 16.0.0, SVG Export Plug-In . SVG Version: 6.00 Build 0)  -->
<!DOCTYPE svg PUBLIC "-//W3C//DTD SVG 1.1//EN" "http://www.w3.org/Graphics/SVG/1.1/DTD/svg11.dtd">
<svg version="1.1" id="Layer_1" xmlns="http://www.w3.org/2000/svg" xmlns:xlink="http://www.w3.org/1999/xlink" x="0px" y="0px"
	 width="105px" height="54.389px" viewBox="25 14.059 105 54.389" enable-background="new 25 14.059 105 54.389"
	 xml:space="preserve">
<path fill="#EBCE06" d="M77.5,14.059c-28.995,0-52.5,12.176-52.5,27.194c0,15.02,23.505,27.194,52.5,27.194
	c28.996,0,52.5-12.175,52.5-27.194C130,26.234,106.496,14.059,77.5,14.059z M53.421,35.495c0.279,0.4,0.68,0.778,1.201,1.133
	c0.521,0.355,1.156,0.688,1.904,0.997c0.748,0.31,1.59,0.615,2.527,0.918c1.752,0.559,3.316,1.178,4.691,1.858
	c1.375,0.679,2.535,1.456,3.479,2.333c0.944,0.876,1.662,1.866,2.153,2.97c0.49,1.103,0.737,2.349,0.737,3.738
	c0,1.481-0.292,2.799-0.874,3.956c-0.581,1.155-1.404,2.126-2.47,2.912c-1.065,0.785-2.35,1.381-3.853,1.789s-3.176,0.61-5.02,0.61
	c-1.133,0-2.259-0.096-3.376-0.285c-1.118-0.188-2.187-0.483-3.207-0.876c-1.021-0.394-1.972-0.896-2.855-1.494
	c-0.885-0.597-1.647-1.327-2.289-2.159c-0.643-0.831-1.149-1.809-1.519-2.867c-0.371-1.058-0.556-2.094-0.556-3.604h7.978
	c0,0.755,0.128,1.849,0.385,2.506s0.634,1.259,1.133,1.667c0.499,0.407,1.106,0.698,1.824,0.872s1.545,0.261,2.481,0.261
	c0.755,0,1.402-0.087,1.938-0.261s0.978-0.408,1.326-0.702c0.348-0.295,0.601-0.639,0.76-1.031c0.158-0.393,0.238-0.809,0.238-1.247
	c0-0.513-0.073-0.978-0.216-1.394c-0.144-0.415-0.427-0.808-0.85-1.18c-0.423-0.368-1.017-0.735-1.779-1.099
	c-0.763-0.361-1.764-0.747-3.002-1.155c-1.45-0.484-2.848-1.027-4.193-1.632c-1.345-0.604-2.539-1.321-3.581-2.151
	c-1.042-0.831-1.877-1.802-2.504-2.913s-0.94-2.406-0.94-3.886c0-1.42,0.317-2.699,0.952-3.84s1.519-2.109,2.651-2.91
	c1.133-0.801,2.474-1.416,4.022-1.854c1.549-0.438,3.237-0.648,5.066-0.648c1.798,0,3.452,0.26,4.962,0.743
	c1.511,0.483,2.811,1.207,3.899,2.098c1.088,0.893,1.938,2.04,2.55,3.301c0.611,1.262,0.917,2.859,0.917,4.37H62.18
	c0-0.755-0.095-1.332-0.283-1.854c-0.189-0.522-0.475-1.11-0.861-1.48c-0.385-0.37-0.861-0.661-1.428-0.872
	c-0.566-0.212-1.235-0.318-2.006-0.318c-0.755,0-1.42,0.088-1.995,0.261c-0.574,0.174-1.053,0.416-1.438,0.726
	c-0.386,0.31-0.676,0.665-0.873,1.065c-0.197,0.4-0.295,0.827-0.295,1.281C53.001,34.646,53.142,35.095,53.421,35.495z
	 M96.402,31.562H82.05v7.554h12.842v6.042H82.05v12.842h-7.554v-32.48h21.906V31.562z M110.905,37.604h-0.755v0.755h-1.511v4.532
	h-1.511v0.755h0.755v6.043h-1.511v0.756h0.756v3.777h-0.756h-0.755v3.776h-0.756v-3.776h-0.755h-0.756v-3.777h0.756v-0.756h-1.511
	v-6.043h0.755v-0.755h-1.511V38.36h-1.511v-0.755h-0.756v-3.021h0.756v-0.755h1.511v-0.755h-0.755v-2.266h1.511v-0.755h-1.511
	v-0.755h1.511V28.54h-1.511v-0.755h1.511v-0.755h-1.511v-1.511h0.755v-0.755h5.288v-1.511h0.755v1.511h0.756v0.755h0.755v1.511
	v0.755h-1.511v0.755h1.511v0.755h-1.511v0.755h1.511v0.755h-1.511v0.755h1.511v1.511h-0.755v0.755h1.511v0.755h0.755V37.604z"/>
</svg>
