
<svg version="1.1" id="Layer_1" xmlns="http://www.w3.org/2000/svg" xmlns:xlink="http://www.w3.org/1999/xlink" x="0px" y="0px"
	 width="352.9038086px" height="188.4902344px" viewBox="0 0 352.9038086 188.4902344"
	 enable-background="new 0 0 352.9038086 188.4902344" xml:space="preserve">
<g fill="#fff">
	<path d="M347.9038086,54h-1v-1.3007813c0.0068359-0.0664063,0.0166016-0.1308594,0.0166016-0.1992188
		s-0.0097656-0.1328125-0.0166016-0.1992188V52v-2v-3c0-1.1044922-0.8955078-2-2-2h-1h-0.1396484h-1.4804688
		c-0.0878906,0-0.1738281-0.0097656-0.2548828-0.0292969c-0.5771484-0.1376953-1.0117188-0.7314453-1.0117188-1.4707031
		s0.4345703-1.3330078,1.0117188-1.4707031C342.1098633,42.0097656,342.1958008,42,342.2836914,42h1.6787109h0.0009766h0.0048828
		h0.0009766h1.6845703h0.0009766h0.0009766h0.0009766c0.5234375,0,0.9736328-0.3681641,1.1640625-0.9082031
		c0.0644531-0.1806641,0.0996094-0.3808594,0.0996094-0.5917969s0.0087891-0.4111328-0.0556641-0.5917969
		c-0.0009766-0.0029297,0.0390625-0.0048828,0.0390625-0.0078125c0-0.0009766,0-0.0019531,0-0.0029297
		c0-0.0400391-0.0839844-0.0732422-0.1015625-0.1113281c-0.0400391-0.0869141-0.0996094-0.1767578-0.1523438-0.2519531
		c-0.03125-0.0458984-0.0859375-0.078125-0.1220703-0.1191406c-0.0517578-0.0576172-0.1035156-0.1201172-0.1630859-0.1660156
		c-0.0390625-0.0302734-0.0888672-0.0458984-0.1308594-0.0712891c-0.0664063-0.0410156-0.1308594-0.0859375-0.2041016-0.1123047
		c-0.0859375-0.03125-0.1787109-0.0390625-0.2714844-0.0478516C345.7241211,39.0146484,345.6918945,39,345.6567383,39h-0.0009766
		h-0.0009766h-0.0009766h-1.6845703h-0.0009766h-0.0048828h-0.0009766h-1.6787109
		c-0.0039063,0-0.0068359-0.0009766-0.0097656-0.0009766c-0.0869141-0.0009766-0.1699219-0.0224609-0.2490234-0.0410156
		c-0.2832031-0.0673828-0.53125-0.2470703-0.7128906-0.4990234c-0.0068359-0.0097656-0.0136719-0.0195313-0.0205078-0.0292969
		c-0.078125-0.1152344-0.1396484-0.2460938-0.1875-0.3867188c-0.0117188-0.0371094-0.0195313-0.0751953-0.0292969-0.1132813
		c-0.0273438-0.1064453-0.0419922-0.21875-0.0498047-0.3339844c-0.0019531-0.0322266-0.0078125-0.0625-0.0078125-0.0957031
		c0-0.0605469,0.0087891-0.1162109,0.0146484-0.1738281c0.0068359-0.0722656,0.0166016-0.1425781,0.03125-0.2119141
		c0.0263672-0.1201172,0.0654297-0.2314453,0.1142578-0.3369141c0.0224609-0.0488281,0.0429688-0.0976563,0.0703125-0.1425781
		c0.0380859-0.0654297,0.0800781-0.1259766,0.1269531-0.1816406c0.0566406-0.0683594,0.1171875-0.1308594,0.1845703-0.1855469
		c0.0507813-0.0410156,0.1054688-0.0751953,0.1621094-0.1074219c0.0654297-0.0390625,0.1337891-0.0693359,0.2060547-0.09375
		C342.0405273,36.0273438,342.1586914,36,342.2836914,36h1.4736328h0.2050781h0.0068359h1.4794922h0.2050781h0.0029297
		c0.6972656,0,1.2636719-0.6542969,1.2636719-1.5s-0.5664063-1.5-1.2636719-1.5h-0.0029297h-0.2050781h-1.4794922h-0.0068359
		h-0.2050781h-1.2675781c-0.6992188,0-1.2646484-0.6552734-1.2646484-1.5s0.5654297-1.5,1.2646484-1.5h1.2744141h0.1992188
		h0.0048828h1.4824219h0.2041016h0.0009766c0.0302734,0,0.0585938-0.0078125,0.0878906-0.0097656
		c0.6572266-0.0546875,1.1767578-0.6816406,1.1767578-1.4902344s-0.5195313-1.4355469-1.1767578-1.4902344
		C345.7143555,27.0078125,345.6860352,27,345.6557617,27h-0.0009766h-0.2041016h-1.4824219h-0.0048828h-0.1992188h-1.4804688
		c-0.0878906,0-0.1738281-0.0097656-0.2548828-0.0292969c-0.140625-0.0332031-0.2714844-0.0957031-0.390625-0.1796875
		c-0.0058594-0.0029297-0.0107422-0.0058594-0.015625-0.0097656c-0.3623047-0.2597656-0.6054688-0.7294922-0.6054688-1.28125
		s0.2431641-1.0214844,0.6054688-1.28125c0.0048828-0.0039063,0.0097656-0.0068359,0.015625-0.0097656
		c0.1191406-0.0839844,0.25-0.1464844,0.390625-0.1796875C342.1098633,24.0097656,342.1958008,24,342.2836914,24h1.6787109
		h0.0009766h0.0048828h0.0009766h1.6845703h0.0009766h0.0009766h0.0009766c0.5234375,0,0.9736328-0.3681641,1.1640625-0.9082031
		c0.0644531-0.1806641,0.0996094-0.3808594,0.0996094-0.5917969s-0.0351563-0.4111328-0.0996094-0.5917969
		C346.6303711,21.3681641,346.1801758,21,345.6567383,21h-0.0009766h-0.0009766h-0.0009766h-1.6845703h-0.0009766h-0.0048828
		h-0.0009766h-1.6787109h-0.0029297c-0.0888672,0-0.1748047-0.0078125-0.2558594-0.0273438
		c-0.578125-0.1376953-1.0166016-0.7314453-1.0166016-1.4707031c0-0.7373047,0.4384766-1.3310547,1.0166016-1.4677734
		C342.105957,18.0146484,342.1918945,18,342.2807617,18h0.6230469h2c1.1044922,0,2-0.8955078,2-2v-2.9824219v-1.9960938v-0.3007813
		c0-0.0664063,0.0146484-0.1308594,0.0146484-0.1992188s-0.0146484-0.1328125-0.0146484-0.1992188V10V8.0253906
		C346.9038086,6.3710938,345.559082,5,343.8969727,5h-3.9931641V1c0-0.5527344-0.4472656-1-1-1s-1,0.4472656-1,1v4h-25.9960938
		c-1.0664063,0-1.9951172,0.5751953-2.5253906,1.4121094c-0.2148438,0.2363281-0.359375,0.5693359-0.3925781,0.9404297
		c-0.0507813,0.2138672-0.0859375,0.4423828-0.0859375,0.6728516v2.9960938V13v0.0175781V16v3c0,1.1044922,0.8955078,2,2,2
		h2.7041016c0.1064453,0,0.2080078,0.0195313,0.3076172,0.0488281c0.1279297,0.0371094,0.2480469,0.0976563,0.3574219,0.1757813
		c0.0078125,0.0058594,0.0166016,0.0097656,0.0244141,0.015625c0.1005859,0.0761719,0.1875,0.1738281,0.265625,0.2792969
		c0.0205078,0.0273438,0.0400391,0.0537109,0.0576172,0.0820313c0.0664063,0.1044922,0.1210938,0.21875,0.1621094,0.3417969
		c0.0146484,0.0429688,0.0234375,0.0878906,0.0351563,0.1328125c0.0263672,0.1074219,0.0429688,0.21875,0.0488281,0.3359375
		c0.0009766,0.0292969,0.0068359,0.0576172,0.0068359,0.0878906c0,0.8447266-0.5664063,1.5-1.265625,1.5h-1.6806641h-0.0039063
		h-0.0019531h-0.0175781h-1.6611328h-0.0068359h-0.0019531c-0.0039063,0-0.0078125,0.0019531-0.0117188,0.0019531
		c-0.1289063,0.0029297-0.2519531,0.0322266-0.3691406,0.0761719c-0.0273438,0.0097656-0.0537109,0.0166016-0.0800781,0.0292969
		c-0.1054688,0.0488281-0.2011719,0.1152344-0.2900391,0.1943359c-0.0322266,0.0283203-0.0625,0.0576172-0.0927734,0.0888672
		c-0.0771484,0.0839844-0.1464844,0.1757813-0.2050781,0.2792969c-0.0244141,0.0449219-0.0429688,0.0927734-0.0634766,0.140625
		c-0.0380859,0.0869141-0.0673828,0.1787109-0.0908203,0.2753906c-0.0087891,0.0371094-0.0283203,0.0683594-0.0351563,0.1074219
		c-0.0175781,0.0976563-0.0253906,0.2011719-0.0253906,0.3066406s0.0078125,0.2089844,0.0253906,0.3066406
		c0.0068359,0.0390625,0.0263672,0.0703125,0.0351563,0.1074219c0.0234375,0.0966797,0.0527344,0.1884766,0.0908203,0.2753906
		c0.0205078,0.0478516,0.0390625,0.0957031,0.0634766,0.140625c0.0585938,0.1035156,0.1279297,0.1953125,0.2050781,0.2792969
		c0.0302734,0.03125,0.0605469,0.0605469,0.0927734,0.0888672c0.0888672,0.0791016,0.1845703,0.1455078,0.2900391,0.1943359
		c0.0253906,0.0126953,0.0527344,0.0195313,0.0800781,0.0292969c0.1171875,0.0439453,0.2402344,0.0732422,0.3691406,0.0761719
		c0.0039063,0,0.0078125,0.0019531,0.0117188,0.0019531h0.0019531h0.0068359h1.6787109h0.0019531h0.0039063h1.4736328
		c0.6992188,0,1.2666016,0.6552734,1.2666016,1.5s-0.5673828,1.5-1.2666016,1.5h-1.2685547h-0.0039063h-0.2011719h-0.0039063
		h-1.4746094h-0.0078125h-0.1982422h-0.0068359c-0.6992188,0-1.265625,0.6542969-1.265625,1.5s0.5664063,1.5,1.265625,1.5h0.0068359
		h0.1982422h0.0078125h1.4746094h0.0039063h0.2011719h0.0039063h1.2734375c0.7011719,0,1.265625,0.6552734,1.265625,1.5
		c0,0.8427734-0.5644531,1.5-1.265625,1.5h-1.4785156h-0.0019531h-0.0019531h-1.6806641h-0.0009766h-0.0058594
		c-0.1396484,0-0.2714844,0.0322266-0.3964844,0.0800781c-0.0175781,0.0068359-0.0341797,0.0117188-0.0507813,0.0185547
		c-0.1171875,0.0517578-0.2255859,0.125-0.3242188,0.2138672c-0.0175781,0.015625-0.0332031,0.03125-0.0488281,0.0478516
		c-0.0966797,0.0966797-0.1816406,0.2089844-0.2490234,0.3369141c-0.0048828,0.0078125-0.0068359,0.0166016-0.0117188,0.0253906
		c-0.1142578,0.2246094-0.1845703,0.4882813-0.1845703,0.7773438c0,0.6601563,0.3466797,1.1982422,0.8300781,1.4052734
		c0.0058594,0.0029297,0.0126953,0.0048828,0.0195313,0.0068359C309.9506836,38.9648438,310.0893555,39,310.2358398,39h0.0058594
		h0.0009766h1.6806641h0.0019531h0.0019531h1.6806641c0.6992188,0,1.265625,0.6552734,1.265625,1.5s-0.5664063,1.5-1.265625,1.5
		h-0.9814453h-1.7226563c-1.1044922,0-2,0.8955078-2,2v4v2v2v2h-1c-2.7617188,0-5,2.2382813-5,5v6v1v6v1v6
		c0,2.7617188,2.2382813,5,5,5h1v18h6v4h-3v16h7v4h-3v39h8v19h-0.0253906l4.0117188,4.4902344L331.878418,184h0.0253906v-19h8v-39
		h-3v-4h7v-16h-3v-4h6V84h1c2.7617188,0,5-2.2382813,5-5v-6v-1v-6v-1v-6C352.9038086,56.2382813,350.6655273,54,347.9038086,54z"/>
	<path d="M54.8027344,40.8173828c2.0947266-1.6855469,4.703125-3.0009766,7.8271484-3.9482422
		c3.1240234-0.9394531,6.7397461-1.4169922,10.8510742-1.4169922c4.1914063,0,7.8271484,0.5732422,10.9091797,1.7294922
		c3.0839844,1.1484375,5.6723633,2.7285156,7.7670898,4.7431641c2.0966797,2.0146484,3.6577148,4.6855469,4.6850586,7.5224609
		S98.3833008,55,98.3833008,59h43.1513672c0-9-1.6635742-16.3740234-4.9921875-23.2412109
		c-3.3286133-6.8613281-7.9536133-12.8364258-13.8710938-17.6918945
		c-5.9165039-4.8476563-12.9873047-8.6499023-21.2060547-11.2788086c-8.21875-2.6269531-17.2197266-3.9741211-26.9990234-3.9741211
		c-9.9462891,0-19.1298828,1.1762695-27.5546875,3.5551758c-8.4257813,2.3886719-15.7192383,5.7480469-21.8828125,10.1054688
		c-6.1640625,4.3574219-10.9731445,9.6347656-14.4248047,15.8388672C7.1508789,38.5175781,5.425293,45.4824219,5.425293,53.2070313
		c0,8.0546875,1.7060547,15.1005859,5.1166992,21.1435547c3.4091797,6.0429688,7.9516602,11.3237305,13.6235352,15.8432617
		c5.6708984,4.5214844,12.1635742,8.425293,19.4790039,11.7124023c7.3139648,3.2871094,14.9179688,6.2441406,22.8076172,8.8769531
		c6.7397461,2.21875,12.1850586,4.3125,16.3364258,6.2832031c4.1494141,1.9765625,7.3764648,3.9707031,9.6777344,5.9804688
		c2.2993164,2.0175781,3.8398438,4.1542969,4.6230469,6.4121094c0.7802734,2.2636719,1.1713867,4.7871094,1.1713867,7.5820313
		c0,2.3867188-0.4311523,4.6445313-1.2939453,6.78125c-0.862793,2.1386719-2.2412109,4.0078125-4.1313477,5.609375
		s-4.2958984,2.8769531-7.2114258,3.8203125c-2.9194336,0.9472656-6.4326172,1.421875-10.5419922,1.421875
		c-5.0961914,0-9.597168-0.4746094-13.4995117-1.421875c-3.9047852-0.9433594-7.2114258-2.5253906-9.9238281-4.7441406
		c-2.7128906-2.21875-4.7675781-4.8964844-6.1640625-8.4726563C44.0961914,136.4609375,43.3979492,132,43.3979492,127H0
		c0,7,1.0073242,13.2597656,3.0219727,19.015625c2.012207,5.7539063,4.7651367,10.78125,8.2607422,15.2988281
		c3.4912109,4.5234375,7.6420898,8.3496094,12.4516602,11.5957031c4.8076172,3.25,9.9868164,5.9121094,15.5341797,8.0507813
		c5.5478516,2.1347656,11.3608398,3.7050781,17.4443359,4.7285156c6.0820313,1.0273438,12.2055664,1.5341797,18.3691406,1.5341797
		c10.0283203,0,19.1298828-1.1103516,27.3081055-3.3291016c8.1787109-2.21875,15.1650391-5.4667969,20.9599609-9.7402344
		c5.7944336-4.2753906,10.2729492-9.5556641,13.4370117-15.8447266s4.7475586-13.4560547,4.7475586-21.5146484
		c0-7.5605469-1.3364258-14.3417969-4.0073242-20.3417969c-2.6723633-5.9980469-6.5771484-11.3847656-11.7119141-16.1523438
		c-5.1386719-4.7675781-11.4467773-9-18.9248047-12.6972656c-7.4799805-3.6992188-15.9873047-7.0664063-25.5205078-10.1074219
		c-5.0961914-1.6464844-9.6767578-3.3066406-13.7460938-4.9921875c-4.0688477-1.6855469-7.5200195-3.4960938-10.3554688-5.4257813
		c-2.8369141-1.9335938-5.0161133-3.9892578-6.534668-6.1640625c-1.5209961-2.1787109-2.2817383-4.6230469-2.2817383-7.3359375
		c0-2.4677734,0.5341797-4.7910156,1.6035156-6.9667969C51.1225586,44.4335938,52.7060547,42.5019531,54.8027344,40.8173828z"/>
	<polygon points="163.9038086,185 206.9038086,185 206.9038086,113 276.9038086,113 276.9038086,80 206.9038086,80 206.9038086,39
		283.9038086,39 283.9038086,5 163.9038086,5 	"/>
</g>
</svg>
