<?xml version="1.0" standalone="no"?>
<!DOCTYPE svg PUBLIC "-//W3C//DTD SVG 20010904//EN"
 "http://www.w3.org/TR/2001/REC-SVG-20010904/DTD/svg10.dtd">
<svg version="1.0" xmlns="http://www.w3.org/2000/svg"
 width="700.000000pt" height="700.000000pt" viewBox="0 0 700.000000 700.000000"
 preserveAspectRatio="xMidYMid meet">
<metadata>
Created by potrace 1.11, written by Peter Selinger 2001-2013
</metadata>
<g transform="translate(0.000000,700.000000) scale(0.100000,-0.100000)"
fill="#000000" stroke="none">
<path d="M3269 6806 c-2 -2 -40 -7 -84 -10 -65 -6 -248 -31 -290 -41 -5 -1
-28 -5 -50 -9 -252 -49 -570 -158 -814 -281 -955 -479 -1617 -1373 -1790
-2420 -34 -203 -44 -329 -44 -540 0 -125 10 -322 18 -367 2 -9 7 -48 10 -85 4
-37 9 -71 11 -74 2 -3 6 -21 9 -40 5 -29 13 -73 29 -154 55 -274 202 -657 349
-910 373 -644 898 -1113 1587 -1417 178 -79 541 -187 715 -213 22 -3 47 -7 55
-10 8 -2 40 -6 70 -10 30 -3 69 -7 85 -10 190 -26 555 -24 770 5 140 19 160
22 165 25 3 1 25 6 50 9 105 14 438 106 545 151 17 7 62 25 100 40 173 70 394
187 558 297 492 327 870 753 1132 1273 190 376 302 761 343 1180 10 97 9 534
-1 625 -8 76 -10 88 -21 170 -26 181 -107 509 -156 625 -4 11 -23 58 -41 105
-128 334 -345 689 -589 965 -69 77 -276 282 -335 331 -33 27 -62 52 -65 55
-30 34 -305 223 -445 306 -219 129 -622 291 -840 338 -161 34 -217 45 -250 50
-22 4 -51 8 -65 11 -14 2 -45 6 -70 9 -25 3 -61 8 -80 11 -38 7 -565 15 -571
10z"/>
</g>
</svg>
